{
 "cells": [
  {
   "cell_type": "code",
   "execution_count": 2,
   "metadata": {},
   "outputs": [],
   "source": [
    "from mido import MidiFile\n",
    "\n",
    "mid = MidiFile('../midi/all_blues_bl.mid')"
   ]
  },
  {
   "cell_type": "code",
   "execution_count": 3,
   "metadata": {},
   "outputs": [
    {
     "name": "stdout",
     "output_type": "stream",
     "text": [
      "Track 0: All Blues\n",
      "<meta message track_name name='All Blues' time=0>\n",
      "<meta message smpte_offset frame_rate=24 hours=0 minutes=0 seconds=0 frames=0 sub_frames=0 time=0>\n",
      "<meta message set_tempo tempo=461538 time=0>\n",
      "<meta message time_signature numerator=3 denominator=4 clocks_per_click=24 notated_32nd_notes_per_beat=8 time=0>\n",
      "<meta message key_signature key='C' time=0>\n",
      "<meta message set_tempo tempo=461538 time=158395>\n",
      "<meta message end_of_track time=0>\n",
      "Track 1: tk1\n",
      "<meta message track_name name='tk1' time=0>\n",
      "<meta message midi_port port=0 time=0>\n",
      "<meta message channel_prefix channel=0 time=0>\n",
      "control_change channel=0 control=7 value=100 time=0\n",
      "control_change channel=0 control=10 value=64 time=0\n",
      "control_change channel=0 control=0 value=0 time=0\n",
      "control_change channel=0 control=91 value=100 time=0\n",
      "control_change channel=0 control=93 value=0 time=0\n",
      "program_change channel=0 program=0 time=0\n",
      "control_change channel=0 control=11 value=120 time=965\n",
      "control_change channel=0 control=64 value=127 time=5015\n",
      "note_on channel=0 note=65 velocity=47 time=30\n",
      "note_on channel=0 note=69 velocity=44 time=10\n",
      "note_off channel=0 note=69 velocity=64 time=50\n",
      "note_off channel=0 note=65 velocity=64 time=10\n",
      "note_on channel=0 note=71 velocity=62 time=15\n",
      "note_on channel=0 note=67 velocity=57 time=30\n",
      "note_off channel=0 note=71 velocity=64 time=25\n",
      "note_off channel=0 note=67 velocity=64 time=50\n",
      "note_on channel=0 note=69 velocity=54 time=20\n",
      "note_on channel=0 note=65 velocity=76 time=15\n",
      "note_off channel=0 note=69 velocity=64 time=40\n",
      "note_on channel=0 note=71 velocity=67 time=5\n",
      "note_off channel=0 note=65 velocity=64 time=65\n",
      "note_off channel=0 note=71 velocity=64 time=10\n",
      "note_on channel=0 note=67 velocity=76 time=25\n",
      "note_on channel=0 note=69 velocity=64 time=20\n",
      "note_off channel=0 note=69 velocity=64 time=65\n",
      "note_off channel=0 note=67 velocity=64 time=15\n",
      "note_on channel=0 note=71 velocity=73 time=0\n",
      "note_on channel=0 note=65 velocity=82 time=10\n",
      "note_off channel=0 note=71 velocity=64 time=70\n",
      "note_on channel=0 note=69 velocity=73 time=25\n",
      "note_off channel=0 note=65 velocity=64 time=15\n",
      "note_on channel=0 note=67 velocity=76 time=15\n",
      "note_on channel=0 note=71 velocity=76 time=45\n",
      "note_off channel=0 note=69 velocity=64 time=5\n",
      "note_on channel=0 note=65 velocity=82 time=35\n",
      "note_off channel=0 note=67 velocity=64 time=10\n",
      "note_off channel=0 note=71 velocity=64 time=45\n",
      "note_on channel=0 note=69 velocity=73 time=15\n",
      "note_off channel=0 note=65 velocity=64 time=45\n",
      "note_on channel=0 note=67 velocity=73 time=15\n",
      "note_on channel=0 note=71 velocity=82 time=10\n",
      "note_off channel=0 note=69 velocity=64 time=5\n",
      "note_on channel=0 note=65 velocity=85 time=80\n",
      "note_off channel=0 note=67 velocity=64 time=5\n",
      "note_off channel=0 note=71 velocity=64 time=0\n",
      "note_on channel=0 note=69 velocity=70 time=20\n",
      "note_off channel=0 note=69 velocity=64 time=55\n",
      "note_on channel=0 note=71 velocity=85 time=10\n",
      "note_off channel=0 note=65 velocity=64 time=35\n",
      "note_on channel=0 note=67 velocity=76 time=10\n",
      "note_off channel=0 note=71 velocity=64 time=10\n",
      "note_on channel=0 note=69 velocity=57 time=55\n",
      "note_on channel=0 note=71 velocity=85 time=50\n",
      "note_off channel=0 note=69 velocity=64 time=10\n",
      "note_off channel=0 note=67 velocity=64 time=10\n",
      "note_on channel=0 note=65 velocity=85 time=10\n",
      "note_off channel=0 note=71 velocity=64 time=50\n",
      "note_on channel=0 note=69 velocity=48 time=50\n",
      "note_off channel=0 note=65 velocity=64 time=25\n",
      "note_on channel=0 note=67 velocity=64 time=15\n",
      "note_on channel=0 note=71 velocity=79 time=15\n",
      "note_off channel=0 note=69 velocity=64 time=5\n",
      "note_off channel=0 note=71 velocity=64 time=40\n",
      "note_off channel=0 note=67 velocity=64 time=55\n",
      "note_on channel=0 note=69 velocity=45 time=5\n",
      "note_on channel=0 note=65 velocity=73 time=15\n",
      "note_on channel=0 note=71 velocity=70 time=30\n",
      "note_off channel=0 note=69 velocity=64 time=10\n",
      "note_off channel=0 note=71 velocity=64 time=45\n",
      "note_off channel=0 note=65 velocity=64 time=55\n",
      "note_on channel=0 note=69 velocity=34 time=25\n",
      "note_on channel=0 note=67 velocity=55 time=20\n",
      "note_on channel=0 note=71 velocity=49 time=30\n",
      "note_off channel=0 note=69 velocity=64 time=10\n",
      "note_off channel=0 note=67 velocity=64 time=10\n",
      "note_off channel=0 note=71 velocity=64 time=30\n",
      "note_on channel=0 note=65 velocity=73 time=60\n",
      "note_on channel=0 note=67 velocity=70 time=110\n",
      "note_off channel=0 note=65 velocity=64 time=30\n",
      "note_off channel=0 note=67 velocity=64 time=75\n",
      "note_on channel=0 note=69 velocity=54 time=40\n",
      "note_off channel=0 note=69 velocity=64 time=55\n",
      "note_on channel=0 note=71 velocity=76 time=15\n",
      "note_off channel=0 note=71 velocity=64 time=50\n",
      "note_on channel=0 note=76 velocity=62 time=45\n",
      "note_on channel=0 note=71 velocity=62 time=55\n",
      "note_off channel=0 note=76 velocity=64 time=5\n",
      "note_off channel=0 note=71 velocity=64 time=55\n",
      "note_on channel=0 note=69 velocity=79 time=20\n",
      "note_off channel=0 note=69 velocity=64 time=55\n",
      "control_change channel=0 control=64 value=0 time=30\n",
      "note_on channel=0 note=71 velocity=47 time=15\n",
      "note_on channel=0 note=65 velocity=70 time=35\n",
      "note_off channel=0 note=71 velocity=64 time=20\n",
      "note_on channel=0 note=67 velocity=73 time=90\n",
      "note_off channel=0 note=65 velocity=64 time=20\n",
      "control_change channel=0 control=64 value=127 time=35\n",
      "note_on channel=0 note=69 velocity=45 time=45\n",
      "note_off channel=0 note=67 velocity=64 time=40\n",
      "note_off channel=0 note=69 velocity=64 time=15\n",
      "note_on channel=0 note=71 velocity=73 time=25\n",
      "note_off channel=0 note=71 velocity=64 time=55\n",
      "note_on channel=0 note=69 velocity=49 time=50\n",
      "note_off channel=0 note=69 velocity=64 time=50\n",
      "note_on channel=0 note=71 velocity=49 time=30\n",
      "note_off channel=0 note=71 velocity=64 time=45\n",
      "note_on channel=0 note=69 velocity=42 time=55\n",
      "note_on channel=0 note=71 velocity=67 time=40\n",
      "note_off channel=0 note=69 velocity=64 time=10\n",
      "note_on channel=0 note=65 velocity=55 time=25\n",
      "note_off channel=0 note=71 velocity=64 time=25\n",
      "note_off channel=0 note=65 velocity=64 time=85\n",
      "note_on channel=0 note=67 velocity=67 time=0\n",
      "note_on channel=0 note=71 velocity=41 time=55\n",
      "note_off channel=0 note=71 velocity=64 time=45\n",
      "note_off channel=0 note=67 velocity=64 time=35\n",
      "note_on channel=0 note=71 velocity=70 time=45\n",
      "note_off channel=0 note=71 velocity=64 time=50\n",
      "note_on channel=0 note=71 velocity=59 time=110\n",
      "note_off channel=0 note=71 velocity=64 time=50\n",
      "note_on channel=0 note=65 velocity=57 time=60\n",
      "note_off channel=0 note=65 velocity=64 time=65\n",
      "note_on channel=0 note=67 velocity=67 time=15\n",
      "note_off channel=0 note=67 velocity=64 time=130\n",
      "note_on channel=0 note=71 velocity=70 time=10\n",
      "note_off channel=0 note=71 velocity=64 time=55\n",
      "note_on channel=0 note=71 velocity=57 time=130\n",
      "note_off channel=0 note=71 velocity=64 time=70\n",
      "note_on channel=0 note=69 velocity=51 time=50\n",
      "note_off channel=0 note=69 velocity=64 time=65\n",
      "control_change channel=0 control=64 value=0 time=55\n",
      "note_on channel=0 note=65 velocity=52 time=15\n",
      "note_on channel=0 note=67 velocity=55 time=105\n",
      "note_off channel=0 note=65 velocity=64 time=10\n",
      "control_change channel=0 control=64 value=127 time=40\n",
      "note_off channel=0 note=67 velocity=64 time=100\n",
      "note_on channel=0 note=71 velocity=48 time=65\n",
      "note_off channel=0 note=71 velocity=64 time=55\n",
      "note_on channel=0 note=69 velocity=49 time=25\n",
      "note_off channel=0 note=69 velocity=64 time=60\n",
      "note_on channel=0 note=71 velocity=42 time=30\n",
      "note_off channel=0 note=71 velocity=64 time=55\n",
      "note_on channel=0 note=69 velocity=42 time=45\n",
      "note_off channel=0 note=69 velocity=64 time=55\n",
      "control_change channel=0 control=64 value=0 time=10\n",
      "control_change channel=0 control=64 value=127 time=135\n",
      "note_on channel=0 note=67 velocity=49 time=25\n",
      "note_off channel=0 note=67 velocity=64 time=100\n",
      "control_change channel=0 control=64 value=0 time=1620\n",
      "note_on channel=0 note=71 velocity=64 time=75\n",
      "note_on channel=0 note=59 velocity=70 time=10\n",
      "note_on channel=0 note=76 velocity=67 time=0\n",
      "note_on channel=0 note=53 velocity=67 time=5\n",
      "note_on channel=0 note=64 velocity=67 time=5\n",
      "control_change channel=0 control=64 value=127 time=3890\n",
      "note_off channel=0 note=71 velocity=64 time=770\n",
      "note_off channel=0 note=64 velocity=64 time=30\n",
      "note_off channel=0 note=59 velocity=64 time=5\n",
      "note_off channel=0 note=76 velocity=64 time=5\n",
      "note_off channel=0 note=53 velocity=64 time=0\n",
      "control_change channel=0 control=64 value=0 time=1010\n",
      "note_on channel=0 note=76 velocity=70 time=20\n",
      "note_on channel=0 note=71 velocity=64 time=10\n",
      "note_on channel=0 note=64 velocity=64 time=0\n",
      "note_on channel=0 note=59 velocity=70 time=5\n",
      "note_on channel=0 note=53 velocity=64 time=0\n",
      "control_change channel=0 control=64 value=127 time=1300\n",
      "note_off channel=0 note=64 velocity=64 time=2170\n",
      "note_off channel=0 note=53 velocity=64 time=15\n",
      "note_off channel=0 note=59 velocity=64 time=15\n",
      "note_off channel=0 note=71 velocity=64 time=10\n",
      "note_off channel=0 note=76 velocity=64 time=40\n",
      "control_change channel=0 control=64 value=0 time=1130\n",
      "note_on channel=0 note=71 velocity=59 time=100\n",
      "note_on channel=0 note=76 velocity=67 time=5\n",
      "note_on channel=0 note=53 velocity=67 time=5\n",
      "note_on channel=0 note=59 velocity=64 time=5\n",
      "note_on channel=0 note=64 velocity=55 time=0\n",
      "note_off channel=0 note=71 velocity=64 time=195\n",
      "note_off channel=0 note=76 velocity=64 time=5\n",
      "note_off channel=0 note=53 velocity=64 time=25\n",
      "note_off channel=0 note=64 velocity=64 time=20\n",
      "note_off channel=0 note=59 velocity=64 time=10\n",
      "note_on channel=0 note=74 velocity=79 time=700\n",
      "note_on channel=0 note=67 velocity=64 time=5\n",
      "note_on channel=0 note=58 velocity=64 time=5\n",
      "note_on channel=0 note=62 velocity=73 time=0\n",
      "note_on channel=0 note=52 velocity=64 time=5\n",
      "control_change channel=0 control=64 value=127 time=750\n",
      "note_off channel=0 note=52 velocity=64 time=685\n",
      "note_off channel=0 note=62 velocity=64 time=0\n",
      "note_off channel=0 note=67 velocity=64 time=0\n",
      "note_off channel=0 note=58 velocity=64 time=15\n",
      "note_off channel=0 note=74 velocity=64 time=5\n",
      "control_change channel=0 control=64 value=0 time=1375\n",
      "note_on channel=0 note=58 velocity=57 time=35\n",
      "note_on channel=0 note=62 velocity=67 time=5\n",
      "note_on channel=0 note=79 velocity=67 time=5\n",
      "note_on channel=0 note=52 velocity=62 time=5\n",
      "note_on channel=0 note=72 velocity=52 time=5\n",
      "note_on channel=0 note=84 velocity=55 time=0\n",
      "control_change channel=0 control=64 value=127 time=495\n",
      "note_off channel=0 note=79 velocity=64 time=895\n",
      "note_off channel=0 note=72 velocity=64 time=5\n",
      "note_off channel=0 note=84 velocity=64 time=20\n",
      "note_off channel=0 note=62 velocity=64 time=55\n",
      "note_off channel=0 note=52 velocity=64 time=0\n",
      "note_off channel=0 note=58 velocity=64 time=25\n",
      "control_change channel=0 control=64 value=0 time=310\n",
      "note_on channel=0 note=72 velocity=64 time=80\n",
      "note_on channel=0 note=79 velocity=76 time=5\n",
      "note_on channel=0 note=58 velocity=62 time=0\n",
      "note_on channel=0 note=84 velocity=70 time=5\n",
      "note_on channel=0 note=62 velocity=76 time=0\n",
      "note_on channel=0 note=52 velocity=70 time=5\n",
      "control_change channel=0 control=64 value=127 time=175\n",
      "note_off channel=0 note=84 velocity=64 time=135\n",
      "note_off channel=0 note=72 velocity=64 time=0\n",
      "note_off channel=0 note=79 velocity=64 time=5\n",
      "note_off channel=0 note=52 velocity=64 time=0\n",
      "note_off channel=0 note=62 velocity=64 time=30\n",
      "note_off channel=0 note=58 velocity=64 time=20\n",
      "control_change channel=0 control=64 value=0 time=590\n",
      "note_on channel=0 note=64 velocity=64 time=5\n",
      "note_on channel=0 note=77 velocity=70 time=5\n",
      "note_on channel=0 note=59 velocity=76 time=5\n",
      "note_on channel=0 note=71 velocity=57 time=0\n",
      "note_on channel=0 note=83 velocity=67 time=5\n",
      "note_on channel=0 note=53 velocity=64 time=0\n",
      "control_change channel=0 control=64 value=127 time=1725\n",
      "note_off channel=0 note=71 velocity=64 time=1425\n",
      "note_off channel=0 note=64 velocity=64 time=0\n",
      "note_off channel=0 note=77 velocity=64 time=5\n",
      "note_off channel=0 note=59 velocity=64 time=10\n",
      "note_off channel=0 note=53 velocity=64 time=0\n",
      "note_off channel=0 note=83 velocity=64 time=10\n",
      "note_on channel=0 note=54 velocity=67 time=2585\n",
      "note_on channel=0 note=77 velocity=70 time=0\n",
      "note_on channel=0 note=72 velocity=70 time=10\n",
      "note_on channel=0 note=60 velocity=76 time=0\n",
      "note_on channel=0 note=65 velocity=52 time=5\n",
      "control_change channel=0 control=64 value=0 time=15\n",
      "control_change channel=0 control=64 value=127 time=670\n",
      "note_off channel=0 note=65 velocity=64 time=1295\n",
      "note_off channel=0 note=72 velocity=64 time=0\n",
      "note_off channel=0 note=54 velocity=64 time=0\n",
      "note_off channel=0 note=60 velocity=64 time=15\n",
      "note_off channel=0 note=77 velocity=64 time=20\n",
      "note_on channel=0 note=78 velocity=79 time=810\n",
      "control_change channel=0 control=64 value=0 time=0\n",
      "note_on channel=0 note=66 velocity=82 time=5\n",
      "note_on channel=0 note=55 velocity=85 time=5\n",
      "note_on channel=0 note=61 velocity=79 time=0\n",
      "note_on channel=0 note=73 velocity=73 time=5\n",
      "control_change channel=0 control=64 value=127 time=285\n",
      "note_off channel=0 note=73 velocity=64 time=455\n",
      "note_off channel=0 note=78 velocity=64 time=20\n",
      "note_off channel=0 note=66 velocity=64 time=30\n",
      "note_off channel=0 note=61 velocity=64 time=25\n",
      "note_off channel=0 note=55 velocity=64 time=10\n",
      "note_on channel=0 note=65 velocity=70 time=590\n",
      "note_on channel=0 note=54 velocity=64 time=5\n",
      "note_on channel=0 note=72 velocity=73 time=5\n",
      "note_on channel=0 note=77 velocity=73 time=5\n",
      "note_on channel=0 note=60 velocity=76 time=0\n",
      "control_change channel=0 control=64 value=0 time=5\n",
      "control_change channel=0 control=64 value=127 time=330\n",
      "note_off channel=0 note=60 velocity=64 time=540\n",
      "note_off channel=0 note=65 velocity=64 time=0\n",
      "note_off channel=0 note=54 velocity=64 time=135\n",
      "note_off channel=0 note=72 velocity=64 time=10\n",
      "note_off channel=0 note=77 velocity=64 time=5\n",
      "control_change channel=0 control=64 value=0 time=380\n",
      "control_change channel=0 control=64 value=127 time=15\n",
      "note_on channel=0 note=71 velocity=57 time=5\n",
      "note_on channel=0 note=53 velocity=62 time=5\n",
      "note_on channel=0 note=59 velocity=70 time=0\n",
      "note_on channel=0 note=64 velocity=62 time=5\n",
      "note_on channel=0 note=76 velocity=67 time=0\n",
      "control_change channel=0 control=64 value=0 time=5\n",
      "control_change channel=0 control=64 value=127 time=450\n",
      "note_off channel=0 note=76 velocity=64 time=575\n",
      "note_off channel=0 note=64 velocity=64 time=10\n",
      "note_off channel=0 note=71 velocity=64 time=5\n",
      "note_off channel=0 note=53 velocity=64 time=5\n",
      "note_off channel=0 note=59 velocity=64 time=10\n",
      "control_change channel=0 control=64 value=0 time=3245\n",
      "note_on channel=0 note=67 velocity=59 time=55\n",
      "note_on channel=0 note=71 velocity=64 time=5\n",
      "note_on channel=0 note=53 velocity=57 time=5\n",
      "note_on channel=0 note=64 velocity=57 time=5\n",
      "note_on channel=0 note=59 velocity=67 time=0\n",
      "control_change channel=0 control=64 value=127 time=245\n",
      "note_off channel=0 note=64 velocity=64 time=640\n",
      "note_off channel=0 note=53 velocity=64 time=0\n",
      "note_off channel=0 note=59 velocity=64 time=10\n",
      "note_off channel=0 note=67 velocity=64 time=5\n",
      "note_off channel=0 note=71 velocity=64 time=10\n",
      "control_change channel=0 control=64 value=0 time=485\n",
      "note_on channel=0 note=71 velocity=67 time=15\n",
      "note_on channel=0 note=67 velocity=51 time=10\n",
      "note_on channel=0 note=59 velocity=62 time=10\n",
      "note_on channel=0 note=64 velocity=55 time=5\n",
      "note_on channel=0 note=53 velocity=57 time=0\n",
      "control_change channel=0 control=64 value=127 time=1135\n",
      "note_off channel=0 note=53 velocity=64 time=955\n",
      "note_off channel=0 note=64 velocity=64 time=0\n",
      "note_off channel=0 note=67 velocity=64 time=10\n",
      "note_off channel=0 note=59 velocity=64 time=10\n",
      "note_off channel=0 note=71 velocity=64 time=10\n",
      "control_change channel=0 control=64 value=0 time=2530\n",
      "note_on channel=0 note=76 velocity=67 time=95\n",
      "note_on channel=0 note=64 velocity=54 time=10\n",
      "note_on channel=0 note=71 velocity=64 time=0\n",
      "note_on channel=0 note=53 velocity=57 time=5\n",
      "note_on channel=0 note=59 velocity=59 time=5\n",
      "control_change channel=0 control=64 value=127 time=55\n",
      "note_off channel=0 note=76 velocity=64 time=205\n",
      "note_off channel=0 note=71 velocity=64 time=40\n",
      "note_off channel=0 note=53 velocity=64 time=25\n",
      "note_off channel=0 note=64 velocity=64 time=20\n",
      "note_off channel=0 note=59 velocity=64 time=10\n",
      "note_on channel=0 note=74 velocity=64 time=115\n",
      "note_on channel=0 note=69 velocity=45 time=10\n",
      "note_off channel=0 note=69 velocity=64 time=380\n",
      "note_off channel=0 note=74 velocity=64 time=10\n",
      "note_on channel=0 note=59 velocity=67 time=120\n",
      "note_on channel=0 note=53 velocity=67 time=5\n",
      "note_on channel=0 note=64 velocity=64 time=5\n",
      "control_change channel=0 control=64 value=0 time=5\n",
      "control_change channel=0 control=64 value=127 time=180\n",
      "note_off channel=0 note=64 velocity=64 time=545\n",
      "note_off channel=0 note=59 velocity=64 time=20\n",
      "note_off channel=0 note=53 velocity=64 time=15\n",
      "control_change channel=0 control=64 value=0 time=4910\n",
      "note_on channel=0 note=71 velocity=62 time=60\n",
      "note_on channel=0 note=64 velocity=59 time=10\n",
      "note_on channel=0 note=59 velocity=67 time=5\n",
      "note_on channel=0 note=53 velocity=55 time=0\n",
      "note_on channel=0 note=74 velocity=70 time=5\n",
      "control_change channel=0 control=64 value=127 time=170\n",
      "note_off channel=0 note=71 velocity=64 time=450\n",
      "note_off channel=0 note=74 velocity=64 time=80\n",
      "note_off channel=0 note=53 velocity=64 time=15\n",
      "note_off channel=0 note=64 velocity=64 time=15\n",
      "note_off channel=0 note=59 velocity=64 time=50\n",
      "note_on channel=0 note=72 velocity=52 time=150\n",
      "note_on channel=0 note=76 velocity=67 time=5\n",
      "note_off channel=0 note=72 velocity=64 time=200\n",
      "note_off channel=0 note=76 velocity=64 time=40\n",
      "control_change channel=0 control=64 value=0 time=200\n",
      "note_on channel=0 note=74 velocity=79 time=25\n",
      "note_on channel=0 note=77 velocity=79 time=5\n",
      "note_on channel=0 note=53 velocity=62 time=5\n",
      "note_on channel=0 note=59 velocity=67 time=5\n",
      "note_on channel=0 note=64 velocity=62 time=0\n",
      "control_change channel=0 control=64 value=127 time=140\n",
      "note_off channel=0 note=77 velocity=64 time=460\n",
      "note_off channel=0 note=53 velocity=64 time=60\n",
      "note_off channel=0 note=64 velocity=64 time=15\n",
      "note_off channel=0 note=59 velocity=64 time=40\n",
      "note_off channel=0 note=74 velocity=64 time=5\n",
      "note_on channel=0 note=76 velocity=57 time=240\n",
      "note_on channel=0 note=72 velocity=49 time=5\n",
      "note_off channel=0 note=72 velocity=64 time=320\n",
      "note_off channel=0 note=76 velocity=64 time=10\n",
      "control_change channel=0 control=64 value=0 time=155\n",
      "note_on channel=0 note=74 velocity=76 time=5\n",
      "note_on channel=0 note=59 velocity=64 time=5\n",
      "note_on channel=0 note=64 velocity=67 time=10\n",
      "note_on channel=0 note=71 velocity=62 time=0\n",
      "note_on channel=0 note=53 velocity=62 time=5\n",
      "control_change channel=0 control=64 value=127 time=165\n",
      "note_off channel=0 note=53 velocity=64 time=370\n",
      "note_off channel=0 note=64 velocity=64 time=15\n",
      "note_off channel=0 note=59 velocity=64 time=35\n",
      "note_off channel=0 note=71 velocity=64 time=30\n",
      "note_off channel=0 note=74 velocity=64 time=35\n",
      "note_on channel=0 note=72 velocity=48 time=285\n",
      "note_on channel=0 note=76 velocity=64 time=5\n",
      "note_off channel=0 note=72 velocity=64 time=205\n",
      "note_off channel=0 note=76 velocity=64 time=50\n",
      "control_change channel=0 control=64 value=0 time=170\n",
      "note_on channel=0 note=77 velocity=67 time=35\n",
      "note_on channel=0 note=74 velocity=70 time=0\n",
      "note_on channel=0 note=59 velocity=59 time=5\n",
      "note_on channel=0 note=64 velocity=57 time=5\n",
      "note_on channel=0 note=53 velocity=52 time=5\n",
      "control_change channel=0 control=64 value=127 time=115\n",
      "note_off channel=0 note=53 velocity=64 time=375\n",
      "note_off channel=0 note=64 velocity=64 time=5\n",
      "note_off channel=0 note=77 velocity=64 time=40\n",
      "note_off channel=0 note=59 velocity=64 time=15\n",
      "note_off channel=0 note=74 velocity=64 time=60\n",
      "note_on channel=0 note=76 velocity=48 time=305\n",
      "note_on channel=0 note=72 velocity=47 time=10\n",
      "note_off channel=0 note=72 velocity=64 time=295\n",
      "note_off channel=0 note=76 velocity=64 time=10\n",
      "control_change channel=0 control=64 value=0 time=140\n",
      "note_on channel=0 note=74 velocity=70 time=45\n",
      "note_on channel=0 note=71 velocity=57 time=5\n",
      "note_on channel=0 note=53 velocity=64 time=5\n",
      "note_on channel=0 note=59 velocity=64 time=5\n",
      "note_on channel=0 note=64 velocity=57 time=5\n",
      "control_change channel=0 control=64 value=127 time=105\n",
      "note_off channel=0 note=53 velocity=64 time=310\n",
      "note_off channel=0 note=64 velocity=64 time=10\n",
      "note_off channel=0 note=59 velocity=64 time=50\n",
      "note_off channel=0 note=74 velocity=64 time=60\n",
      "note_off channel=0 note=71 velocity=64 time=30\n",
      "note_on channel=0 note=76 velocity=67 time=365\n",
      "note_on channel=0 note=72 velocity=55 time=5\n",
      "note_off channel=0 note=72 velocity=64 time=230\n",
      "note_off channel=0 note=76 velocity=64 time=70\n",
      "control_change channel=0 control=64 value=0 time=110\n",
      "note_on channel=0 note=59 velocity=67 time=60\n",
      "note_on channel=0 note=74 velocity=73 time=0\n",
      "note_on channel=0 note=53 velocity=70 time=5\n",
      "note_on channel=0 note=64 velocity=67 time=5\n",
      "note_on channel=0 note=77 velocity=76 time=5\n",
      "control_change channel=0 control=64 value=127 time=70\n",
      "note_off channel=0 note=64 velocity=64 time=270\n",
      "note_off channel=0 note=53 velocity=64 time=0\n",
      "note_off channel=0 note=59 velocity=64 time=55\n",
      "note_off channel=0 note=77 velocity=64 time=55\n",
      "note_off channel=0 note=74 velocity=64 time=120\n",
      "note_on channel=0 note=72 velocity=55 time=360\n",
      "note_on channel=0 note=76 velocity=62 time=5\n",
      "note_off channel=0 note=72 velocity=64 time=270\n",
      "note_off channel=0 note=76 velocity=64 time=20\n",
      "control_change channel=0 control=64 value=0 time=155\n",
      "note_on channel=0 note=64 velocity=79 time=35\n",
      "note_on channel=0 note=74 velocity=73 time=5\n",
      "note_on channel=0 note=59 velocity=73 time=0\n",
      "note_on channel=0 note=53 velocity=76 time=5\n",
      "note_on channel=0 note=71 velocity=64 time=5\n",
      "control_change channel=0 control=64 value=127 time=130\n",
      "note_off channel=0 note=71 velocity=64 time=460\n",
      "note_off channel=0 note=74 velocity=64 time=75\n",
      "note_on channel=0 note=72 velocity=64 time=295\n",
      "note_on channel=0 note=76 velocity=73 time=10\n",
      "note_off channel=0 note=72 velocity=64 time=210\n",
      "note_off channel=0 note=76 velocity=64 time=70\n",
      "note_on channel=0 note=74 velocity=79 time=230\n",
      "note_on channel=0 note=77 velocity=76 time=5\n",
      "note_off channel=0 note=64 velocity=64 time=305\n",
      "note_off channel=0 note=53 velocity=64 time=5\n",
      "note_off channel=0 note=59 velocity=64 time=65\n",
      "note_off channel=0 note=77 velocity=64 time=40\n",
      "note_off channel=0 note=74 velocity=64 time=30\n",
      "note_on channel=0 note=76 velocity=64 time=495\n",
      "note_on channel=0 note=72 velocity=64 time=0\n",
      "note_off channel=0 note=72 velocity=64 time=100\n",
      "note_off channel=0 note=76 velocity=64 time=15\n",
      "control_change channel=0 control=64 value=0 time=355\n",
      "note_on channel=0 note=58 velocity=59 time=10\n",
      "note_on channel=0 note=74 velocity=82 time=15\n",
      "note_on channel=0 note=70 velocity=67 time=0\n",
      "note_on channel=0 note=62 velocity=67 time=5\n",
      "note_on channel=0 note=52 velocity=67 time=5\n",
      "control_change channel=0 control=64 value=127 time=135\n",
      "note_off channel=0 note=70 velocity=64 time=125\n",
      "note_off channel=0 note=74 velocity=64 time=50\n",
      "note_on channel=0 note=76 velocity=73 time=605\n",
      "note_on channel=0 note=72 velocity=62 time=0\n",
      "note_off channel=0 note=72 velocity=64 time=200\n",
      "note_off channel=0 note=76 velocity=64 time=40\n",
      "note_on channel=0 note=77 velocity=76 time=255\n",
      "note_on channel=0 note=74 velocity=76 time=5\n",
      "note_off channel=0 note=74 velocity=64 time=205\n",
      "note_off channel=0 note=77 velocity=64 time=0\n",
      "note_off channel=0 note=52 velocity=64 time=280\n",
      "note_off channel=0 note=62 velocity=64 time=10\n",
      "note_off channel=0 note=58 velocity=64 time=40\n",
      "note_on channel=0 note=76 velocity=73 time=395\n",
      "note_on channel=0 note=72 velocity=59 time=15\n",
      "note_off channel=0 note=76 velocity=64 time=95\n",
      "note_off channel=0 note=72 velocity=64 time=15\n",
      "control_change channel=0 control=64 value=0 time=360\n",
      "note_on channel=0 note=58 velocity=55 time=15\n",
      "note_on channel=0 note=70 velocity=62 time=5\n",
      "note_on channel=0 note=74 velocity=76 time=0\n",
      "note_on channel=0 note=62 velocity=54 time=5\n",
      "note_on channel=0 note=52 velocity=49 time=5\n",
      "control_change channel=0 control=64 value=127 time=150\n",
      "note_off channel=0 note=70 velocity=64 time=100\n",
      "note_off channel=0 note=74 velocity=64 time=55\n",
      "note_on channel=0 note=76 velocity=67 time=620\n",
      "note_on channel=0 note=72 velocity=54 time=5\n",
      "note_off channel=0 note=72 velocity=64 time=215\n",
      "note_off channel=0 note=76 velocity=64 time=25\n",
      "note_off channel=0 note=58 velocity=64 time=190\n",
      "note_on channel=0 note=77 velocity=73 time=75\n",
      "note_on channel=0 note=74 velocity=70 time=5\n",
      "note_off channel=0 note=77 velocity=64 time=270\n",
      "note_off channel=0 note=74 velocity=64 time=20\n",
      "note_on channel=0 note=58 velocity=45 time=145\n",
      "note_off channel=0 note=52 velocity=64 time=390\n",
      "note_off channel=0 note=58 velocity=64 time=30\n",
      "note_off channel=0 note=62 velocity=64 time=15\n",
      "note_on channel=0 note=72 velocity=57 time=45\n",
      "note_on channel=0 note=76 velocity=59 time=5\n",
      "note_off channel=0 note=76 velocity=64 time=55\n",
      "note_off channel=0 note=72 velocity=64 time=15\n",
      "control_change channel=0 control=64 value=0 time=425\n",
      "note_on channel=0 note=59 velocity=52 time=5\n",
      "note_on channel=0 note=71 velocity=67 time=5\n",
      "note_on channel=0 note=53 velocity=62 time=10\n",
      "note_on channel=0 note=67 velocity=54 time=5\n",
      "control_change channel=0 control=64 value=127 time=145\n",
      "note_on channel=0 note=64 velocity=42 time=310\n",
      "note_off channel=0 note=67 velocity=64 time=60\n",
      "note_off channel=0 note=71 velocity=64 time=70\n",
      "note_on channel=0 note=72 velocity=57 time=345\n",
      "note_on channel=0 note=69 velocity=57 time=5\n",
      "note_off channel=0 note=72 velocity=64 time=120\n",
      "note_off channel=0 note=69 velocity=64 time=35\n",
      "note_off channel=0 note=59 velocity=64 time=230\n",
      "note_on channel=0 note=71 velocity=64 time=85\n",
      "note_on channel=0 note=74 velocity=62 time=10\n",
      "note_on channel=0 note=67 velocity=48 time=5\n",
      "note_off channel=0 note=71 velocity=64 time=280\n",
      "note_off channel=0 note=67 velocity=64 time=5\n",
      "note_off channel=0 note=74 velocity=64 time=10\n",
      "note_on channel=0 note=59 velocity=48 time=170\n",
      "note_on channel=0 note=76 velocity=51 time=485\n",
      "note_on channel=0 note=72 velocity=62 time=5\n",
      "note_on channel=0 note=67 velocity=42 time=5\n",
      "note_off channel=0 note=76 velocity=64 time=125\n",
      "note_off channel=0 note=67 velocity=64 time=10\n",
      "note_off channel=0 note=72 velocity=64 time=35\n",
      "note_off channel=0 note=59 velocity=64 time=255\n",
      "note_on channel=0 note=74 velocity=59 time=75\n",
      "note_on channel=0 note=67 velocity=44 time=5\n",
      "note_on channel=0 note=71 velocity=59 time=0\n",
      "note_off channel=0 note=64 velocity=64 time=15\n",
      "note_off channel=0 note=71 velocity=64 time=265\n",
      "note_off channel=0 note=74 velocity=64 time=15\n",
      "note_off channel=0 note=67 velocity=64 time=30\n",
      "note_on channel=0 note=59 velocity=49 time=145\n",
      "note_on channel=0 note=72 velocity=62 time=460\n",
      "note_on channel=0 note=69 velocity=62 time=5\n",
      "note_on channel=0 note=65 velocity=52 time=0\n",
      "note_off channel=0 note=69 velocity=64 time=95\n",
      "note_off channel=0 note=72 velocity=64 time=10\n",
      "note_off channel=0 note=65 velocity=64 time=5\n",
      "note_on channel=0 note=71 velocity=54 time=390\n",
      "note_on channel=0 note=67 velocity=55 time=0\n",
      "note_on channel=0 note=64 velocity=48 time=5\n",
      "note_off channel=0 note=67 velocity=64 time=75\n",
      "note_off channel=0 note=71 velocity=64 time=5\n",
      "note_off channel=0 note=64 velocity=64 time=15\n",
      "note_on channel=0 note=69 velocity=51 time=370\n",
      "note_on channel=0 note=65 velocity=54 time=10\n",
      "note_on channel=0 note=62 velocity=31 time=15\n",
      "note_off channel=0 note=65 velocity=64 time=40\n",
      "note_off channel=0 note=69 velocity=64 time=10\n",
      "note_off channel=0 note=62 velocity=64 time=5\n",
      "note_off channel=0 note=59 velocity=64 time=175\n",
      "note_off channel=0 note=53 velocity=64 time=35\n",
      "note_on channel=0 note=67 velocity=52 time=200\n",
      "note_on channel=0 note=64 velocity=55 time=15\n",
      "note_on channel=0 note=60 velocity=48 time=10\n",
      "note_off channel=0 note=60 velocity=64 time=60\n",
      "note_off channel=0 note=64 velocity=64 time=5\n",
      "note_off channel=0 note=67 velocity=64 time=45\n",
      "control_change channel=0 control=64 value=0 time=325\n",
      "note_on channel=0 note=65 velocity=70 time=5\n",
      "note_on channel=0 note=54 velocity=57 time=15\n",
      "note_on channel=0 note=60 velocity=57 time=15\n",
      "control_change channel=0 control=64 value=127 time=180\n",
      "note_off channel=0 note=60 velocity=64 time=115\n",
      "note_off channel=0 note=65 velocity=64 time=55\n",
      "note_off channel=0 note=54 velocity=64 time=1905\n",
      "note_on channel=0 note=77 velocity=98 time=530\n",
      "note_off channel=0 note=77 velocity=64 time=90\n",
      "note_on channel=0 note=73 velocity=85 time=100\n",
      "control_change channel=0 control=64 value=0 time=5\n",
      "note_on channel=0 note=65 velocity=62 time=20\n",
      "note_on channel=0 note=61 velocity=64 time=0\n",
      "note_on channel=0 note=55 velocity=59 time=10\n",
      "control_change channel=0 control=64 value=127 time=235\n",
      "note_off channel=0 note=65 velocity=64 time=425\n",
      "note_off channel=0 note=73 velocity=64 time=0\n",
      "note_off channel=0 note=61 velocity=64 time=20\n",
      "note_off channel=0 note=55 velocity=64 time=60\n",
      "note_on channel=0 note=69 velocity=64 time=555\n",
      "note_on channel=0 note=54 velocity=59 time=5\n",
      "note_on channel=0 note=72 velocity=67 time=0\n",
      "note_on channel=0 note=60 velocity=59 time=5\n",
      "control_change channel=0 control=64 value=0 time=5\n",
      "control_change channel=0 control=64 value=127 time=210\n",
      "note_off channel=0 note=60 velocity=64 time=515\n",
      "note_off channel=0 note=69 velocity=64 time=35\n",
      "note_off channel=0 note=72 velocity=64 time=10\n",
      "note_off channel=0 note=54 velocity=64 time=5\n",
      "note_on channel=0 note=72 velocity=103 time=420\n",
      "note_off channel=0 note=72 velocity=64 time=135\n",
      "note_on channel=0 note=71 velocity=79 time=80\n",
      "note_on channel=0 note=59 velocity=64 time=10\n",
      "note_on channel=0 note=53 velocity=73 time=0\n",
      "control_change channel=0 control=64 value=0 time=20\n",
      "control_change channel=0 control=64 value=127 time=290\n",
      "note_off channel=0 note=53 velocity=64 time=615\n",
      "note_off channel=0 note=59 velocity=64 time=70\n",
      "note_off channel=0 note=71 velocity=64 time=65\n",
      "note_on channel=0 note=65 velocity=70 time=1820\n",
      "note_on channel=0 note=69 velocity=57 time=5\n",
      "note_on channel=0 note=62 velocity=70 time=5\n",
      "note_on channel=0 note=60 velocity=47 time=0\n",
      "control_change channel=0 control=64 value=0 time=5\n",
      "note_on channel=0 note=57 velocity=55 time=5\n",
      "control_change channel=0 control=64 value=127 time=210\n",
      "note_off channel=0 note=62 velocity=64 time=535\n",
      "note_off channel=0 note=65 velocity=64 time=40\n",
      "note_off channel=0 note=69 velocity=64 time=10\n",
      "note_off channel=0 note=60 velocity=64 time=25\n",
      "note_off channel=0 note=57 velocity=64 time=10\n",
      "control_change channel=0 control=64 value=0 time=575\n",
      "note_on channel=0 note=55 velocity=57 time=5\n",
      "note_on channel=0 note=67 velocity=55 time=5\n",
      "note_on channel=0 note=64 velocity=64 time=0\n",
      "note_on channel=0 note=62 velocity=67 time=0\n",
      "note_on channel=0 note=59 velocity=49 time=5\n",
      "control_change channel=0 control=64 value=127 time=275\n",
      "note_off channel=0 note=55 velocity=64 time=425\n",
      "note_off channel=0 note=62 velocity=64 time=65\n",
      "note_off channel=0 note=67 velocity=64 time=20\n",
      "note_off channel=0 note=64 velocity=64 time=20\n",
      "note_off channel=0 note=59 velocity=64 time=0\n",
      "note_on channel=0 note=59 velocity=59 time=640\n",
      "note_on channel=0 note=64 velocity=54 time=5\n",
      "note_on channel=0 note=43 velocity=48 time=5\n",
      "note_on channel=0 note=57 velocity=47 time=5\n",
      "note_on channel=0 note=53 velocity=52 time=5\n",
      "control_change channel=0 control=64 value=0 time=0\n",
      "control_change channel=0 control=64 value=127 time=515\n",
      "note_off channel=0 note=57 velocity=64 time=90\n",
      "note_off channel=0 note=43 velocity=64 time=5\n",
      "note_off channel=0 note=59 velocity=64 time=0\n",
      "note_off channel=0 note=53 velocity=64 time=0\n",
      "note_off channel=0 note=64 velocity=64 time=75\n",
      "control_change channel=0 control=64 value=0 time=1100\n",
      "control_change channel=0 control=64 value=127 time=15\n",
      "control_change channel=0 control=64 value=0 time=10\n",
      "note_on channel=0 note=76 velocity=67 time=35\n",
      "note_on channel=0 note=71 velocity=59 time=5\n",
      "note_on channel=0 note=53 velocity=64 time=5\n",
      "note_on channel=0 note=64 velocity=59 time=5\n",
      "note_on channel=0 note=59 velocity=67 time=0\n",
      "note_off channel=0 note=71 velocity=64 time=65\n",
      "note_off channel=0 note=53 velocity=64 time=10\n",
      "note_off channel=0 note=64 velocity=64 time=5\n",
      "note_off channel=0 note=76 velocity=64 time=15\n",
      "note_off channel=0 note=59 velocity=64 time=0\n",
      "note_on channel=0 note=71 velocity=52 time=890\n",
      "note_on channel=0 note=59 velocity=67 time=5\n",
      "note_on channel=0 note=74 velocity=73 time=0\n",
      "note_on channel=0 note=64 velocity=59 time=5\n",
      "note_on channel=0 note=53 velocity=62 time=5\n",
      "control_change channel=0 control=64 value=127 time=215\n",
      "note_off channel=0 note=74 velocity=64 time=830\n",
      "note_off channel=0 note=59 velocity=64 time=20\n",
      "note_off channel=0 note=64 velocity=64 time=25\n",
      "note_off channel=0 note=71 velocity=64 time=5\n",
      "note_off channel=0 note=53 velocity=64 time=815\n",
      "note_on channel=0 note=50 velocity=37 time=760\n",
      "note_off channel=0 note=50 velocity=64 time=80\n",
      "control_change channel=0 control=64 value=0 time=105\n",
      "note_on channel=0 note=55 velocity=62 time=15\n",
      "note_on channel=0 note=59 velocity=67 time=0\n",
      "note_on channel=0 note=43 velocity=51 time=25\n",
      "control_change channel=0 control=64 value=127 time=210\n",
      "note_off channel=0 note=43 velocity=64 time=240\n",
      "note_on channel=0 note=50 velocity=43 time=30\n",
      "note_off channel=0 note=55 velocity=64 time=25\n",
      "note_off channel=0 note=50 velocity=64 time=40\n",
      "note_off channel=0 note=59 velocity=64 time=50\n",
      "note_on channel=0 note=60 velocity=57 time=350\n",
      "note_on channel=0 note=57 velocity=52 time=5\n",
      "note_off channel=0 note=57 velocity=64 time=195\n",
      "note_off channel=0 note=60 velocity=64 time=15\n",
      "control_change channel=0 control=64 value=0 time=225\n",
      "note_on channel=0 note=62 velocity=70 time=5\n",
      "note_on channel=0 note=59 velocity=64 time=0\n",
      "control_change channel=0 control=64 value=127 time=140\n",
      "note_off channel=0 note=59 velocity=64 time=285\n",
      "note_off channel=0 note=62 velocity=64 time=35\n",
      "note_on channel=0 note=53 velocity=62 time=70\n",
      "note_on channel=0 note=55 velocity=42 time=5\n",
      "note_off channel=0 note=55 velocity=64 time=110\n",
      "note_off channel=0 note=53 velocity=64 time=0\n",
      "control_change channel=0 control=64 value=0 time=290\n",
      "note_on channel=0 note=60 velocity=62 time=35\n",
      "note_on channel=0 note=64 velocity=64 time=5\n",
      "note_on channel=0 note=57 velocity=76 time=5\n",
      "control_change channel=0 control=64 value=127 time=45\n",
      "note_off channel=0 note=60 velocity=64 time=125\n",
      "note_off channel=0 note=57 velocity=64 time=5\n",
      "note_off channel=0 note=64 velocity=64 time=20\n",
      "control_change channel=0 control=64 value=0 time=275\n",
      "note_on channel=0 note=59 velocity=59 time=20\n",
      "note_on channel=0 note=65 velocity=73 time=5\n",
      "note_on channel=0 note=62 velocity=70 time=0\n",
      "control_change channel=0 control=64 value=127 time=120\n",
      "note_off channel=0 note=62 velocity=64 time=280\n",
      "note_off channel=0 note=65 velocity=64 time=45\n",
      "note_off channel=0 note=59 velocity=64 time=360\n",
      "note_on channel=0 note=67 velocity=73 time=100\n",
      "note_on channel=0 note=60 velocity=70 time=10\n",
      "note_on channel=0 note=64 velocity=67 time=5\n",
      "note_off channel=0 note=64 velocity=64 time=195\n",
      "note_off channel=0 note=60 velocity=64 time=30\n",
      "note_off channel=0 note=67 velocity=64 time=5\n",
      "control_change channel=0 control=64 value=0 time=235\n",
      "control_change channel=0 control=64 value=127 time=10\n",
      "control_change channel=0 control=64 value=0 time=10\n",
      "note_on channel=0 note=62 velocity=73 time=15\n",
      "note_on channel=0 note=65 velocity=70 time=5\n",
      "note_on channel=0 note=69 velocity=70 time=5\n",
      "control_change channel=0 control=64 value=127 time=70\n",
      "note_off channel=0 note=65 velocity=64 time=105\n",
      "note_off channel=0 note=69 velocity=64 time=30\n",
      "note_off channel=0 note=62 velocity=64 time=15\n",
      "note_on channel=0 note=71 velocity=64 time=245\n",
      "note_on channel=0 note=64 velocity=73 time=10\n",
      "note_on channel=0 note=67 velocity=70 time=0\n",
      "note_off channel=0 note=64 velocity=64 time=160\n",
      "note_off channel=0 note=67 velocity=64 time=5\n",
      "note_off channel=0 note=71 velocity=64 time=45\n",
      "note_on channel=0 note=72 velocity=76 time=230\n",
      "note_on channel=0 note=69 velocity=70 time=5\n",
      "note_on channel=0 note=65 velocity=79 time=10\n",
      "note_off channel=0 note=65 velocity=64 time=80\n",
      "note_off channel=0 note=69 velocity=64 time=10\n",
      "note_off channel=0 note=72 velocity=64 time=20\n",
      "note_on channel=0 note=70 velocity=67 time=385\n",
      "note_on channel=0 note=58 velocity=55 time=5\n",
      "note_on channel=0 note=67 velocity=59 time=5\n",
      "note_on channel=0 note=62 velocity=62 time=5\n",
      "note_on channel=0 note=52 velocity=59 time=5\n",
      "control_change channel=0 control=64 value=0 time=5\n",
      "control_change channel=0 control=64 value=127 time=620\n",
      "note_off channel=0 note=67 velocity=64 time=270\n",
      "note_off channel=0 note=62 velocity=64 time=10\n",
      "note_off channel=0 note=58 velocity=64 time=10\n",
      "note_off channel=0 note=52 velocity=64 time=0\n",
      "note_off channel=0 note=70 velocity=64 time=10\n",
      "control_change channel=0 control=64 value=0 time=930\n",
      "note_on channel=0 note=72 velocity=62 time=35\n",
      "note_on channel=0 note=58 velocity=64 time=5\n",
      "note_on channel=0 note=84 velocity=62 time=5\n",
      "note_on channel=0 note=79 velocity=76 time=0\n",
      "note_on channel=0 note=62 velocity=73 time=5\n",
      "note_on channel=0 note=52 velocity=64 time=5\n",
      "note_off channel=0 note=79 velocity=64 time=40\n",
      "note_off channel=0 note=72 velocity=64 time=15\n",
      "note_off channel=0 note=84 velocity=64 time=5\n",
      "note_off channel=0 note=62 velocity=64 time=0\n",
      "note_off channel=0 note=52 velocity=64 time=0\n",
      "note_off channel=0 note=58 velocity=64 time=25\n",
      "note_on channel=0 note=58 velocity=55 time=865\n",
      "note_on channel=0 note=52 velocity=70 time=5\n",
      "note_on channel=0 note=84 velocity=55 time=5\n",
      "note_on channel=0 note=62 velocity=64 time=0\n",
      "note_on channel=0 note=72 velocity=47 time=5\n",
      "note_on channel=0 note=79 velocity=70 time=0\n",
      "control_change channel=0 control=64 value=127 time=210\n",
      "note_off channel=0 note=84 velocity=64 time=815\n",
      "note_off channel=0 note=79 velocity=64 time=10\n",
      "note_off channel=0 note=72 velocity=64 time=20\n",
      "note_off channel=0 note=52 velocity=64 time=20\n",
      "note_off channel=0 note=62 velocity=64 time=0\n",
      "note_off channel=0 note=58 velocity=64 time=20\n",
      "control_change channel=0 control=64 value=0 time=770\n",
      "note_on channel=0 note=70 velocity=64 time=60\n",
      "note_on channel=0 note=74 velocity=79 time=0\n",
      "note_on channel=0 note=58 velocity=62 time=5\n",
      "note_on channel=0 note=52 velocity=76 time=5\n",
      "note_on channel=0 note=62 velocity=64 time=5\n",
      "control_change channel=0 control=64 value=127 time=115\n",
      "note_off channel=0 note=52 velocity=64 time=195\n",
      "note_off channel=0 note=62 velocity=64 time=30\n",
      "note_off channel=0 note=58 velocity=64 time=25\n",
      "note_off channel=0 note=70 velocity=64 time=35\n",
      "note_off channel=0 note=74 velocity=64 time=35\n",
      "note_on channel=0 note=67 velocity=55 time=45\n",
      "note_off channel=0 note=67 velocity=64 time=95\n",
      "control_change channel=0 control=64 value=0 time=370\n",
      "note_on channel=0 note=71 velocity=73 time=15\n",
      "note_on channel=0 note=59 velocity=70 time=10\n",
      "note_on channel=0 note=53 velocity=70 time=0\n",
      "note_on channel=0 note=64 velocity=70 time=5\n",
      "note_on channel=0 note=76 velocity=67 time=5\n",
      "control_change channel=0 control=64 value=127 time=300\n",
      "note_off channel=0 note=53 velocity=64 time=665\n",
      "note_off channel=0 note=64 velocity=64 time=25\n",
      "note_off channel=0 note=71 velocity=64 time=10\n",
      "note_off channel=0 note=76 velocity=64 time=10\n",
      "note_off channel=0 note=59 velocity=64 time=10\n",
      "control_change channel=0 control=64 value=0 time=745\n",
      "note_on channel=0 note=74 velocity=48 time=120\n",
      "note_on channel=0 note=69 velocity=52 time=15\n",
      "control_change channel=0 control=64 value=127 time=0\n",
      "note_on channel=0 note=59 velocity=45 time=5\n",
      "note_on channel=0 note=53 velocity=44 time=5\n",
      "note_on channel=0 note=64 velocity=43 time=10\n",
      "note_on channel=0 note=65 velocity=34 time=5\n",
      "note_off channel=0 note=65 velocity=64 time=55\n",
      "note_off channel=0 note=69 velocity=64 time=45\n",
      "note_off channel=0 note=74 velocity=64 time=25\n",
      "note_off channel=0 note=53 velocity=64 time=0\n",
      "note_off channel=0 note=64 velocity=64 time=10\n",
      "note_off channel=0 note=59 velocity=64 time=5\n",
      "note_on channel=0 note=76 velocity=89 time=265\n",
      "note_on channel=0 note=71 velocity=79 time=0\n",
      "note_on channel=0 note=67 velocity=79 time=5\n",
      "note_on channel=0 note=59 velocity=79 time=5\n",
      "note_on channel=0 note=64 velocity=79 time=5\n",
      "note_on channel=0 note=53 velocity=85 time=0\n",
      "note_off channel=0 note=53 velocity=64 time=110\n",
      "note_off channel=0 note=64 velocity=64 time=5\n",
      "note_off channel=0 note=59 velocity=64 time=20\n",
      "note_off channel=0 note=76 velocity=64 time=5\n",
      "note_off channel=0 note=71 velocity=64 time=10\n",
      "note_off channel=0 note=67 velocity=64 time=0\n",
      "control_change channel=0 control=64 value=0 time=315\n",
      "note_on channel=0 note=53 velocity=67 time=10\n",
      "note_on channel=0 note=69 velocity=57 time=5\n",
      "note_on channel=0 note=65 velocity=57 time=5\n",
      "note_on channel=0 note=59 velocity=62 time=5\n",
      "note_on channel=0 note=64 velocity=52 time=5\n",
      "note_on channel=0 note=74 velocity=55 time=5\n",
      "control_change channel=0 control=64 value=127 time=245\n",
      "note_off channel=0 note=64 velocity=64 time=390\n",
      "note_off channel=0 note=69 velocity=64 time=35\n",
      "note_off channel=0 note=74 velocity=64 time=5\n",
      "note_off channel=0 note=65 velocity=64 time=5\n",
      "note_off channel=0 note=53 velocity=64 time=10\n",
      "note_off channel=0 note=59 velocity=64 time=25\n",
      "control_change channel=0 control=64 value=0 time=985\n",
      "note_on channel=0 note=53 velocity=51 time=25\n",
      "note_on channel=0 note=59 velocity=52 time=5\n",
      "note_off channel=0 note=59 velocity=64 time=75\n",
      "note_off channel=0 note=53 velocity=64 time=10\n",
      "control_change channel=0 control=64 value=127 time=20\n",
      "note_on channel=0 note=69 velocity=62 time=65\n",
      "note_on channel=0 note=64 velocity=73 time=5\n",
      "note_on channel=0 note=60 velocity=57 time=5\n",
      "note_off channel=0 note=69 velocity=64 time=130\n",
      "note_off channel=0 note=64 velocity=64 time=5\n",
      "note_off channel=0 note=60 velocity=64 time=20\n",
      "control_change channel=0 control=64 value=0 time=260\n",
      "note_on channel=0 note=67 velocity=64 time=35\n",
      "note_on channel=0 note=62 velocity=70 time=0\n",
      "note_on channel=0 note=59 velocity=59 time=5\n",
      "control_change channel=0 control=64 value=127 time=105\n",
      "note_off channel=0 note=59 velocity=64 time=30\n",
      "note_off channel=0 note=62 velocity=64 time=0\n",
      "note_off channel=0 note=67 velocity=64 time=25\n",
      "note_on channel=0 note=65 velocity=73 time=310\n",
      "note_on channel=0 note=60 velocity=55 time=20\n",
      "note_on channel=0 note=54 velocity=52 time=0\n",
      "control_change channel=0 control=64 value=0 time=10\n",
      "control_change channel=0 control=64 value=127 time=590\n",
      "note_off channel=0 note=54 velocity=64 time=405\n",
      "note_off channel=0 note=60 velocity=64 time=0\n",
      "note_off channel=0 note=65 velocity=64 time=55\n",
      "control_change channel=0 control=64 value=0 time=790\n",
      "note_on channel=0 note=71 velocity=85 time=80\n",
      "note_on channel=0 note=68 velocity=73 time=5\n",
      "note_on channel=0 note=54 velocity=79 time=5\n",
      "note_on channel=0 note=60 velocity=82 time=0\n",
      "note_on channel=0 note=64 velocity=76 time=5\n",
      "control_change channel=0 control=64 value=127 time=75\n",
      "note_off channel=0 note=64 velocity=64 time=90\n",
      "note_off channel=0 note=54 velocity=64 time=20\n",
      "note_off channel=0 note=68 velocity=64 time=10\n",
      "note_off channel=0 note=60 velocity=64 time=5\n",
      "note_off channel=0 note=71 velocity=64 time=10\n",
      "note_on channel=0 note=72 velocity=89 time=260\n",
      "control_change channel=0 control=64 value=0 time=470\n",
      "note_on channel=0 note=69 velocity=73 time=10\n",
      "note_on channel=0 note=65 velocity=64 time=5\n",
      "note_on channel=0 note=61 velocity=73 time=5\n",
      "note_on channel=0 note=55 velocity=73 time=5\n",
      "control_change channel=0 control=64 value=127 time=195\n",
      "note_off channel=0 note=69 velocity=64 time=60\n",
      "note_off channel=0 note=65 velocity=64 time=50\n",
      "note_off channel=0 note=55 velocity=64 time=0\n",
      "note_off channel=0 note=72 velocity=64 time=10\n",
      "note_off channel=0 note=61 velocity=64 time=0\n",
      "control_change channel=0 control=64 value=0 time=385\n",
      "note_on channel=0 note=61 velocity=73 time=50\n",
      "note_on channel=0 note=72 velocity=93 time=0\n",
      "note_on channel=0 note=55 velocity=82 time=5\n",
      "note_on channel=0 note=65 velocity=73 time=5\n",
      "control_change channel=0 control=64 value=127 time=90\n",
      "note_off channel=0 note=65 velocity=64 time=100\n",
      "note_off channel=0 note=55 velocity=64 time=0\n",
      "note_off channel=0 note=61 velocity=64 time=20\n",
      "note_off channel=0 note=72 velocity=64 time=60\n",
      "note_on channel=0 note=77 velocity=98 time=165\n",
      "control_change channel=0 control=64 value=0 time=180\n",
      "note_on channel=0 note=65 velocity=76 time=65\n",
      "note_on channel=0 note=54 velocity=70 time=5\n",
      "note_on channel=0 note=60 velocity=82 time=0\n",
      "note_on channel=0 note=72 velocity=89 time=5\n",
      "control_change channel=0 control=64 value=127 time=65\n",
      "note_off channel=0 note=72 velocity=64 time=315\n",
      "note_off channel=0 note=60 velocity=64 time=35\n",
      "note_off channel=0 note=65 velocity=64 time=0\n",
      "note_off channel=0 note=54 velocity=64 time=10\n",
      "note_on channel=0 note=54 velocity=79 time=330\n",
      "note_on channel=0 note=65 velocity=82 time=10\n",
      "note_on channel=0 note=72 velocity=79 time=0\n",
      "note_on channel=0 note=60 velocity=85 time=5\n",
      "note_off channel=0 note=60 velocity=64 time=140\n",
      "note_off channel=0 note=65 velocity=64 time=0\n",
      "note_off channel=0 note=54 velocity=64 time=40\n",
      "note_off channel=0 note=72 velocity=64 time=35\n",
      "note_on channel=0 note=53 velocity=82 time=435\n",
      "note_on channel=0 note=59 velocity=76 time=5\n",
      "note_on channel=0 note=71 velocity=73 time=5\n",
      "note_on channel=0 note=64 velocity=76 time=0\n",
      "control_change channel=0 control=64 value=0 time=10\n",
      "control_change channel=0 control=64 value=127 time=955\n",
      "note_off channel=0 note=71 velocity=64 time=215\n",
      "note_off channel=0 note=53 velocity=64 time=15\n",
      "note_off channel=0 note=64 velocity=64 time=5\n",
      "note_off channel=0 note=77 velocity=64 time=15\n",
      "note_off channel=0 note=59 velocity=64 time=25\n",
      "control_change channel=0 control=64 value=0 time=1570\n",
      "note_on channel=0 note=86 velocity=59 time=45\n",
      "note_on channel=0 note=64 velocity=76 time=5\n",
      "note_on channel=0 note=79 velocity=70 time=5\n",
      "note_on channel=0 note=59 velocity=79 time=0\n",
      "note_on channel=0 note=53 velocity=73 time=5\n",
      "note_on channel=0 note=74 velocity=48 time=0\n",
      "note_off channel=0 note=74 velocity=64 time=55\n",
      "note_off channel=0 note=53 velocity=64 time=5\n",
      "note_off channel=0 note=79 velocity=64 time=0\n",
      "note_off channel=0 note=64 velocity=64 time=10\n",
      "note_off channel=0 note=86 velocity=64 time=0\n",
      "note_off channel=0 note=59 velocity=64 time=5\n",
      "note_on channel=0 note=86 velocity=76 time=695\n",
      "note_on channel=0 note=53 velocity=79 time=5\n",
      "note_on channel=0 note=79 velocity=70 time=5\n",
      "note_on channel=0 note=59 velocity=70 time=5\n",
      "note_on channel=0 note=74 velocity=59 time=0\n",
      "note_on channel=0 note=64 velocity=67 time=5\n",
      "control_change channel=0 control=64 value=127 time=785\n",
      "note_off channel=0 note=86 velocity=64 time=495\n",
      "note_off channel=0 note=79 velocity=64 time=20\n",
      "note_off channel=0 note=74 velocity=64 time=35\n",
      "note_off channel=0 note=64 velocity=64 time=55\n",
      "note_off channel=0 note=59 velocity=64 time=10\n",
      "note_off channel=0 note=53 velocity=64 time=20\n",
      "control_change channel=0 control=64 value=0 time=655\n",
      "note_on channel=0 note=65 velocity=54 time=5\n",
      "note_on channel=0 note=69 velocity=70 time=0\n",
      "note_on channel=0 note=74 velocity=59 time=5\n",
      "note_on channel=0 note=59 velocity=70 time=0\n",
      "note_on channel=0 note=62 velocity=62 time=5\n",
      "control_change channel=0 control=64 value=127 time=135\n",
      "note_off channel=0 note=65 velocity=64 time=225\n",
      "note_off channel=0 note=69 velocity=64 time=5\n",
      "note_off channel=0 note=59 velocity=64 time=30\n",
      "note_off channel=0 note=62 velocity=64 time=0\n",
      "note_off channel=0 note=74 velocity=64 time=15\n",
      "note_on channel=0 note=71 velocity=62 time=500\n",
      "note_on channel=0 note=76 velocity=57 time=5\n",
      "note_on channel=0 note=67 velocity=42 time=0\n",
      "note_on channel=0 note=60 velocity=64 time=5\n",
      "note_on channel=0 note=64 velocity=48 time=15\n",
      "note_off channel=0 note=67 velocity=64 time=65\n",
      "note_off channel=0 note=71 velocity=64 time=15\n",
      "note_off channel=0 note=60 velocity=64 time=0\n",
      "note_off channel=0 note=64 velocity=64 time=5\n",
      "note_off channel=0 note=76 velocity=64 time=25\n",
      "control_change channel=0 control=64 value=0 time=355\n",
      "note_on channel=0 note=65 velocity=70 time=20\n",
      "note_on channel=0 note=62 velocity=76 time=5\n",
      "note_on channel=0 note=77 velocity=64 time=0\n",
      "note_on channel=0 note=69 velocity=52 time=5\n",
      "note_on channel=0 note=72 velocity=73 time=5\n",
      "control_change channel=0 control=64 value=127 time=80\n",
      "note_off channel=0 note=77 velocity=64 time=180\n",
      "note_off channel=0 note=65 velocity=64 time=5\n",
      "note_off channel=0 note=72 velocity=64 time=15\n",
      "note_off channel=0 note=62 velocity=64 time=10\n",
      "note_off channel=0 note=69 velocity=64 time=15\n",
      "note_on channel=0 note=71 velocity=59 time=665\n",
      "note_on channel=0 note=64 velocity=54 time=5\n",
      "note_on channel=0 note=60 velocity=57 time=0\n",
      "note_on channel=0 note=76 velocity=44 time=5\n",
      "note_on channel=0 note=67 velocity=40 time=5\n",
      "note_off channel=0 note=76 velocity=64 time=105\n",
      "note_off channel=0 note=64 velocity=64 time=0\n",
      "note_off channel=0 note=71 velocity=64 time=10\n",
      "note_off channel=0 note=60 velocity=64 time=10\n",
      "note_off channel=0 note=67 velocity=64 time=10\n",
      "control_change channel=0 control=64 value=0 time=345\n",
      "note_on channel=0 note=62 velocity=59 time=15\n",
      "note_on channel=0 note=59 velocity=73 time=5\n",
      "note_on channel=0 note=74 velocity=59 time=5\n",
      "note_on channel=0 note=69 velocity=64 time=5\n",
      "note_on channel=0 note=65 velocity=44 time=10\n",
      "control_change channel=0 control=64 value=127 time=95\n",
      "note_off channel=0 note=65 velocity=64 time=285\n",
      "note_off channel=0 note=69 velocity=64 time=0\n",
      "note_off channel=0 note=59 velocity=64 time=40\n",
      "note_off channel=0 note=62 velocity=64 time=5\n",
      "note_off channel=0 note=74 velocity=64 time=0\n",
      "note_on channel=0 note=71 velocity=62 time=470\n",
      "note_on channel=0 note=76 velocity=59 time=5\n",
      "note_on channel=0 note=67 velocity=45 time=5\n",
      "note_on channel=0 note=60 velocity=62 time=5\n",
      "note_on channel=0 note=64 velocity=51 time=5\n",
      "note_off channel=0 note=71 velocity=64 time=70\n",
      "note_off channel=0 note=67 velocity=64 time=5\n",
      "note_off channel=0 note=60 velocity=64 time=15\n",
      "note_off channel=0 note=76 velocity=64 time=15\n",
      "note_off channel=0 note=64 velocity=64 time=5\n",
      "control_change channel=0 control=64 value=0 time=335\n",
      "note_on channel=0 note=77 velocity=76 time=15\n",
      "note_on channel=0 note=62 velocity=79 time=5\n",
      "note_on channel=0 note=72 velocity=73 time=5\n",
      "note_on channel=0 note=69 velocity=64 time=5\n",
      "note_on channel=0 note=65 velocity=67 time=5\n",
      "control_change channel=0 control=64 value=127 time=100\n",
      "note_off channel=0 note=77 velocity=64 time=280\n",
      "note_off channel=0 note=72 velocity=64 time=25\n",
      "note_off channel=0 note=65 velocity=64 time=5\n",
      "note_off channel=0 note=62 velocity=64 time=25\n",
      "note_off channel=0 note=69 velocity=64 time=0\n",
      "note_on channel=0 note=71 velocity=57 time=495\n",
      "note_on channel=0 note=67 velocity=48 time=5\n",
      "note_on channel=0 note=64 velocity=52 time=5\n",
      "note_on channel=0 note=76 velocity=48 time=0\n",
      "note_on channel=0 note=60 velocity=42 time=20\n",
      "note_off channel=0 note=64 velocity=64 time=85\n",
      "note_off channel=0 note=76 velocity=64 time=30\n",
      "note_off channel=0 note=60 velocity=64 time=0\n",
      "note_off channel=0 note=71 velocity=64 time=10\n",
      "note_off channel=0 note=67 velocity=64 time=15\n",
      "control_change channel=0 control=64 value=0 time=320\n",
      "note_on channel=0 note=69 velocity=59 time=20\n",
      "note_on channel=0 note=62 velocity=42 time=5\n",
      "note_on channel=0 note=65 velocity=45 time=5\n",
      "note_on channel=0 note=74 velocity=47 time=5\n",
      "note_on channel=0 note=59 velocity=64 time=5\n",
      "control_change channel=0 control=64 value=127 time=165\n",
      "note_off channel=0 note=65 velocity=64 time=230\n",
      "note_off channel=0 note=69 velocity=64 time=15\n",
      "note_off channel=0 note=74 velocity=64 time=50\n",
      "note_off channel=0 note=59 velocity=64 time=5\n",
      "note_off channel=0 note=62 velocity=64 time=5\n",
      "control_change channel=0 control=64 value=0 time=395\n",
      "note_on channel=0 note=71 velocity=59 time=30\n",
      "note_on channel=0 note=76 velocity=55 time=5\n",
      "note_on channel=0 note=67 velocity=40 time=5\n",
      "note_on channel=0 note=60 velocity=57 time=5\n",
      "note_on channel=0 note=64 velocity=48 time=10\n",
      "control_change channel=0 control=64 value=127 time=25\n",
      "note_off channel=0 note=60 velocity=64 time=55\n",
      "note_off channel=0 note=67 velocity=64 time=0\n",
      "note_off channel=0 note=71 velocity=64 time=15\n",
      "note_off channel=0 note=64 velocity=64 time=15\n",
      "note_off channel=0 note=76 velocity=64 time=10\n",
      "control_change channel=0 control=64 value=0 time=330\n",
      "note_on channel=0 note=77 velocity=54 time=25\n",
      "note_on channel=0 note=72 velocity=59 time=5\n",
      "note_on channel=0 note=69 velocity=43 time=5\n",
      "note_on channel=0 note=65 velocity=45 time=5\n",
      "note_on channel=0 note=62 velocity=57 time=5\n",
      "control_change channel=0 control=64 value=127 time=55\n",
      "note_off channel=0 note=72 velocity=64 time=160\n",
      "note_off channel=0 note=77 velocity=64 time=0\n",
      "note_off channel=0 note=62 velocity=64 time=35\n",
      "note_off channel=0 note=69 velocity=64 time=5\n",
      "note_off channel=0 note=65 velocity=64 time=5\n",
      "note_on channel=0 note=71 velocity=54 time=660\n",
      "note_on channel=0 note=64 velocity=42 time=10\n",
      "note_on channel=0 note=76 velocity=35 time=5\n",
      "note_on channel=0 note=67 velocity=37 time=5\n",
      "note_on channel=0 note=60 velocity=54 time=5\n",
      "note_off channel=0 note=76 velocity=64 time=50\n",
      "note_off channel=0 note=64 velocity=64 time=5\n",
      "note_off channel=0 note=60 velocity=64 time=0\n",
      "note_off channel=0 note=71 velocity=64 time=10\n",
      "note_off channel=0 note=67 velocity=64 time=25\n",
      "note_on channel=0 note=69 velocity=51 time=400\n",
      "note_on channel=0 note=65 velocity=40 time=10\n",
      "note_on channel=0 note=74 velocity=47 time=5\n",
      "note_on channel=0 note=62 velocity=43 time=5\n",
      "note_on channel=0 note=59 velocity=57 time=0\n",
      "control_change channel=0 control=64 value=0 time=10\n",
      "control_change channel=0 control=64 value=127 time=160\n",
      "note_off channel=0 note=65 velocity=64 time=180\n",
      "note_off channel=0 note=69 velocity=64 time=20\n",
      "note_off channel=0 note=62 velocity=64 time=40\n",
      "note_off channel=0 note=59 velocity=64 time=5\n",
      "note_off channel=0 note=74 velocity=64 time=5\n",
      "control_change channel=0 control=64 value=0 time=485\n",
      "note_on channel=0 note=76 velocity=51 time=20\n",
      "note_on channel=0 note=71 velocity=55 time=5\n",
      "note_on channel=0 note=67 velocity=38 time=5\n",
      "note_on channel=0 note=60 velocity=57 time=0\n",
      "note_on channel=0 note=64 velocity=40 time=5\n",
      "control_change channel=0 control=64 value=127 time=10\n",
      "note_off channel=0 note=67 velocity=64 time=60\n",
      "note_off channel=0 note=71 velocity=64 time=10\n",
      "note_off channel=0 note=60 velocity=64 time=10\n",
      "note_off channel=0 note=64 velocity=64 time=15\n",
      "note_off channel=0 note=76 velocity=64 time=25\n",
      "control_change channel=0 control=64 value=0 time=305\n",
      "note_on channel=0 note=77 velocity=49 time=30\n",
      "note_on channel=0 note=72 velocity=59 time=15\n",
      "note_on channel=0 note=65 velocity=45 time=5\n",
      "note_on channel=0 note=62 velocity=55 time=0\n",
      "note_on channel=0 note=69 velocity=37 time=5\n",
      "control_change channel=0 control=64 value=127 time=35\n",
      "note_off channel=0 note=72 velocity=64 time=95\n",
      "note_off channel=0 note=77 velocity=64 time=0\n",
      "note_off channel=0 note=65 velocity=64 time=5\n",
      "note_off channel=0 note=62 velocity=64 time=15\n",
      "note_off channel=0 note=69 velocity=64 time=10\n",
      "note_on channel=0 note=71 velocity=59 time=770\n",
      "note_on channel=0 note=67 velocity=38 time=5\n",
      "note_on channel=0 note=64 velocity=51 time=5\n",
      "note_on channel=0 note=76 velocity=44 time=5\n",
      "note_on channel=0 note=60 velocity=59 time=0\n",
      "note_off channel=0 note=60 velocity=64 time=55\n",
      "note_off channel=0 note=64 velocity=64 time=5\n",
      "note_off channel=0 note=71 velocity=64 time=0\n",
      "note_off channel=0 note=76 velocity=64 time=5\n",
      "note_off channel=0 note=67 velocity=64 time=15\n",
      "control_change channel=0 control=64 value=0 time=390\n",
      "note_on channel=0 note=74 velocity=45 time=20\n",
      "note_on channel=0 note=69 velocity=59 time=5\n",
      "note_on channel=0 note=62 velocity=47 time=10\n",
      "note_on channel=0 note=59 velocity=55 time=5\n",
      "note_on channel=0 note=65 velocity=41 time=5\n",
      "control_change channel=0 control=64 value=127 time=345\n",
      "note_off channel=0 note=62 velocity=64 time=475\n",
      "note_off channel=0 note=59 velocity=64 time=55\n",
      "note_off channel=0 note=69 velocity=64 time=15\n",
      "note_off channel=0 note=74 velocity=64 time=15\n",
      "note_off channel=0 note=65 velocity=64 time=0\n",
      "control_change channel=0 control=64 value=0 time=1855\n",
      "note_on channel=0 note=62 velocity=67 time=50\n",
      "note_on channel=0 note=59 velocity=59 time=5\n",
      "note_on channel=0 note=53 velocity=55 time=15\n",
      "note_on channel=0 note=43 velocity=47 time=5\n",
      "control_change channel=0 control=64 value=127 time=105\n",
      "note_off channel=0 note=43 velocity=64 time=90\n",
      "note_off channel=0 note=59 velocity=64 time=35\n",
      "note_off channel=0 note=53 velocity=64 time=30\n",
      "note_off channel=0 note=62 velocity=64 time=10\n",
      "note_on channel=0 note=64 velocity=62 time=665\n",
      "note_on channel=0 note=60 velocity=42 time=5\n",
      "note_on channel=0 note=59 velocity=47 time=5\n",
      "note_on channel=0 note=53 velocity=55 time=5\n",
      "note_off channel=0 note=60 velocity=64 time=85\n",
      "note_off channel=0 note=53 velocity=64 time=60\n",
      "note_off channel=0 note=59 velocity=64 time=10\n",
      "note_off channel=0 note=64 velocity=64 time=5\n",
      "control_change channel=0 control=64 value=0 time=270\n",
      "note_on channel=0 note=65 velocity=79 time=25\n",
      "note_on channel=0 note=59 velocity=64 time=10\n",
      "note_on channel=0 note=62 velocity=76 time=5\n",
      "note_on channel=0 note=53 velocity=73 time=0\n",
      "control_change channel=0 control=64 value=127 time=105\n",
      "note_off channel=0 note=59 velocity=64 time=360\n",
      "note_off channel=0 note=65 velocity=64 time=35\n",
      "note_off channel=0 note=53 velocity=64 time=15\n",
      "note_off channel=0 note=62 velocity=64 time=65\n",
      "note_on channel=0 note=60 velocity=73 time=365\n",
      "note_on channel=0 note=64 velocity=67 time=5\n",
      "note_off channel=0 note=64 velocity=64 time=80\n",
      "note_off channel=0 note=60 velocity=64 time=0\n",
      "note_on channel=0 note=53 velocity=54 time=430\n",
      "note_on channel=0 note=59 velocity=59 time=5\n",
      "note_on channel=0 note=62 velocity=64 time=5\n",
      "note_on channel=0 note=43 velocity=48 time=0\n",
      "note_on channel=0 note=57 velocity=47 time=5\n",
      "control_change channel=0 control=64 value=0 time=10\n",
      "control_change channel=0 control=64 value=127 time=290\n",
      "note_off channel=0 note=43 velocity=64 time=320\n",
      "note_off channel=0 note=57 velocity=64 time=10\n",
      "note_off channel=0 note=59 velocity=64 time=5\n",
      "note_off channel=0 note=53 velocity=64 time=15\n",
      "note_off channel=0 note=62 velocity=64 time=45\n",
      "control_change channel=0 control=64 value=0 time=1115\n",
      "note_on channel=0 note=76 velocity=76 time=90\n",
      "note_on channel=0 note=71 velocity=70 time=5\n",
      "control_change channel=0 control=64 value=127 time=5\n",
      "note_on channel=0 note=53 velocity=67 time=5\n",
      "note_on channel=0 note=64 velocity=54 time=10\n",
      "note_on channel=0 note=59 velocity=64 time=0\n",
      "note_off channel=0 note=53 velocity=64 time=155\n",
      "note_off channel=0 note=71 velocity=64 time=5\n",
      "note_off channel=0 note=64 velocity=64 time=0\n",
      "note_off channel=0 note=59 velocity=64 time=0\n",
      "note_off channel=0 note=76 velocity=64 time=15\n",
      "note_on channel=0 note=74 velocity=64 time=295\n",
      "note_on channel=0 note=53 velocity=64 time=0\n",
      "note_on channel=0 note=64 velocity=59 time=5\n",
      "note_on channel=0 note=59 velocity=64 time=0\n",
      "note_on channel=0 note=69 velocity=49 time=5\n",
      "control_change channel=0 control=64 value=0 time=5\n",
      "control_change channel=0 control=64 value=127 time=140\n",
      "note_off channel=0 note=64 velocity=64 time=135\n",
      "note_off channel=0 note=74 velocity=64 time=15\n",
      "note_off channel=0 note=59 velocity=64 time=5\n",
      "note_off channel=0 note=69 velocity=64 time=25\n",
      "note_off channel=0 note=53 velocity=64 time=15\n",
      "control_change channel=0 control=64 value=0 time=1070\n",
      "note_on channel=0 note=60 velocity=57 time=45\n",
      "note_on channel=0 note=57 velocity=64 time=10\n",
      "note_on channel=0 note=50 velocity=62 time=5\n",
      "note_on channel=0 note=53 velocity=45 time=0\n",
      "control_change channel=0 control=64 value=127 time=20\n",
      "note_off channel=0 note=53 velocity=64 time=100\n",
      "note_off channel=0 note=57 velocity=64 time=0\n",
      "note_off channel=0 note=60 velocity=64 time=25\n",
      "note_off channel=0 note=50 velocity=64 time=5\n",
      "control_change channel=0 control=64 value=0 time=245\n",
      "note_on channel=0 note=62 velocity=70 time=40\n",
      "note_on channel=0 note=59 velocity=62 time=10\n",
      "note_on channel=0 note=55 velocity=49 time=5\n",
      "note_on channel=0 note=52 velocity=42 time=15\n",
      "control_change channel=0 control=64 value=127 time=20\n",
      "note_off channel=0 note=55 velocity=64 time=60\n",
      "note_off channel=0 note=59 velocity=64 time=25\n",
      "note_off channel=0 note=62 velocity=64 time=20\n",
      "note_off channel=0 note=52 velocity=64 time=0\n",
      "control_change channel=0 control=64 value=0 time=280\n",
      "note_on channel=0 note=60 velocity=70 time=45\n",
      "note_on channel=0 note=57 velocity=70 time=10\n",
      "note_on channel=0 note=64 velocity=73 time=5\n",
      "note_on channel=0 note=53 velocity=70 time=5\n",
      "control_change channel=0 control=64 value=127 time=25\n",
      "note_off channel=0 note=57 velocity=64 time=65\n",
      "note_off channel=0 note=60 velocity=64 time=10\n",
      "note_off channel=0 note=53 velocity=64 time=30\n",
      "note_off channel=0 note=64 velocity=64 time=15\n",
      "note_on channel=0 note=67 velocity=93 time=590\n",
      "control_change channel=0 control=64 value=0 time=215\n",
      "control_change channel=0 control=64 value=127 time=10\n",
      "note_on channel=0 note=58 velocity=55 time=10\n",
      "note_on channel=0 note=62 velocity=79 time=5\n",
      "control_change channel=0 control=64 value=0 time=5\n",
      "note_on channel=0 note=52 velocity=62 time=5\n",
      "control_change channel=0 control=64 value=127 time=550\n",
      "note_off channel=0 note=62 velocity=64 time=170\n",
      "note_off channel=0 note=58 velocity=64 time=25\n",
      "note_off channel=0 note=52 velocity=64 time=0\n",
      "note_off channel=0 note=67 velocity=64 time=80\n",
      "control_change channel=0 control=64 value=0 time=995\n",
      "note_on channel=0 note=52 velocity=73 time=60\n",
      "note_on channel=0 note=58 velocity=57 time=5\n",
      "note_on channel=0 note=72 velocity=79 time=0\n",
      "note_on channel=0 note=62 velocity=73 time=5\n",
      "note_on channel=0 note=67 velocity=70 time=0\n",
      "note_off channel=0 note=62 velocity=64 time=70\n",
      "note_off channel=0 note=52 velocity=64 time=5\n",
      "note_off channel=0 note=67 velocity=64 time=5\n",
      "note_off channel=0 note=58 velocity=64 time=5\n",
      "note_off channel=0 note=72 velocity=64 time=0\n",
      "note_on channel=0 note=58 velocity=59 time=850\n",
      "note_on channel=0 note=52 velocity=67 time=5\n",
      "note_on channel=0 note=70 velocity=64 time=0\n",
      "note_on channel=0 note=62 velocity=67 time=5\n",
      "note_on channel=0 note=74 velocity=70 time=0\n",
      "control_change channel=0 control=64 value=127 time=115\n",
      "note_off channel=0 note=70 velocity=64 time=155\n",
      "note_off channel=0 note=52 velocity=64 time=50\n",
      "note_off channel=0 note=74 velocity=64 time=5\n",
      "note_off channel=0 note=62 velocity=64 time=5\n",
      "note_off channel=0 note=58 velocity=64 time=5\n",
      "note_on channel=0 note=76 velocity=73 time=605\n",
      "note_on channel=0 note=52 velocity=59 time=5\n",
      "note_on channel=0 note=62 velocity=59 time=5\n",
      "note_on channel=0 note=72 velocity=59 time=0\n",
      "note_on channel=0 note=58 velocity=55 time=5\n",
      "note_off channel=0 note=72 velocity=64 time=105\n",
      "note_off channel=0 note=62 velocity=64 time=15\n",
      "note_off channel=0 note=52 velocity=64 time=0\n",
      "note_off channel=0 note=58 velocity=64 time=25\n",
      "note_off channel=0 note=76 velocity=64 time=15\n",
      "control_change channel=0 control=64 value=0 time=290\n",
      "note_on channel=0 note=77 velocity=85 time=25\n",
      "note_on channel=0 note=58 velocity=67 time=5\n",
      "note_on channel=0 note=74 velocity=79 time=5\n",
      "note_on channel=0 note=62 velocity=76 time=0\n",
      "note_on channel=0 note=52 velocity=76 time=5\n",
      "control_change channel=0 control=64 value=127 time=140\n",
      "note_off channel=0 note=52 velocity=64 time=375\n",
      "note_off channel=0 note=62 velocity=64 time=10\n",
      "note_off channel=0 note=58 velocity=64 time=5\n",
      "note_off channel=0 note=77 velocity=64 time=5\n",
      "note_off channel=0 note=74 velocity=64 time=45\n",
      "note_on channel=0 note=58 velocity=64 time=380\n",
      "note_on channel=0 note=62 velocity=73 time=5\n",
      "note_on channel=0 note=76 velocity=64 time=5\n",
      "note_on channel=0 note=52 velocity=70 time=0\n",
      "note_on channel=0 note=72 velocity=62 time=5\n",
      "note_off channel=0 note=52 velocity=64 time=50\n",
      "note_off channel=0 note=72 velocity=64 time=15\n",
      "note_off channel=0 note=76 velocity=64 time=5\n",
      "note_off channel=0 note=62 velocity=64 time=10\n",
      "note_off channel=0 note=58 velocity=64 time=5\n",
      "control_change channel=0 control=64 value=0 time=365\n",
      "note_on channel=0 note=53 velocity=64 time=30\n",
      "note_on channel=0 note=59 velocity=64 time=5\n",
      "note_on channel=0 note=64 velocity=54 time=0\n",
      "note_on channel=0 note=71 velocity=70 time=5\n",
      "note_on channel=0 note=67 velocity=55 time=5\n",
      "control_change channel=0 control=64 value=127 time=160\n",
      "note_off channel=0 note=53 velocity=64 time=385\n",
      "note_off channel=0 note=64 velocity=64 time=10\n",
      "note_off channel=0 note=67 velocity=64 time=0\n",
      "note_off channel=0 note=59 velocity=64 time=10\n",
      "note_off channel=0 note=71 velocity=64 time=55\n",
      "note_on channel=0 note=64 velocity=51 time=280\n",
      "note_on channel=0 note=69 velocity=45 time=5\n",
      "note_on channel=0 note=59 velocity=54 time=0\n",
      "note_on channel=0 note=53 velocity=45 time=5\n",
      "note_on channel=0 note=72 velocity=52 time=5\n",
      "note_off channel=0 note=53 velocity=64 time=85\n",
      "note_off channel=0 note=69 velocity=64 time=15\n",
      "note_off channel=0 note=64 velocity=64 time=5\n",
      "note_off channel=0 note=59 velocity=64 time=5\n",
      "note_off channel=0 note=72 velocity=64 time=10\n",
      "control_change channel=0 control=64 value=0 time=310\n",
      "note_on channel=0 note=74 velocity=64 time=35\n",
      "note_on channel=0 note=71 velocity=64 time=5\n",
      "note_on channel=0 note=59 velocity=55 time=10\n",
      "note_on channel=0 note=64 velocity=51 time=5\n",
      "note_on channel=0 note=53 velocity=54 time=0\n",
      "control_change channel=0 control=64 value=127 time=110\n",
      "note_off channel=0 note=71 velocity=64 time=270\n",
      "note_off channel=0 note=53 velocity=64 time=20\n",
      "note_off channel=0 note=64 velocity=64 time=5\n",
      "note_off channel=0 note=59 velocity=64 time=5\n",
      "note_off channel=0 note=74 velocity=64 time=10\n",
      "note_on channel=0 note=76 velocity=62 time=510\n",
      "note_on channel=0 note=53 velocity=59 time=15\n",
      "note_on channel=0 note=64 velocity=55 time=5\n",
      "note_on channel=0 note=72 velocity=64 time=5\n",
      "note_on channel=0 note=59 velocity=57 time=5\n",
      "note_off channel=0 note=53 velocity=64 time=85\n",
      "note_off channel=0 note=64 velocity=64 time=15\n",
      "note_off channel=0 note=72 velocity=64 time=0\n",
      "note_off channel=0 note=59 velocity=64 time=10\n",
      "note_off channel=0 note=76 velocity=64 time=45\n",
      "control_change channel=0 control=64 value=0 time=310\n",
      "note_on channel=0 note=71 velocity=52 time=10\n",
      "note_on channel=0 note=53 velocity=49 time=5\n",
      "note_on channel=0 note=74 velocity=70 time=5\n",
      "note_on channel=0 note=64 velocity=54 time=10\n",
      "note_on channel=0 note=59 velocity=59 time=0\n",
      "control_change channel=0 control=64 value=127 time=130\n",
      "note_off channel=0 note=53 velocity=64 time=260\n",
      "note_off channel=0 note=64 velocity=64 time=5\n",
      "note_off channel=0 note=59 velocity=64 time=5\n",
      "note_off channel=0 note=71 velocity=64 time=75\n",
      "note_off channel=0 note=74 velocity=64 time=30\n",
      "note_on channel=0 note=72 velocity=62 time=390\n",
      "note_on channel=0 note=53 velocity=52 time=15\n",
      "note_on channel=0 note=64 velocity=52 time=5\n",
      "note_on channel=0 note=69 velocity=44 time=0\n",
      "note_on channel=0 note=59 velocity=55 time=5\n",
      "note_off channel=0 note=72 velocity=64 time=55\n",
      "note_off channel=0 note=69 velocity=64 time=30\n",
      "note_off channel=0 note=53 velocity=64 time=5\n",
      "note_off channel=0 note=59 velocity=64 time=10\n",
      "note_off channel=0 note=64 velocity=64 time=5\n",
      "control_change channel=0 control=64 value=0 time=290\n",
      "note_on channel=0 note=71 velocity=59 time=65\n",
      "note_on channel=0 note=67 velocity=49 time=5\n",
      "note_on channel=0 note=53 velocity=54 time=5\n",
      "note_on channel=0 note=64 velocity=49 time=5\n",
      "note_on channel=0 note=59 velocity=62 time=0\n",
      "control_change channel=0 control=64 value=127 time=70\n",
      "note_off channel=0 note=67 velocity=64 time=235\n",
      "note_off channel=0 note=71 velocity=64 time=10\n",
      "note_off channel=0 note=64 velocity=64 time=120\n",
      "note_off channel=0 note=53 velocity=64 time=25\n",
      "note_on channel=0 note=69 velocity=55 time=10\n",
      "note_on channel=0 note=65 velocity=45 time=10\n",
      "note_off channel=0 note=59 velocity=64 time=15\n",
      "note_off channel=0 note=65 velocity=64 time=235\n",
      "note_off channel=0 note=69 velocity=64 time=210\n",
      "note_on channel=0 note=65 velocity=49 time=40\n",
      "note_off channel=0 note=65 velocity=64 time=125\n",
      "note_on channel=0 note=54 velocity=62 time=380\n",
      "note_on channel=0 note=60 velocity=64 time=5\n",
      "control_change channel=0 control=64 value=0 time=10\n",
      "control_change channel=0 control=64 value=127 time=225\n",
      "note_off channel=0 note=60 velocity=64 time=705\n",
      "note_off channel=0 note=54 velocity=64 time=10\n",
      "control_change channel=0 control=64 value=0 time=885\n",
      "note_on channel=0 note=72 velocity=93 time=25\n",
      "note_on channel=0 note=54 velocity=79 time=10\n",
      "note_on channel=0 note=60 velocity=85 time=0\n",
      "control_change channel=0 control=64 value=127 time=95\n",
      "note_off channel=0 note=54 velocity=64 time=275\n",
      "note_off channel=0 note=60 velocity=64 time=20\n",
      "note_off channel=0 note=72 velocity=64 time=25\n",
      "note_on channel=0 note=77 velocity=93 time=50\n",
      "note_on channel=0 note=73 velocity=76 time=505\n",
      "control_change channel=0 control=64 value=0 time=0\n",
      "note_on channel=0 note=65 velocity=73 time=5\n",
      "note_on channel=0 note=55 velocity=76 time=5\n",
      "note_on channel=0 note=61 velocity=73 time=5\n",
      "control_change channel=0 control=64 value=127 time=265\n",
      "note_off channel=0 note=65 velocity=64 time=640\n",
      "note_off channel=0 note=61 velocity=64 time=25\n",
      "note_off channel=0 note=55 velocity=64 time=15\n",
      "note_off channel=0 note=77 velocity=64 time=25\n",
      "note_off channel=0 note=73 velocity=64 time=35\n",
      "control_change channel=0 control=64 value=0 time=410\n",
      "note_on channel=0 note=69 velocity=64 time=60\n",
      "note_on channel=0 note=54 velocity=59 time=0\n",
      "note_on channel=0 note=72 velocity=70 time=5\n",
      "note_on channel=0 note=60 velocity=73 time=5\n",
      "note_on channel=0 note=65 velocity=67 time=0\n",
      "control_change channel=0 control=64 value=127 time=80\n",
      "note_off channel=0 note=72 velocity=64 time=215\n",
      "note_off channel=0 note=69 velocity=64 time=15\n",
      "note_off channel=0 note=65 velocity=64 time=25\n",
      "note_off channel=0 note=60 velocity=64 time=5\n",
      "note_off channel=0 note=54 velocity=64 time=5\n",
      "control_change channel=0 control=64 value=0 time=380\n",
      "note_on channel=0 note=77 velocity=82 time=25\n",
      "note_on channel=0 note=72 velocity=73 time=10\n",
      "note_on channel=0 note=54 velocity=59 time=5\n",
      "note_on channel=0 note=60 velocity=73 time=0\n",
      "note_on channel=0 note=65 velocity=64 time=5\n",
      "control_change channel=0 control=64 value=127 time=80\n",
      "note_off channel=0 note=65 velocity=64 time=90\n",
      "note_off channel=0 note=60 velocity=64 time=5\n",
      "note_off channel=0 note=72 velocity=64 time=20\n",
      "note_off channel=0 note=54 velocity=64 time=5\n",
      "note_off channel=0 note=77 velocity=64 time=15\n",
      "note_on channel=0 note=53 velocity=82 time=415\n",
      "note_on channel=0 note=64 velocity=73 time=5\n",
      "note_on channel=0 note=71 velocity=62 time=5\n",
      "note_on channel=0 note=76 velocity=73 time=5\n",
      "note_on channel=0 note=59 velocity=79 time=0\n",
      "control_change channel=0 control=64 value=0 time=10\n",
      "control_change channel=0 control=64 value=127 time=210\n",
      "note_off channel=0 note=71 velocity=64 time=695\n",
      "note_off channel=0 note=53 velocity=64 time=5\n",
      "note_off channel=0 note=64 velocity=64 time=5\n",
      "note_off channel=0 note=59 velocity=64 time=15\n",
      "note_off channel=0 note=76 velocity=64 time=5\n",
      "control_change channel=0 control=64 value=0 time=495\n",
      "note_on channel=0 note=79 velocity=64 time=5\n",
      "note_on channel=0 note=74 velocity=73 time=5\n",
      "note_on channel=0 note=71 velocity=48 time=5\n",
      "note_on channel=0 note=59 velocity=67 time=5\n",
      "note_on channel=0 note=64 velocity=62 time=5\n",
      "note_on channel=0 note=53 velocity=62 time=5\n",
      "control_change channel=0 control=64 value=127 time=225\n",
      "note_off channel=0 note=79 velocity=64 time=470\n",
      "note_off channel=0 note=74 velocity=64 time=30\n",
      "note_off channel=0 note=71 velocity=64 time=15\n",
      "note_off channel=0 note=64 velocity=64 time=25\n",
      "note_off channel=0 note=53 velocity=64 time=20\n",
      "note_off channel=0 note=59 velocity=64 time=15\n",
      "note_on channel=0 note=77 velocity=55 time=565\n",
      "note_on channel=0 note=64 velocity=62 time=5\n",
      "note_on channel=0 note=72 velocity=67 time=10\n",
      "control_change channel=0 control=64 value=0 time=0\n",
      "note_on channel=0 note=59 velocity=62 time=5\n",
      "note_on channel=0 note=53 velocity=67 time=0\n",
      "note_on channel=0 note=69 velocity=49 time=5\n",
      "control_change channel=0 control=64 value=127 time=245\n",
      "note_off channel=0 note=72 velocity=64 time=385\n",
      "note_off channel=0 note=77 velocity=64 time=15\n",
      "note_off channel=0 note=64 velocity=64 time=50\n",
      "note_off channel=0 note=69 velocity=64 time=10\n",
      "note_off channel=0 note=59 velocity=64 time=5\n",
      "note_off channel=0 note=53 velocity=64 time=0\n",
      "note_on channel=0 note=71 velocity=64 time=715\n",
      "note_on channel=0 note=67 velocity=45 time=0\n",
      "note_on channel=0 note=76 velocity=51 time=5\n",
      "note_on channel=0 note=59 velocity=55 time=5\n"
     ]
    },
    {
     "name": "stdout",
     "output_type": "stream",
     "text": [
      "note_on channel=0 note=53 velocity=55 time=10\n",
      "control_change channel=0 control=64 value=0 time=0\n",
      "note_on channel=0 note=64 velocity=57 time=5\n",
      "control_change channel=0 control=64 value=127 time=5\n",
      "control_change channel=0 control=64 value=0 time=10\n",
      "control_change channel=0 control=64 value=127 time=205\n",
      "note_off channel=0 note=64 velocity=64 time=565\n",
      "note_off channel=0 note=53 velocity=64 time=15\n",
      "note_off channel=0 note=59 velocity=64 time=15\n",
      "note_off channel=0 note=71 velocity=64 time=25\n",
      "note_off channel=0 note=67 velocity=64 time=15\n",
      "note_off channel=0 note=76 velocity=64 time=5\n",
      "control_change channel=0 control=64 value=0 time=565\n",
      "note_on channel=0 note=71 velocity=62 time=5\n",
      "note_on channel=0 note=67 velocity=51 time=5\n",
      "note_on channel=0 note=59 velocity=55 time=5\n",
      "note_on channel=0 note=64 velocity=52 time=10\n",
      "note_on channel=0 note=53 velocity=54 time=0\n",
      "control_change channel=0 control=64 value=127 time=170\n",
      "note_off channel=0 note=53 velocity=64 time=360\n",
      "note_off channel=0 note=64 velocity=64 time=15\n",
      "note_off channel=0 note=59 velocity=64 time=25\n",
      "note_off channel=0 note=67 velocity=64 time=30\n",
      "note_off channel=0 note=71 velocity=64 time=55\n",
      "note_on channel=0 note=72 velocity=51 time=275\n",
      "note_on channel=0 note=69 velocity=43 time=10\n",
      "note_on channel=0 note=53 velocity=52 time=5\n",
      "note_on channel=0 note=59 velocity=54 time=5\n",
      "note_on channel=0 note=64 velocity=51 time=0\n",
      "note_off channel=0 note=64 velocity=64 time=145\n",
      "note_off channel=0 note=69 velocity=64 time=0\n",
      "note_off channel=0 note=53 velocity=64 time=5\n",
      "note_off channel=0 note=59 velocity=64 time=5\n",
      "note_off channel=0 note=72 velocity=64 time=20\n",
      "note_on channel=0 note=74 velocity=76 time=295\n",
      "control_change channel=0 control=64 value=0 time=5\n",
      "note_on channel=0 note=71 velocity=70 time=5\n",
      "note_on channel=0 note=59 velocity=64 time=0\n",
      "note_on channel=0 note=64 velocity=62 time=5\n",
      "note_on channel=0 note=53 velocity=64 time=0\n",
      "control_change channel=0 control=64 value=127 time=140\n",
      "note_off channel=0 note=53 velocity=64 time=430\n",
      "note_off channel=0 note=64 velocity=64 time=30\n",
      "note_off channel=0 note=59 velocity=64 time=15\n",
      "note_off channel=0 note=74 velocity=64 time=20\n",
      "note_off channel=0 note=71 velocity=64 time=65\n",
      "note_on channel=0 note=72 velocity=57 time=240\n",
      "note_on channel=0 note=69 velocity=49 time=0\n",
      "note_on channel=0 note=64 velocity=44 time=20\n",
      "note_on channel=0 note=59 velocity=49 time=5\n",
      "note_on channel=0 note=53 velocity=54 time=0\n",
      "note_off channel=0 note=53 velocity=64 time=120\n",
      "note_off channel=0 note=64 velocity=64 time=15\n",
      "note_off channel=0 note=59 velocity=64 time=20\n",
      "note_off channel=0 note=72 velocity=64 time=40\n",
      "note_off channel=0 note=69 velocity=64 time=15\n",
      "control_change channel=0 control=64 value=0 time=255\n",
      "note_on channel=0 note=71 velocity=73 time=5\n",
      "note_on channel=0 note=67 velocity=59 time=10\n",
      "note_on channel=0 note=64 velocity=62 time=5\n",
      "note_on channel=0 note=59 velocity=67 time=5\n",
      "note_on channel=0 note=53 velocity=67 time=0\n",
      "control_change channel=0 control=64 value=127 time=140\n",
      "note_off channel=0 note=67 velocity=64 time=465\n",
      "note_off channel=0 note=71 velocity=64 time=80\n",
      "note_on channel=0 note=72 velocity=70 time=245\n",
      "note_on channel=0 note=69 velocity=57 time=5\n",
      "note_off channel=0 note=53 velocity=64 time=70\n",
      "note_off channel=0 note=64 velocity=64 time=20\n",
      "note_off channel=0 note=59 velocity=64 time=15\n",
      "note_off channel=0 note=69 velocity=64 time=95\n",
      "note_off channel=0 note=72 velocity=64 time=60\n",
      "note_on channel=0 note=74 velocity=70 time=215\n",
      "note_on channel=0 note=71 velocity=73 time=10\n",
      "note_on channel=0 note=59 velocity=54 time=505\n",
      "note_on channel=0 note=64 velocity=55 time=10\n",
      "note_on channel=0 note=53 velocity=64 time=0\n",
      "note_off channel=0 note=74 velocity=64 time=210\n",
      "note_off channel=0 note=71 velocity=64 time=90\n",
      "note_off channel=0 note=53 velocity=64 time=100\n",
      "note_off channel=0 note=64 velocity=64 time=5\n",
      "note_off channel=0 note=59 velocity=64 time=10\n",
      "note_on channel=0 note=69 velocity=62 time=55\n",
      "note_on channel=0 note=72 velocity=70 time=5\n",
      "note_off channel=0 note=69 velocity=64 time=295\n",
      "note_off channel=0 note=72 velocity=64 time=10\n",
      "control_change channel=0 control=64 value=0 time=155\n",
      "note_on channel=0 note=67 velocity=55 time=15\n",
      "note_on channel=0 note=71 velocity=70 time=5\n",
      "note_on channel=0 note=53 velocity=59 time=15\n",
      "note_on channel=0 note=59 velocity=57 time=5\n",
      "note_on channel=0 note=64 velocity=52 time=5\n",
      "control_change channel=0 control=64 value=127 time=70\n",
      "note_off channel=0 note=67 velocity=64 time=470\n",
      "note_off channel=0 note=53 velocity=64 time=50\n",
      "note_off channel=0 note=71 velocity=64 time=5\n",
      "note_off channel=0 note=64 velocity=64 time=0\n",
      "note_off channel=0 note=59 velocity=64 time=15\n",
      "note_on channel=0 note=69 velocity=48 time=265\n",
      "note_on channel=0 note=72 velocity=62 time=5\n",
      "note_off channel=0 note=69 velocity=64 time=185\n",
      "note_off channel=0 note=72 velocity=64 time=20\n",
      "note_on channel=0 note=74 velocity=76 time=285\n",
      "note_on channel=0 note=71 velocity=76 time=5\n",
      "note_on channel=0 note=59 velocity=55 time=490\n",
      "note_on channel=0 note=53 velocity=59 time=10\n",
      "note_on channel=0 note=64 velocity=54 time=5\n",
      "note_off channel=0 note=74 velocity=64 time=80\n",
      "note_off channel=0 note=71 velocity=64 time=70\n",
      "note_off channel=0 note=53 velocity=64 time=215\n",
      "note_off channel=0 note=59 velocity=64 time=25\n",
      "note_off channel=0 note=64 velocity=64 time=0\n",
      "note_on channel=0 note=72 velocity=62 time=110\n",
      "note_on channel=0 note=69 velocity=57 time=10\n",
      "note_off channel=0 note=69 velocity=64 time=85\n",
      "note_off channel=0 note=72 velocity=64 time=15\n",
      "control_change channel=0 control=64 value=0 time=330\n",
      "note_on channel=0 note=67 velocity=62 time=940\n",
      "note_on channel=0 note=72 velocity=62 time=5\n",
      "note_on channel=0 note=64 velocity=49 time=5\n",
      "note_on channel=0 note=59 velocity=67 time=0\n",
      "control_change channel=0 control=64 value=127 time=5\n",
      "note_on channel=0 note=62 velocity=62 time=10\n",
      "note_off channel=0 note=64 velocity=64 time=80\n",
      "note_off channel=0 note=67 velocity=64 time=10\n",
      "note_off channel=0 note=72 velocity=64 time=30\n",
      "note_off channel=0 note=59 velocity=64 time=0\n",
      "note_off channel=0 note=62 velocity=64 time=0\n",
      "control_change channel=0 control=64 value=0 time=325\n",
      "note_on channel=0 note=74 velocity=70 time=10\n",
      "note_on channel=0 note=69 velocity=70 time=0\n",
      "note_on channel=0 note=65 velocity=62 time=10\n",
      "note_on channel=0 note=60 velocity=73 time=5\n",
      "note_on channel=0 note=64 velocity=73 time=10\n",
      "control_change channel=0 control=64 value=127 time=45\n",
      "note_off channel=0 note=65 velocity=64 time=45\n",
      "note_off channel=0 note=69 velocity=64 time=25\n",
      "note_off channel=0 note=60 velocity=64 time=10\n",
      "note_off channel=0 note=64 velocity=64 time=10\n",
      "note_off channel=0 note=74 velocity=64 time=5\n",
      "control_change channel=0 control=64 value=0 time=305\n",
      "note_on channel=0 note=76 velocity=70 time=30\n",
      "note_on channel=0 note=71 velocity=76 time=5\n",
      "note_on channel=0 note=62 velocity=82 time=5\n",
      "note_on channel=0 note=67 velocity=57 time=0\n",
      "note_on channel=0 note=65 velocity=73 time=5\n",
      "control_change channel=0 control=64 value=127 time=5\n",
      "note_off channel=0 note=67 velocity=64 time=80\n",
      "note_off channel=0 note=62 velocity=64 time=5\n",
      "note_off channel=0 note=71 velocity=64 time=5\n",
      "note_off channel=0 note=65 velocity=64 time=10\n",
      "note_off channel=0 note=76 velocity=64 time=20\n",
      "note_on channel=0 note=77 velocity=82 time=340\n",
      "note_on channel=0 note=69 velocity=62 time=10\n",
      "note_on channel=0 note=67 velocity=57 time=5\n",
      "note_on channel=0 note=64 velocity=76 time=5\n",
      "note_on channel=0 note=72 velocity=76 time=5\n",
      "note_off channel=0 note=67 velocity=64 time=65\n",
      "note_off channel=0 note=69 velocity=64 time=20\n",
      "note_off channel=0 note=64 velocity=64 time=0\n",
      "note_off channel=0 note=72 velocity=64 time=0\n",
      "note_off channel=0 note=77 velocity=64 time=10\n",
      "note_on channel=0 note=58 velocity=57 time=395\n",
      "note_on channel=0 note=79 velocity=82 time=5\n",
      "note_on channel=0 note=74 velocity=76 time=0\n",
      "note_on channel=0 note=52 velocity=76 time=5\n",
      "note_on channel=0 note=62 velocity=67 time=5\n",
      "control_change channel=0 control=64 value=0 time=5\n",
      "control_change channel=0 control=64 value=127 time=325\n",
      "note_off channel=0 note=74 velocity=64 time=335\n",
      "note_off channel=0 note=62 velocity=64 time=25\n",
      "note_off channel=0 note=58 velocity=64 time=10\n",
      "note_off channel=0 note=52 velocity=64 time=5\n",
      "note_off channel=0 note=79 velocity=64 time=5\n",
      "control_change channel=0 control=64 value=0 time=1095\n",
      "note_on channel=0 note=79 velocity=76 time=55\n",
      "note_on channel=0 note=84 velocity=67 time=5\n",
      "note_on channel=0 note=52 velocity=82 time=10\n",
      "note_on channel=0 note=72 velocity=52 time=0\n",
      "note_on channel=0 note=62 velocity=76 time=5\n",
      "note_on channel=0 note=58 velocity=64 time=5\n",
      "note_off channel=0 note=79 velocity=64 time=195\n",
      "note_off channel=0 note=72 velocity=64 time=10\n",
      "note_off channel=0 note=52 velocity=64 time=5\n",
      "note_off channel=0 note=84 velocity=64 time=10\n",
      "note_off channel=0 note=62 velocity=64 time=5\n",
      "note_off channel=0 note=58 velocity=64 time=15\n",
      "note_on channel=0 note=84 velocity=70 time=690\n",
      "note_on channel=0 note=79 velocity=76 time=5\n",
      "note_on channel=0 note=58 velocity=62 time=0\n",
      "note_on channel=0 note=62 velocity=76 time=5\n",
      "note_on channel=0 note=52 velocity=79 time=5\n",
      "note_on channel=0 note=72 velocity=64 time=0\n",
      "control_change channel=0 control=64 value=127 time=140\n",
      "note_off channel=0 note=79 velocity=64 time=575\n",
      "note_off channel=0 note=72 velocity=64 time=5\n",
      "note_off channel=0 note=84 velocity=64 time=5\n",
      "note_off channel=0 note=52 velocity=64 time=80\n",
      "note_off channel=0 note=62 velocity=64 time=5\n",
      "note_off channel=0 note=58 velocity=64 time=25\n",
      "control_change channel=0 control=64 value=0 time=545\n",
      "note_on channel=0 note=74 velocity=70 time=70\n",
      "note_on channel=0 note=65 velocity=55 time=5\n",
      "note_on channel=0 note=70 velocity=57 time=5\n",
      "note_on channel=0 note=52 velocity=57 time=5\n",
      "note_on channel=0 note=62 velocity=51 time=5\n",
      "note_on channel=0 note=58 velocity=52 time=5\n",
      "control_change channel=0 control=64 value=127 time=30\n",
      "note_off channel=0 note=65 velocity=64 time=35\n",
      "note_off channel=0 note=74 velocity=64 time=25\n",
      "note_off channel=0 note=52 velocity=64 time=10\n",
      "note_off channel=0 note=62 velocity=64 time=0\n",
      "note_off channel=0 note=70 velocity=64 time=5\n",
      "note_off channel=0 note=58 velocity=64 time=15\n",
      "control_change channel=0 control=64 value=0 time=300\n",
      "note_on channel=0 note=72 velocity=76 time=30\n",
      "note_on channel=0 note=76 velocity=76 time=0\n",
      "note_on channel=0 note=67 velocity=57 time=5\n",
      "note_on channel=0 note=58 velocity=64 time=5\n",
      "note_on channel=0 note=62 velocity=73 time=5\n",
      "note_on channel=0 note=52 velocity=76 time=5\n",
      "control_change channel=0 control=64 value=127 time=5\n",
      "note_off channel=0 note=67 velocity=64 time=50\n",
      "note_off channel=0 note=72 velocity=64 time=20\n",
      "note_off channel=0 note=76 velocity=64 time=10\n",
      "note_off channel=0 note=62 velocity=64 time=0\n",
      "note_off channel=0 note=52 velocity=64 time=0\n",
      "note_off channel=0 note=58 velocity=64 time=5\n",
      "note_on channel=0 note=70 velocity=64 time=355\n",
      "note_on channel=0 note=77 velocity=79 time=5\n",
      "note_on channel=0 note=74 velocity=79 time=0\n",
      "note_on channel=0 note=58 velocity=67 time=5\n",
      "note_on channel=0 note=52 velocity=76 time=5\n",
      "note_on channel=0 note=62 velocity=73 time=5\n",
      "note_off channel=0 note=52 velocity=64 time=50\n",
      "note_off channel=0 note=74 velocity=64 time=5\n",
      "note_off channel=0 note=70 velocity=64 time=10\n",
      "note_off channel=0 note=62 velocity=64 time=10\n",
      "note_off channel=0 note=77 velocity=64 time=5\n",
      "note_off channel=0 note=58 velocity=64 time=5\n",
      "control_change channel=0 control=64 value=0 time=385\n",
      "note_on channel=0 note=76 velocity=73 time=15\n",
      "note_on channel=0 note=53 velocity=73 time=5\n",
      "note_on channel=0 note=64 velocity=64 time=5\n",
      "note_on channel=0 note=71 velocity=67 time=0\n",
      "note_on channel=0 note=59 velocity=73 time=5\n",
      "control_change channel=0 control=64 value=127 time=195\n",
      "note_off channel=0 note=53 velocity=64 time=285\n",
      "note_off channel=0 note=64 velocity=64 time=10\n",
      "note_off channel=0 note=59 velocity=64 time=10\n",
      "note_off channel=0 note=71 velocity=64 time=25\n",
      "note_off channel=0 note=76 velocity=64 time=10\n",
      "note_on channel=0 note=74 velocity=67 time=375\n",
      "note_on channel=0 note=53 velocity=67 time=15\n",
      "note_on channel=0 note=64 velocity=57 time=5\n",
      "note_on channel=0 note=69 velocity=49 time=5\n",
      "note_on channel=0 note=59 velocity=64 time=0\n",
      "control_change channel=0 control=64 value=0 time=5\n",
      "note_off channel=0 note=53 velocity=64 time=100\n",
      "note_off channel=0 note=64 velocity=64 time=15\n",
      "note_off channel=0 note=69 velocity=64 time=5\n",
      "note_off channel=0 note=59 velocity=64 time=10\n",
      "note_off channel=0 note=74 velocity=64 time=10\n",
      "control_change channel=0 control=64 value=127 time=805\n",
      "note_on channel=0 note=71 velocity=62 time=10\n",
      "note_on channel=0 note=59 velocity=54 time=5\n",
      "note_on channel=0 note=67 velocity=47 time=0\n",
      "note_on channel=0 note=53 velocity=55 time=5\n",
      "note_on channel=0 note=64 velocity=51 time=5\n",
      "note_off channel=0 note=67 velocity=64 time=100\n",
      "note_off channel=0 note=53 velocity=64 time=10\n",
      "note_off channel=0 note=64 velocity=64 time=10\n",
      "note_off channel=0 note=59 velocity=64 time=10\n",
      "note_off channel=0 note=71 velocity=64 time=5\n",
      "control_change channel=0 control=64 value=0 time=285\n",
      "note_on channel=0 note=72 velocity=82 time=25\n",
      "note_on channel=0 note=59 velocity=82 time=5\n",
      "note_on channel=0 note=69 velocity=79 time=5\n",
      "note_on channel=0 note=53 velocity=89 time=0\n",
      "note_on channel=0 note=64 velocity=79 time=5\n",
      "control_change channel=0 control=64 value=127 time=110\n",
      "note_off channel=0 note=53 velocity=64 time=25\n",
      "note_off channel=0 note=64 velocity=64 time=15\n",
      "note_off channel=0 note=59 velocity=64 time=5\n",
      "note_off channel=0 note=72 velocity=64 time=25\n",
      "note_off channel=0 note=69 velocity=64 time=45\n",
      "note_on channel=0 note=71 velocity=67 time=255\n",
      "note_on channel=0 note=67 velocity=57 time=5\n",
      "note_on channel=0 note=53 velocity=70 time=5\n",
      "note_on channel=0 note=64 velocity=59 time=5\n",
      "note_on channel=0 note=59 velocity=64 time=0\n",
      "control_change channel=0 control=64 value=0 time=5\n",
      "control_change channel=0 control=64 value=127 time=200\n",
      "note_off channel=0 note=71 velocity=64 time=355\n",
      "note_off channel=0 note=67 velocity=64 time=25\n",
      "note_off channel=0 note=64 velocity=64 time=10\n",
      "note_off channel=0 note=53 velocity=64 time=15\n",
      "note_off channel=0 note=59 velocity=64 time=0\n",
      "control_change channel=0 control=64 value=0 time=805\n",
      "control_change channel=0 control=64 value=127 time=10\n",
      "note_on channel=0 note=59 velocity=57 time=15\n",
      "control_change channel=0 control=64 value=0 time=0\n",
      "note_on channel=0 note=53 velocity=67 time=5\n",
      "note_on channel=0 note=65 velocity=49 time=5\n",
      "note_on channel=0 note=69 velocity=38 time=20\n",
      "control_change channel=0 control=64 value=127 time=90\n",
      "note_off channel=0 note=69 velocity=64 time=455\n",
      "note_off channel=0 note=65 velocity=64 time=10\n",
      "note_off channel=0 note=59 velocity=64 time=20\n",
      "note_off channel=0 note=53 velocity=64 time=5\n",
      "control_change channel=0 control=64 value=0 time=810\n",
      "note_on channel=0 note=65 velocity=73 time=10\n",
      "note_on channel=0 note=60 velocity=62 time=5\n",
      "note_on channel=0 note=54 velocity=55 time=10\n",
      "control_change channel=0 control=64 value=127 time=255\n",
      "note_off channel=0 note=60 velocity=64 time=445\n",
      "note_off channel=0 note=54 velocity=64 time=10\n",
      "note_off channel=0 note=65 velocity=64 time=10\n",
      "control_change channel=0 control=64 value=0 time=1390\n",
      "note_on channel=0 note=60 velocity=67 time=60\n",
      "note_on channel=0 note=72 velocity=67 time=5\n",
      "note_on channel=0 note=54 velocity=54 time=5\n",
      "control_change channel=0 control=64 value=127 time=55\n",
      "note_off channel=0 note=54 velocity=64 time=130\n",
      "note_off channel=0 note=60 velocity=64 time=5\n",
      "note_off channel=0 note=72 velocity=64 time=50\n",
      "note_on channel=0 note=77 velocity=103 time=155\n",
      "note_off channel=0 note=77 velocity=64 time=240\n",
      "note_on channel=0 note=61 velocity=70 time=115\n",
      "note_on channel=0 note=55 velocity=73 time=0\n",
      "control_change channel=0 control=64 value=0 time=0\n",
      "note_on channel=0 note=65 velocity=62 time=5\n",
      "note_on channel=0 note=72 velocity=76 time=5\n",
      "control_change channel=0 control=64 value=127 time=190\n",
      "note_off channel=0 note=65 velocity=64 time=535\n",
      "note_off channel=0 note=72 velocity=64 time=15\n",
      "note_off channel=0 note=61 velocity=64 time=20\n",
      "note_off channel=0 note=55 velocity=64 time=30\n",
      "control_change channel=0 control=64 value=0 time=505\n",
      "control_change channel=0 control=64 value=127 time=15\n",
      "control_change channel=0 control=64 value=0 time=10\n",
      "note_on channel=0 note=71 velocity=64 time=35\n",
      "note_on channel=0 note=68 velocity=62 time=0\n",
      "note_on channel=0 note=54 velocity=64 time=5\n",
      "note_on channel=0 note=60 velocity=64 time=0\n",
      "note_on channel=0 note=64 velocity=51 time=10\n",
      "control_change channel=0 control=64 value=127 time=105\n",
      "note_off channel=0 note=60 velocity=64 time=355\n",
      "note_off channel=0 note=54 velocity=64 time=5\n",
      "note_off channel=0 note=71 velocity=64 time=0\n",
      "note_off channel=0 note=64 velocity=64 time=5\n",
      "note_off channel=0 note=68 velocity=64 time=5\n",
      "control_change channel=0 control=64 value=0 time=255\n",
      "note_on channel=0 note=54 velocity=73 time=25\n",
      "note_on channel=0 note=71 velocity=67 time=5\n",
      "note_on channel=0 note=68 velocity=62 time=5\n",
      "note_on channel=0 note=64 velocity=64 time=0\n",
      "note_on channel=0 note=60 velocity=82 time=5\n",
      "control_change channel=0 control=64 value=127 time=110\n",
      "note_off channel=0 note=60 velocity=64 time=110\n",
      "note_off channel=0 note=68 velocity=64 time=5\n",
      "note_off channel=0 note=71 velocity=64 time=30\n",
      "note_off channel=0 note=64 velocity=64 time=5\n",
      "note_off channel=0 note=54 velocity=64 time=5\n",
      "note_on channel=0 note=71 velocity=76 time=360\n",
      "note_on channel=0 note=67 velocity=67 time=5\n",
      "control_change channel=0 control=64 value=0 time=5\n",
      "note_on channel=0 note=53 velocity=73 time=5\n",
      "note_on channel=0 note=59 velocity=70 time=5\n",
      "control_change channel=0 control=64 value=127 time=155\n",
      "note_off channel=0 note=53 velocity=64 time=360\n",
      "note_off channel=0 note=67 velocity=64 time=15\n",
      "note_off channel=0 note=71 velocity=64 time=0\n",
      "note_off channel=0 note=59 velocity=64 time=10\n",
      "control_change channel=0 control=64 value=0 time=220\n",
      "note_on channel=0 note=67 velocity=67 time=5\n",
      "note_on channel=0 note=59 velocity=70 time=5\n",
      "note_on channel=0 note=71 velocity=70 time=0\n",
      "note_on channel=0 note=53 velocity=76 time=5\n",
      "control_change channel=0 control=64 value=127 time=120\n",
      "note_off channel=0 note=53 velocity=64 time=195\n",
      "note_off channel=0 note=59 velocity=64 time=5\n",
      "note_off channel=0 note=67 velocity=64 time=40\n",
      "note_off channel=0 note=71 velocity=64 time=20\n",
      "note_on channel=0 note=69 velocity=55 time=305\n",
      "note_on channel=0 note=59 velocity=44 time=5\n",
      "note_on channel=0 note=65 velocity=47 time=10\n",
      "note_on channel=0 note=53 velocity=54 time=5\n",
      "control_change channel=0 control=64 value=0 time=5\n",
      "control_change channel=0 control=64 value=127 time=205\n",
      "note_off channel=0 note=53 velocity=64 time=705\n",
      "note_off channel=0 note=59 velocity=64 time=50\n",
      "note_off channel=0 note=65 velocity=64 time=10\n",
      "note_off channel=0 note=69 velocity=64 time=40\n",
      "control_change channel=0 control=64 value=0 time=390\n",
      "note_on channel=0 note=71 velocity=67 time=65\n",
      "note_on channel=0 note=59 velocity=55 time=5\n",
      "note_on channel=0 note=67 velocity=55 time=0\n",
      "note_on channel=0 note=53 velocity=70 time=5\n",
      "control_change channel=0 control=64 value=127 time=150\n",
      "note_off channel=0 note=67 velocity=64 time=435\n",
      "note_off channel=0 note=71 velocity=64 time=5\n",
      "note_off channel=0 note=53 velocity=64 time=0\n",
      "note_off channel=0 note=59 velocity=64 time=10\n",
      "note_on channel=0 note=67 velocity=79 time=160\n",
      "note_on channel=0 note=71 velocity=79 time=10\n",
      "note_on channel=0 note=59 velocity=79 time=0\n",
      "note_on channel=0 note=53 velocity=79 time=15\n",
      "note_off channel=0 note=53 velocity=64 time=240\n",
      "note_off channel=0 note=59 velocity=64 time=5\n",
      "note_off channel=0 note=71 velocity=64 time=65\n",
      "note_off channel=0 note=67 velocity=64 time=0\n",
      "control_change channel=0 control=64 value=0 time=320\n",
      "note_on channel=0 note=69 velocity=59 time=5\n",
      "note_on channel=0 note=59 velocity=52 time=0\n",
      "note_on channel=0 note=65 velocity=49 time=5\n",
      "note_on channel=0 note=53 velocity=62 time=0\n",
      "control_change channel=0 control=64 value=127 time=280\n",
      "note_off channel=0 note=53 velocity=64 time=350\n",
      "note_off channel=0 note=65 velocity=64 time=25\n",
      "note_off channel=0 note=59 velocity=64 time=20\n",
      "note_off channel=0 note=69 velocity=64 time=25\n",
      "note_on channel=0 note=53 velocity=57 time=710\n",
      "note_on channel=0 note=76 velocity=59 time=5\n",
      "note_on channel=0 note=59 velocity=64 time=5\n",
      "note_on channel=0 note=64 velocity=57 time=0\n",
      "note_on channel=0 note=71 velocity=51 time=5\n",
      "control_change channel=0 control=64 value=0 time=5\n",
      "control_change channel=0 control=64 value=127 time=385\n",
      "note_off channel=0 note=71 velocity=64 time=1135\n",
      "note_off channel=0 note=53 velocity=64 time=25\n",
      "note_off channel=0 note=64 velocity=64 time=20\n",
      "note_off channel=0 note=59 velocity=64 time=5\n",
      "note_off channel=0 note=76 velocity=64 time=25\n",
      "note_on channel=0 note=65 velocity=54 time=3420\n",
      "note_off channel=0 note=65 velocity=64 time=85\n",
      "note_on channel=0 note=67 velocity=54 time=5\n",
      "note_off channel=0 note=67 velocity=64 time=55\n",
      "note_on channel=0 note=71 velocity=64 time=110\n",
      "note_off channel=0 note=71 velocity=64 time=50\n",
      "note_on channel=0 note=76 velocity=76 time=20\n",
      "note_on channel=0 note=71 velocity=70 time=80\n",
      "note_off channel=0 note=76 velocity=64 time=35\n",
      "note_off channel=0 note=71 velocity=64 time=65\n",
      "note_on channel=0 note=69 velocity=89 time=5\n",
      "note_off channel=0 note=69 velocity=64 time=80\n",
      "note_on channel=0 note=65 velocity=67 time=30\n",
      "note_on channel=0 note=67 velocity=73 time=75\n",
      "note_off channel=0 note=65 velocity=64 time=5\n",
      "note_on channel=0 note=69 velocity=67 time=80\n",
      "note_off channel=0 note=67 velocity=64 time=20\n",
      "note_off channel=0 note=69 velocity=64 time=45\n",
      "note_on channel=0 note=71 velocity=73 time=35\n",
      "note_off channel=0 note=71 velocity=64 time=50\n",
      "note_on channel=0 note=76 velocity=70 time=30\n",
      "note_on channel=0 note=71 velocity=64 time=80\n",
      "note_off channel=0 note=76 velocity=64 time=20\n",
      "note_off channel=0 note=71 velocity=64 time=65\n",
      "note_on channel=0 note=69 velocity=76 time=10\n",
      "note_off channel=0 note=69 velocity=64 time=80\n",
      "note_on channel=0 note=65 velocity=62 time=5\n",
      "note_off channel=0 note=65 velocity=64 time=75\n",
      "note_on channel=0 note=67 velocity=70 time=10\n",
      "note_on channel=0 note=69 velocity=64 time=85\n",
      "note_off channel=0 note=67 velocity=64 time=15\n",
      "note_off channel=0 note=69 velocity=64 time=40\n",
      "note_on channel=0 note=71 velocity=76 time=35\n",
      "note_off channel=0 note=71 velocity=64 time=55\n",
      "note_on channel=0 note=76 velocity=52 time=45\n",
      "note_off channel=0 note=76 velocity=64 time=70\n",
      "note_on channel=0 note=71 velocity=64 time=0\n",
      "note_off channel=0 note=71 velocity=64 time=80\n",
      "note_on channel=0 note=69 velocity=62 time=20\n",
      "note_off channel=0 note=69 velocity=64 time=60\n",
      "note_on channel=0 note=65 velocity=55 time=5\n",
      "note_off channel=0 note=65 velocity=64 time=80\n",
      "note_on channel=0 note=67 velocity=70 time=15\n",
      "note_off channel=0 note=67 velocity=64 time=90\n",
      "note_on channel=0 note=69 velocity=62 time=0\n",
      "note_off channel=0 note=69 velocity=64 time=50\n",
      "note_on channel=0 note=71 velocity=59 time=50\n",
      "note_off channel=0 note=71 velocity=64 time=55\n",
      "note_on channel=0 note=65 velocity=54 time=95\n",
      "note_off channel=0 note=65 velocity=64 time=60\n",
      "note_on channel=0 note=67 velocity=64 time=10\n",
      "note_off channel=0 note=67 velocity=64 time=55\n",
      "note_on channel=0 note=71 velocity=55 time=110\n",
      "note_off channel=0 note=71 velocity=64 time=60\n",
      "note_on channel=0 note=69 velocity=73 time=100\n",
      "note_on channel=0 note=71 velocity=64 time=100\n",
      "note_off channel=0 note=69 velocity=64 time=35\n",
      "note_on channel=0 note=74 velocity=82 time=25\n",
      "note_off channel=0 note=71 velocity=64 time=25\n",
      "note_off channel=0 note=74 velocity=64 time=60\n",
      "note_on channel=0 note=76 velocity=85 time=5\n",
      "note_off channel=0 note=76 velocity=64 time=55\n",
      "note_on channel=0 note=81 velocity=85 time=20\n",
      "note_on channel=0 note=76 velocity=76 time=110\n",
      "note_off channel=0 note=81 velocity=64 time=20\n",
      "note_on channel=0 note=74 velocity=89 time=70\n",
      "note_off channel=0 note=76 velocity=64 time=5\n",
      "note_off channel=0 note=74 velocity=64 time=70\n",
      "note_on channel=0 note=69 velocity=67 time=20\n",
      "note_on channel=0 note=71 velocity=70 time=85\n",
      "note_off channel=0 note=69 velocity=64 time=5\n",
      "note_on channel=0 note=74 velocity=59 time=95\n",
      "note_off channel=0 note=71 velocity=64 time=10\n",
      "note_off channel=0 note=74 velocity=64 time=45\n",
      "note_on channel=0 note=76 velocity=62 time=35\n",
      "note_off channel=0 note=76 velocity=64 time=55\n",
      "note_on channel=0 note=81 velocity=62 time=30\n",
      "note_off channel=0 note=81 velocity=64 time=50\n",
      "note_on channel=0 note=76 velocity=57 time=15\n",
      "note_off channel=0 note=76 velocity=64 time=75\n",
      "note_on channel=0 note=74 velocity=48 time=30\n",
      "note_off channel=0 note=74 velocity=64 time=50\n",
      "note_on channel=0 note=69 velocity=39 time=40\n",
      "note_off channel=0 note=69 velocity=64 time=65\n",
      "note_on channel=0 note=71 velocity=57 time=20\n",
      "note_on channel=0 note=74 velocity=47 time=75\n",
      "note_off channel=0 note=71 velocity=64 time=30\n",
      "note_off channel=0 note=74 velocity=64 time=20\n",
      "note_on channel=0 note=76 velocity=54 time=35\n",
      "note_off channel=0 note=76 velocity=64 time=60\n",
      "note_on channel=0 note=74 velocity=38 time=215\n",
      "note_off channel=0 note=74 velocity=64 time=50\n",
      "note_on channel=0 note=69 velocity=32 time=40\n",
      "note_off channel=0 note=69 velocity=64 time=50\n",
      "note_on channel=0 note=71 velocity=49 time=35\n",
      "note_off channel=0 note=71 velocity=64 time=90\n",
      "note_on channel=0 note=53 velocity=67 time=1845\n",
      "control_change channel=0 control=64 value=0 time=5\n",
      "note_on channel=0 note=71 velocity=57 time=5\n",
      "note_on channel=0 note=59 velocity=67 time=5\n",
      "note_on channel=0 note=76 velocity=59 time=5\n",
      "note_on channel=0 note=64 velocity=62 time=5\n",
      "control_change channel=0 control=64 value=127 time=670\n",
      "note_off channel=0 note=76 velocity=64 time=425\n",
      "note_off channel=0 note=71 velocity=64 time=15\n",
      "note_off channel=0 note=64 velocity=64 time=575\n",
      "note_off channel=0 note=53 velocity=64 time=1850\n",
      "note_off channel=0 note=59 velocity=64 time=15\n",
      "control_change channel=0 control=64 value=0 time=2045\n",
      "control_change channel=0 control=64 value=127 time=20\n",
      "control_change channel=0 control=64 value=0 time=10\n",
      "note_on channel=0 note=77 velocity=70 time=80\n",
      "note_on channel=0 note=81 velocity=67 time=5\n",
      "note_on channel=0 note=53 velocity=67 time=5\n",
      "note_on channel=0 note=64 velocity=67 time=5\n",
      "note_on channel=0 note=59 velocity=73 time=5\n",
      "note_off channel=0 note=53 velocity=64 time=85\n",
      "note_off channel=0 note=81 velocity=64 time=0\n",
      "note_off channel=0 note=77 velocity=64 time=5\n",
      "note_off channel=0 note=64 velocity=64 time=5\n",
      "note_off channel=0 note=59 velocity=64 time=5\n",
      "note_on channel=0 note=64 velocity=62 time=690\n",
      "note_on channel=0 note=81 velocity=67 time=0\n",
      "note_on channel=0 note=77 velocity=64 time=0\n",
      "note_on channel=0 note=53 velocity=62 time=5\n",
      "note_on channel=0 note=59 velocity=64 time=0\n",
      "control_change channel=0 control=64 value=127 time=370\n",
      "note_off channel=0 note=77 velocity=64 time=325\n",
      "note_off channel=0 note=81 velocity=64 time=5\n",
      "note_off channel=0 note=53 velocity=64 time=10\n",
      "note_off channel=0 note=64 velocity=64 time=15\n",
      "note_off channel=0 note=59 velocity=64 time=5\n",
      "control_change channel=0 control=64 value=0 time=3100\n",
      "control_change channel=0 control=64 value=127 time=10\n",
      "control_change channel=0 control=64 value=0 time=10\n",
      "note_on channel=0 note=79 velocity=73 time=95\n",
      "note_on channel=0 note=76 velocity=64 time=5\n",
      "note_on channel=0 note=53 velocity=64 time=0\n",
      "note_on channel=0 note=59 velocity=64 time=5\n",
      "note_on channel=0 note=64 velocity=64 time=5\n",
      "control_change channel=0 control=64 value=127 time=5\n",
      "note_off channel=0 note=64 velocity=64 time=315\n",
      "note_off channel=0 note=53 velocity=64 time=5\n",
      "note_off channel=0 note=59 velocity=64 time=5\n",
      "note_off channel=0 note=76 velocity=64 time=10\n",
      "note_off channel=0 note=79 velocity=64 time=20\n",
      "note_on channel=0 note=77 velocity=82 time=90\n",
      "note_off channel=0 note=77 velocity=64 time=450\n",
      "note_on channel=0 note=74 velocity=79 time=25\n",
      "note_on channel=0 note=62 velocity=73 time=5\n",
      "note_on channel=0 note=58 velocity=59 time=5\n",
      "note_on channel=0 note=52 velocity=62 time=5\n",
      "control_change channel=0 control=64 value=0 time=5\n",
      "control_change channel=0 control=64 value=127 time=390\n",
      "note_off channel=0 note=52 velocity=64 time=510\n",
      "note_off channel=0 note=62 velocity=64 time=10\n",
      "note_off channel=0 note=74 velocity=64 time=5\n",
      "note_off channel=0 note=58 velocity=64 time=5\n",
      "control_change channel=0 control=64 value=0 time=1965\n",
      "note_on channel=0 note=70 velocity=70 time=35\n",
      "note_on channel=0 note=67 velocity=64 time=15\n",
      "note_on channel=0 note=58 velocity=62 time=0\n",
      "note_on channel=0 note=52 velocity=73 time=0\n",
      "note_on channel=0 note=62 velocity=70 time=10\n",
      "control_change channel=0 control=64 value=127 time=120\n",
      "note_off channel=0 note=52 velocity=64 time=815\n",
      "note_off channel=0 note=62 velocity=64 time=10\n",
      "note_off channel=0 note=58 velocity=64 time=15\n",
      "note_off channel=0 note=67 velocity=64 time=5\n",
      "note_off channel=0 note=70 velocity=64 time=15\n",
      "control_change channel=0 control=64 value=0 time=450\n",
      "note_on channel=0 note=70 velocity=62 time=10\n",
      "note_on channel=0 note=58 velocity=55 time=15\n",
      "note_on channel=0 note=67 velocity=62 time=5\n",
      "note_on channel=0 note=62 velocity=64 time=0\n",
      "note_on channel=0 note=52 velocity=57 time=0\n",
      "control_change channel=0 control=64 value=127 time=85\n",
      "note_off channel=0 note=67 velocity=64 time=210\n",
      "note_off channel=0 note=52 velocity=64 time=20\n",
      "note_off channel=0 note=70 velocity=64 time=15\n",
      "note_off channel=0 note=62 velocity=64 time=5\n",
      "note_off channel=0 note=58 velocity=64 time=5\n",
      "note_on channel=0 note=70 velocity=70 time=510\n",
      "note_on channel=0 note=58 velocity=62 time=5\n",
      "note_on channel=0 note=67 velocity=70 time=5\n",
      "note_on channel=0 note=52 velocity=73 time=5\n",
      "note_on channel=0 note=62 velocity=73 time=0\n",
      "note_off channel=0 note=52 velocity=64 time=70\n",
      "note_off channel=0 note=67 velocity=64 time=45\n",
      "note_off channel=0 note=62 velocity=64 time=0\n",
      "note_off channel=0 note=70 velocity=64 time=15\n",
      "note_off channel=0 note=58 velocity=64 time=5\n",
      "note_on channel=0 note=71 velocity=79 time=360\n",
      "control_change channel=0 control=64 value=0 time=0\n",
      "note_on channel=0 note=67 velocity=64 time=5\n",
      "note_on channel=0 note=59 velocity=67 time=0\n",
      "note_on channel=0 note=64 velocity=64 time=5\n",
      "note_on channel=0 note=53 velocity=67 time=5\n",
      "control_change channel=0 control=64 value=127 time=200\n",
      "note_off channel=0 note=53 velocity=64 time=365\n",
      "note_off channel=0 note=64 velocity=64 time=30\n",
      "note_off channel=0 note=59 velocity=64 time=5\n",
      "note_off channel=0 note=67 velocity=64 time=45\n",
      "note_off channel=0 note=71 velocity=64 time=55\n",
      "note_on channel=0 note=72 velocity=62 time=245\n",
      "note_on channel=0 note=69 velocity=42 time=5\n",
      "note_on channel=0 note=64 velocity=48 time=5\n",
      "note_on channel=0 note=59 velocity=54 time=5\n",
      "note_on channel=0 note=53 velocity=54 time=5\n",
      "note_off channel=0 note=53 velocity=64 time=110\n",
      "note_off channel=0 note=64 velocity=64 time=15\n",
      "note_off channel=0 note=69 velocity=64 time=15\n",
      "note_off channel=0 note=59 velocity=64 time=0\n",
      "note_off channel=0 note=72 velocity=64 time=10\n",
      "control_change channel=0 control=64 value=0 time=290\n",
      "note_on channel=0 note=71 velocity=76 time=30\n",
      "note_on channel=0 note=74 velocity=79 time=5\n",
      "note_on channel=0 note=64 velocity=73 time=5\n",
      "note_on channel=0 note=59 velocity=73 time=5\n",
      "note_on channel=0 note=53 velocity=70 time=5\n",
      "control_change channel=0 control=64 value=127 time=130\n",
      "note_off channel=0 note=53 velocity=64 time=415\n",
      "note_off channel=0 note=64 velocity=64 time=20\n",
      "note_off channel=0 note=74 velocity=64 time=0\n",
      "note_off channel=0 note=59 velocity=64 time=10\n",
      "note_off channel=0 note=71 velocity=64 time=60\n",
      "note_on channel=0 note=69 velocity=51 time=290\n",
      "note_on channel=0 note=72 velocity=59 time=5\n",
      "note_on channel=0 note=59 velocity=57 time=5\n",
      "note_on channel=0 note=64 velocity=55 time=5\n",
      "note_on channel=0 note=53 velocity=57 time=5\n",
      "note_off channel=0 note=53 velocity=64 time=110\n",
      "note_off channel=0 note=64 velocity=64 time=20\n",
      "note_off channel=0 note=59 velocity=64 time=15\n",
      "note_off channel=0 note=72 velocity=64 time=5\n",
      "note_off channel=0 note=69 velocity=64 time=30\n",
      "control_change channel=0 control=64 value=0 time=280\n",
      "note_on channel=0 note=71 velocity=76 time=5\n",
      "note_on channel=0 note=64 velocity=64 time=10\n",
      "note_on channel=0 note=67 velocity=62 time=5\n",
      "note_on channel=0 note=59 velocity=62 time=5\n",
      "note_on channel=0 note=53 velocity=59 time=10\n",
      "control_change channel=0 control=64 value=127 time=175\n",
      "note_off channel=0 note=53 velocity=64 time=420\n",
      "note_off channel=0 note=67 velocity=64 time=40\n",
      "note_off channel=0 note=64 velocity=64 time=0\n",
      "note_off channel=0 note=59 velocity=64 time=5\n",
      "note_off channel=0 note=71 velocity=64 time=75\n",
      "note_on channel=0 note=72 velocity=59 time=210\n",
      "note_on channel=0 note=69 velocity=52 time=15\n",
      "note_on channel=0 note=64 velocity=48 time=5\n",
      "note_on channel=0 note=53 velocity=55 time=0\n",
      "note_on channel=0 note=59 velocity=51 time=5\n",
      "note_off channel=0 note=53 velocity=64 time=145\n",
      "note_off channel=0 note=69 velocity=64 time=5\n",
      "note_off channel=0 note=64 velocity=64 time=20\n",
      "note_off channel=0 note=59 velocity=64 time=0\n",
      "note_off channel=0 note=72 velocity=64 time=5\n",
      "control_change channel=0 control=64 value=0 time=305\n",
      "note_on channel=0 note=71 velocity=79 time=5\n",
      "note_on channel=0 note=74 velocity=79 time=10\n",
      "note_on channel=0 note=64 velocity=76 time=5\n",
      "note_on channel=0 note=59 velocity=73 time=5\n",
      "note_on channel=0 note=53 velocity=70 time=10\n",
      "control_change channel=0 control=64 value=127 time=100\n",
      "note_off channel=0 note=53 velocity=64 time=425\n",
      "note_off channel=0 note=64 velocity=64 time=5\n",
      "note_off channel=0 note=59 velocity=64 time=10\n",
      "note_off channel=0 note=74 velocity=64 time=30\n",
      "note_off channel=0 note=71 velocity=64 time=95\n",
      "note_on channel=0 note=69 velocity=67 time=220\n",
      "note_on channel=0 note=72 velocity=70 time=0\n",
      "note_on channel=0 note=53 velocity=79 time=10\n",
      "note_on channel=0 note=64 velocity=70 time=5\n",
      "note_on channel=0 note=59 velocity=73 time=5\n",
      "note_off channel=0 note=53 velocity=64 time=80\n",
      "note_off channel=0 note=64 velocity=64 time=10\n",
      "note_off channel=0 note=59 velocity=64 time=0\n",
      "note_off channel=0 note=72 velocity=64 time=70\n",
      "note_off channel=0 note=69 velocity=64 time=0\n",
      "control_change channel=0 control=64 value=0 time=310\n",
      "note_on channel=0 note=54 velocity=64 time=15\n",
      "note_on channel=0 note=65 velocity=62 time=10\n",
      "note_on channel=0 note=69 velocity=59 time=5\n",
      "note_on channel=0 note=72 velocity=70 time=0\n",
      "note_on channel=0 note=60 velocity=76 time=5\n",
      "control_change channel=0 control=64 value=127 time=635\n",
      "note_off channel=0 note=69 velocity=64 time=1160\n",
      "note_off channel=0 note=65 velocity=64 time=0\n",
      "note_off channel=0 note=60 velocity=64 time=15\n",
      "note_off channel=0 note=54 velocity=64 time=35\n",
      "note_off channel=0 note=72 velocity=64 time=15\n",
      "note_on channel=0 note=78 velocity=85 time=1000\n",
      "note_on channel=0 note=55 velocity=93 time=5\n",
      "note_on channel=0 note=66 velocity=85 time=0\n",
      "note_on channel=0 note=73 velocity=85 time=5\n",
      "note_on channel=0 note=61 velocity=82 time=0\n",
      "control_change channel=0 control=64 value=0 time=5\n",
      "control_change channel=0 control=64 value=127 time=335\n",
      "note_off channel=0 note=73 velocity=64 time=580\n",
      "note_off channel=0 note=66 velocity=64 time=15\n",
      "note_off channel=0 note=78 velocity=64 time=20\n",
      "note_off channel=0 note=61 velocity=64 time=5\n",
      "note_off channel=0 note=55 velocity=64 time=20\n",
      "note_on channel=0 note=77 velocity=85 time=470\n",
      "note_on channel=0 note=72 velocity=79 time=10\n",
      "note_on channel=0 note=54 velocity=76 time=5\n",
      "note_on channel=0 note=65 velocity=79 time=0\n",
      "note_on channel=0 note=60 velocity=79 time=5\n",
      "control_change channel=0 control=64 value=0 time=10\n",
      "control_change channel=0 control=64 value=127 time=370\n",
      "note_off channel=0 note=65 velocity=64 time=320\n",
      "note_off channel=0 note=60 velocity=64 time=40\n",
      "note_off channel=0 note=54 velocity=64 time=40\n",
      "note_off channel=0 note=77 velocity=64 time=290\n",
      "note_off channel=0 note=72 velocity=64 time=10\n",
      "control_change channel=0 control=64 value=0 time=310\n",
      "note_on channel=0 note=53 velocity=82 time=10\n",
      "note_on channel=0 note=64 velocity=79 time=0\n",
      "note_on channel=0 note=76 velocity=79 time=5\n",
      "note_on channel=0 note=59 velocity=79 time=0\n",
      "note_on channel=0 note=71 velocity=70 time=5\n",
      "control_change channel=0 control=64 value=127 time=215\n",
      "note_off channel=0 note=71 velocity=64 time=505\n",
      "note_off channel=0 note=64 velocity=64 time=10\n",
      "note_off channel=0 note=53 velocity=64 time=10\n",
      "note_off channel=0 note=59 velocity=64 time=5\n",
      "note_off channel=0 note=76 velocity=64 time=30\n",
      "control_change channel=0 control=64 value=0 time=635\n",
      "control_change channel=0 control=64 value=127 time=15\n",
      "control_change channel=0 control=64 value=0 time=10\n",
      "note_on channel=0 note=74 velocity=73 time=10\n",
      "note_on channel=0 note=79 velocity=70 time=5\n",
      "note_on channel=0 note=71 velocity=62 time=0\n",
      "note_on channel=0 note=53 velocity=76 time=10\n",
      "note_on channel=0 note=59 velocity=73 time=0\n",
      "note_on channel=0 note=64 velocity=70 time=5\n",
      "control_change channel=0 control=64 value=127 time=125\n",
      "note_off channel=0 note=53 velocity=64 time=525\n",
      "note_off channel=0 note=64 velocity=64 time=5\n",
      "note_off channel=0 note=59 velocity=64 time=5\n",
      "note_off channel=0 note=79 velocity=64 time=20\n",
      "note_off channel=0 note=74 velocity=64 time=0\n",
      "note_off channel=0 note=71 velocity=64 time=30\n",
      "note_on channel=0 note=53 velocity=51 time=245\n",
      "note_on channel=0 note=59 velocity=52 time=0\n",
      "note_on channel=0 note=64 velocity=47 time=5\n",
      "note_off channel=0 note=53 velocity=64 time=70\n",
      "note_off channel=0 note=59 velocity=64 time=15\n",
      "note_off channel=0 note=64 velocity=64 time=0\n",
      "note_on channel=0 note=77 velocity=82 time=355\n",
      "note_on channel=0 note=72 velocity=79 time=5\n",
      "note_on channel=0 note=69 velocity=73 time=5\n",
      "note_on channel=0 note=64 velocity=73 time=0\n",
      "note_on channel=0 note=53 velocity=79 time=5\n",
      "note_on channel=0 note=59 velocity=73 time=5\n",
      "control_change channel=0 control=64 value=0 time=15\n",
      "control_change channel=0 control=64 value=127 time=180\n",
      "note_off channel=0 note=77 velocity=64 time=400\n",
      "note_off channel=0 note=72 velocity=64 time=10\n",
      "note_off channel=0 note=69 velocity=64 time=60\n",
      "note_off channel=0 note=53 velocity=64 time=25\n",
      "note_off channel=0 note=64 velocity=64 time=35\n",
      "note_off channel=0 note=59 velocity=64 time=0\n",
      "note_on channel=0 note=76 velocity=52 time=705\n",
      "control_change channel=0 control=64 value=0 time=5\n",
      "note_on channel=0 note=53 velocity=62 time=5\n",
      "note_on channel=0 note=71 velocity=70 time=0\n",
      "note_on channel=0 note=64 velocity=57 time=5\n",
      "note_on channel=0 note=59 velocity=57 time=0\n",
      "note_on channel=0 note=67 velocity=42 time=5\n",
      "control_change channel=0 control=64 value=127 time=175\n",
      "note_off channel=0 note=64 velocity=64 time=750\n",
      "note_off channel=0 note=71 velocity=64 time=5\n",
      "note_off channel=0 note=53 velocity=64 time=5\n",
      "note_off channel=0 note=76 velocity=64 time=0\n",
      "note_off channel=0 note=67 velocity=64 time=5\n",
      "note_off channel=0 note=59 velocity=64 time=5\n",
      "control_change channel=0 control=64 value=0 time=450\n",
      "control_change channel=0 control=64 value=127 time=15\n",
      "control_change channel=0 control=64 value=0 time=10\n",
      "note_on channel=0 note=71 velocity=70 time=15\n",
      "note_on channel=0 note=67 velocity=57 time=5\n",
      "note_on channel=0 note=59 velocity=59 time=15\n",
      "note_on channel=0 note=64 velocity=62 time=5\n",
      "note_on channel=0 note=53 velocity=57 time=5\n",
      "control_change channel=0 control=64 value=127 time=155\n",
      "note_off channel=0 note=53 velocity=64 time=345\n",
      "note_off channel=0 note=64 velocity=64 time=15\n",
      "note_off channel=0 note=59 velocity=64 time=10\n",
      "note_off channel=0 note=67 velocity=64 time=15\n",
      "note_off channel=0 note=71 velocity=64 time=60\n",
      "note_on channel=0 note=72 velocity=62 time=270\n",
      "note_on channel=0 note=69 velocity=47 time=5\n",
      "note_off channel=0 note=69 velocity=64 time=185\n",
      "note_off channel=0 note=72 velocity=64 time=25\n",
      "control_change channel=0 control=64 value=0 time=265\n",
      "note_on channel=0 note=74 velocity=73 time=25\n",
      "control_change channel=0 control=64 value=127 time=5\n",
      "note_on channel=0 note=71 velocity=70 time=5\n",
      "control_change channel=0 control=64 value=0 time=5\n",
      "control_change channel=0 control=64 value=127 time=65\n",
      "note_on channel=0 note=64 velocity=55 time=445\n",
      "note_on channel=0 note=53 velocity=51 time=5\n",
      "note_on channel=0 note=59 velocity=59 time=5\n",
      "note_off channel=0 note=74 velocity=64 time=45\n",
      "note_off channel=0 note=71 velocity=64 time=60\n",
      "note_off channel=0 note=53 velocity=64 time=275\n",
      "note_off channel=0 note=64 velocity=64 time=15\n",
      "note_off channel=0 note=59 velocity=64 time=10\n",
      "note_on channel=0 note=69 velocity=54 time=55\n",
      "note_on channel=0 note=72 velocity=64 time=5\n",
      "note_off channel=0 note=72 velocity=64 time=335\n",
      "note_off channel=0 note=69 velocity=64 time=20\n",
      "note_on channel=0 note=71 velocity=67 time=105\n",
      "note_on channel=0 note=67 velocity=55 time=5\n",
      "note_on channel=0 note=53 velocity=62 time=0\n",
      "note_on channel=0 note=59 velocity=64 time=5\n",
      "note_on channel=0 note=64 velocity=64 time=5\n",
      "control_change channel=0 control=64 value=0 time=25\n",
      "control_change channel=0 control=64 value=127 time=225\n",
      "note_off channel=0 note=67 velocity=64 time=440\n",
      "note_off channel=0 note=71 velocity=64 time=65\n",
      "note_on channel=0 note=72 velocity=55 time=185\n",
      "note_on channel=0 note=69 velocity=52 time=5\n",
      "note_off channel=0 note=69 velocity=64 time=245\n",
      "note_off channel=0 note=72 velocity=64 time=25\n",
      "note_on channel=0 note=74 velocity=73 time=200\n",
      "note_on channel=0 note=71 velocity=70 time=5\n",
      "note_off channel=0 note=74 velocity=64 time=660\n",
      "note_off channel=0 note=71 velocity=64 time=95\n",
      "note_off channel=0 note=53 velocity=64 time=150\n",
      "note_off channel=0 note=64 velocity=64 time=10\n",
      "note_off channel=0 note=59 velocity=64 time=10\n",
      "note_on channel=0 note=72 velocity=62 time=40\n",
      "note_on channel=0 note=69 velocity=52 time=5\n",
      "note_off channel=0 note=69 velocity=64 time=370\n",
      "note_off channel=0 note=72 velocity=64 time=0\n",
      "note_on channel=0 note=71 velocity=64 time=110\n",
      "control_change channel=0 control=64 value=0 time=20\n",
      "note_on channel=0 note=53 velocity=57 time=5\n",
      "note_on channel=0 note=59 velocity=62 time=5\n",
      "note_on channel=0 note=67 velocity=54 time=5\n",
      "note_on channel=0 note=64 velocity=62 time=5\n",
      "control_change channel=0 control=64 value=127 time=215\n",
      "note_off channel=0 note=67 velocity=64 time=425\n",
      "note_off channel=0 note=71 velocity=64 time=80\n",
      "note_on channel=0 note=72 velocity=52 time=210\n",
      "note_on channel=0 note=69 velocity=48 time=0\n",
      "note_off channel=0 note=69 velocity=64 time=240\n",
      "note_off channel=0 note=72 velocity=64 time=0\n",
      "note_on channel=0 note=71 velocity=70 time=235\n",
      "note_on channel=0 note=74 velocity=70 time=5\n",
      "note_off channel=0 note=74 velocity=64 time=605\n",
      "note_off channel=0 note=71 velocity=64 time=125\n",
      "note_off channel=0 note=53 velocity=64 time=120\n",
      "note_off channel=0 note=64 velocity=64 time=15\n",
      "note_off channel=0 note=59 velocity=64 time=10\n",
      "note_on channel=0 note=69 velocity=51 time=45\n",
      "note_on channel=0 note=72 velocity=54 time=10\n",
      "note_off channel=0 note=72 velocity=64 time=340\n",
      "note_off channel=0 note=69 velocity=64 time=0\n",
      "note_on channel=0 note=71 velocity=70 time=165\n",
      "note_on channel=0 note=67 velocity=55 time=5\n",
      "control_change channel=0 control=64 value=0 time=5\n",
      "note_on channel=0 note=53 velocity=57 time=5\n",
      "note_on channel=0 note=59 velocity=57 time=0\n",
      "note_on channel=0 note=64 velocity=55 time=5\n",
      "control_change channel=0 control=64 value=127 time=135\n",
      "note_off channel=0 note=67 velocity=64 time=425\n",
      "note_off channel=0 note=71 velocity=64 time=100\n",
      "note_on channel=0 note=69 velocity=43 time=270\n",
      "note_on channel=0 note=72 velocity=57 time=5\n",
      "note_off channel=0 note=69 velocity=64 time=180\n",
      "note_off channel=0 note=72 velocity=64 time=20\n",
      "note_on channel=0 note=74 velocity=54 time=270\n",
      "note_on channel=0 note=71 velocity=59 time=10\n",
      "note_off channel=0 note=64 velocity=64 time=300\n",
      "note_off channel=0 note=74 velocity=64 time=15\n",
      "note_off channel=0 note=59 velocity=64 time=20\n",
      "note_off channel=0 note=53 velocity=64 time=20\n",
      "note_off channel=0 note=71 velocity=64 time=0\n",
      "note_on channel=0 note=53 velocity=52 time=1110\n",
      "note_on channel=0 note=64 velocity=54 time=10\n",
      "note_on channel=0 note=59 velocity=59 time=5\n",
      "note_on channel=0 note=43 velocity=54 time=0\n",
      "note_on channel=0 note=57 velocity=51 time=5\n",
      "control_change channel=0 control=64 value=0 time=25\n",
      "note_off channel=0 note=53 velocity=64 time=3075\n",
      "note_off channel=0 note=64 velocity=64 time=5\n",
      "note_off channel=0 note=59 velocity=64 time=0\n",
      "note_off channel=0 note=57 velocity=64 time=0\n",
      "note_off channel=0 note=43 velocity=64 time=5\n",
      "<meta message end_of_track time=0>\n",
      "Track 2: tk2\n",
      "<meta message track_name name='tk2' time=0>\n",
      "<meta message midi_port port=0 time=0>\n",
      "<meta message channel_prefix channel=1 time=0>\n",
      "control_change channel=1 control=7 value=100 time=0\n",
      "control_change channel=1 control=10 value=64 time=0\n",
      "control_change channel=1 control=0 value=0 time=0\n",
      "control_change channel=1 control=91 value=80 time=0\n",
      "control_change channel=1 control=93 value=0 time=0\n",
      "program_change channel=1 program=32 time=0\n",
      "control_change channel=1 control=11 value=127 time=965\n",
      "note_on channel=1 note=31 velocity=76 time=475\n",
      "note_off channel=1 note=31 velocity=64 time=950\n",
      "note_on channel=1 note=40 velocity=76 time=10\n",
      "note_off channel=1 note=40 velocity=64 time=450\n",
      "note_on channel=1 note=41 velocity=79 time=30\n",
      "note_off channel=1 note=41 velocity=64 time=925\n",
      "note_on channel=1 note=40 velocity=70 time=35\n",
      "note_off channel=1 note=40 velocity=64 time=455\n",
      "note_on channel=1 note=31 velocity=79 time=25\n",
      "note_off channel=1 note=31 velocity=64 time=940\n",
      "note_on channel=1 note=40 velocity=76 time=20\n",
      "note_off channel=1 note=40 velocity=64 time=435\n",
      "note_on channel=1 note=41 velocity=73 time=45\n",
      "note_off channel=1 note=41 velocity=64 time=940\n",
      "note_on channel=1 note=40 velocity=70 time=20\n",
      "note_off channel=1 note=40 velocity=64 time=420\n",
      "note_on channel=1 note=31 velocity=79 time=60\n",
      "note_off channel=1 note=31 velocity=64 time=910\n",
      "note_on channel=1 note=40 velocity=64 time=50\n",
      "note_off channel=1 note=40 velocity=64 time=465\n",
      "note_on channel=1 note=41 velocity=76 time=15\n",
      "note_off channel=1 note=41 velocity=64 time=935\n",
      "note_on channel=1 note=40 velocity=59 time=25\n",
      "note_off channel=1 note=40 velocity=64 time=455\n",
      "note_on channel=1 note=31 velocity=82 time=25\n",
      "note_off channel=1 note=31 velocity=64 time=910\n",
      "note_on channel=1 note=40 velocity=73 time=50\n",
      "note_off channel=1 note=40 velocity=64 time=435\n",
      "note_on channel=1 note=41 velocity=67 time=45\n",
      "note_off channel=1 note=41 velocity=64 time=910\n",
      "note_on channel=1 note=40 velocity=73 time=50\n",
      "note_off channel=1 note=40 velocity=64 time=440\n",
      "note_on channel=1 note=31 velocity=85 time=40\n",
      "note_off channel=1 note=31 velocity=64 time=950\n",
      "note_on channel=1 note=40 velocity=70 time=10\n",
      "note_off channel=1 note=40 velocity=64 time=445\n",
      "note_on channel=1 note=41 velocity=76 time=35\n",
      "note_off channel=1 note=41 velocity=64 time=940\n",
      "note_on channel=1 note=40 velocity=64 time=20\n",
      "note_off channel=1 note=40 velocity=64 time=445\n",
      "note_on channel=1 note=31 velocity=73 time=35\n",
      "note_on channel=1 note=40 velocity=55 time=960\n",
      "note_off channel=1 note=31 velocity=64 time=5\n",
      "note_off channel=1 note=40 velocity=64 time=405\n",
      "note_on channel=1 note=41 velocity=76 time=70\n",
      "note_off channel=1 note=41 velocity=64 time=940\n",
      "note_on channel=1 note=40 velocity=67 time=20\n",
      "note_off channel=1 note=40 velocity=64 time=425\n",
      "note_on channel=1 note=31 velocity=82 time=55\n",
      "note_off channel=1 note=31 velocity=64 time=940\n",
      "note_on channel=1 note=40 velocity=62 time=20\n",
      "note_off channel=1 note=40 velocity=64 time=435\n",
      "note_on channel=1 note=41 velocity=76 time=45\n",
      "note_off channel=1 note=41 velocity=64 time=930\n",
      "note_on channel=1 note=40 velocity=57 time=30\n",
      "note_off channel=1 note=40 velocity=64 time=450\n",
      "note_on channel=1 note=31 velocity=79 time=30\n",
      "note_off channel=1 note=31 velocity=64 time=950\n",
      "note_on channel=1 note=40 velocity=64 time=10\n",
      "note_off channel=1 note=40 velocity=64 time=430\n",
      "note_on channel=1 note=41 velocity=76 time=50\n",
      "note_off channel=1 note=41 velocity=64 time=950\n",
      "note_on channel=1 note=40 velocity=67 time=10\n",
      "note_off channel=1 note=40 velocity=64 time=425\n",
      "note_on channel=1 note=36 velocity=79 time=55\n",
      "note_off channel=1 note=36 velocity=64 time=920\n",
      "note_on channel=1 note=45 velocity=79 time=40\n",
      "note_off channel=1 note=45 velocity=64 time=480\n",
      "note_on channel=1 note=46 velocity=73 time=0\n",
      "note_off channel=1 note=46 velocity=64 time=925\n",
      "note_on channel=1 note=45 velocity=59 time=35\n",
      "note_off channel=1 note=45 velocity=64 time=460\n",
      "note_on channel=1 note=36 velocity=79 time=20\n",
      "note_off channel=1 note=36 velocity=64 time=960\n",
      "note_on channel=1 note=45 velocity=73 time=0\n",
      "note_off channel=1 note=45 velocity=64 time=440\n",
      "note_on channel=1 note=46 velocity=67 time=40\n",
      "note_on channel=1 note=45 velocity=70 time=960\n",
      "note_off channel=1 note=46 velocity=64 time=25\n",
      "note_off channel=1 note=45 velocity=64 time=375\n",
      "note_on channel=1 note=31 velocity=82 time=80\n",
      "note_off channel=1 note=31 velocity=64 time=915\n",
      "note_on channel=1 note=40 velocity=67 time=45\n",
      "note_off channel=1 note=40 velocity=64 time=435\n",
      "note_on channel=1 note=41 velocity=73 time=45\n",
      "note_on channel=1 note=40 velocity=64 time=960\n",
      "note_off channel=1 note=41 velocity=64 time=20\n",
      "note_off channel=1 note=40 velocity=64 time=405\n",
      "note_on channel=1 note=31 velocity=82 time=55\n",
      "note_on channel=1 note=40 velocity=62 time=960\n",
      "note_off channel=1 note=31 velocity=64 time=10\n",
      "note_off channel=1 note=40 velocity=64 time=430\n",
      "note_on channel=1 note=41 velocity=73 time=40\n",
      "note_off channel=1 note=41 velocity=64 time=920\n",
      "note_on channel=1 note=40 velocity=55 time=40\n",
      "note_off channel=1 note=40 velocity=64 time=400\n",
      "note_on channel=1 note=38 velocity=79 time=80\n",
      "note_off channel=1 note=38 velocity=64 time=415\n",
      "note_on channel=1 note=47 velocity=79 time=65\n",
      "note_off channel=1 note=47 velocity=64 time=410\n",
      "note_on channel=1 note=48 velocity=73 time=70\n",
      "note_on channel=1 note=38 velocity=55 time=480\n",
      "note_off channel=1 note=48 velocity=64 time=30\n",
      "note_on channel=1 note=39 velocity=93 time=1410\n",
      "note_off channel=1 note=38 velocity=64 time=10\n",
      "note_off channel=1 note=39 velocity=64 time=1275\n",
      "note_on channel=1 note=38 velocity=64 time=155\n",
      "note_on channel=1 note=47 velocity=85 time=480\n",
      "note_off channel=1 note=38 velocity=64 time=25\n",
      "note_off channel=1 note=47 velocity=64 time=415\n",
      "note_on channel=1 note=48 velocity=57 time=40\n",
      "note_off channel=1 note=48 velocity=64 time=430\n",
      "note_on channel=1 note=31 velocity=73 time=50\n",
      "note_on channel=1 note=40 velocity=70 time=960\n",
      "note_off channel=1 note=31 velocity=64 time=25\n",
      "note_off channel=1 note=40 velocity=64 time=420\n",
      "note_on channel=1 note=41 velocity=73 time=35\n",
      "note_off channel=1 note=41 velocity=64 time=920\n",
      "note_on channel=1 note=40 velocity=62 time=40\n",
      "note_off channel=1 note=40 velocity=64 time=435\n",
      "note_on channel=1 note=31 velocity=85 time=45\n",
      "note_on channel=1 note=40 velocity=62 time=960\n",
      "note_off channel=1 note=31 velocity=64 time=75\n",
      "note_off channel=1 note=40 velocity=64 time=355\n",
      "note_on channel=1 note=41 velocity=79 time=50\n",
      "note_off channel=1 note=41 velocity=64 time=955\n",
      "note_on channel=1 note=40 velocity=67 time=5\n",
      "note_off channel=1 note=40 velocity=64 time=455\n",
      "note_on channel=1 note=31 velocity=85 time=25\n",
      "note_off channel=1 note=31 velocity=64 time=905\n",
      "note_on channel=1 note=40 velocity=57 time=55\n",
      "note_on channel=1 note=41 velocity=73 time=480\n",
      "note_off channel=1 note=40 velocity=64 time=5\n",
      "note_on channel=1 note=40 velocity=70 time=955\n",
      "note_off channel=1 note=41 velocity=64 time=40\n",
      "note_off channel=1 note=40 velocity=64 time=415\n",
      "note_on channel=1 note=31 velocity=85 time=25\n",
      "note_off channel=1 note=31 velocity=64 time=950\n",
      "note_on channel=1 note=40 velocity=70 time=10\n",
      "note_off channel=1 note=40 velocity=64 time=440\n",
      "note_on channel=1 note=41 velocity=76 time=40\n",
      "note_off channel=1 note=41 velocity=64 time=950\n",
      "note_on channel=1 note=40 velocity=67 time=10\n",
      "note_off channel=1 note=40 velocity=64 time=435\n",
      "note_on channel=1 note=31 velocity=85 time=45\n",
      "note_off channel=1 note=31 velocity=64 time=930\n",
      "note_on channel=1 note=40 velocity=73 time=30\n",
      "note_off channel=1 note=40 velocity=64 time=475\n",
      "note_on channel=1 note=41 velocity=82 time=5\n",
      "note_off channel=1 note=41 velocity=64 time=935\n",
      "note_on channel=1 note=40 velocity=67 time=25\n",
      "note_off channel=1 note=40 velocity=64 time=455\n",
      "note_on channel=1 note=31 velocity=89 time=25\n",
      "note_off channel=1 note=31 velocity=64 time=955\n",
      "note_on channel=1 note=40 velocity=70 time=5\n",
      "note_off channel=1 note=40 velocity=64 time=430\n",
      "note_on channel=1 note=41 velocity=79 time=50\n",
      "note_off channel=1 note=41 velocity=64 time=925\n",
      "note_on channel=1 note=40 velocity=57 time=35\n",
      "note_off channel=1 note=40 velocity=64 time=450\n",
      "note_on channel=1 note=31 velocity=85 time=30\n",
      "note_on channel=1 note=40 velocity=64 time=960\n",
      "note_off channel=1 note=31 velocity=64 time=25\n",
      "note_off channel=1 note=40 velocity=64 time=410\n",
      "note_on channel=1 note=41 velocity=76 time=45\n",
      "note_off channel=1 note=41 velocity=64 time=865\n",
      "note_on channel=1 note=40 velocity=64 time=95\n",
      "note_on channel=1 note=31 velocity=70 time=480\n",
      "note_off channel=1 note=40 velocity=64 time=5\n",
      "note_on channel=1 note=40 velocity=59 time=955\n",
      "note_off channel=1 note=31 velocity=64 time=30\n",
      "note_off channel=1 note=40 velocity=64 time=400\n",
      "note_on channel=1 note=41 velocity=76 time=50\n",
      "note_off channel=1 note=41 velocity=64 time=920\n",
      "note_on channel=1 note=40 velocity=62 time=40\n",
      "note_off channel=1 note=40 velocity=64 time=480\n",
      "note_on channel=1 note=31 velocity=76 time=0\n",
      "note_off channel=1 note=31 velocity=64 time=890\n",
      "note_on channel=1 note=40 velocity=73 time=70\n",
      "note_off channel=1 note=40 velocity=64 time=410\n",
      "note_on channel=1 note=41 velocity=70 time=70\n",
      "note_off channel=1 note=41 velocity=64 time=960\n",
      "note_on channel=1 note=40 velocity=67 time=0\n",
      "note_off channel=1 note=40 velocity=64 time=435\n",
      "note_on channel=1 note=31 velocity=82 time=45\n",
      "note_off channel=1 note=31 velocity=64 time=930\n",
      "note_on channel=1 note=40 velocity=62 time=30\n",
      "note_off channel=1 note=40 velocity=64 time=455\n",
      "note_on channel=1 note=41 velocity=64 time=25\n",
      "note_off channel=1 note=41 velocity=64 time=940\n",
      "note_on channel=1 note=40 velocity=59 time=20\n",
      "note_off channel=1 note=40 velocity=64 time=435\n",
      "note_on channel=1 note=36 velocity=79 time=45\n",
      "note_off channel=1 note=36 velocity=64 time=960\n",
      "note_on channel=1 note=45 velocity=70 time=0\n",
      "note_off channel=1 note=45 velocity=64 time=425\n",
      "note_on channel=1 note=46 velocity=85 time=55\n",
      "note_off channel=1 note=46 velocity=64 time=950\n",
      "note_on channel=1 note=45 velocity=57 time=10\n",
      "note_off channel=1 note=45 velocity=64 time=450\n",
      "note_on channel=1 note=36 velocity=76 time=30\n",
      "note_off channel=1 note=36 velocity=64 time=930\n",
      "note_on channel=1 note=45 velocity=55 time=30\n",
      "note_off channel=1 note=45 velocity=64 time=460\n",
      "note_on channel=1 note=46 velocity=76 time=20\n",
      "note_on channel=1 note=45 velocity=67 time=960\n",
      "note_off channel=1 note=46 velocity=64 time=10\n",
      "note_off channel=1 note=45 velocity=64 time=440\n",
      "note_on channel=1 note=31 velocity=79 time=30\n",
      "note_off channel=1 note=31 velocity=64 time=935\n",
      "note_on channel=1 note=40 velocity=57 time=25\n",
      "note_off channel=1 note=40 velocity=64 time=435\n",
      "note_on channel=1 note=41 velocity=85 time=45\n",
      "note_on channel=1 note=40 velocity=64 time=960\n",
      "note_off channel=1 note=41 velocity=64 time=40\n",
      "note_off channel=1 note=40 velocity=64 time=390\n",
      "note_on channel=1 note=31 velocity=89 time=50\n",
      "note_off channel=1 note=31 velocity=64 time=935\n",
      "note_on channel=1 note=40 velocity=59 time=25\n",
      "note_off channel=1 note=40 velocity=64 time=455\n",
      "note_on channel=1 note=41 velocity=76 time=25\n",
      "note_off channel=1 note=41 velocity=64 time=945\n",
      "note_on channel=1 note=40 velocity=57 time=15\n",
      "note_off channel=1 note=40 velocity=64 time=375\n",
      "note_on channel=1 note=38 velocity=79 time=105\n",
      "note_off channel=1 note=38 velocity=64 time=925\n",
      "note_on channel=1 note=47 velocity=82 time=35\n",
      "note_off channel=1 note=47 velocity=64 time=425\n",
      "note_on channel=1 note=48 velocity=85 time=55\n",
      "note_off channel=1 note=48 velocity=64 time=885\n",
      "note_on channel=1 note=38 velocity=82 time=75\n",
      "note_off channel=1 note=38 velocity=64 time=480\n",
      "note_on channel=1 note=39 velocity=93 time=0\n",
      "note_off channel=1 note=39 velocity=64 time=1405\n",
      "note_on channel=1 note=38 velocity=70 time=35\n",
      "note_on channel=1 note=47 velocity=93 time=480\n",
      "note_off channel=1 note=38 velocity=64 time=20\n",
      "note_off channel=1 note=47 velocity=64 time=430\n",
      "note_on channel=1 note=48 velocity=73 time=30\n",
      "note_off channel=1 note=48 velocity=64 time=460\n",
      "note_on channel=1 note=31 velocity=85 time=20\n",
      "note_off channel=1 note=31 velocity=64 time=900\n",
      "note_on channel=1 note=40 velocity=82 time=60\n",
      "note_off channel=1 note=40 velocity=64 time=465\n",
      "note_on channel=1 note=41 velocity=64 time=15\n",
      "note_off channel=1 note=41 velocity=64 time=955\n",
      "note_on channel=1 note=40 velocity=67 time=5\n",
      "note_off channel=1 note=40 velocity=64 time=460\n",
      "note_on channel=1 note=31 velocity=82 time=20\n",
      "note_on channel=1 note=40 velocity=70 time=960\n",
      "note_off channel=1 note=31 velocity=64 time=25\n",
      "note_off channel=1 note=40 velocity=64 time=430\n",
      "note_on channel=1 note=41 velocity=70 time=25\n",
      "note_off channel=1 note=41 velocity=64 time=925\n",
      "note_on channel=1 note=40 velocity=70 time=35\n",
      "note_off channel=1 note=40 velocity=64 time=440\n",
      "note_on channel=1 note=31 velocity=82 time=40\n",
      "note_off channel=1 note=31 velocity=64 time=940\n",
      "note_on channel=1 note=40 velocity=76 time=20\n",
      "note_off channel=1 note=40 velocity=64 time=470\n",
      "note_on channel=1 note=41 velocity=70 time=10\n",
      "note_on channel=1 note=40 velocity=70 time=960\n",
      "note_off channel=1 note=41 velocity=64 time=25\n",
      "note_off channel=1 note=40 velocity=64 time=410\n",
      "note_on channel=1 note=31 velocity=93 time=45\n",
      "note_off channel=1 note=31 velocity=64 time=935\n",
      "note_on channel=1 note=40 velocity=79 time=25\n",
      "note_on channel=1 note=41 velocity=76 time=480\n",
      "note_off channel=1 note=40 velocity=64 time=15\n",
      "note_off channel=1 note=41 velocity=64 time=910\n",
      "note_on channel=1 note=40 velocity=76 time=35\n",
      "note_off channel=1 note=40 velocity=64 time=460\n",
      "note_on channel=1 note=31 velocity=82 time=20\n",
      "note_off channel=1 note=31 velocity=64 time=920\n",
      "note_on channel=1 note=40 velocity=73 time=40\n",
      "note_off channel=1 note=40 velocity=64 time=465\n",
      "note_on channel=1 note=41 velocity=79 time=15\n",
      "note_off channel=1 note=41 velocity=64 time=945\n",
      "note_on channel=1 note=40 velocity=70 time=15\n",
      "note_off channel=1 note=40 velocity=64 time=440\n",
      "note_on channel=1 note=31 velocity=82 time=40\n",
      "note_off channel=1 note=31 velocity=64 time=950\n",
      "note_on channel=1 note=40 velocity=73 time=10\n",
      "note_off channel=1 note=40 velocity=64 time=440\n",
      "note_on channel=1 note=41 velocity=79 time=40\n",
      "note_off channel=1 note=41 velocity=64 time=925\n",
      "note_on channel=1 note=40 velocity=64 time=35\n",
      "note_off channel=1 note=40 velocity=64 time=445\n",
      "note_on channel=1 note=36 velocity=85 time=35\n",
      "note_off channel=1 note=36 velocity=64 time=945\n",
      "note_on channel=1 note=45 velocity=89 time=15\n",
      "note_on channel=1 note=46 velocity=79 time=480\n",
      "note_off channel=1 note=45 velocity=64 time=10\n",
      "note_on channel=1 note=45 velocity=79 time=950\n",
      "note_off channel=1 note=46 velocity=64 time=50\n",
      "note_off channel=1 note=45 velocity=64 time=340\n",
      "note_on channel=1 note=36 velocity=85 time=90\n",
      "note_off channel=1 note=36 velocity=64 time=930\n",
      "note_on channel=1 note=45 velocity=89 time=30\n",
      "note_off channel=1 note=45 velocity=64 time=445\n",
      "note_on channel=1 note=46 velocity=82 time=35\n",
      "note_on channel=1 note=45 velocity=73 time=960\n",
      "note_off channel=1 note=46 velocity=64 time=60\n",
      "note_off channel=1 note=45 velocity=64 time=340\n",
      "note_on channel=1 note=31 velocity=85 time=80\n",
      "note_off channel=1 note=31 velocity=64 time=935\n",
      "note_on channel=1 note=40 velocity=62 time=25\n",
      "note_off channel=1 note=40 velocity=64 time=425\n",
      "note_on channel=1 note=41 velocity=85 time=55\n",
      "note_on channel=1 note=40 velocity=64 time=960\n",
      "note_off channel=1 note=41 velocity=64 time=15\n",
      "note_off channel=1 note=40 velocity=64 time=380\n",
      "note_on channel=1 note=31 velocity=85 time=85\n",
      "note_off channel=1 note=31 velocity=64 time=945\n",
      "note_on channel=1 note=40 velocity=59 time=15\n",
      "note_off channel=1 note=40 velocity=64 time=455\n",
      "note_on channel=1 note=41 velocity=79 time=25\n",
      "note_off channel=1 note=41 velocity=64 time=940\n",
      "note_on channel=1 note=40 velocity=62 time=20\n",
      "note_off channel=1 note=40 velocity=64 time=385\n",
      "note_on channel=1 note=38 velocity=93 time=95\n",
      "note_off channel=1 note=38 velocity=64 time=910\n",
      "note_on channel=1 note=47 velocity=93 time=50\n",
      "note_off channel=1 note=47 velocity=64 time=430\n",
      "note_on channel=1 note=48 velocity=85 time=50\n",
      "note_on channel=1 note=45 velocity=76 time=960\n",
      "note_off channel=1 note=48 velocity=64 time=30\n",
      "note_off channel=1 note=45 velocity=64 time=395\n",
      "note_on channel=1 note=39 velocity=85 time=55\n",
      "note_on channel=1 note=46 velocity=98 time=480\n",
      "note_off channel=1 note=39 velocity=64 time=25\n",
      "note_off channel=1 note=46 velocity=64 time=420\n",
      "note_on channel=1 note=51 velocity=70 time=35\n",
      "note_off channel=1 note=51 velocity=64 time=430\n",
      "note_on channel=1 note=38 velocity=89 time=50\n",
      "note_on channel=1 note=45 velocity=76 time=480\n",
      "note_off channel=1 note=38 velocity=64 time=30\n",
      "note_off channel=1 note=45 velocity=64 time=395\n",
      "note_on channel=1 note=50 velocity=85 time=55\n",
      "note_off channel=1 note=50 velocity=64 time=455\n",
      "note_on channel=1 note=31 velocity=98 time=25\n",
      "note_off channel=1 note=31 velocity=64 time=945\n",
      "note_on channel=1 note=40 velocity=93 time=15\n",
      "note_on channel=1 note=41 velocity=67 time=480\n",
      "note_off channel=1 note=40 velocity=64 time=35\n",
      "note_off channel=1 note=41 velocity=64 time=865\n",
      "note_on channel=1 note=40 velocity=70 time=60\n",
      "note_off channel=1 note=40 velocity=64 time=435\n",
      "note_on channel=1 note=31 velocity=85 time=45\n",
      "note_off channel=1 note=31 velocity=64 time=945\n",
      "note_on channel=1 note=40 velocity=70 time=15\n",
      "note_off channel=1 note=40 velocity=64 time=460\n",
      "note_on channel=1 note=41 velocity=85 time=20\n",
      "note_off channel=1 note=41 velocity=64 time=935\n",
      "note_on channel=1 note=40 velocity=73 time=25\n",
      "note_on channel=1 note=31 velocity=93 time=480\n",
      "note_off channel=1 note=40 velocity=64 time=10\n",
      "note_off channel=1 note=31 velocity=64 time=905\n",
      "note_on channel=1 note=40 velocity=73 time=45\n",
      "note_on channel=1 note=41 velocity=76 time=480\n",
      "note_off channel=1 note=40 velocity=64 time=35\n",
      "note_off channel=1 note=41 velocity=64 time=920\n",
      "note_on channel=1 note=40 velocity=76 time=5\n",
      "note_off channel=1 note=40 velocity=64 time=460\n",
      "note_on channel=1 note=31 velocity=89 time=20\n",
      "note_off channel=1 note=31 velocity=64 time=925\n",
      "note_on channel=1 note=40 velocity=73 time=35\n",
      "note_off channel=1 note=40 velocity=64 time=465\n",
      "note_on channel=1 note=41 velocity=79 time=15\n",
      "note_off channel=1 note=41 velocity=64 time=945\n",
      "note_on channel=1 note=40 velocity=73 time=15\n",
      "note_off channel=1 note=40 velocity=64 time=435\n",
      "note_on channel=1 note=31 velocity=82 time=45\n",
      "note_off channel=1 note=31 velocity=64 time=930\n",
      "note_on channel=1 note=40 velocity=70 time=30\n",
      "note_off channel=1 note=40 velocity=64 time=440\n",
      "note_on channel=1 note=41 velocity=79 time=40\n",
      "note_off channel=1 note=41 velocity=64 time=925\n",
      "note_on channel=1 note=40 velocity=67 time=35\n",
      "note_on channel=1 note=31 velocity=89 time=480\n",
      "note_off channel=1 note=40 velocity=64 time=10\n",
      "note_off channel=1 note=31 velocity=64 time=905\n",
      "note_on channel=1 note=40 velocity=67 time=45\n",
      "note_off channel=1 note=40 velocity=64 time=475\n",
      "note_on channel=1 note=41 velocity=79 time=5\n",
      "note_off channel=1 note=41 velocity=64 time=950\n",
      "note_on channel=1 note=40 velocity=62 time=10\n",
      "note_off channel=1 note=40 velocity=64 time=450\n",
      "note_on channel=1 note=31 velocity=89 time=30\n",
      "note_off channel=1 note=31 velocity=64 time=940\n",
      "note_on channel=1 note=40 velocity=70 time=20\n",
      "note_off channel=1 note=40 velocity=64 time=440\n",
      "note_on channel=1 note=41 velocity=85 time=40\n",
      "note_off channel=1 note=41 velocity=64 time=950\n",
      "note_on channel=1 note=40 velocity=70 time=10\n",
      "note_off channel=1 note=40 velocity=64 time=430\n",
      "note_on channel=1 note=31 velocity=89 time=50\n",
      "note_on channel=1 note=40 velocity=64 time=960\n",
      "note_off channel=1 note=31 velocity=64 time=15\n",
      "note_off channel=1 note=40 velocity=64 time=440\n",
      "note_on channel=1 note=41 velocity=85 time=25\n",
      "note_off channel=1 note=41 velocity=64 time=960\n",
      "note_on channel=1 note=40 velocity=73 time=0\n",
      "note_off channel=1 note=40 velocity=64 time=430\n",
      "note_on channel=1 note=31 velocity=98 time=50\n",
      "note_off channel=1 note=31 velocity=64 time=935\n",
      "note_on channel=1 note=40 velocity=67 time=25\n",
      "note_off channel=1 note=40 velocity=64 time=450\n",
      "note_on channel=1 note=41 velocity=82 time=30\n",
      "note_off channel=1 note=41 velocity=64 time=920\n",
      "note_on channel=1 note=40 velocity=64 time=40\n",
      "note_off channel=1 note=40 velocity=64 time=465\n",
      "note_on channel=1 note=31 velocity=93 time=15\n",
      "note_on channel=1 note=40 velocity=76 time=960\n",
      "note_off channel=1 note=31 velocity=64 time=25\n",
      "note_off channel=1 note=40 velocity=64 time=395\n",
      "note_on channel=1 note=41 velocity=76 time=60\n",
      "note_off channel=1 note=41 velocity=64 time=925\n",
      "note_on channel=1 note=40 velocity=67 time=35\n",
      "note_on channel=1 note=36 velocity=85 time=480\n",
      "note_off channel=1 note=40 velocity=64 time=10\n",
      "note_off channel=1 note=36 velocity=64 time=930\n",
      "note_on channel=1 note=45 velocity=93 time=20\n",
      "note_off channel=1 note=45 velocity=64 time=470\n",
      "note_on channel=1 note=46 velocity=89 time=10\n",
      "note_on channel=1 note=45 velocity=93 time=960\n",
      "note_off channel=1 note=46 velocity=64 time=30\n",
      "note_off channel=1 note=45 velocity=64 time=430\n",
      "note_on channel=1 note=36 velocity=93 time=20\n",
      "note_off channel=1 note=36 velocity=64 time=925\n",
      "note_on channel=1 note=45 velocity=93 time=35\n",
      "note_on channel=1 note=46 velocity=85 time=480\n",
      "note_off channel=1 note=45 velocity=64 time=15\n",
      "note_on channel=1 note=45 velocity=85 time=945\n",
      "note_off channel=1 note=46 velocity=64 time=10\n",
      "note_off channel=1 note=45 velocity=64 time=455\n",
      "note_on channel=1 note=31 velocity=89 time=15\n",
      "note_off channel=1 note=31 velocity=64 time=925\n",
      "note_on channel=1 note=40 velocity=82 time=35\n",
      "note_on channel=1 note=41 velocity=79 time=475\n",
      "note_off channel=1 note=40 velocity=64 time=5\n",
      "note_on channel=1 note=40 velocity=79 time=955\n",
      "note_off channel=1 note=41 velocity=64 time=5\n",
      "note_off channel=1 note=40 velocity=64 time=455\n",
      "note_on channel=1 note=31 velocity=85 time=20\n",
      "note_off channel=1 note=31 velocity=64 time=920\n",
      "note_on channel=1 note=40 velocity=76 time=40\n",
      "note_off channel=1 note=40 velocity=64 time=455\n",
      "note_on channel=1 note=41 velocity=79 time=25\n",
      "note_on channel=1 note=40 velocity=79 time=960\n",
      "note_off channel=1 note=41 velocity=64 time=15\n",
      "note_off channel=1 note=40 velocity=64 time=415\n",
      "note_on channel=1 note=38 velocity=93 time=50\n",
      "note_off channel=1 note=38 velocity=64 time=910\n",
      "note_on channel=1 note=47 velocity=103 time=50\n",
      "note_off channel=1 note=47 velocity=64 time=430\n",
      "note_on channel=1 note=48 velocity=89 time=50\n",
      "note_on channel=1 note=38 velocity=98 time=960\n",
      "note_off channel=1 note=48 velocity=64 time=50\n",
      "note_on channel=1 note=39 velocity=103 time=430\n",
      "note_off channel=1 note=38 velocity=64 time=20\n",
      "note_on channel=1 note=38 velocity=85 time=1420\n",
      "note_off channel=1 note=39 velocity=64 time=15\n",
      "note_off channel=1 note=38 velocity=64 time=455\n",
      "note_on channel=1 note=47 velocity=98 time=10\n",
      "note_off channel=1 note=47 velocity=64 time=420\n",
      "note_on channel=1 note=48 velocity=79 time=60\n",
      "note_off channel=1 note=48 velocity=64 time=420\n",
      "note_on channel=1 note=31 velocity=79 time=60\n",
      "note_off channel=1 note=31 velocity=64 time=950\n",
      "note_on channel=1 note=40 velocity=76 time=10\n",
      "note_off channel=1 note=40 velocity=64 time=455\n",
      "note_on channel=1 note=41 velocity=76 time=25\n",
      "note_off channel=1 note=41 velocity=64 time=925\n",
      "note_on channel=1 note=40 velocity=76 time=35\n",
      "note_off channel=1 note=40 velocity=64 time=445\n",
      "note_on channel=1 note=31 velocity=82 time=35\n",
      "note_off channel=1 note=31 velocity=64 time=955\n",
      "note_on channel=1 note=40 velocity=76 time=5\n",
      "note_off channel=1 note=40 velocity=64 time=445\n",
      "note_on channel=1 note=41 velocity=79 time=35\n",
      "note_off channel=1 note=41 velocity=64 time=955\n",
      "note_on channel=1 note=40 velocity=73 time=5\n",
      "note_off channel=1 note=40 velocity=64 time=445\n",
      "note_on channel=1 note=31 velocity=85 time=35\n",
      "note_off channel=1 note=31 velocity=64 time=945\n",
      "note_on channel=1 note=40 velocity=79 time=15\n",
      "note_off channel=1 note=40 velocity=64 time=455\n",
      "note_on channel=1 note=41 velocity=82 time=25\n",
      "note_off channel=1 note=41 velocity=64 time=955\n",
      "note_on channel=1 note=40 velocity=79 time=5\n",
      "note_off channel=1 note=40 velocity=64 time=455\n",
      "note_on channel=1 note=31 velocity=89 time=25\n",
      "note_off channel=1 note=31 velocity=64 time=940\n",
      "note_on channel=1 note=40 velocity=79 time=20\n",
      "note_off channel=1 note=40 velocity=64 time=460\n",
      "note_on channel=1 note=41 velocity=82 time=20\n",
      "note_on channel=1 note=40 velocity=79 time=960\n",
      "note_off channel=1 note=41 velocity=64 time=20\n",
      "note_off channel=1 note=40 velocity=64 time=410\n",
      "note_on channel=1 note=31 velocity=82 time=50\n",
      "note_off channel=1 note=31 velocity=64 time=955\n",
      "note_on channel=1 note=40 velocity=70 time=5\n",
      "note_off channel=1 note=40 velocity=64 time=450\n",
      "note_on channel=1 note=41 velocity=76 time=30\n",
      "note_off channel=1 note=41 velocity=64 time=920\n",
      "note_on channel=1 note=40 velocity=73 time=40\n",
      "note_off channel=1 note=40 velocity=64 time=480\n",
      "note_on channel=1 note=31 velocity=89 time=0\n",
      "note_off channel=1 note=31 velocity=64 time=950\n",
      "note_on channel=1 note=40 velocity=73 time=10\n",
      "note_off channel=1 note=40 velocity=64 time=420\n",
      "note_on channel=1 note=41 velocity=79 time=60\n",
      "note_off channel=1 note=41 velocity=64 time=925\n",
      "note_on channel=1 note=40 velocity=73 time=35\n",
      "note_off channel=1 note=40 velocity=64 time=415\n",
      "note_on channel=1 note=36 velocity=89 time=65\n",
      "note_off channel=1 note=36 velocity=64 time=945\n",
      "note_on channel=1 note=45 velocity=98 time=15\n",
      "note_off channel=1 note=45 velocity=64 time=475\n",
      "note_on channel=1 note=46 velocity=93 time=5\n",
      "note_on channel=1 note=45 velocity=89 time=960\n",
      "note_off channel=1 note=46 velocity=64 time=35\n",
      "note_off channel=1 note=45 velocity=64 time=420\n",
      "note_on channel=1 note=36 velocity=98 time=25\n",
      "note_off channel=1 note=36 velocity=64 time=945\n",
      "note_on channel=1 note=45 velocity=98 time=15\n",
      "note_on channel=1 note=46 velocity=85 time=480\n",
      "note_off channel=1 note=45 velocity=64 time=5\n",
      "note_on channel=1 note=45 velocity=82 time=955\n",
      "note_off channel=1 note=46 velocity=64 time=30\n",
      "note_off channel=1 note=45 velocity=64 time=370\n",
      "note_on channel=1 note=31 velocity=93 time=80\n",
      "note_on channel=1 note=40 velocity=67 time=960\n",
      "note_off channel=1 note=31 velocity=64 time=55\n",
      "note_off channel=1 note=40 velocity=64 time=395\n",
      "note_on channel=1 note=41 velocity=89 time=30\n",
      "note_on channel=1 note=40 velocity=70 time=960\n",
      "note_off channel=1 note=41 velocity=64 time=5\n",
      "note_off channel=1 note=40 velocity=64 time=445\n",
      "note_on channel=1 note=31 velocity=98 time=30\n",
      "note_off channel=1 note=31 velocity=64 time=920\n",
      "note_on channel=1 note=40 velocity=76 time=40\n",
      "note_off channel=1 note=40 velocity=64 time=450\n",
      "note_on channel=1 note=41 velocity=85 time=30\n",
      "note_off channel=1 note=41 velocity=64 time=920\n",
      "note_on channel=1 note=40 velocity=73 time=40\n",
      "note_off channel=1 note=40 velocity=64 time=435\n",
      "note_on channel=1 note=38 velocity=98 time=45\n",
      "note_off channel=1 note=38 velocity=64 time=940\n",
      "note_on channel=1 note=47 velocity=85 time=20\n",
      "note_off channel=1 note=47 velocity=64 time=425\n",
      "note_on channel=1 note=48 velocity=98 time=55\n",
      "note_off channel=1 note=48 velocity=64 time=910\n",
      "note_on channel=1 note=38 velocity=89 time=50\n",
      "note_off channel=1 note=38 velocity=64 time=455\n",
      "note_on channel=1 note=39 velocity=93 time=25\n",
      "note_off channel=1 note=39 velocity=64 time=1370\n",
      "note_on channel=1 note=38 velocity=93 time=70\n",
      "note_off channel=1 note=38 velocity=64 time=480\n",
      "note_on channel=1 note=47 velocity=85 time=0\n",
      "note_off channel=1 note=47 velocity=64 time=445\n",
      "note_on channel=1 note=48 velocity=85 time=35\n",
      "note_off channel=1 note=48 velocity=64 time=480\n",
      "note_on channel=1 note=31 velocity=93 time=0\n",
      "note_off channel=1 note=31 velocity=64 time=960\n",
      "note_on channel=1 note=40 velocity=76 time=0\n",
      "note_off channel=1 note=40 velocity=64 time=475\n",
      "note_on channel=1 note=41 velocity=79 time=5\n",
      "note_off channel=1 note=41 velocity=64 time=950\n",
      "note_on channel=1 note=40 velocity=73 time=10\n",
      "note_off channel=1 note=40 velocity=64 time=450\n",
      "note_on channel=1 note=31 velocity=93 time=30\n",
      "note_off channel=1 note=31 velocity=64 time=960\n",
      "note_on channel=1 note=40 velocity=79 time=0\n",
      "note_off channel=1 note=40 velocity=64 time=460\n",
      "note_on channel=1 note=41 velocity=85 time=20\n",
      "note_on channel=1 note=40 velocity=70 time=960\n",
      "note_off channel=1 note=41 velocity=64 time=10\n",
      "note_off channel=1 note=40 velocity=64 time=450\n",
      "note_on channel=1 note=31 velocity=93 time=20\n",
      "note_on channel=1 note=40 velocity=73 time=960\n",
      "note_off channel=1 note=31 velocity=64 time=55\n",
      "note_off channel=1 note=40 velocity=64 time=355\n",
      "note_on channel=1 note=41 velocity=82 time=70\n",
      "note_off channel=1 note=41 velocity=64 time=900\n",
      "note_on channel=1 note=40 velocity=64 time=60\n",
      "note_off channel=1 note=40 velocity=64 time=460\n",
      "note_on channel=1 note=31 velocity=89 time=20\n",
      "note_on channel=1 note=40 velocity=70 time=960\n",
      "note_off channel=1 note=31 velocity=64 time=45\n",
      "note_off channel=1 note=40 velocity=64 time=380\n",
      "note_on channel=1 note=41 velocity=85 time=55\n",
      "note_off channel=1 note=41 velocity=64 time=955\n",
      "note_on channel=1 note=40 velocity=62 time=5\n",
      "note_off channel=1 note=40 velocity=64 time=440\n",
      "note_on channel=1 note=31 velocity=93 time=40\n",
      "note_off channel=1 note=31 velocity=64 time=935\n",
      "note_on channel=1 note=40 velocity=64 time=25\n",
      "note_off channel=1 note=40 velocity=64 time=455\n",
      "note_on channel=1 note=41 velocity=85 time=25\n",
      "note_off channel=1 note=41 velocity=64 time=960\n",
      "note_on channel=1 note=40 velocity=62 time=0\n",
      "note_off channel=1 note=40 velocity=64 time=460\n",
      "note_on channel=1 note=31 velocity=93 time=20\n",
      "note_off channel=1 note=31 velocity=64 time=930\n",
      "note_on channel=1 note=40 velocity=64 time=30\n",
      "note_off channel=1 note=40 velocity=64 time=475\n",
      "note_on channel=1 note=41 velocity=82 time=5\n",
      "note_off channel=1 note=41 velocity=64 time=945\n",
      "note_on channel=1 note=40 velocity=59 time=15\n",
      "note_off channel=1 note=40 velocity=64 time=450\n",
      "note_on channel=1 note=31 velocity=89 time=30\n",
      "note_off channel=1 note=31 velocity=64 time=940\n",
      "note_on channel=1 note=40 velocity=62 time=20\n",
      "note_off channel=1 note=40 velocity=64 time=425\n",
      "note_on channel=1 note=41 velocity=82 time=55\n",
      "note_off channel=1 note=41 velocity=64 time=940\n",
      "note_on channel=1 note=40 velocity=57 time=20\n",
      "note_off channel=1 note=40 velocity=64 time=420\n",
      "note_on channel=1 note=31 velocity=89 time=60\n",
      "note_off channel=1 note=31 velocity=64 time=955\n",
      "note_on channel=1 note=40 velocity=57 time=5\n",
      "note_off channel=1 note=40 velocity=64 time=420\n",
      "note_on channel=1 note=41 velocity=79 time=60\n",
      "note_off channel=1 note=41 velocity=64 time=925\n",
      "note_on channel=1 note=40 velocity=59 time=35\n",
      "note_on channel=1 note=31 velocity=89 time=480\n",
      "note_off channel=1 note=40 velocity=64 time=15\n",
      "note_on channel=1 note=40 velocity=59 time=945\n",
      "note_off channel=1 note=31 velocity=64 time=20\n",
      "note_off channel=1 note=40 velocity=64 time=395\n",
      "note_on channel=1 note=41 velocity=82 time=65\n",
      "note_off channel=1 note=41 velocity=64 time=950\n",
      "note_on channel=1 note=40 velocity=70 time=10\n",
      "note_on channel=1 note=31 velocity=85 time=480\n",
      "note_off channel=1 note=40 velocity=64 time=15\n",
      "note_on channel=1 note=40 velocity=67 time=945\n",
      "note_off channel=1 note=31 velocity=64 time=5\n",
      "note_off channel=1 note=40 velocity=64 time=445\n",
      "note_on channel=1 note=41 velocity=85 time=30\n",
      "note_off channel=1 note=41 velocity=64 time=915\n",
      "note_on channel=1 note=40 velocity=67 time=45\n",
      "note_off channel=1 note=40 velocity=64 time=425\n",
      "note_on channel=1 note=36 velocity=93 time=55\n",
      "note_off channel=1 note=36 velocity=64 time=925\n",
      "note_on channel=1 note=45 velocity=79 time=35\n",
      "note_off channel=1 note=45 velocity=64 time=450\n",
      "note_on channel=1 note=46 velocity=85 time=30\n",
      "note_off channel=1 note=46 velocity=64 time=960\n",
      "note_on channel=1 note=45 velocity=79 time=0\n",
      "note_on channel=1 note=36 velocity=89 time=480\n",
      "note_off channel=1 note=45 velocity=64 time=15\n",
      "note_off channel=1 note=36 velocity=64 time=910\n",
      "note_on channel=1 note=45 velocity=76 time=35\n",
      "note_off channel=1 note=45 velocity=64 time=475\n",
      "note_on channel=1 note=46 velocity=82 time=5\n",
      "note_off channel=1 note=46 velocity=64 time=950\n",
      "note_on channel=1 note=45 velocity=82 time=10\n",
      "note_off channel=1 note=45 velocity=64 time=450\n",
      "note_on channel=1 note=31 velocity=93 time=30\n",
      "note_off channel=1 note=31 velocity=64 time=930\n",
      "note_on channel=1 note=40 velocity=70 time=30\n",
      "note_off channel=1 note=40 velocity=64 time=445\n",
      "note_on channel=1 note=41 velocity=85 time=35\n",
      "note_off channel=1 note=41 velocity=64 time=940\n",
      "note_on channel=1 note=40 velocity=64 time=20\n",
      "note_on channel=1 note=31 velocity=89 time=480\n",
      "note_off channel=1 note=40 velocity=64 time=5\n",
      "note_off channel=1 note=31 velocity=64 time=940\n",
      "note_on channel=1 note=40 velocity=70 time=15\n",
      "note_off channel=1 note=40 velocity=64 time=450\n",
      "note_on channel=1 note=41 velocity=82 time=30\n",
      "note_off channel=1 note=41 velocity=64 time=955\n",
      "note_on channel=1 note=40 velocity=70 time=5\n",
      "note_off channel=1 note=40 velocity=64 time=425\n",
      "note_on channel=1 note=38 velocity=93 time=55\n",
      "note_off channel=1 note=38 velocity=64 time=910\n",
      "note_on channel=1 note=47 velocity=89 time=50\n",
      "note_off channel=1 note=47 velocity=64 time=475\n",
      "note_on channel=1 note=48 velocity=89 time=5\n",
      "note_off channel=1 note=48 velocity=64 time=875\n",
      "note_on channel=1 note=38 velocity=103 time=85\n",
      "note_off channel=1 note=38 velocity=64 time=435\n",
      "note_on channel=1 note=39 velocity=89 time=45\n",
      "note_off channel=1 note=39 velocity=64 time=1385\n",
      "note_on channel=1 note=38 velocity=98 time=55\n",
      "note_off channel=1 note=38 velocity=64 time=465\n",
      "note_on channel=1 note=47 velocity=93 time=15\n",
      "note_off channel=1 note=47 velocity=64 time=475\n",
      "note_on channel=1 note=48 velocity=85 time=5\n",
      "note_off channel=1 note=48 velocity=64 time=455\n",
      "note_on channel=1 note=31 velocity=89 time=25\n",
      "note_off channel=1 note=31 velocity=64 time=915\n",
      "note_on channel=1 note=40 velocity=70 time=45\n",
      "note_off channel=1 note=40 velocity=64 time=460\n",
      "note_on channel=1 note=41 velocity=85 time=20\n",
      "note_on channel=1 note=40 velocity=67 time=960\n",
      "note_off channel=1 note=41 velocity=64 time=30\n",
      "note_off channel=1 note=40 velocity=64 time=400\n",
      "note_on channel=1 note=31 velocity=93 time=50\n",
      "note_on channel=1 note=40 velocity=67 time=960\n",
      "note_off channel=1 note=31 velocity=64 time=20\n",
      "note_off channel=1 note=40 velocity=64 time=420\n",
      "note_on channel=1 note=41 velocity=85 time=40\n",
      "note_on channel=1 note=40 velocity=76 time=960\n",
      "note_off channel=1 note=41 velocity=64 time=15\n",
      "note_off channel=1 note=40 velocity=64 time=430\n",
      "note_on channel=1 note=31 velocity=79 time=35\n",
      "note_off channel=1 note=31 velocity=64 time=915\n",
      "note_on channel=1 note=40 velocity=67 time=45\n",
      "note_off channel=1 note=40 velocity=64 time=465\n",
      "note_on channel=1 note=41 velocity=79 time=15\n",
      "note_off channel=1 note=41 velocity=64 time=920\n",
      "note_on channel=1 note=40 velocity=64 time=40\n",
      "note_off channel=1 note=40 velocity=64 time=455\n",
      "note_on channel=1 note=31 velocity=89 time=25\n",
      "note_on channel=1 note=40 velocity=70 time=960\n",
      "note_off channel=1 note=31 velocity=64 time=25\n",
      "note_off channel=1 note=40 velocity=64 time=425\n",
      "note_on channel=1 note=41 velocity=76 time=30\n",
      "note_on channel=1 note=40 velocity=67 time=960\n",
      "note_off channel=1 note=41 velocity=64 time=30\n",
      "note_off channel=1 note=40 velocity=64 time=425\n",
      "note_on channel=1 note=31 velocity=85 time=25\n",
      "note_off channel=1 note=31 velocity=64 time=900\n",
      "note_on channel=1 note=40 velocity=67 time=60\n",
      "note_off channel=1 note=40 velocity=64 time=480\n",
      "note_on channel=1 note=41 velocity=76 time=0\n",
      "note_on channel=1 note=40 velocity=70 time=960\n",
      "note_off channel=1 note=41 velocity=64 time=5\n",
      "note_off channel=1 note=40 velocity=64 time=475\n",
      "note_on channel=1 note=31 velocity=89 time=0\n",
      "note_off channel=1 note=31 velocity=64 time=850\n",
      "note_on channel=1 note=40 velocity=67 time=110\n",
      "note_on channel=1 note=41 velocity=76 time=480\n",
      "note_off channel=1 note=40 velocity=64 time=5\n",
      "note_off channel=1 note=41 velocity=64 time=930\n",
      "note_on channel=1 note=40 velocity=64 time=25\n",
      "note_on channel=1 note=31 velocity=89 time=480\n",
      "note_off channel=1 note=40 velocity=64 time=15\n",
      "note_off channel=1 note=31 velocity=64 time=2820\n",
      "<meta message end_of_track time=0>\n",
      "Track 3: tk3\n",
      "<meta message track_name name='tk3' time=0>\n",
      "<meta message midi_port port=0 time=0>\n",
      "<meta message channel_prefix channel=2 time=0>\n",
      "control_change channel=2 control=7 value=100 time=0\n",
      "control_change channel=2 control=10 value=64 time=0\n",
      "control_change channel=2 control=0 value=0 time=0\n",
      "control_change channel=2 control=91 value=120 time=0\n",
      "control_change channel=2 control=93 value=0 time=0\n",
      "program_change channel=2 program=65 time=0\n",
      "control_change channel=2 control=11 value=127 time=965\n",
      "note_on channel=2 note=62 velocity=64 time=440\n",
      "note_off channel=2 note=62 velocity=64 time=945\n",
      "note_on channel=2 note=64 velocity=52 time=50\n",
      "note_off channel=2 note=64 velocity=64 time=435\n",
      "note_on channel=2 note=65 velocity=54 time=45\n",
      "note_off channel=2 note=65 velocity=64 time=875\n",
      "note_on channel=2 note=64 velocity=55 time=50\n",
      "note_off channel=2 note=64 velocity=64 time=435\n",
      "note_on channel=2 note=62 velocity=45 time=70\n",
      "note_off channel=2 note=62 velocity=64 time=910\n",
      "note_on channel=2 note=64 velocity=59 time=50\n",
      "note_off channel=2 note=64 velocity=64 time=435\n",
      "note_on channel=2 note=65 velocity=57 time=45\n",
      "note_off channel=2 note=65 velocity=64 time=870\n",
      "note_on channel=2 note=64 velocity=57 time=50\n",
      "note_off channel=2 note=64 velocity=64 time=475\n",
      "note_on channel=2 note=62 velocity=48 time=60\n",
      "note_off channel=2 note=62 velocity=64 time=875\n",
      "note_on channel=2 note=64 velocity=54 time=45\n",
      "note_off channel=2 note=64 velocity=64 time=455\n",
      "note_on channel=2 note=65 velocity=59 time=55\n",
      "note_off channel=2 note=65 velocity=64 time=955\n",
      "note_on channel=2 note=64 velocity=62 time=40\n",
      "note_off channel=2 note=64 velocity=64 time=385\n",
      "note_on channel=2 note=62 velocity=42 time=95\n",
      "note_off channel=2 note=62 velocity=64 time=835\n",
      "note_on channel=2 note=64 velocity=49 time=60\n",
      "note_off channel=2 note=64 velocity=64 time=430\n",
      "note_on channel=2 note=65 velocity=59 time=50\n",
      "note_off channel=2 note=65 velocity=64 time=900\n",
      "note_on channel=2 note=64 velocity=59 time=45\n",
      "note_off channel=2 note=64 velocity=64 time=450\n",
      "note_on channel=2 note=62 velocity=45 time=65\n",
      "note_off channel=2 note=62 velocity=64 time=900\n",
      "note_on channel=2 note=64 velocity=62 time=25\n",
      "note_off channel=2 note=64 velocity=64 time=445\n",
      "note_on channel=2 note=65 velocity=62 time=45\n",
      "note_off channel=2 note=65 velocity=64 time=945\n",
      "note_on channel=2 note=64 velocity=62 time=25\n",
      "note_off channel=2 note=64 velocity=64 time=465\n",
      "note_on channel=2 note=62 velocity=48 time=55\n",
      "note_off channel=2 note=62 velocity=64 time=880\n",
      "note_on channel=2 note=64 velocity=59 time=35\n",
      "note_off channel=2 note=64 velocity=64 time=445\n",
      "note_on channel=2 note=65 velocity=62 time=40\n",
      "note_off channel=2 note=65 velocity=64 time=920\n",
      "note_on channel=2 note=64 velocity=57 time=45\n",
      "note_off channel=2 note=64 velocity=64 time=460\n",
      "note_on channel=2 note=62 velocity=49 time=75\n",
      "note_off channel=2 note=62 velocity=64 time=860\n",
      "note_on channel=2 note=64 velocity=51 time=45\n",
      "note_off channel=2 note=64 velocity=64 time=440\n",
      "note_on channel=2 note=65 velocity=64 time=30\n",
      "note_off channel=2 note=65 velocity=64 time=910\n",
      "note_on channel=2 note=64 velocity=57 time=40\n",
      "note_off channel=2 note=64 velocity=64 time=480\n",
      "note_on channel=2 note=62 velocity=51 time=50\n",
      "note_off channel=2 note=62 velocity=64 time=890\n",
      "note_on channel=2 note=64 velocity=49 time=45\n",
      "note_off channel=2 note=64 velocity=64 time=460\n",
      "note_on channel=2 note=65 velocity=64 time=40\n",
      "note_off channel=2 note=65 velocity=64 time=915\n",
      "note_on channel=2 note=64 velocity=49 time=35\n",
      "note_off channel=2 note=64 velocity=64 time=450\n",
      "note_on channel=2 note=62 velocity=55 time=45\n",
      "note_off channel=2 note=62 velocity=64 time=910\n",
      "note_on channel=2 note=64 velocity=48 time=60\n",
      "note_off channel=2 note=64 velocity=64 time=420\n",
      "note_on channel=2 note=65 velocity=67 time=35\n",
      "note_off channel=2 note=65 velocity=64 time=915\n",
      "note_on channel=2 note=64 velocity=62 time=55\n",
      "note_off channel=2 note=64 velocity=64 time=445\n",
      "note_on channel=2 note=62 velocity=49 time=55\n",
      "note_off channel=2 note=62 velocity=64 time=880\n",
      "note_on channel=2 note=64 velocity=52 time=60\n",
      "note_off channel=2 note=64 velocity=64 time=415\n",
      "note_on channel=2 note=65 velocity=59 time=55\n",
      "note_off channel=2 note=65 velocity=64 time=910\n",
      "note_on channel=2 note=64 velocity=51 time=35\n",
      "note_off channel=2 note=64 velocity=64 time=430\n",
      "note_on channel=2 note=62 velocity=57 time=45\n",
      "note_off channel=2 note=62 velocity=64 time=865\n",
      "note_on channel=2 note=64 velocity=52 time=50\n",
      "note_off channel=2 note=64 velocity=64 time=445\n",
      "note_on channel=2 note=65 velocity=51 time=65\n",
      "note_off channel=2 note=65 velocity=64 time=950\n",
      "note_on channel=2 note=64 velocity=55 time=45\n",
      "note_off channel=2 note=64 velocity=64 time=430\n",
      "note_on channel=2 note=62 velocity=52 time=60\n",
      "note_off channel=2 note=62 velocity=64 time=880\n",
      "note_on channel=2 note=64 velocity=51 time=50\n",
      "note_off channel=2 note=64 velocity=64 time=460\n",
      "note_on channel=2 note=65 velocity=55 time=55\n",
      "note_off channel=2 note=65 velocity=64 time=885\n",
      "note_on channel=2 note=64 velocity=51 time=50\n",
      "note_off channel=2 note=64 velocity=64 time=465\n",
      "note_on channel=2 note=65 velocity=73 time=1425\n",
      "note_off channel=2 note=65 velocity=64 time=630\n",
      "note_on channel=2 note=66 velocity=70 time=885\n",
      "note_off channel=2 note=66 velocity=64 time=1380\n",
      "note_on channel=2 note=65 velocity=70 time=15\n",
      "note_off channel=2 note=65 velocity=64 time=885\n",
      "note_on channel=2 note=65 velocity=64 time=550\n",
      "note_off channel=2 note=65 velocity=64 time=1445\n",
      "note_on channel=2 note=67 velocity=67 time=35\n",
      "note_off channel=2 note=67 velocity=64 time=1365\n",
      "note_on channel=2 note=65 velocity=70 time=30\n",
      "note_off channel=2 note=65 velocity=64 time=1440\n",
      "note_on channel=2 note=64 velocity=67 time=25\n",
      "note_off channel=2 note=64 velocity=64 time=1385\n",
      "note_on channel=2 note=62 velocity=57 time=55\n",
      "note_off channel=2 note=62 velocity=64 time=990\n",
      "note_on channel=2 note=64 velocity=52 time=45\n",
      "note_off channel=2 note=64 velocity=64 time=360\n",
      "note_on channel=2 note=65 velocity=59 time=50\n",
      "note_off channel=2 note=65 velocity=64 time=925\n",
      "note_on channel=2 note=64 velocity=59 time=35\n",
      "note_off channel=2 note=64 velocity=64 time=415\n",
      "note_on channel=2 note=62 velocity=44 time=60\n",
      "note_off channel=2 note=62 velocity=64 time=930\n",
      "note_on channel=2 note=64 velocity=54 time=50\n",
      "note_off channel=2 note=64 velocity=64 time=415\n",
      "note_on channel=2 note=65 velocity=51 time=55\n",
      "note_off channel=2 note=65 velocity=64 time=900\n",
      "note_on channel=2 note=64 velocity=59 time=45\n",
      "note_off channel=2 note=64 velocity=64 time=485\n",
      "note_on channel=2 note=62 velocity=55 time=45\n",
      "note_off channel=2 note=62 velocity=64 time=870\n",
      "note_on channel=2 note=64 velocity=49 time=55\n",
      "note_off channel=2 note=64 velocity=64 time=445\n",
      "note_on channel=2 note=65 velocity=59 time=45\n",
      "note_off channel=2 note=65 velocity=64 time=880\n",
      "note_on channel=2 note=64 velocity=52 time=55\n",
      "note_off channel=2 note=64 velocity=64 time=435\n",
      "note_on channel=2 note=62 velocity=47 time=80\n",
      "note_off channel=2 note=62 velocity=64 time=920\n",
      "note_on channel=2 note=64 velocity=51 time=45\n",
      "note_off channel=2 note=64 velocity=64 time=425\n",
      "note_on channel=2 note=65 velocity=51 time=65\n",
      "note_off channel=2 note=65 velocity=64 time=940\n",
      "note_on channel=2 note=64 velocity=51 time=40\n",
      "note_off channel=2 note=64 velocity=64 time=350\n",
      "note_on channel=2 note=71 velocity=110 time=80390\n",
      "note_on channel=2 note=69 velocity=98 time=145\n",
      "note_off channel=2 note=71 velocity=64 time=15\n",
      "note_off channel=2 note=69 velocity=64 time=115\n",
      "note_on channel=2 note=67 velocity=103 time=10\n",
      "note_on channel=2 note=65 velocity=103 time=160\n",
      "note_off channel=2 note=67 velocity=64 time=5\n",
      "note_off channel=2 note=65 velocity=64 time=1590\n",
      "note_on channel=2 note=69 velocity=119 time=125\n",
      "note_on channel=2 note=67 velocity=93 time=155\n",
      "note_off channel=2 note=69 velocity=64 time=15\n",
      "note_off channel=2 note=67 velocity=64 time=105\n",
      "note_on channel=2 note=65 velocity=98 time=10\n",
      "note_off channel=2 note=65 velocity=64 time=155\n",
      "note_on channel=2 note=64 velocity=89 time=30\n",
      "note_off channel=2 note=64 velocity=64 time=855\n",
      "note_on channel=2 note=65 velocity=98 time=25\n",
      "note_off channel=2 note=65 velocity=64 time=135\n",
      "note_on channel=2 note=62 velocity=98 time=15\n",
      "note_off channel=2 note=62 velocity=64 time=1530\n",
      "note_on channel=2 note=60 velocity=119 time=710\n",
      "note_off channel=2 note=60 velocity=64 time=160\n",
      "note_on channel=2 note=59 velocity=82 time=40\n",
      "note_off channel=2 note=59 velocity=64 time=460\n",
      "note_on channel=2 note=59 velocity=79 time=520\n",
      "note_off channel=2 note=59 velocity=64 time=210\n",
      "note_on channel=2 note=62 velocity=119 time=90\n",
      "note_off channel=2 note=62 velocity=64 time=110\n",
      "note_on channel=2 note=60 velocity=103 time=50\n",
      "note_off channel=2 note=60 velocity=64 time=255\n",
      "note_on channel=2 note=57 velocity=76 time=80\n",
      "note_off channel=2 note=57 velocity=64 time=105\n",
      "note_on channel=2 note=57 velocity=59 time=540\n",
      "note_off channel=2 note=57 velocity=64 time=180\n",
      "note_on channel=2 note=60 velocity=119 time=95\n",
      "note_off channel=2 note=60 velocity=64 time=145\n",
      "note_on channel=2 note=59 velocity=98 time=10\n",
      "note_off channel=2 note=59 velocity=64 time=210\n",
      "note_on channel=2 note=55 velocity=64 time=80\n",
      "note_off channel=2 note=55 velocity=64 time=115\n",
      "note_on channel=2 note=67 velocity=82 time=955\n",
      "note_off channel=2 note=67 velocity=64 time=45\n",
      "note_on channel=2 note=72 velocity=93 time=65\n",
      "note_off channel=2 note=72 velocity=64 time=80\n",
      "note_on channel=2 note=71 velocity=119 time=85\n",
      "note_off channel=2 note=71 velocity=64 time=260\n",
      "note_on channel=2 note=67 velocity=62 time=65\n",
      "note_off channel=2 note=67 velocity=64 time=85\n",
      "note_on channel=2 note=69 velocity=98 time=80\n",
      "note_off channel=2 note=69 velocity=64 time=215\n",
      "note_on channel=2 note=72 velocity=119 time=80\n",
      "note_off channel=2 note=72 velocity=64 time=130\n",
      "note_on channel=2 note=71 velocity=103 time=30\n",
      "note_off channel=2 note=71 velocity=64 time=260\n",
      "note_on channel=2 note=67 velocity=62 time=60\n",
      "note_off channel=2 note=67 velocity=64 time=65\n",
      "note_on channel=2 note=69 velocity=85 time=75\n",
      "note_off channel=2 note=69 velocity=64 time=210\n",
      "note_on channel=2 note=72 velocity=110 time=70\n",
      "note_off channel=2 note=72 velocity=64 time=110\n",
      "note_on channel=2 note=70 velocity=93 time=60\n",
      "note_off channel=2 note=70 velocity=64 time=625\n",
      "note_on channel=2 note=70 velocity=110 time=815\n",
      "note_off channel=2 note=70 velocity=64 time=115\n",
      "note_on channel=2 note=69 velocity=98 time=25\n",
      "note_off channel=2 note=69 velocity=64 time=105\n",
      "note_on channel=2 note=67 velocity=93 time=25\n",
      "note_off channel=2 note=67 velocity=64 time=115\n",
      "note_on channel=2 note=70 velocity=103 time=1150\n",
      "note_off channel=2 note=70 velocity=64 time=105\n",
      "note_on channel=2 note=69 velocity=103 time=60\n",
      "note_off channel=2 note=69 velocity=64 time=130\n",
      "note_on channel=2 note=67 velocity=93 time=20\n",
      "note_off channel=2 note=67 velocity=64 time=115\n",
      "note_on channel=2 note=64 velocity=76 time=55\n",
      "note_off channel=2 note=64 velocity=64 time=455\n",
      "note_on channel=2 note=69 velocity=42 time=660\n",
      "note_off channel=2 note=69 velocity=64 time=45\n",
      "note_on channel=2 note=70 velocity=103 time=45\n",
      "note_off channel=2 note=70 velocity=64 time=150\n",
      "note_on channel=2 note=69 velocity=98 time=10\n",
      "note_off channel=2 note=69 velocity=64 time=125\n",
      "note_on channel=2 note=67 velocity=85 time=25\n",
      "note_off channel=2 note=67 velocity=64 time=205\n",
      "note_on channel=2 note=69 velocity=59 time=1830\n",
      "note_off channel=2 note=69 velocity=64 time=45\n",
      "note_on channel=2 note=72 velocity=110 time=70\n",
      "note_on channel=2 note=70 velocity=93 time=145\n",
      "note_off channel=2 note=72 velocity=64 time=20\n",
      "note_off channel=2 note=70 velocity=64 time=135\n",
      "note_on channel=2 note=67 velocity=70 time=25\n",
      "note_off channel=2 note=67 velocity=64 time=95\n",
      "note_on channel=2 note=69 velocity=82 time=55\n",
      "note_off channel=2 note=69 velocity=64 time=60\n",
      "note_on channel=2 note=72 velocity=119 time=70\n",
      "note_on channel=2 note=70 velocity=89 time=145\n",
      "note_off channel=2 note=72 velocity=64 time=25\n",
      "note_off channel=2 note=70 velocity=64 time=120\n",
      "note_on channel=2 note=67 velocity=62 time=40\n",
      "note_off channel=2 note=67 velocity=64 time=70\n",
      "note_on channel=2 note=69 velocity=82 time=60\n",
      "note_off channel=2 note=69 velocity=64 time=50\n",
      "note_on channel=2 note=72 velocity=110 time=60\n",
      "note_on channel=2 note=70 velocity=89 time=140\n",
      "note_off channel=2 note=72 velocity=64 time=25\n",
      "note_off channel=2 note=70 velocity=64 time=135\n",
      "note_on channel=2 note=67 velocity=57 time=35\n",
      "note_off channel=2 note=67 velocity=64 time=55\n",
      "note_on channel=2 note=67 velocity=67 time=670\n",
      "note_off channel=2 note=67 velocity=64 time=55\n",
      "note_on channel=2 note=70 velocity=98 time=40\n",
      "note_on channel=2 note=69 velocity=103 time=125\n",
      "note_off channel=2 note=70 velocity=64 time=15\n",
      "note_off channel=2 note=69 velocity=64 time=115\n",
      "note_on channel=2 note=64 velocity=85 time=30\n",
      "note_off channel=2 note=64 velocity=64 time=75\n",
      "note_on channel=2 note=62 velocity=93 time=60\n",
      "note_off channel=2 note=62 velocity=64 time=95\n",
      "note_on channel=2 note=67 velocity=103 time=30\n",
      "note_on channel=2 note=64 velocity=89 time=140\n",
      "note_off channel=2 note=67 velocity=64 time=5\n",
      "note_off channel=2 note=64 velocity=64 time=105\n",
      "note_on channel=2 note=60 velocity=67 time=75\n",
      "note_off channel=2 note=60 velocity=64 time=55\n",
      "note_on channel=2 note=64 velocity=93 time=60\n",
      "note_off channel=2 note=64 velocity=64 time=120\n",
      "note_on channel=2 note=65 velocity=103 time=5\n",
      "note_off channel=2 note=65 velocity=64 time=135\n",
      "note_on channel=2 note=62 velocity=98 time=0\n",
      "note_off channel=2 note=62 velocity=64 time=115\n",
      "note_on channel=2 note=59 velocity=82 time=45\n",
      "note_off channel=2 note=59 velocity=64 time=115\n",
      "note_on channel=2 note=58 velocity=89 time=10\n",
      "note_off channel=2 note=58 velocity=64 time=105\n",
      "note_on channel=2 note=62 velocity=98 time=35\n",
      "note_on channel=2 note=60 velocity=93 time=110\n",
      "note_off channel=2 note=62 velocity=64 time=20\n",
      "note_off channel=2 note=60 velocity=64 time=110\n",
      "note_on channel=2 note=55 velocity=85 time=45\n",
      "note_off channel=2 note=55 velocity=64 time=90\n",
      "note_on channel=2 note=56 velocity=85 time=45\n",
      "note_off channel=2 note=56 velocity=64 time=100\n",
      "note_on channel=2 note=60 velocity=98 time=25\n",
      "note_on channel=2 note=58 velocity=89 time=120\n",
      "note_off channel=2 note=60 velocity=64 time=20\n",
      "note_off channel=2 note=58 velocity=64 time=110\n",
      "note_on channel=2 note=53 velocity=79 time=25\n",
      "note_off channel=2 note=53 velocity=64 time=115\n",
      "note_on channel=2 note=51 velocity=82 time=25\n",
      "note_off channel=2 note=51 velocity=64 time=100\n",
      "note_on channel=2 note=56 velocity=85 time=20\n",
      "note_on channel=2 note=53 velocity=89 time=115\n",
      "note_off channel=2 note=56 velocity=64 time=10\n",
      "note_off channel=2 note=53 velocity=64 time=110\n",
      "note_on channel=2 note=48 velocity=70 time=50\n",
      "note_off channel=2 note=48 velocity=64 time=115\n",
      "note_on channel=2 note=68 velocity=70 time=905\n",
      "note_off channel=2 note=68 velocity=64 time=55\n",
      "note_on channel=2 note=72 velocity=110 time=60\n",
      "note_on channel=2 note=70 velocity=89 time=130\n",
      "note_off channel=2 note=72 velocity=64 time=35\n",
      "note_off channel=2 note=70 velocity=64 time=110\n",
      "note_on channel=2 note=65 velocity=67 time=40\n",
      "note_off channel=2 note=65 velocity=64 time=85\n",
      "note_on channel=2 note=67 velocity=89 time=45\n",
      "note_off channel=2 note=67 velocity=64 time=55\n",
      "note_on channel=2 note=72 velocity=103 time=80\n",
      "note_on channel=2 note=70 velocity=93 time=130\n",
      "note_off channel=2 note=72 velocity=64 time=25\n",
      "note_off channel=2 note=70 velocity=64 time=270\n",
      "note_on channel=2 note=70 velocity=82 time=1170\n",
      "note_off channel=2 note=70 velocity=64 time=200\n",
      "note_on channel=2 note=72 velocity=110 time=85\n",
      "note_off channel=2 note=72 velocity=64 time=105\n",
      "note_on channel=2 note=74 velocity=110 time=55\n",
      "note_off channel=2 note=74 velocity=64 time=310\n",
      "note_on channel=2 note=70 velocity=73 time=30\n",
      "note_off channel=2 note=70 velocity=64 time=55\n",
      "note_on channel=2 note=72 velocity=127 time=125\n",
      "note_off channel=2 note=72 velocity=64 time=385\n",
      "note_on channel=2 note=71 velocity=119 time=545\n",
      "note_off channel=2 note=71 velocity=64 time=270\n",
      "note_on channel=2 note=69 velocity=89 time=200\n",
      "note_off channel=2 note=69 velocity=64 time=330\n",
      "note_on channel=2 note=69 velocity=82 time=120\n",
      "note_off channel=2 note=69 velocity=64 time=225\n",
      "note_on channel=2 note=74 velocity=119 time=75\n",
      "note_off channel=2 note=74 velocity=64 time=130\n",
      "note_on channel=2 note=71 velocity=93 time=40\n",
      "note_off channel=2 note=71 velocity=64 time=245\n",
      "note_on channel=2 note=67 velocity=62 time=70\n",
      "note_off channel=2 note=67 velocity=64 time=90\n",
      "note_on channel=2 note=69 velocity=64 time=70\n",
      "note_off channel=2 note=69 velocity=64 time=190\n",
      "note_on channel=2 note=76 velocity=119 time=90\n",
      "note_off channel=2 note=76 velocity=64 time=155\n",
      "note_on channel=2 note=71 velocity=93 time=165\n",
      "note_off channel=2 note=71 velocity=64 time=155\n",
      "note_on channel=2 note=74 velocity=110 time=35\n",
      "note_off channel=2 note=74 velocity=64 time=135\n",
      "note_on channel=2 note=69 velocity=82 time=30\n",
      "note_off channel=2 note=69 velocity=64 time=195\n",
      "note_on channel=2 note=74 velocity=103 time=45\n",
      "note_off channel=2 note=74 velocity=64 time=145\n",
      "note_on channel=2 note=71 velocity=82 time=85\n",
      "note_on channel=2 note=69 velocity=73 time=490\n",
      "note_off channel=2 note=69 velocity=64 time=220\n",
      "note_on channel=2 note=71 velocity=110 time=65\n",
      "note_off channel=2 note=71 velocity=64 time=75\n",
      "note_off channel=2 note=71 velocity=64 time=80\n",
      "note_on channel=2 note=67 velocity=85 time=20\n",
      "note_off channel=2 note=67 velocity=64 time=270\n",
      "note_on channel=2 note=64 velocity=73 time=50\n",
      "note_off channel=2 note=64 velocity=64 time=175\n",
      "note_on channel=2 note=62 velocity=67 time=250\n",
      "note_off channel=2 note=62 velocity=64 time=210\n",
      "note_on channel=2 note=64 velocity=47 time=1210\n",
      "note_off channel=2 note=64 velocity=64 time=55\n",
      "note_on channel=2 note=65 velocity=110 time=60\n",
      "note_on channel=2 note=64 velocity=103 time=140\n",
      "note_off channel=2 note=65 velocity=64 time=10\n",
      "note_off channel=2 note=64 velocity=64 time=85\n",
      "note_on channel=2 note=62 velocity=79 time=50\n",
      "note_off channel=2 note=62 velocity=64 time=350\n",
      "note_on channel=2 note=65 velocity=110 time=195\n",
      "note_on channel=2 note=64 velocity=98 time=115\n",
      "note_off channel=2 note=65 velocity=64 time=10\n",
      "note_off channel=2 note=64 velocity=64 time=85\n",
      "note_on channel=2 note=62 velocity=76 time=40\n",
      "note_off channel=2 note=62 velocity=64 time=335\n",
      "note_on channel=2 note=59 velocity=73 time=950\n",
      "note_off channel=2 note=59 velocity=64 time=95\n",
      "note_on channel=2 note=59 velocity=82 time=155\n",
      "note_off channel=2 note=59 velocity=64 time=130\n",
      "note_on channel=2 note=65 velocity=110 time=85\n",
      "note_on channel=2 note=64 velocity=103 time=125\n",
      "note_off channel=2 note=65 velocity=64 time=20\n",
      "note_off channel=2 note=64 velocity=64 time=95\n",
      "note_on channel=2 note=62 velocity=89 time=20\n",
      "note_off channel=2 note=62 velocity=64 time=170\n",
      "note_on channel=2 note=62 velocity=93 time=95\n",
      "note_off channel=2 note=62 velocity=64 time=290\n",
      "note_on channel=2 note=65 velocity=110 time=1230\n",
      "note_off channel=2 note=65 velocity=64 time=100\n",
      "note_on channel=2 note=64 velocity=110 time=0\n",
      "note_off channel=2 note=64 velocity=64 time=115\n",
      "note_on channel=2 note=62 velocity=93 time=5\n",
      "note_off channel=2 note=62 velocity=64 time=245\n",
      "note_on channel=2 note=69 velocity=89 time=570\n",
      "note_on channel=2 note=67 velocity=98 time=75\n",
      "note_off channel=2 note=69 velocity=64 time=45\n",
      "note_on channel=2 note=65 velocity=98 time=35\n",
      "note_off channel=2 note=67 velocity=64 time=5\n",
      "note_off channel=2 note=65 velocity=64 time=95\n",
      "note_on channel=2 note=64 velocity=103 time=5\n",
      "note_off channel=2 note=64 velocity=64 time=295\n",
      "note_on channel=2 note=67 velocity=76 time=820\n",
      "note_off channel=2 note=67 velocity=64 time=50\n",
      "note_on channel=2 note=69 velocity=85 time=10\n",
      "note_on channel=2 note=71 velocity=89 time=65\n",
      "note_off channel=2 note=69 velocity=64 time=30\n",
      "note_on channel=2 note=72 velocity=98 time=40\n",
      "note_off channel=2 note=71 velocity=64 time=10\n",
      "note_on channel=2 note=71 velocity=103 time=85\n",
      "note_off channel=2 note=72 velocity=64 time=30\n",
      "note_on channel=2 note=69 velocity=89 time=60\n",
      "note_off channel=2 note=71 velocity=64 time=15\n",
      "note_on channel=2 note=67 velocity=93 time=85\n",
      "note_off channel=2 note=69 velocity=64 time=10\n",
      "note_off channel=2 note=67 velocity=64 time=235\n",
      "note_on channel=2 note=69 velocity=85 time=475\n",
      "note_on channel=2 note=71 velocity=98 time=65\n",
      "note_off channel=2 note=69 velocity=64 time=25\n",
      "note_on channel=2 note=72 velocity=89 time=50\n",
      "note_off channel=2 note=71 velocity=64 time=25\n",
      "note_on channel=2 note=74 velocity=93 time=40\n",
      "note_off channel=2 note=72 velocity=64 time=10\n",
      "note_on channel=2 note=72 velocity=89 time=85\n",
      "note_off channel=2 note=74 velocity=64 time=30\n",
      "note_on channel=2 note=71 velocity=93 time=55\n",
      "note_off channel=2 note=72 velocity=64 time=10\n",
      "note_on channel=2 note=69 velocity=98 time=75\n",
      "note_off channel=2 note=71 velocity=64 time=10\n",
      "note_off channel=2 note=69 velocity=64 time=175\n",
      "note_on channel=2 note=71 velocity=103 time=45\n",
      "note_off channel=2 note=71 velocity=64 time=85\n",
      "note_on channel=2 note=72 velocity=103 time=70\n",
      "note_off channel=2 note=72 velocity=64 time=90\n",
      "note_on channel=2 note=74 velocity=103 time=60\n",
      "note_on channel=2 note=70 velocity=85 time=160\n",
      "note_off channel=2 note=74 velocity=64 time=5\n",
      "note_off channel=2 note=70 velocity=64 time=80\n",
      "note_on channel=2 note=72 velocity=110 time=70\n",
      "note_off channel=2 note=72 velocity=64 time=150\n",
      "note_on channel=2 note=67 velocity=85 time=35\n",
      "note_on channel=2 note=70 velocity=70 time=175\n",
      "note_off channel=2 note=67 velocity=64 time=5\n",
      "note_off channel=2 note=70 velocity=64 time=75\n",
      "note_on channel=2 note=70 velocity=64 time=2160\n",
      "note_off channel=2 note=70 velocity=64 time=45\n",
      "note_on channel=2 note=74 velocity=110 time=70\n",
      "note_on channel=2 note=72 velocity=103 time=140\n",
      "note_off channel=2 note=74 velocity=64 time=25\n",
      "note_off channel=2 note=72 velocity=64 time=240\n",
      "note_on channel=2 note=67 velocity=82 time=45\n",
      "note_off channel=2 note=67 velocity=64 time=200\n",
      "note_on channel=2 note=65 velocity=54 time=40\n",
      "note_off channel=2 note=65 velocity=64 time=170\n",
      "note_on channel=2 note=70 velocity=98 time=55\n",
      "note_off channel=2 note=70 velocity=64 time=160\n",
      "note_on channel=2 note=67 velocity=89 time=0\n",
      "note_off channel=2 note=67 velocity=64 time=280\n",
      "note_on channel=2 note=62 velocity=38 time=95\n",
      "note_off channel=2 note=62 velocity=64 time=75\n",
      "note_on channel=2 note=65 velocity=82 time=40\n",
      "note_off channel=2 note=65 velocity=64 time=230\n",
      "note_on channel=2 note=67 velocity=110 time=65\n",
      "note_off channel=2 note=67 velocity=64 time=165\n",
      "note_on channel=2 note=64 velocity=89 time=5\n",
      "note_off channel=2 note=64 velocity=64 time=310\n",
      "note_on channel=2 note=62 velocity=73 time=225\n",
      "note_off channel=2 note=62 velocity=64 time=220\n",
      "note_on channel=2 note=67 velocity=103 time=75\n",
      "note_off channel=2 note=67 velocity=64 time=200\n",
      "note_on channel=2 note=65 velocity=110 time=95\n",
      "note_off channel=2 note=65 velocity=64 time=235\n",
      "note_on channel=2 note=62 velocity=103 time=95\n",
      "note_off channel=2 note=62 velocity=64 time=260\n",
      "note_on channel=2 note=57 velocity=82 time=70\n",
      "note_off channel=2 note=57 velocity=64 time=105\n",
      "note_on channel=2 note=59 velocity=54 time=70\n",
      "note_off channel=2 note=59 velocity=64 time=240\n",
      "note_on channel=2 note=65 velocity=48 time=2220\n",
      "note_off channel=2 note=65 velocity=64 time=55\n",
      "note_on channel=2 note=68 velocity=76 time=55\n",
      "note_off channel=2 note=68 velocity=64 time=50\n",
      "note_on channel=2 note=72 velocity=103 time=75\n",
      "note_on channel=2 note=70 velocity=93 time=135\n",
      "note_off channel=2 note=72 velocity=64 time=30\n",
      "note_off channel=2 note=70 velocity=64 time=115\n",
      "note_on channel=2 note=65 velocity=85 time=30\n",
      "note_off channel=2 note=65 velocity=64 time=125\n",
      "note_on channel=2 note=72 velocity=110 time=70\n",
      "note_off channel=2 note=72 velocity=64 time=140\n",
      "note_on channel=2 note=67 velocity=43 time=80\n",
      "note_off channel=2 note=67 velocity=64 time=50\n",
      "note_on channel=2 note=70 velocity=89 time=40\n",
      "note_off channel=2 note=70 velocity=64 time=90\n",
      "note_on channel=2 note=74 velocity=103 time=35\n",
      "note_on channel=2 note=72 velocity=98 time=125\n",
      "note_off channel=2 note=74 velocity=64 time=40\n",
      "note_off channel=2 note=72 velocity=64 time=90\n",
      "note_on channel=2 note=67 velocity=73 time=45\n",
      "note_off channel=2 note=67 velocity=64 time=85\n",
      "note_on channel=2 note=68 velocity=85 time=50\n",
      "note_off channel=2 note=68 velocity=64 time=95\n",
      "note_on channel=2 note=72 velocity=93 time=40\n",
      "note_on channel=2 note=70 velocity=93 time=125\n",
      "note_off channel=2 note=72 velocity=64 time=30\n",
      "note_off channel=2 note=70 velocity=64 time=110\n",
      "note_on channel=2 note=65 velocity=76 time=35\n",
      "note_off channel=2 note=65 velocity=64 time=75\n",
      "note_on channel=2 note=66 velocity=82 time=55\n",
      "note_off channel=2 note=66 velocity=64 time=85\n",
      "note_on channel=2 note=71 velocity=93 time=45\n",
      "note_on channel=2 note=69 velocity=93 time=130\n",
      "note_off channel=2 note=71 velocity=64 time=15\n",
      "note_off channel=2 note=69 velocity=64 time=100\n",
      "note_on channel=2 note=64 velocity=82 time=35\n",
      "note_off channel=2 note=64 velocity=64 time=70\n",
      "note_on channel=2 note=62 velocity=85 time=80\n",
      "note_off channel=2 note=62 velocity=64 time=55\n",
      "note_on channel=2 note=66 velocity=89 time=50\n",
      "note_on channel=2 note=64 velocity=89 time=145\n",
      "note_off channel=2 note=66 velocity=64 time=5\n",
      "note_off channel=2 note=64 velocity=64 time=115\n",
      "note_on channel=2 note=59 velocity=57 time=70\n",
      "note_off channel=2 note=59 velocity=64 time=85\n",
      "note_on channel=2 note=61 velocity=89 time=25\n",
      "note_off channel=2 note=61 velocity=64 time=100\n",
      "note_on channel=2 note=66 velocity=89 time=20\n",
      "note_off channel=2 note=66 velocity=64 time=115\n",
      "note_on channel=2 note=64 velocity=93 time=0\n",
      "note_off channel=2 note=64 velocity=64 time=105\n",
      "note_on channel=2 note=59 velocity=82 time=50\n",
      "note_off channel=2 note=59 velocity=64 time=130\n",
      "note_on channel=2 note=58 velocity=79 time=10\n",
      "note_off channel=2 note=58 velocity=64 time=110\n",
      "note_on channel=2 note=62 velocity=85 time=45\n",
      "note_on channel=2 note=60 velocity=85 time=100\n",
      "note_off channel=2 note=62 velocity=64 time=5\n",
      "note_off channel=2 note=60 velocity=64 time=110\n",
      "note_on channel=2 note=55 velocity=82 time=40\n",
      "note_off channel=2 note=55 velocity=64 time=105\n",
      "note_on channel=2 note=49 velocity=85 time=40\n",
      "note_off channel=2 note=49 velocity=64 time=245\n",
      "note_on channel=2 note=67 velocity=73 time=1565\n",
      "note_off channel=2 note=67 velocity=64 time=255\n",
      "note_on channel=2 note=70 velocity=79 time=20\n",
      "note_off channel=2 note=70 velocity=64 time=95\n",
      "note_on channel=2 note=72 velocity=127 time=95\n",
      "note_off channel=2 note=72 velocity=64 time=310\n",
      "note_on channel=2 note=70 velocity=73 time=40\n",
      "note_off channel=2 note=70 velocity=64 time=60\n",
      "note_on channel=2 note=72 velocity=119 time=100\n",
      "note_off channel=2 note=72 velocity=64 time=300\n",
      "note_on channel=2 note=70 velocity=76 time=35\n",
      "note_off channel=2 note=70 velocity=64 time=55\n",
      "note_on channel=2 note=72 velocity=119 time=85\n",
      "note_off channel=2 note=72 velocity=64 time=300\n",
      "note_on channel=2 note=70 velocity=76 time=35\n",
      "note_off channel=2 note=70 velocity=64 time=60\n",
      "note_on channel=2 note=72 velocity=110 time=90\n",
      "note_off channel=2 note=72 velocity=64 time=305\n",
      "note_on channel=2 note=74 velocity=119 time=105\n",
      "note_off channel=2 note=74 velocity=64 time=300\n",
      "note_on channel=2 note=71 velocity=85 time=30\n",
      "note_off channel=2 note=71 velocity=64 time=225\n",
      "note_on channel=2 note=71 velocity=119 time=1380\n",
      "note_on channel=2 note=69 velocity=85 time=155\n",
      "note_off channel=2 note=71 velocity=64 time=10\n",
      "note_off channel=2 note=69 velocity=64 time=105\n",
      "note_on channel=2 note=67 velocity=76 time=30\n",
      "note_off channel=2 note=67 velocity=64 time=130\n",
      "note_on channel=2 note=65 velocity=57 time=60\n",
      "note_off channel=2 note=65 velocity=64 time=375\n",
      "note_on channel=2 note=69 velocity=119 time=100\n",
      "note_off channel=2 note=69 velocity=64 time=275\n",
      "note_on channel=2 note=64 velocity=76 time=50\n",
      "note_off channel=2 note=64 velocity=64 time=1390\n",
      "note_on channel=2 note=62 velocity=70 time=665\n",
      "note_off channel=2 note=62 velocity=64 time=935\n",
      "note_on channel=2 note=64 velocity=62 time=35\n",
      "note_off channel=2 note=64 velocity=64 time=430\n",
      "note_on channel=2 note=65 velocity=70 time=30\n",
      "note_off channel=2 note=65 velocity=64 time=885\n",
      "note_on channel=2 note=64 velocity=62 time=45\n",
      "note_off channel=2 note=64 velocity=64 time=435\n",
      "note_on channel=2 note=62 velocity=62 time=45\n",
      "note_off channel=2 note=62 velocity=64 time=920\n",
      "note_on channel=2 note=64 velocity=67 time=30\n",
      "note_off channel=2 note=64 velocity=64 time=440\n",
      "note_on channel=2 note=65 velocity=67 time=40\n",
      "note_off channel=2 note=65 velocity=64 time=930\n",
      "note_on channel=2 note=64 velocity=62 time=45\n",
      "note_off channel=2 note=64 velocity=64 time=460\n",
      "note_on channel=2 note=62 velocity=62 time=50\n",
      "note_off channel=2 note=62 velocity=64 time=905\n",
      "note_on channel=2 note=64 velocity=57 time=45\n",
      "note_off channel=2 note=64 velocity=64 time=470\n",
      "note_on channel=2 note=65 velocity=76 time=30\n",
      "note_off channel=2 note=65 velocity=64 time=910\n",
      "note_on channel=2 note=64 velocity=67 time=40\n",
      "note_off channel=2 note=64 velocity=64 time=445\n",
      "note_on channel=2 note=62 velocity=59 time=50\n",
      "note_off channel=2 note=62 velocity=64 time=885\n",
      "note_on channel=2 note=64 velocity=57 time=45\n",
      "note_off channel=2 note=64 velocity=64 time=445\n",
      "note_on channel=2 note=65 velocity=76 time=25\n",
      "note_off channel=2 note=65 velocity=64 time=990\n",
      "note_on channel=2 note=64 velocity=57 time=40\n",
      "note_off channel=2 note=64 velocity=64 time=430\n",
      "note_on channel=2 note=62 velocity=67 time=45\n",
      "note_off channel=2 note=62 velocity=64 time=885\n",
      "note_on channel=2 note=64 velocity=55 time=25\n",
      "note_off channel=2 note=64 velocity=64 time=470\n",
      "note_on channel=2 note=65 velocity=76 time=20\n",
      "note_off channel=2 note=65 velocity=64 time=875\n",
      "note_on channel=2 note=64 velocity=67 time=50\n",
      "note_off channel=2 note=64 velocity=64 time=445\n",
      "note_on channel=2 note=62 velocity=62 time=50\n",
      "note_off channel=2 note=62 velocity=64 time=925\n",
      "note_on channel=2 note=64 velocity=64 time=25\n",
      "note_off channel=2 note=64 velocity=64 time=445\n",
      "note_on channel=2 note=65 velocity=62 time=55\n",
      "note_off channel=2 note=65 velocity=64 time=930\n",
      "note_on channel=2 note=64 velocity=64 time=25\n",
      "note_off channel=2 note=64 velocity=64 time=480\n",
      "note_on channel=2 note=62 velocity=64 time=35\n",
      "note_off channel=2 note=62 velocity=64 time=895\n",
      "note_on channel=2 note=64 velocity=57 time=50\n",
      "note_off channel=2 note=64 velocity=64 time=425\n",
      "note_on channel=2 note=65 velocity=64 time=35\n",
      "note_off channel=2 note=65 velocity=64 time=930\n",
      "note_on channel=2 note=64 velocity=67 time=30\n",
      "note_off channel=2 note=64 velocity=64 time=440\n",
      "note_on channel=2 note=62 velocity=54 time=60\n",
      "note_off channel=2 note=62 velocity=64 time=920\n",
      "note_on channel=2 note=64 velocity=62 time=35\n",
      "note_off channel=2 note=64 velocity=64 time=420\n",
      "note_on channel=2 note=65 velocity=70 time=40\n",
      "note_off channel=2 note=65 velocity=64 time=920\n",
      "note_on channel=2 note=64 velocity=62 time=30\n",
      "note_off channel=2 note=64 velocity=64 time=460\n",
      "note_on channel=2 note=62 velocity=59 time=45\n",
      "note_off channel=2 note=62 velocity=64 time=900\n",
      "note_on channel=2 note=64 velocity=57 time=25\n",
      "note_off channel=2 note=64 velocity=64 time=485\n",
      "note_on channel=2 note=65 velocity=73 time=30\n",
      "note_off channel=2 note=65 velocity=64 time=920\n",
      "note_on channel=2 note=64 velocity=57 time=45\n",
      "note_off channel=2 note=64 velocity=64 time=420\n",
      "note_on channel=2 note=62 velocity=59 time=50\n",
      "note_off channel=2 note=62 velocity=64 time=925\n",
      "note_on channel=2 note=64 velocity=62 time=55\n",
      "note_off channel=2 note=64 velocity=64 time=395\n",
      "note_on channel=2 note=65 velocity=59 time=55\n",
      "note_off channel=2 note=65 velocity=64 time=940\n",
      "note_on channel=2 note=64 velocity=62 time=35\n",
      "note_off channel=2 note=64 velocity=64 time=435\n",
      "note_on channel=2 note=62 velocity=59 time=50\n",
      "note_off channel=2 note=62 velocity=64 time=890\n",
      "note_on channel=2 note=64 velocity=59 time=55\n",
      "note_off channel=2 note=64 velocity=64 time=445\n",
      "note_on channel=2 note=65 velocity=70 time=35\n",
      "note_off channel=2 note=65 velocity=64 time=890\n",
      "note_on channel=2 note=64 velocity=59 time=40\n",
      "note_off channel=2 note=64 velocity=64 time=475\n",
      "note_on channel=2 note=62 velocity=57 time=50\n",
      "note_off channel=2 note=62 velocity=64 time=890\n",
      "note_on channel=2 note=64 velocity=54 time=50\n",
      "note_off channel=2 note=64 velocity=64 time=465\n",
      "note_on channel=2 note=65 velocity=62 time=45\n",
      "note_off channel=2 note=65 velocity=64 time=935\n",
      "note_on channel=2 note=64 velocity=62 time=15\n",
      "note_off channel=2 note=64 velocity=64 time=450\n",
      "note_on channel=2 note=65 velocity=73 time=1440\n",
      "note_off channel=2 note=65 velocity=64 time=400\n",
      "note_on channel=2 note=66 velocity=79 time=1020\n",
      "note_off channel=2 note=66 velocity=64 time=990\n",
      "note_on channel=2 note=65 velocity=67 time=485\n",
      "note_off channel=2 note=65 velocity=64 time=1265\n",
      "note_on channel=2 note=65 velocity=76 time=160\n",
      "note_off channel=2 note=65 velocity=64 time=1450\n",
      "note_on channel=2 note=67 velocity=57 time=35\n",
      "note_off channel=2 note=67 velocity=64 time=1400\n",
      "note_on channel=2 note=65 velocity=76 time=10\n",
      "note_off channel=2 note=65 velocity=64 time=1420\n",
      "note_on channel=2 note=64 velocity=76 time=15\n",
      "note_off channel=2 note=64 velocity=64 time=1400\n",
      "note_on channel=2 note=62 velocity=59 time=40\n",
      "note_off channel=2 note=62 velocity=64 time=940\n",
      "note_on channel=2 note=64 velocity=55 time=40\n",
      "note_off channel=2 note=64 velocity=64 time=390\n",
      "note_on channel=2 note=65 velocity=64 time=50\n",
      "note_off channel=2 note=65 velocity=64 time=920\n",
      "note_on channel=2 note=64 velocity=64 time=30\n",
      "note_off channel=2 note=64 velocity=64 time=490\n",
      "note_on channel=2 note=62 velocity=42 time=75\n",
      "note_off channel=2 note=62 velocity=64 time=830\n",
      "note_on channel=2 note=64 velocity=64 time=30\n",
      "note_off channel=2 note=64 velocity=64 time=500\n",
      "note_on channel=2 note=65 velocity=62 time=40\n",
      "note_off channel=2 note=65 velocity=64 time=950\n",
      "note_on channel=2 note=64 velocity=59 time=30\n",
      "note_off channel=2 note=64 velocity=64 time=450\n",
      "note_on channel=2 note=62 velocity=59 time=45\n",
      "note_off channel=2 note=62 velocity=64 time=900\n",
      "note_on channel=2 note=64 velocity=59 time=30\n",
      "note_off channel=2 note=64 velocity=64 time=430\n",
      "note_on channel=2 note=65 velocity=57 time=55\n",
      "note_off channel=2 note=65 velocity=64 time=915\n",
      "note_on channel=2 note=64 velocity=59 time=20\n",
      "note_off channel=2 note=64 velocity=64 time=470\n",
      "note_on channel=2 note=62 velocity=55 time=50\n",
      "note_off channel=2 note=62 velocity=64 time=870\n",
      "note_on channel=2 note=64 velocity=55 time=35\n",
      "note_off channel=2 note=64 velocity=64 time=485\n",
      "note_on channel=2 note=65 velocity=59 time=35\n",
      "note_off channel=2 note=65 velocity=64 time=910\n",
      "note_on channel=2 note=64 velocity=57 time=35\n",
      "note_off channel=2 note=64 velocity=64 time=455\n",
      "note_on channel=2 note=62 velocity=45 time=60\n",
      "note_off channel=2 note=62 velocity=64 time=2845\n",
      "<meta message end_of_track time=0>\n",
      "Track 4: tk4\n",
      "<meta message track_name name='tk4' time=0>\n",
      "<meta message midi_port port=0 time=0>\n",
      "<meta message channel_prefix channel=3 time=0>\n",
      "control_change channel=3 control=7 value=100 time=0\n",
      "control_change channel=3 control=10 value=64 time=0\n",
      "control_change channel=3 control=0 value=0 time=0\n",
      "control_change channel=3 control=91 value=120 time=0\n",
      "control_change channel=3 control=93 value=0 time=0\n",
      "program_change channel=3 program=66 time=0\n",
      "control_change channel=3 control=11 value=127 time=965\n",
      "note_on channel=3 note=59 velocity=54 time=470\n",
      "note_off channel=3 note=59 velocity=64 time=920\n",
      "note_on channel=3 note=60 velocity=64 time=20\n",
      "note_off channel=3 note=60 velocity=64 time=480\n",
      "note_on channel=3 note=62 velocity=55 time=55\n",
      "note_off channel=3 note=62 velocity=64 time=910\n",
      "note_on channel=3 note=60 velocity=62 time=35\n",
      "note_off channel=3 note=60 velocity=64 time=420\n",
      "note_on channel=3 note=59 velocity=54 time=55\n",
      "note_off channel=3 note=59 velocity=64 time=885\n",
      "note_on channel=3 note=60 velocity=62 time=40\n",
      "note_off channel=3 note=60 velocity=64 time=450\n",
      "note_on channel=3 note=62 velocity=62 time=50\n",
      "note_off channel=3 note=62 velocity=64 time=880\n",
      "note_on channel=3 note=60 velocity=55 time=45\n",
      "note_off channel=3 note=60 velocity=64 time=460\n",
      "note_on channel=3 note=59 velocity=62 time=45\n",
      "note_off channel=3 note=59 velocity=64 time=935\n",
      "note_on channel=3 note=60 velocity=64 time=35\n",
      "note_off channel=3 note=60 velocity=64 time=395\n",
      "note_on channel=3 note=62 velocity=59 time=60\n",
      "note_off channel=3 note=62 velocity=64 time=885\n",
      "note_on channel=3 note=60 velocity=62 time=35\n",
      "note_off channel=3 note=60 velocity=64 time=500\n",
      "note_on channel=3 note=59 velocity=54 time=50\n",
      "note_off channel=3 note=59 velocity=64 time=880\n",
      "note_on channel=3 note=60 velocity=67 time=25\n",
      "note_off channel=3 note=60 velocity=64 time=435\n",
      "note_on channel=3 note=62 velocity=59 time=60\n",
      "note_off channel=3 note=62 velocity=64 time=905\n",
      "note_on channel=3 note=60 velocity=52 time=50\n",
      "note_off channel=3 note=60 velocity=64 time=465\n",
      "note_on channel=3 note=59 velocity=59 time=50\n",
      "note_off channel=3 note=59 velocity=64 time=865\n",
      "note_on channel=3 note=60 velocity=67 time=25\n",
      "note_off channel=3 note=60 velocity=64 time=445\n",
      "note_on channel=3 note=62 velocity=62 time=45\n",
      "note_off channel=3 note=62 velocity=64 time=950\n",
      "note_on channel=3 note=60 velocity=55 time=45\n",
      "note_off channel=3 note=60 velocity=64 time=455\n",
      "note_on channel=3 note=59 velocity=64 time=45\n",
      "note_on channel=3 note=60 velocity=62 time=960\n",
      "note_off channel=3 note=60 velocity=64 time=405\n",
      "note_on channel=3 note=62 velocity=59 time=70\n",
      "note_off channel=3 note=59 velocity=64 time=430\n",
      "note_off channel=3 note=62 velocity=64 time=475\n",
      "note_on channel=3 note=60 velocity=57 time=40\n",
      "note_off channel=3 note=60 velocity=64 time=450\n",
      "note_on channel=3 note=59 velocity=62 time=40\n",
      "note_off channel=3 note=59 velocity=64 time=925\n",
      "note_on channel=3 note=60 velocity=62 time=30\n",
      "note_off channel=3 note=60 velocity=64 time=440\n",
      "note_on channel=3 note=62 velocity=64 time=50\n",
      "note_off channel=3 note=62 velocity=64 time=910\n",
      "note_on channel=3 note=60 velocity=55 time=50\n",
      "note_off channel=3 note=60 velocity=64 time=455\n",
      "note_on channel=3 note=59 velocity=64 time=35\n",
      "note_off channel=3 note=59 velocity=64 time=650\n",
      "note_on channel=3 note=60 velocity=57 time=305\n",
      "note_off channel=3 note=60 velocity=64 time=440\n",
      "note_on channel=3 note=62 velocity=55 time=65\n",
      "note_off channel=3 note=62 velocity=64 time=900\n",
      "note_on channel=3 note=60 velocity=62 time=40\n",
      "note_off channel=3 note=60 velocity=64 time=440\n",
      "note_on channel=3 note=58 velocity=57 time=40\n",
      "note_off channel=3 note=58 velocity=64 time=890\n",
      "note_on channel=3 note=60 velocity=57 time=40\n",
      "note_off channel=3 note=60 velocity=64 time=465\n",
      "note_on channel=3 note=62 velocity=64 time=65\n",
      "note_off channel=3 note=62 velocity=64 time=915\n",
      "note_on channel=3 note=60 velocity=55 time=65\n",
      "note_off channel=3 note=60 velocity=64 time=410\n",
      "note_on channel=3 note=58 velocity=59 time=25\n",
      "note_off channel=3 note=58 velocity=64 time=895\n",
      "note_on channel=3 note=60 velocity=55 time=45\n",
      "note_off channel=3 note=60 velocity=64 time=480\n",
      "note_on channel=3 note=62 velocity=54 time=70\n",
      "note_off channel=3 note=62 velocity=64 time=885\n",
      "note_on channel=3 note=60 velocity=57 time=40\n",
      "note_off channel=3 note=60 velocity=64 time=390\n",
      "note_on channel=3 note=59 velocity=59 time=50\n",
      "note_off channel=3 note=59 velocity=64 time=960\n",
      "note_on channel=3 note=60 velocity=62 time=15\n",
      "note_off channel=3 note=60 velocity=64 time=405\n",
      "note_on channel=3 note=62 velocity=64 time=55\n",
      "note_off channel=3 note=62 velocity=64 time=890\n",
      "note_on channel=3 note=60 velocity=59 time=50\n",
      "note_off channel=3 note=60 velocity=64 time=475\n",
      "note_on channel=3 note=59 velocity=59 time=45\n",
      "note_off channel=3 note=59 velocity=64 time=335\n",
      "note_on channel=3 note=60 velocity=62 time=600\n",
      "note_off channel=3 note=60 velocity=64 time=480\n",
      "note_on channel=3 note=62 velocity=59 time=50\n",
      "note_off channel=3 note=62 velocity=64 time=925\n",
      "note_on channel=3 note=60 velocity=55 time=60\n",
      "note_off channel=3 note=60 velocity=64 time=450\n",
      "note_on channel=3 note=60 velocity=67 time=1415\n",
      "note_off channel=3 note=60 velocity=64 time=625\n",
      "note_on channel=3 note=61 velocity=67 time=845\n",
      "note_off channel=3 note=61 velocity=64 time=1390\n",
      "note_on channel=3 note=60 velocity=67 time=25\n",
      "note_off channel=3 note=60 velocity=64 time=890\n",
      "note_on channel=3 note=60 velocity=64 time=520\n",
      "note_off channel=3 note=60 velocity=64 time=1490\n",
      "note_on channel=3 note=62 velocity=55 time=55\n",
      "note_off channel=3 note=62 velocity=64 time=1360\n",
      "note_on channel=3 note=60 velocity=67 time=25\n",
      "note_off channel=3 note=60 velocity=64 time=1420\n",
      "note_on channel=3 note=59 velocity=62 time=45\n",
      "note_off channel=3 note=59 velocity=64 time=1220\n",
      "note_on channel=3 note=59 velocity=55 time=195\n",
      "note_off channel=3 note=59 velocity=64 time=965\n",
      "note_on channel=3 note=60 velocity=62 time=25\n",
      "note_off channel=3 note=60 velocity=64 time=400\n",
      "note_on channel=3 note=62 velocity=62 time=50\n",
      "note_off channel=3 note=62 velocity=64 time=975\n",
      "note_on channel=3 note=60 velocity=55 time=25\n",
      "note_off channel=3 note=60 velocity=64 time=425\n",
      "note_on channel=3 note=59 velocity=59 time=30\n",
      "note_off channel=3 note=59 velocity=64 time=940\n",
      "note_on channel=3 note=60 velocity=67 time=15\n",
      "note_off channel=3 note=60 velocity=64 time=405\n",
      "note_on channel=3 note=62 velocity=57 time=55\n",
      "note_off channel=3 note=62 velocity=64 time=935\n",
      "note_on channel=3 note=60 velocity=55 time=35\n",
      "note_off channel=3 note=60 velocity=64 time=450\n",
      "note_on channel=3 note=59 velocity=54 time=45\n",
      "note_off channel=3 note=59 velocity=64 time=915\n",
      "note_on channel=3 note=60 velocity=55 time=30\n",
      "note_off channel=3 note=60 velocity=64 time=465\n",
      "note_on channel=3 note=62 velocity=55 time=50\n",
      "note_off channel=3 note=62 velocity=64 time=890\n",
      "note_on channel=3 note=60 velocity=51 time=45\n",
      "note_off channel=3 note=60 velocity=64 time=440\n",
      "note_on channel=3 note=59 velocity=55 time=45\n",
      "note_off channel=3 note=59 velocity=64 time=900\n",
      "note_on channel=3 note=60 velocity=55 time=35\n",
      "note_off channel=3 note=60 velocity=64 time=455\n",
      "note_on channel=3 note=62 velocity=55 time=55\n",
      "note_off channel=3 note=62 velocity=64 time=850\n",
      "note_on channel=3 note=60 velocity=47 time=60\n",
      "note_off channel=3 note=60 velocity=64 time=470\n",
      "note_on channel=3 note=59 velocity=59 time=149795\n",
      "note_off channel=3 note=59 velocity=64 time=960\n",
      "note_on channel=3 note=60 velocity=70 time=30\n",
      "note_off channel=3 note=60 velocity=64 time=410\n",
      "note_on channel=3 note=62 velocity=62 time=55\n",
      "note_off channel=3 note=62 velocity=64 time=870\n",
      "note_on channel=3 note=60 velocity=51 time=65\n",
      "note_off channel=3 note=60 velocity=64 time=465\n",
      "note_on channel=3 note=59 velocity=67 time=30\n",
      "note_off channel=3 note=59 velocity=64 time=890\n",
      "note_on channel=3 note=60 velocity=62 time=40\n",
      "note_off channel=3 note=60 velocity=64 time=420\n",
      "note_on channel=3 note=62 velocity=62 time=50\n",
      "note_off channel=3 note=62 velocity=64 time=900\n",
      "note_on channel=3 note=60 velocity=59 time=35\n",
      "note_off channel=3 note=60 velocity=64 time=450\n",
      "note_on channel=3 note=59 velocity=67 time=40\n",
      "note_off channel=3 note=59 velocity=64 time=955\n",
      "note_on channel=3 note=60 velocity=64 time=35\n",
      "note_off channel=3 note=60 velocity=64 time=445\n",
      "note_on channel=3 note=62 velocity=59 time=60\n",
      "note_off channel=3 note=62 velocity=64 time=880\n",
      "note_on channel=3 note=60 velocity=59 time=40\n",
      "note_off channel=3 note=60 velocity=64 time=470\n",
      "note_on channel=3 note=59 velocity=54 time=60\n",
      "note_off channel=3 note=59 velocity=64 time=900\n",
      "note_on channel=3 note=60 velocity=64 time=30\n",
      "note_off channel=3 note=60 velocity=64 time=460\n",
      "note_on channel=3 note=62 velocity=54 time=60\n",
      "note_off channel=3 note=62 velocity=64 time=940\n",
      "note_on channel=3 note=60 velocity=57 time=35\n",
      "note_off channel=3 note=60 velocity=64 time=440\n",
      "note_on channel=3 note=59 velocity=67 time=35\n",
      "note_off channel=3 note=59 velocity=64 time=920\n",
      "note_on channel=3 note=60 velocity=64 time=25\n",
      "note_off channel=3 note=60 velocity=64 time=415\n",
      "note_on channel=3 note=62 velocity=62 time=70\n",
      "note_off channel=3 note=62 velocity=64 time=895\n",
      "note_on channel=3 note=60 velocity=52 time=50\n",
      "note_off channel=3 note=60 velocity=64 time=415\n",
      "note_on channel=3 note=59 velocity=64 time=40\n",
      "note_off channel=3 note=59 velocity=64 time=765\n",
      "note_on channel=3 note=60 velocity=52 time=225\n",
      "note_off channel=3 note=60 velocity=64 time=375\n",
      "note_on channel=3 note=62 velocity=52 time=60\n",
      "note_off channel=3 note=62 velocity=64 time=910\n",
      "note_on channel=3 note=60 velocity=59 time=45\n",
      "note_off channel=3 note=60 velocity=64 time=465\n",
      "note_on channel=3 note=59 velocity=59 time=40\n",
      "note_off channel=3 note=59 velocity=64 time=930\n",
      "note_on channel=3 note=60 velocity=70 time=25\n",
      "note_off channel=3 note=60 velocity=64 time=430\n",
      "note_on channel=3 note=62 velocity=62 time=50\n",
      "note_off channel=3 note=62 velocity=64 time=935\n",
      "note_on channel=3 note=60 velocity=64 time=30\n",
      "note_off channel=3 note=60 velocity=64 time=435\n",
      "note_on channel=3 note=59 velocity=57 time=50\n",
      "note_off channel=3 note=59 velocity=64 time=920\n",
      "note_on channel=3 note=60 velocity=67 time=30\n",
      "note_off channel=3 note=60 velocity=64 time=445\n",
      "note_on channel=3 note=62 velocity=62 time=50\n",
      "note_off channel=3 note=62 velocity=64 time=915\n",
      "note_on channel=3 note=60 velocity=70 time=35\n",
      "note_off channel=3 note=60 velocity=64 time=455\n",
      "note_on channel=3 note=58 velocity=67 time=25\n",
      "note_off channel=3 note=58 velocity=64 time=915\n",
      "note_on channel=3 note=60 velocity=59 time=20\n",
      "note_off channel=3 note=60 velocity=64 time=450\n",
      "note_on channel=3 note=62 velocity=67 time=60\n",
      "note_off channel=3 note=62 velocity=64 time=940\n",
      "note_on channel=3 note=60 velocity=57 time=55\n",
      "note_off channel=3 note=60 velocity=64 time=395\n",
      "note_on channel=3 note=58 velocity=57 time=35\n",
      "note_off channel=3 note=58 velocity=64 time=930\n",
      "note_on channel=3 note=60 velocity=51 time=65\n",
      "note_off channel=3 note=60 velocity=64 time=420\n",
      "note_on channel=3 note=62 velocity=70 time=55\n",
      "note_off channel=3 note=62 velocity=64 time=925\n",
      "note_on channel=3 note=60 velocity=55 time=45\n",
      "note_off channel=3 note=60 velocity=64 time=455\n",
      "note_on channel=3 note=59 velocity=62 time=35\n",
      "note_off channel=3 note=59 velocity=64 time=895\n",
      "note_on channel=3 note=60 velocity=55 time=30\n",
      "note_off channel=3 note=60 velocity=64 time=430\n",
      "note_on channel=3 note=62 velocity=64 time=50\n",
      "note_off channel=3 note=62 velocity=64 time=915\n",
      "note_on channel=3 note=60 velocity=62 time=55\n",
      "note_off channel=3 note=60 velocity=64 time=400\n",
      "note_on channel=3 note=59 velocity=62 time=50\n",
      "note_off channel=3 note=59 velocity=64 time=920\n",
      "note_on channel=3 note=60 velocity=64 time=30\n",
      "note_off channel=3 note=60 velocity=64 time=470\n",
      "note_on channel=3 note=62 velocity=64 time=40\n",
      "note_off channel=3 note=62 velocity=64 time=955\n",
      "note_on channel=3 note=60 velocity=62 time=35\n",
      "note_off channel=3 note=60 velocity=64 time=445\n",
      "note_on channel=3 note=60 velocity=70 time=1415\n",
      "note_off channel=3 note=60 velocity=64 time=420\n",
      "note_on channel=3 note=61 velocity=73 time=1030\n",
      "note_off channel=3 note=61 velocity=64 time=1405\n",
      "note_on channel=3 note=60 velocity=73 time=15\n",
      "note_off channel=3 note=60 velocity=64 time=1245\n",
      "note_on channel=3 note=60 velocity=64 time=215\n",
      "note_off channel=3 note=60 velocity=64 time=1460\n",
      "note_on channel=3 note=62 velocity=70 time=15\n",
      "note_off channel=3 note=62 velocity=64 time=1380\n",
      "note_on channel=3 note=60 velocity=64 time=25\n",
      "note_off channel=3 note=60 velocity=64 time=1405\n",
      "note_on channel=3 note=59 velocity=55 time=50\n",
      "note_off channel=3 note=59 velocity=64 time=1230\n",
      "note_on channel=3 note=59 velocity=64 time=195\n",
      "note_off channel=3 note=59 velocity=64 time=925\n",
      "note_on channel=3 note=60 velocity=70 time=25\n",
      "note_off channel=3 note=60 velocity=64 time=445\n",
      "note_on channel=3 note=62 velocity=62 time=35\n",
      "note_off channel=3 note=62 velocity=64 time=855\n",
      "note_on channel=3 note=60 velocity=64 time=40\n",
      "note_off channel=3 note=60 velocity=64 time=480\n",
      "note_on channel=3 note=59 velocity=54 time=50\n",
      "note_off channel=3 note=59 velocity=64 time=935\n",
      "note_on channel=3 note=60 velocity=70 time=15\n",
      "note_off channel=3 note=60 velocity=64 time=490\n",
      "note_on channel=3 note=62 velocity=62 time=40\n",
      "note_off channel=3 note=62 velocity=64 time=945\n",
      "note_on channel=3 note=60 velocity=67 time=25\n",
      "note_off channel=3 note=60 velocity=64 time=445\n",
      "note_on channel=3 note=59 velocity=64 time=45\n",
      "note_off channel=3 note=59 velocity=64 time=915\n",
      "note_on channel=3 note=60 velocity=64 time=30\n",
      "note_off channel=3 note=60 velocity=64 time=455\n",
      "note_on channel=3 note=62 velocity=52 time=75\n",
      "note_off channel=3 note=62 velocity=64 time=870\n",
      "note_on channel=3 note=60 velocity=64 time=25\n",
      "note_off channel=3 note=60 velocity=64 time=450\n",
      "note_on channel=3 note=59 velocity=55 time=50\n",
      "note_off channel=3 note=59 velocity=64 time=845\n",
      "note_on channel=3 note=60 velocity=62 time=35\n",
      "note_off channel=3 note=60 velocity=64 time=505\n",
      "note_on channel=3 note=62 velocity=55 time=50\n",
      "note_off channel=3 note=62 velocity=64 time=905\n",
      "note_on channel=3 note=60 velocity=62 time=40\n",
      "note_off channel=3 note=60 velocity=64 time=495\n",
      "note_on channel=3 note=59 velocity=62 time=30\n",
      "note_off channel=3 note=59 velocity=64 time=3130\n",
      "<meta message end_of_track time=0>\n",
      "Track 5: tk5\n",
      "<meta message track_name name='tk5' time=0>\n",
      "<meta message midi_port port=0 time=0>\n",
      "<meta message channel_prefix channel=4 time=0>\n",
      "control_change channel=4 control=7 value=100 time=0\n",
      "control_change channel=4 control=10 value=64 time=0\n",
      "control_change channel=4 control=0 value=0 time=0\n",
      "control_change channel=4 control=91 value=120 time=0\n",
      "control_change channel=4 control=93 value=0 time=0\n",
      "program_change channel=4 program=59 time=0\n",
      "control_change channel=4 control=11 value=127 time=965\n",
      "note_on channel=4 note=71 velocity=83 time=11990\n",
      "note_on channel=4 note=62 velocity=69 time=2620\n",
      "note_off channel=4 note=62 velocity=64 time=180\n",
      "note_on channel=4 note=71 velocity=83 time=80\n",
      "note_on channel=4 note=72 velocity=67 time=245\n",
      "note_off channel=4 note=72 velocity=64 time=215\n",
      "note_on channel=4 note=71 velocity=86 time=25\n"
     ]
    },
    {
     "name": "stdout",
     "output_type": "stream",
     "text": [
      "note_off channel=4 note=71 velocity=64 time=1335\n",
      "note_off channel=4 note=71 velocity=64 time=0\n",
      "note_off channel=4 note=71 velocity=64 time=0\n",
      "note_on channel=4 note=62 velocity=72 time=825\n",
      "note_off channel=4 note=62 velocity=64 time=175\n",
      "note_on channel=4 note=71 velocity=89 time=100\n",
      "note_off channel=4 note=71 velocity=64 time=225\n",
      "note_on channel=4 note=72 velocity=80 time=15\n",
      "note_off channel=4 note=72 velocity=64 time=205\n",
      "note_on channel=4 note=71 velocity=80 time=35\n",
      "note_on channel=4 note=62 velocity=80 time=2115\n",
      "note_off channel=4 note=62 velocity=64 time=195\n",
      "note_on channel=4 note=71 velocity=80 time=65\n",
      "note_off channel=4 note=71 velocity=64 time=640\n",
      "note_off channel=4 note=71 velocity=64 time=2200\n",
      "note_on channel=4 note=69 velocity=80 time=20\n",
      "note_off channel=4 note=69 velocity=64 time=975\n",
      "note_on channel=4 note=70 velocity=89 time=5\n",
      "note_off channel=4 note=70 velocity=64 time=450\n",
      "note_on channel=4 note=72 velocity=86 time=0\n",
      "note_off channel=4 note=72 velocity=64 time=935\n",
      "note_on channel=4 note=74 velocity=83 time=25\n",
      "note_off channel=4 note=74 velocity=64 time=505\n",
      "note_on channel=4 note=72 velocity=89 time=5\n",
      "note_off channel=4 note=72 velocity=64 time=925\n",
      "note_on channel=4 note=70 velocity=80 time=10\n",
      "note_off channel=4 note=70 velocity=64 time=485\n",
      "note_on channel=4 note=69 velocity=83 time=20\n",
      "note_off channel=4 note=69 velocity=64 time=1125\n",
      "note_on channel=4 note=62 velocity=69 time=45\n",
      "note_off channel=4 note=62 velocity=64 time=240\n",
      "note_on channel=4 note=71 velocity=83 time=30\n",
      "note_on channel=4 note=69 velocity=64 time=2740\n",
      "note_off channel=4 note=69 velocity=64 time=50\n",
      "note_on channel=4 note=68 velocity=72 time=20\n",
      "note_off channel=4 note=68 velocity=64 time=90\n",
      "note_on channel=4 note=67 velocity=89 time=20\n",
      "note_off channel=4 note=71 velocity=64 time=245\n",
      "note_off channel=4 note=67 velocity=64 time=2125\n",
      "note_on channel=4 note=68 velocity=80 time=165\n",
      "note_off channel=4 note=68 velocity=64 time=280\n",
      "note_on channel=4 note=69 velocity=89 time=15\n",
      "note_off channel=4 note=69 velocity=64 time=2695\n",
      "note_on channel=4 note=70 velocity=83 time=150\n",
      "note_off channel=4 note=70 velocity=64 time=2775\n",
      "note_on channel=4 note=69 velocity=89 time=125\n",
      "note_off channel=4 note=69 velocity=64 time=1435\n",
      "note_on channel=4 note=71 velocity=80 time=20\n",
      "note_off channel=4 note=71 velocity=64 time=1395\n",
      "note_on channel=4 note=69 velocity=74 time=25\n",
      "note_off channel=4 note=69 velocity=64 time=1435\n",
      "note_on channel=4 note=67 velocity=77 time=25\n",
      "note_off channel=4 note=67 velocity=64 time=1395\n",
      "note_on channel=4 note=67 velocity=40 time=11185\n",
      "note_off channel=4 note=67 velocity=64 time=80\n",
      "note_on channel=4 note=69 velocity=72 time=55\n",
      "note_off channel=4 note=69 velocity=64 time=55\n",
      "note_on channel=4 note=72 velocity=113 time=70\n",
      "note_off channel=4 note=72 velocity=64 time=185\n",
      "note_on channel=4 note=71 velocity=113 time=65\n",
      "note_off channel=4 note=71 velocity=64 time=2755\n",
      "note_on channel=4 note=69 velocity=89 time=1845\n",
      "note_off channel=4 note=69 velocity=64 time=105\n",
      "note_on channel=4 note=67 velocity=86 time=50\n",
      "note_off channel=4 note=67 velocity=64 time=50\n",
      "note_on channel=4 note=65 velocity=108 time=195\n",
      "note_off channel=4 note=65 velocity=64 time=1350\n",
      "note_on channel=4 note=64 velocity=64 time=135\n",
      "note_off channel=4 note=64 velocity=64 time=60\n",
      "note_on channel=4 note=65 velocity=74 time=65\n",
      "note_off channel=4 note=65 velocity=64 time=80\n",
      "note_on channel=4 note=64 velocity=108 time=205\n",
      "note_off channel=4 note=64 velocity=64 time=510\n",
      "note_on channel=4 note=62 velocity=62 time=120\n",
      "note_off channel=4 note=62 velocity=64 time=95\n",
      "note_on channel=4 note=64 velocity=92 time=50\n",
      "note_off channel=4 note=64 velocity=64 time=105\n",
      "note_on channel=4 note=62 velocity=103 time=130\n",
      "note_off channel=4 note=62 velocity=64 time=2100\n",
      "note_on channel=4 note=67 velocity=62 time=1110\n",
      "note_off channel=4 note=67 velocity=64 time=65\n",
      "note_on channel=4 note=69 velocity=83 time=50\n",
      "note_off channel=4 note=69 velocity=64 time=55\n",
      "note_on channel=4 note=72 velocity=120 time=115\n",
      "note_off channel=4 note=72 velocity=64 time=180\n",
      "note_on channel=4 note=70 velocity=103 time=110\n",
      "note_off channel=4 note=70 velocity=64 time=1410\n",
      "note_on channel=4 note=67 velocity=51 time=2710\n",
      "note_off channel=4 note=67 velocity=64 time=175\n",
      "note_on channel=4 note=67 velocity=113 time=100\n",
      "note_off channel=4 note=67 velocity=64 time=105\n",
      "note_on channel=4 note=67 velocity=80 time=180\n",
      "note_off channel=4 note=67 velocity=64 time=50\n",
      "note_on channel=4 note=67 velocity=37 time=325\n",
      "note_off channel=4 note=67 velocity=64 time=170\n",
      "note_on channel=4 note=67 velocity=113 time=100\n",
      "note_off channel=4 note=67 velocity=64 time=100\n",
      "note_on channel=4 note=67 velocity=67 time=1160\n",
      "note_off channel=4 note=67 velocity=64 time=55\n",
      "note_on channel=4 note=67 velocity=69 time=95\n",
      "note_off channel=4 note=67 velocity=64 time=55\n",
      "note_on channel=4 note=67 velocity=99 time=105\n",
      "note_off channel=4 note=67 velocity=64 time=285\n",
      "note_on channel=4 note=67 velocity=120 time=50\n",
      "note_off channel=4 note=67 velocity=64 time=85\n",
      "note_on channel=4 note=67 velocity=80 time=2770\n",
      "note_off channel=4 note=67 velocity=64 time=55\n",
      "note_on channel=4 note=70 velocity=127 time=75\n",
      "note_off channel=4 note=70 velocity=64 time=195\n",
      "note_on channel=4 note=67 velocity=52 time=30\n",
      "note_off channel=4 note=67 velocity=64 time=55\n",
      "note_on channel=4 note=70 velocity=113 time=50\n",
      "note_off channel=4 note=70 velocity=64 time=220\n",
      "note_on channel=4 note=69 velocity=95 time=130\n",
      "note_off channel=4 note=69 velocity=64 time=155\n",
      "note_on channel=4 note=69 velocity=53 time=300\n",
      "note_off channel=4 note=69 velocity=64 time=60\n",
      "note_on channel=4 note=72 velocity=127 time=730\n",
      "note_off channel=4 note=72 velocity=64 time=190\n",
      "note_on channel=4 note=73 velocity=92 time=20\n",
      "note_on channel=4 note=72 velocity=71 time=95\n",
      "note_off channel=4 note=73 velocity=64 time=10\n",
      "note_on channel=4 note=70 velocity=52 time=90\n",
      "note_off channel=4 note=72 velocity=64 time=35\n",
      "note_off channel=4 note=70 velocity=64 time=90\n",
      "note_on channel=4 note=72 velocity=120 time=85\n",
      "note_off channel=4 note=72 velocity=64 time=205\n",
      "note_on channel=4 note=70 velocity=53 time=50\n",
      "note_off channel=4 note=70 velocity=64 time=160\n",
      "note_on channel=4 note=77 velocity=127 time=2800\n",
      "note_off channel=4 note=77 velocity=64 time=175\n",
      "note_on channel=4 note=76 velocity=113 time=75\n",
      "note_on channel=4 note=77 velocity=113 time=80\n",
      "note_off channel=4 note=76 velocity=64 time=30\n",
      "note_off channel=4 note=77 velocity=64 time=65\n",
      "note_on channel=4 note=74 velocity=120 time=95\n",
      "note_off channel=4 note=74 velocity=64 time=115\n",
      "note_on channel=4 note=72 velocity=108 time=120\n",
      "note_off channel=4 note=72 velocity=64 time=145\n",
      "note_on channel=4 note=70 velocity=108 time=115\n",
      "note_off channel=4 note=70 velocity=64 time=150\n",
      "note_on channel=4 note=67 velocity=46 time=275\n",
      "note_off channel=4 note=67 velocity=64 time=90\n",
      "note_on channel=4 note=70 velocity=80 time=150\n",
      "note_off channel=4 note=70 velocity=64 time=160\n",
      "note_on channel=4 note=72 velocity=127 time=85\n",
      "note_off channel=4 note=72 velocity=64 time=160\n",
      "note_on channel=4 note=70 velocity=86 time=85\n",
      "note_on channel=4 note=71 velocity=103 time=90\n",
      "note_off channel=4 note=70 velocity=64 time=10\n",
      "note_off channel=4 note=71 velocity=64 time=105\n",
      "note_on channel=4 note=67 velocity=113 time=65\n",
      "note_off channel=4 note=67 velocity=64 time=125\n",
      "note_on channel=4 note=62 velocity=42 time=205\n",
      "note_off channel=4 note=62 velocity=64 time=100\n",
      "note_on channel=4 note=62 velocity=39 time=225\n",
      "note_off channel=4 note=62 velocity=64 time=150\n",
      "note_on channel=4 note=65 velocity=127 time=1240\n",
      "note_off channel=4 note=65 velocity=64 time=205\n",
      "note_on channel=4 note=64 velocity=99 time=75\n",
      "note_off channel=4 note=64 velocity=64 time=160\n",
      "note_on channel=4 note=62 velocity=53 time=90\n",
      "note_off channel=4 note=62 velocity=64 time=130\n",
      "note_on channel=4 note=64 velocity=113 time=110\n",
      "note_off channel=4 note=64 velocity=64 time=155\n",
      "note_on channel=4 note=62 velocity=50 time=150\n",
      "note_off channel=4 note=62 velocity=64 time=215\n",
      "note_on channel=4 note=64 velocity=120 time=765\n",
      "note_off channel=4 note=64 velocity=64 time=145\n",
      "note_on channel=4 note=62 velocity=74 time=75\n",
      "note_off channel=4 note=62 velocity=64 time=230\n",
      "note_on channel=4 note=62 velocity=120 time=115\n",
      "note_off channel=4 note=62 velocity=64 time=65\n",
      "note_on channel=4 note=62 velocity=127 time=865\n",
      "note_off channel=4 note=62 velocity=64 time=70\n",
      "note_on channel=4 note=62 velocity=61 time=95\n",
      "note_off channel=4 note=62 velocity=64 time=45\n",
      "note_on channel=4 note=62 velocity=69 time=4760\n",
      "note_off channel=4 note=62 velocity=64 time=55\n",
      "note_on channel=4 note=65 velocity=92 time=100\n",
      "note_off channel=4 note=65 velocity=64 time=55\n",
      "note_on channel=4 note=67 velocity=120 time=90\n",
      "note_off channel=4 note=67 velocity=64 time=95\n",
      "note_on channel=4 note=65 velocity=92 time=100\n",
      "note_off channel=4 note=65 velocity=64 time=1215\n",
      "note_on channel=4 note=64 velocity=103 time=100\n",
      "note_off channel=4 note=64 velocity=64 time=100\n",
      "note_on channel=4 note=65 velocity=99 time=25\n",
      "note_off channel=4 note=65 velocity=64 time=55\n",
      "note_on channel=4 note=64 velocity=99 time=210\n",
      "note_off channel=4 note=64 velocity=64 time=575\n",
      "note_on channel=4 note=62 velocity=95 time=25\n",
      "note_off channel=4 note=62 velocity=64 time=50\n",
      "note_on channel=4 note=64 velocity=92 time=85\n",
      "note_off channel=4 note=64 velocity=64 time=75\n",
      "note_on channel=4 note=62 velocity=99 time=135\n",
      "note_off channel=4 note=62 velocity=64 time=925\n",
      "note_on channel=4 note=60 velocity=52 time=105\n",
      "note_off channel=4 note=60 velocity=64 time=45\n",
      "note_on channel=4 note=61 velocity=89 time=50\n",
      "note_off channel=4 note=61 velocity=64 time=60\n",
      "note_on channel=4 note=62 velocity=99 time=65\n",
      "note_off channel=4 note=62 velocity=64 time=45\n",
      "note_on channel=4 note=63 velocity=108 time=45\n",
      "note_off channel=4 note=63 velocity=64 time=55\n",
      "note_on channel=4 note=64 velocity=113 time=50\n",
      "note_off channel=4 note=64 velocity=64 time=50\n",
      "note_on channel=4 note=65 velocity=127 time=55\n",
      "note_off channel=4 note=65 velocity=64 time=45\n",
      "note_on channel=4 note=66 velocity=113 time=45\n",
      "note_off channel=4 note=66 velocity=64 time=60\n",
      "note_on channel=4 note=67 velocity=113 time=55\n",
      "note_off channel=4 note=67 velocity=64 time=55\n",
      "note_on channel=4 note=68 velocity=108 time=60\n",
      "note_off channel=4 note=68 velocity=64 time=50\n",
      "note_on channel=4 note=69 velocity=113 time=55\n",
      "note_off channel=4 note=69 velocity=64 time=45\n",
      "note_on channel=4 note=70 velocity=108 time=50\n",
      "note_off channel=4 note=70 velocity=64 time=50\n",
      "note_on channel=4 note=71 velocity=103 time=50\n",
      "note_off channel=4 note=71 velocity=64 time=45\n",
      "note_on channel=4 note=72 velocity=114 time=50\n",
      "note_off channel=4 note=72 velocity=64 time=65\n",
      "note_on channel=4 note=73 velocity=118 time=30\n",
      "note_off channel=4 note=73 velocity=64 time=75\n",
      "note_on channel=4 note=74 velocity=123 time=30\n",
      "note_off channel=4 note=74 velocity=64 time=655\n",
      "note_on channel=4 note=74 velocity=127 time=2720\n",
      "note_on channel=4 note=72 velocity=113 time=170\n",
      "note_off channel=4 note=74 velocity=64 time=10\n",
      "note_off channel=4 note=72 velocity=64 time=140\n",
      "note_on channel=4 note=70 velocity=69 time=80\n",
      "note_off channel=4 note=70 velocity=64 time=1240\n",
      "note_on channel=4 note=69 velocity=67 time=60\n",
      "note_off channel=4 note=69 velocity=64 time=200\n",
      "note_on channel=4 note=70 velocity=108 time=80\n",
      "note_off channel=4 note=70 velocity=64 time=115\n",
      "note_on channel=4 note=72 velocity=120 time=80\n",
      "note_off channel=4 note=72 velocity=64 time=190\n",
      "note_on channel=4 note=70 velocity=108 time=70\n",
      "note_off channel=4 note=70 velocity=64 time=140\n",
      "note_on channel=4 note=69 velocity=67 time=115\n",
      "note_off channel=4 note=69 velocity=64 time=135\n",
      "note_on channel=4 note=72 velocity=120 time=75\n",
      "note_off channel=4 note=72 velocity=64 time=140\n",
      "note_on channel=4 note=70 velocity=80 time=70\n",
      "note_on channel=4 note=71 velocity=103 time=85\n",
      "note_off channel=4 note=70 velocity=64 time=5\n",
      "note_off channel=4 note=71 velocity=64 time=170\n",
      "note_on channel=4 note=67 velocity=92 time=35\n",
      "note_off channel=4 note=67 velocity=64 time=165\n",
      "note_on channel=4 note=65 velocity=62 time=105\n",
      "note_off channel=4 note=65 velocity=64 time=255\n",
      "note_on channel=4 note=67 velocity=113 time=75\n",
      "note_off channel=4 note=67 velocity=64 time=220\n",
      "note_on channel=4 note=65 velocity=64 time=75\n",
      "note_off channel=4 note=65 velocity=64 time=495\n",
      "note_on channel=4 note=64 velocity=61 time=150\n",
      "note_off channel=4 note=64 velocity=64 time=340\n",
      "note_on channel=4 note=65 velocity=127 time=110\n",
      "note_off channel=4 note=65 velocity=64 time=270\n",
      "note_on channel=4 note=64 velocity=69 time=60\n",
      "note_off channel=4 note=64 velocity=64 time=405\n",
      "note_on channel=4 note=64 velocity=80 time=100\n",
      "note_off channel=4 note=64 velocity=64 time=150\n",
      "note_on channel=4 note=62 velocity=44 time=90\n",
      "note_off channel=4 note=62 velocity=64 time=145\n",
      "note_on channel=4 note=64 velocity=120 time=85\n",
      "note_off channel=4 note=64 velocity=64 time=150\n",
      "note_on channel=4 note=62 velocity=83 time=40\n",
      "note_off channel=4 note=62 velocity=64 time=170\n",
      "note_on channel=4 note=69 velocity=113 time=1645\n",
      "note_off channel=4 note=69 velocity=64 time=115\n",
      "note_on channel=4 note=70 velocity=113 time=35\n",
      "note_off channel=4 note=70 velocity=64 time=260\n",
      "note_on channel=4 note=70 velocity=113 time=160\n",
      "note_off channel=4 note=70 velocity=64 time=275\n",
      "note_on channel=4 note=67 velocity=58 time=90\n",
      "note_off channel=4 note=67 velocity=64 time=50\n",
      "note_on channel=4 note=73 velocity=113 time=65\n",
      "note_off channel=4 note=73 velocity=64 time=330\n",
      "note_on channel=4 note=72 velocity=120 time=125\n",
      "note_off channel=4 note=72 velocity=64 time=250\n",
      "note_on channel=4 note=70 velocity=113 time=85\n",
      "note_off channel=4 note=70 velocity=64 time=235\n",
      "note_on channel=4 note=70 velocity=86 time=135\n",
      "note_off channel=4 note=70 velocity=64 time=195\n",
      "note_on channel=4 note=72 velocity=113 time=100\n",
      "note_off channel=4 note=72 velocity=64 time=190\n",
      "note_on channel=4 note=73 velocity=113 time=85\n",
      "note_off channel=4 note=73 velocity=64 time=145\n",
      "note_on channel=4 note=74 velocity=120 time=45\n",
      "note_off channel=4 note=74 velocity=64 time=315\n",
      "note_on channel=4 note=73 velocity=83 time=15\n",
      "note_off channel=4 note=73 velocity=64 time=50\n",
      "note_on channel=4 note=74 velocity=127 time=115\n",
      "note_off channel=4 note=74 velocity=64 time=350\n",
      "note_on channel=4 note=76 velocity=120 time=140\n",
      "note_on channel=4 note=77 velocity=127 time=150\n",
      "note_off channel=4 note=76 velocity=64 time=10\n",
      "note_off channel=4 note=77 velocity=64 time=65\n",
      "note_on channel=4 note=74 velocity=113 time=85\n",
      "note_off channel=4 note=74 velocity=64 time=150\n",
      "note_on channel=4 note=71 velocity=64 time=175\n",
      "note_off channel=4 note=71 velocity=64 time=150\n",
      "note_on channel=4 note=72 velocity=127 time=80\n",
      "note_off channel=4 note=72 velocity=64 time=145\n",
      "note_on channel=4 note=70 velocity=89 time=95\n",
      "note_on channel=4 note=71 velocity=103 time=85\n",
      "note_off channel=4 note=70 velocity=64 time=10\n",
      "note_off channel=4 note=71 velocity=64 time=95\n",
      "note_on channel=4 note=67 velocity=113 time=70\n",
      "note_off channel=4 note=67 velocity=64 time=120\n",
      "note_on channel=4 note=65 velocity=67 time=65\n",
      "note_off channel=4 note=65 velocity=64 time=260\n",
      "note_on channel=4 note=67 velocity=72 time=175\n",
      "note_off channel=4 note=67 velocity=64 time=300\n",
      "note_on channel=4 note=65 velocity=54 time=170\n",
      "note_off channel=4 note=65 velocity=64 time=225\n",
      "note_on channel=4 note=55 velocity=72 time=2720\n",
      "note_off channel=4 note=55 velocity=64 time=45\n",
      "note_on channel=4 note=60 velocity=127 time=80\n",
      "note_off channel=4 note=60 velocity=64 time=120\n",
      "note_on channel=4 note=58 velocity=83 time=70\n",
      "note_off channel=4 note=58 velocity=64 time=85\n",
      "note_on channel=4 note=59 velocity=103 time=0\n",
      "note_off channel=4 note=59 velocity=64 time=275\n",
      "note_on channel=4 note=55 velocity=35 time=140\n",
      "note_off channel=4 note=55 velocity=64 time=275\n",
      "note_on channel=4 note=71 velocity=92 time=92405\n",
      "note_off channel=4 note=71 velocity=64 time=2450\n",
      "note_on channel=4 note=62 velocity=59 time=170\n",
      "note_off channel=4 note=62 velocity=64 time=155\n",
      "note_on channel=4 note=71 velocity=89 time=165\n",
      "note_off channel=4 note=71 velocity=64 time=160\n",
      "note_on channel=4 note=72 velocity=89 time=10\n",
      "note_off channel=4 note=72 velocity=64 time=155\n",
      "note_on channel=4 note=71 velocity=80 time=35\n",
      "note_off channel=4 note=71 velocity=64 time=2030\n",
      "note_on channel=4 note=62 velocity=59 time=150\n",
      "note_off channel=4 note=62 velocity=64 time=165\n",
      "note_on channel=4 note=71 velocity=89 time=70\n",
      "note_off channel=4 note=71 velocity=64 time=210\n",
      "note_on channel=4 note=72 velocity=95 time=5\n",
      "note_off channel=4 note=72 velocity=64 time=205\n",
      "note_on channel=4 note=71 velocity=77 time=40\n",
      "note_off channel=4 note=71 velocity=64 time=2000\n",
      "note_on channel=4 note=62 velocity=64 time=225\n",
      "note_off channel=4 note=62 velocity=64 time=145\n",
      "note_on channel=4 note=71 velocity=83 time=175\n",
      "note_off channel=4 note=71 velocity=64 time=2690\n",
      "note_on channel=4 note=69 velocity=83 time=40\n",
      "note_off channel=4 note=69 velocity=64 time=930\n",
      "note_on channel=4 note=70 velocity=80 time=20\n",
      "note_on channel=4 note=72 velocity=83 time=465\n",
      "note_off channel=4 note=70 velocity=64 time=5\n",
      "note_off channel=4 note=72 velocity=64 time=960\n",
      "note_on channel=4 note=74 velocity=80 time=25\n",
      "note_off channel=4 note=74 velocity=64 time=455\n",
      "note_on channel=4 note=72 velocity=80 time=30\n",
      "note_off channel=4 note=72 velocity=64 time=880\n",
      "note_on channel=4 note=70 velocity=72 time=25\n",
      "note_off channel=4 note=70 velocity=64 time=500\n",
      "note_on channel=4 note=69 velocity=86 time=25\n",
      "note_off channel=4 note=69 velocity=64 time=1170\n",
      "note_on channel=4 note=62 velocity=67 time=35\n",
      "note_off channel=4 note=62 velocity=64 time=240\n",
      "note_on channel=4 note=71 velocity=86 time=35\n",
      "note_off channel=4 note=71 velocity=64 time=2060\n",
      "note_on channel=4 note=69 velocity=80 time=620\n",
      "note_off channel=4 note=69 velocity=64 time=90\n",
      "note_on channel=4 note=68 velocity=86 time=0\n",
      "note_off channel=4 note=68 velocity=64 time=105\n",
      "note_on channel=4 note=67 velocity=89 time=5\n",
      "note_off channel=4 note=67 velocity=64 time=2365\n",
      "note_on channel=4 note=68 velocity=80 time=275\n",
      "note_off channel=4 note=68 velocity=64 time=255\n",
      "note_on channel=4 note=69 velocity=89 time=15\n",
      "note_off channel=4 note=69 velocity=64 time=1745\n",
      "note_on channel=4 note=70 velocity=89 time=1045\n",
      "note_off channel=4 note=70 velocity=64 time=2805\n",
      "note_on channel=4 note=69 velocity=83 time=100\n",
      "note_off channel=4 note=69 velocity=64 time=1450\n",
      "note_on channel=4 note=71 velocity=80 time=20\n",
      "note_off channel=4 note=71 velocity=64 time=1385\n",
      "note_on channel=4 note=69 velocity=77 time=20\n",
      "note_off channel=4 note=69 velocity=64 time=680\n",
      "note_on channel=4 note=67 velocity=72 time=740\n",
      "note_off channel=4 note=67 velocity=64 time=1400\n",
      "note_on channel=4 note=71 velocity=83 time=11665\n",
      "note_off channel=4 note=71 velocity=64 time=190\n",
      "note_on channel=4 note=72 velocity=74 time=35\n",
      "note_off channel=4 note=72 velocity=64 time=165\n",
      "note_on channel=4 note=71 velocity=62 time=40\n",
      "note_off channel=4 note=71 velocity=64 time=2715\n",
      "<meta message end_of_track time=0>\n",
      "Track 6: tk10\n",
      "<meta message track_name name='tk10' time=0>\n",
      "<meta message midi_port port=0 time=0>\n",
      "<meta message channel_prefix channel=9 time=0>\n",
      "control_change channel=9 control=7 value=100 time=0\n",
      "control_change channel=9 control=10 value=64 time=0\n",
      "control_change channel=9 control=0 value=0 time=0\n",
      "control_change channel=9 control=91 value=100 time=0\n",
      "control_change channel=9 control=93 value=0 time=0\n",
      "program_change channel=9 program=40 time=0\n",
      "control_change channel=9 control=11 value=127 time=965\n",
      "note_on channel=9 note=51 velocity=127 time=490\n",
      "note_off channel=9 note=51 velocity=127 time=195\n",
      "note_on channel=9 note=51 velocity=110 time=280\n",
      "note_off channel=9 note=51 velocity=127 time=255\n",
      "note_on channel=9 note=44 velocity=127 time=200\n",
      "note_on channel=9 note=51 velocity=127 time=10\n",
      "note_off channel=9 note=44 velocity=127 time=140\n",
      "note_off channel=9 note=51 velocity=127 time=65\n",
      "note_on channel=9 note=51 velocity=127 time=280\n",
      "note_off channel=9 note=51 velocity=127 time=195\n",
      "note_on channel=9 note=51 velocity=127 time=290\n",
      "note_off channel=9 note=51 velocity=127 time=185\n",
      "note_on channel=9 note=44 velocity=127 time=270\n",
      "note_on channel=9 note=51 velocity=127 time=5\n",
      "note_off channel=9 note=44 velocity=127 time=140\n",
      "note_off channel=9 note=51 velocity=127 time=55\n",
      "note_on channel=9 note=51 velocity=127 time=290\n",
      "note_off channel=9 note=51 velocity=127 time=180\n",
      "note_on channel=9 note=51 velocity=127 time=320\n",
      "note_off channel=9 note=51 velocity=127 time=155\n",
      "note_on channel=9 note=51 velocity=127 time=295\n",
      "note_on channel=9 note=44 velocity=127 time=10\n",
      "note_off channel=9 note=44 velocity=127 time=145\n",
      "note_off channel=9 note=51 velocity=127 time=20\n",
      "note_on channel=9 note=51 velocity=127 time=310\n",
      "note_off channel=9 note=51 velocity=127 time=205\n",
      "note_on channel=9 note=51 velocity=127 time=280\n",
      "note_off channel=9 note=51 velocity=127 time=210\n",
      "note_on channel=9 note=51 velocity=127 time=265\n",
      "note_on channel=9 note=44 velocity=127 time=5\n",
      "note_off channel=9 note=44 velocity=127 time=150\n",
      "note_off channel=9 note=51 velocity=127 time=35\n",
      "note_on channel=9 note=51 velocity=127 time=295\n",
      "note_off channel=9 note=51 velocity=127 time=280\n",
      "note_on channel=9 note=51 velocity=127 time=205\n",
      "note_off channel=9 note=51 velocity=127 time=255\n",
      "note_on channel=9 note=51 velocity=127 time=210\n",
      "note_on channel=9 note=44 velocity=127 time=5\n",
      "note_on channel=9 note=38 velocity=127 time=5\n",
      "note_off channel=9 note=38 velocity=127 time=110\n",
      "note_off channel=9 note=44 velocity=127 time=30\n",
      "note_off channel=9 note=51 velocity=127 time=75\n",
      "note_on channel=9 note=51 velocity=127 time=250\n",
      "note_off channel=9 note=51 velocity=127 time=280\n",
      "note_on channel=9 note=51 velocity=127 time=200\n",
      "note_off channel=9 note=51 velocity=127 time=265\n",
      "note_on channel=9 note=38 velocity=127 time=5\n",
      "note_off channel=9 note=38 velocity=127 time=75\n",
      "note_on channel=9 note=44 velocity=127 time=120\n",
      "note_on channel=9 note=51 velocity=127 time=5\n",
      "note_off channel=9 note=44 velocity=127 time=165\n",
      "note_off channel=9 note=51 velocity=127 time=60\n",
      "note_on channel=9 note=51 velocity=127 time=290\n",
      "note_off channel=9 note=51 velocity=127 time=305\n",
      "note_on channel=9 note=51 velocity=127 time=180\n",
      "note_off channel=9 note=51 velocity=127 time=125\n",
      "note_on channel=9 note=38 velocity=127 time=120\n",
      "note_on channel=9 note=51 velocity=127 time=35\n",
      "note_off channel=9 note=38 velocity=127 time=65\n",
      "note_on channel=9 note=44 velocity=127 time=130\n",
      "note_off channel=9 note=44 velocity=127 time=110\n",
      "note_off channel=9 note=51 velocity=127 time=115\n",
      "note_on channel=9 note=51 velocity=127 time=210\n",
      "note_off channel=9 note=51 velocity=127 time=325\n",
      "note_on channel=9 note=51 velocity=127 time=175\n",
      "note_on channel=9 note=44 velocity=127 time=225\n",
      "note_on channel=9 note=38 velocity=127 time=0\n",
      "note_off channel=9 note=51 velocity=127 time=10\n",
      "note_off channel=9 note=38 velocity=127 time=40\n",
      "note_off channel=9 note=44 velocity=127 time=75\n",
      "note_on channel=9 note=51 velocity=127 time=110\n",
      "note_off channel=9 note=51 velocity=127 time=335\n",
      "note_on channel=9 note=51 velocity=127 time=150\n",
      "note_off channel=9 note=51 velocity=127 time=350\n",
      "note_on channel=9 note=51 velocity=127 time=175\n",
      "note_off channel=9 note=51 velocity=127 time=225\n",
      "note_on channel=9 note=44 velocity=127 time=5\n",
      "note_off channel=9 note=44 velocity=127 time=85\n",
      "note_on channel=9 note=51 velocity=127 time=145\n",
      "note_off channel=9 note=51 velocity=127 time=240\n",
      "note_on channel=9 note=51 velocity=118 time=235\n",
      "note_off channel=9 note=51 velocity=127 time=280\n",
      "note_on channel=9 note=51 velocity=127 time=205\n",
      "note_off channel=9 note=51 velocity=127 time=285\n",
      "note_on channel=9 note=44 velocity=127 time=195\n",
      "note_on channel=9 note=51 velocity=127 time=10\n",
      "note_off channel=9 note=44 velocity=127 time=150\n",
      "note_off channel=9 note=51 velocity=127 time=120\n",
      "note_on channel=9 note=51 velocity=127 time=210\n",
      "note_off channel=9 note=51 velocity=127 time=315\n",
      "note_on channel=9 note=51 velocity=124 time=185\n",
      "note_off channel=9 note=51 velocity=127 time=155\n",
      "note_on channel=9 note=44 velocity=127 time=35\n",
      "note_off channel=9 note=44 velocity=127 time=115\n",
      "note_on channel=9 note=51 velocity=127 time=140\n",
      "note_on channel=9 note=38 velocity=118 time=25\n",
      "note_off channel=9 note=38 velocity=127 time=195\n",
      "note_off channel=9 note=51 velocity=127 time=70\n",
      "note_on channel=9 note=38 velocity=127 time=35\n",
      "note_off channel=9 note=38 velocity=127 time=80\n",
      "note_on channel=9 note=51 velocity=127 time=60\n",
      "note_off channel=9 note=51 velocity=127 time=310\n",
      "note_on channel=9 note=51 velocity=127 time=190\n",
      "note_off channel=9 note=51 velocity=127 time=210\n",
      "note_on channel=9 note=51 velocity=127 time=250\n",
      "note_on channel=9 note=44 velocity=127 time=5\n",
      "note_off channel=9 note=44 velocity=127 time=155\n",
      "note_off channel=9 note=51 velocity=127 time=90\n",
      "note_on channel=9 note=51 velocity=127 time=250\n",
      "note_off channel=9 note=51 velocity=127 time=290\n",
      "note_on channel=9 note=51 velocity=127 time=200\n",
      "note_off channel=9 note=51 velocity=127 time=195\n",
      "note_on channel=9 note=44 velocity=127 time=35\n",
      "note_off channel=9 note=44 velocity=127 time=115\n",
      "note_on channel=9 note=38 velocity=127 time=100\n",
      "note_on channel=9 note=51 velocity=127 time=25\n",
      "note_off channel=9 note=38 velocity=127 time=45\n",
      "note_off channel=9 note=51 velocity=127 time=250\n",
      "note_on channel=9 note=51 velocity=127 time=190\n",
      "note_off channel=9 note=51 velocity=127 time=275\n",
      "note_on channel=9 note=51 velocity=127 time=195\n",
      "note_off channel=9 note=51 velocity=127 time=260\n",
      "note_on channel=9 note=38 velocity=127 time=35\n",
      "note_off channel=9 note=38 velocity=127 time=80\n",
      "note_on channel=9 note=44 velocity=127 time=85\n",
      "note_on channel=9 note=51 velocity=127 time=5\n",
      "note_off channel=9 note=44 velocity=127 time=165\n",
      "note_off channel=9 note=51 velocity=127 time=90\n",
      "note_on channel=9 note=51 velocity=127 time=230\n",
      "note_off channel=9 note=51 velocity=127 time=330\n",
      "note_on channel=9 note=51 velocity=127 time=185\n",
      "note_off channel=9 note=51 velocity=127 time=200\n",
      "note_on channel=9 note=44 velocity=127 time=0\n",
      "note_off channel=9 note=44 velocity=127 time=120\n",
      "note_on channel=9 note=51 velocity=127 time=130\n",
      "note_on channel=9 note=38 velocity=127 time=295\n",
      "note_off channel=9 note=51 velocity=127 time=30\n",
      "note_off channel=9 note=38 velocity=127 time=55\n",
      "note_on channel=9 note=51 velocity=127 time=115\n",
      "note_off channel=9 note=51 velocity=127 time=275\n",
      "note_on channel=9 note=51 velocity=127 time=210\n",
      "note_on channel=9 note=44 velocity=127 time=225\n",
      "note_off channel=9 note=51 velocity=127 time=55\n",
      "note_off channel=9 note=44 velocity=127 time=65\n",
      "note_on channel=9 note=51 velocity=127 time=125\n",
      "note_on channel=9 note=38 velocity=118 time=25\n",
      "note_off channel=9 note=38 velocity=127 time=55\n",
      "note_on channel=9 note=38 velocity=127 time=90\n",
      "note_off channel=9 note=38 velocity=127 time=45\n",
      "note_on channel=9 note=39 velocity=127 time=60\n",
      "note_off channel=9 note=51 velocity=127 time=80\n",
      "note_off channel=9 note=39 velocity=127 time=15\n",
      "note_on channel=9 note=51 velocity=127 time=110\n",
      "note_off channel=9 note=51 velocity=127 time=345\n",
      "note_on channel=9 note=51 velocity=127 time=155\n",
      "note_off channel=9 note=51 velocity=127 time=280\n",
      "note_on channel=9 note=38 velocity=127 time=125\n",
      "note_on channel=9 note=51 velocity=127 time=65\n",
      "note_on channel=9 note=44 velocity=127 time=0\n",
      "note_off channel=9 note=38 velocity=127 time=25\n",
      "note_off channel=9 note=44 velocity=127 time=135\n",
      "note_off channel=9 note=51 velocity=127 time=110\n",
      "note_on channel=9 note=51 velocity=127 time=210\n",
      "note_off channel=9 note=51 velocity=127 time=540\n",
      "note_on channel=9 note=51 velocity=127 time=200\n",
      "note_on channel=9 note=38 velocity=127 time=160\n",
      "note_on channel=9 note=44 velocity=127 time=60\n",
      "note_off channel=9 note=51 velocity=127 time=15\n",
      "note_off channel=9 note=38 velocity=127 time=10\n",
      "note_off channel=9 note=44 velocity=127 time=105\n",
      "note_on channel=9 note=51 velocity=127 time=100\n",
      "note_off channel=9 note=51 velocity=127 time=135\n",
      "note_on channel=9 note=51 velocity=127 time=95\n",
      "note_off channel=9 note=51 velocity=127 time=300\n",
      "note_on channel=9 note=51 velocity=127 time=200\n",
      "note_off channel=9 note=51 velocity=127 time=315\n",
      "note_on channel=9 note=38 velocity=127 time=125\n",
      "note_on channel=9 note=44 velocity=127 time=50\n",
      "note_on channel=9 note=51 velocity=127 time=5\n",
      "note_off channel=9 note=38 velocity=127 time=35\n",
      "note_off channel=9 note=44 velocity=127 time=125\n",
      "note_off channel=9 note=51 velocity=127 time=110\n",
      "note_on channel=9 note=51 velocity=127 time=195\n",
      "note_off channel=9 note=51 velocity=127 time=295\n",
      "note_on channel=9 note=51 velocity=127 time=180\n",
      "note_off channel=9 note=51 velocity=127 time=285\n",
      "note_on channel=9 note=38 velocity=127 time=175\n",
      "note_on channel=9 note=51 velocity=127 time=20\n",
      "note_on channel=9 note=44 velocity=127 time=10\n",
      "note_off channel=9 note=38 velocity=127 time=70\n",
      "note_off channel=9 note=44 velocity=127 time=75\n",
      "note_off channel=9 note=51 velocity=127 time=90\n",
      "note_on channel=9 note=51 velocity=127 time=240\n",
      "note_off channel=9 note=51 velocity=127 time=300\n",
      "note_on channel=9 note=51 velocity=127 time=170\n",
      "note_off channel=9 note=51 velocity=127 time=235\n",
      "note_on channel=9 note=44 velocity=127 time=10\n",
      "note_off channel=9 note=44 velocity=127 time=100\n",
      "note_on channel=9 note=51 velocity=127 time=120\n",
      "note_on channel=9 note=38 velocity=127 time=15\n",
      "note_off channel=9 note=38 velocity=127 time=90\n",
      "note_off channel=9 note=51 velocity=127 time=130\n",
      "note_on channel=9 note=51 velocity=127 time=230\n",
      "note_off channel=9 note=51 velocity=127 time=290\n",
      "note_on channel=9 note=51 velocity=127 time=215\n",
      "note_off channel=9 note=51 velocity=127 time=265\n",
      "note_on channel=9 note=51 velocity=127 time=200\n",
      "note_on channel=9 note=38 velocity=127 time=5\n",
      "note_on channel=9 note=44 velocity=127 time=5\n",
      "note_off channel=9 note=38 velocity=127 time=85\n",
      "note_off channel=9 note=44 velocity=127 time=50\n",
      "note_off channel=9 note=51 velocity=127 time=60\n",
      "note_on channel=9 note=51 velocity=127 time=275\n",
      "note_off channel=9 note=51 velocity=127 time=265\n",
      "note_on channel=9 note=51 velocity=127 time=215\n",
      "note_off channel=9 note=51 velocity=127 time=250\n",
      "note_on channel=9 note=44 velocity=127 time=215\n",
      "note_on channel=9 note=51 velocity=127 time=10\n",
      "note_on channel=9 note=38 velocity=127 time=0\n",
      "note_off channel=9 note=38 velocity=127 time=95\n",
      "note_off channel=9 note=44 velocity=127 time=50\n",
      "note_off channel=9 note=51 velocity=127 time=100\n",
      "note_on channel=9 note=51 velocity=127 time=230\n",
      "note_off channel=9 note=51 velocity=127 time=435\n",
      "note_on channel=9 note=44 velocity=127 time=55\n",
      "note_off channel=9 note=44 velocity=127 time=145\n",
      "note_on channel=9 note=51 velocity=127 time=110\n",
      "note_on channel=9 note=38 velocity=127 time=260\n",
      "note_off channel=9 note=38 velocity=127 time=50\n",
      "note_off channel=9 note=51 velocity=127 time=15\n",
      "note_on channel=9 note=39 velocity=127 time=50\n",
      "note_off channel=9 note=39 velocity=127 time=95\n",
      "note_on channel=9 note=51 velocity=127 time=30\n",
      "note_on channel=9 note=38 velocity=127 time=20\n",
      "note_off channel=9 note=38 velocity=127 time=50\n",
      "note_off channel=9 note=51 velocity=127 time=20\n",
      "note_on channel=9 note=38 velocity=127 time=95\n",
      "note_on channel=9 note=51 velocity=127 time=45\n",
      "note_off channel=9 note=38 velocity=127 time=15\n",
      "note_off channel=9 note=51 velocity=127 time=320\n",
      "note_on channel=9 note=51 velocity=127 time=185\n",
      "note_off channel=9 note=51 velocity=127 time=280\n",
      "note_on channel=9 note=38 velocity=127 time=130\n",
      "note_on channel=9 note=44 velocity=127 time=40\n",
      "note_on channel=9 note=51 velocity=127 time=5\n",
      "note_off channel=9 note=38 velocity=127 time=35\n",
      "note_off channel=9 note=44 velocity=127 time=125\n",
      "note_off channel=9 note=51 velocity=127 time=80\n",
      "note_on channel=9 note=51 velocity=127 time=225\n",
      "note_off channel=9 note=51 velocity=127 time=225\n",
      "note_on channel=9 note=51 velocity=127 time=230\n",
      "note_off channel=9 note=51 velocity=127 time=255\n",
      "note_on channel=9 note=51 velocity=127 time=225\n",
      "note_on channel=9 note=44 velocity=127 time=0\n",
      "note_on channel=9 note=38 velocity=127 time=5\n",
      "note_off channel=9 note=38 velocity=127 time=90\n",
      "note_off channel=9 note=44 velocity=127 time=95\n",
      "note_off channel=9 note=51 velocity=127 time=60\n",
      "note_on channel=9 note=51 velocity=127 time=225\n",
      "note_off channel=9 note=51 velocity=127 time=320\n",
      "note_on channel=9 note=51 velocity=127 time=170\n",
      "note_off channel=9 note=51 velocity=127 time=235\n",
      "note_on channel=9 note=38 velocity=124 time=90\n",
      "note_off channel=9 note=38 velocity=127 time=55\n",
      "note_on channel=9 note=51 velocity=127 time=90\n",
      "note_on channel=9 note=39 velocity=127 time=0\n",
      "note_on channel=9 note=44 velocity=127 time=5\n",
      "note_off channel=9 note=44 velocity=127 time=155\n",
      "note_off channel=9 note=51 velocity=127 time=70\n",
      "note_off channel=9 note=39 velocity=127 time=5\n",
      "note_on channel=9 note=39 velocity=127 time=95\n",
      "note_off channel=9 note=39 velocity=127 time=90\n",
      "note_on channel=9 note=51 velocity=127 time=100\n",
      "note_off channel=9 note=51 velocity=127 time=260\n",
      "note_on channel=9 note=51 velocity=127 time=210\n",
      "note_on channel=9 note=38 velocity=124 time=30\n",
      "note_off channel=9 note=38 velocity=127 time=55\n",
      "note_on channel=9 note=38 velocity=114 time=115\n",
      "note_off channel=9 note=51 velocity=127 time=45\n",
      "note_off channel=9 note=38 velocity=127 time=10\n",
      "note_on channel=9 note=39 velocity=127 time=45\n",
      "note_off channel=9 note=39 velocity=127 time=105\n",
      "note_on channel=9 note=51 velocity=127 time=60\n",
      "note_on channel=9 note=44 velocity=127 time=5\n",
      "note_on channel=9 note=38 velocity=124 time=30\n",
      "note_off channel=9 note=38 velocity=127 time=55\n",
      "note_on channel=9 note=38 velocity=118 time=85\n",
      "note_off channel=9 note=44 velocity=127 time=25\n",
      "note_off channel=9 note=38 velocity=127 time=25\n",
      "note_off channel=9 note=51 velocity=127 time=75\n",
      "note_on channel=9 note=51 velocity=127 time=190\n",
      "note_off channel=9 note=51 velocity=127 time=455\n",
      "note_on channel=9 note=44 velocity=127 time=30\n",
      "note_off channel=9 note=44 velocity=127 time=135\n",
      "note_on channel=9 note=51 velocity=127 time=90\n",
      "note_on channel=9 note=38 velocity=127 time=225\n",
      "note_off channel=9 note=38 velocity=127 time=90\n",
      "note_off channel=9 note=51 velocity=127 time=5\n",
      "note_on channel=9 note=51 velocity=127 time=175\n",
      "note_off channel=9 note=51 velocity=127 time=100\n",
      "note_on channel=9 note=51 velocity=127 time=110\n",
      "note_off channel=9 note=51 velocity=127 time=315\n",
      "note_on channel=9 note=51 velocity=127 time=215\n",
      "note_off channel=9 note=51 velocity=127 time=285\n",
      "note_on channel=9 note=38 velocity=127 time=165\n",
      "note_on channel=9 note=44 velocity=127 time=25\n",
      "note_on channel=9 note=51 velocity=127 time=5\n",
      "note_off channel=9 note=38 velocity=127 time=65\n",
      "note_off channel=9 note=44 velocity=127 time=115\n",
      "note_off channel=9 note=51 velocity=127 time=120\n",
      "note_on channel=9 note=51 velocity=127 time=185\n",
      "note_off channel=9 note=51 velocity=127 time=470\n",
      "note_on channel=9 note=44 velocity=127 time=10\n",
      "note_off channel=9 note=44 velocity=127 time=135\n",
      "note_on channel=9 note=51 velocity=127 time=90\n",
      "note_on channel=9 note=38 velocity=127 time=215\n",
      "note_off channel=9 note=38 velocity=127 time=100\n",
      "note_off channel=9 note=51 velocity=127 time=5\n",
      "note_on channel=9 note=51 velocity=127 time=160\n",
      "note_off channel=9 note=51 velocity=127 time=70\n",
      "note_on channel=9 note=51 velocity=127 time=165\n",
      "note_off channel=9 note=51 velocity=127 time=245\n",
      "note_on channel=9 note=38 velocity=114 time=115\n",
      "note_off channel=9 note=38 velocity=127 time=45\n",
      "note_on channel=9 note=38 velocity=127 time=65\n",
      "note_on channel=9 note=51 velocity=127 time=10\n",
      "note_off channel=9 note=38 velocity=127 time=195\n",
      "note_off channel=9 note=51 velocity=127 time=60\n",
      "note_on channel=9 note=38 velocity=110 time=135\n",
      "note_off channel=9 note=38 velocity=127 time=50\n",
      "note_on channel=9 note=44 velocity=127 time=25\n",
      "note_on channel=9 note=51 velocity=127 time=0\n",
      "note_on channel=9 note=38 velocity=127 time=35\n",
      "note_off channel=9 note=44 velocity=127 time=135\n",
      "note_off channel=9 note=38 velocity=127 time=75\n",
      "note_off channel=9 note=51 velocity=127 time=55\n",
      "note_on channel=9 note=39 velocity=127 time=55\n",
      "note_off channel=9 note=39 velocity=127 time=110\n",
      "note_on channel=9 note=51 velocity=127 time=40\n",
      "note_off channel=9 note=51 velocity=127 time=370\n",
      "note_on channel=9 note=44 velocity=127 time=130\n",
      "note_off channel=9 note=44 velocity=127 time=170\n",
      "note_on channel=9 note=51 velocity=127 time=55\n",
      "note_on channel=9 note=38 velocity=127 time=235\n",
      "note_off channel=9 note=51 velocity=127 time=90\n",
      "note_off channel=9 note=38 velocity=127 time=10\n",
      "note_on channel=9 note=51 velocity=127 time=140\n",
      "note_off channel=9 note=51 velocity=127 time=100\n",
      "note_on channel=9 note=51 velocity=127 time=155\n",
      "note_off channel=9 note=51 velocity=127 time=300\n",
      "note_on channel=9 note=51 velocity=127 time=170\n",
      "note_on channel=9 note=44 velocity=127 time=15\n",
      "note_off channel=9 note=44 velocity=127 time=140\n",
      "note_off channel=9 note=51 velocity=127 time=105\n",
      "note_on channel=9 note=38 velocity=127 time=190\n",
      "note_on channel=9 note=51 velocity=127 time=45\n",
      "note_off channel=9 note=38 velocity=127 time=55\n",
      "note_off channel=9 note=51 velocity=127 time=205\n",
      "note_on channel=9 note=51 velocity=127 time=180\n",
      "note_off channel=9 note=51 velocity=127 time=410\n",
      "note_on channel=9 note=44 velocity=127 time=50\n",
      "note_off channel=9 note=44 velocity=127 time=120\n",
      "note_on channel=9 note=51 velocity=127 time=110\n",
      "note_on channel=9 note=38 velocity=127 time=255\n",
      "note_off channel=9 note=38 velocity=127 time=95\n",
      "note_off channel=9 note=51 velocity=127 time=5\n",
      "note_on channel=9 note=51 velocity=127 time=135\n",
      "note_off channel=9 note=51 velocity=127 time=100\n",
      "note_on channel=9 note=51 velocity=127 time=155\n",
      "note_off channel=9 note=51 velocity=127 time=315\n",
      "note_on channel=9 note=51 velocity=127 time=185\n",
      "note_on channel=9 note=44 velocity=127 time=5\n",
      "note_off channel=9 note=44 velocity=127 time=130\n",
      "note_off channel=9 note=51 velocity=127 time=120\n",
      "note_on channel=9 note=38 velocity=127 time=210\n",
      "note_on channel=9 note=51 velocity=127 time=20\n",
      "note_off channel=9 note=38 velocity=127 time=70\n",
      "note_off channel=9 note=51 velocity=127 time=190\n",
      "note_on channel=9 note=51 velocity=127 time=190\n",
      "note_off channel=9 note=51 velocity=127 time=295\n",
      "note_on channel=9 note=51 velocity=127 time=200\n",
      "note_on channel=9 note=44 velocity=127 time=5\n",
      "note_off channel=9 note=44 velocity=127 time=120\n",
      "note_off channel=9 note=51 velocity=127 time=75\n",
      "note_on channel=9 note=51 velocity=127 time=265\n",
      "note_on channel=9 note=38 velocity=127 time=20\n",
      "note_off channel=9 note=38 velocity=127 time=100\n",
      "note_off channel=9 note=51 velocity=127 time=115\n",
      "note_on channel=9 note=51 velocity=127 time=230\n",
      "note_off channel=9 note=51 velocity=127 time=285\n",
      "note_on channel=9 note=51 velocity=127 time=205\n",
      "note_on channel=9 note=44 velocity=127 time=10\n",
      "note_off channel=9 note=44 velocity=127 time=120\n",
      "note_off channel=9 note=51 velocity=127 time=70\n",
      "note_on channel=9 note=51 velocity=127 time=280\n",
      "note_on channel=9 note=38 velocity=127 time=25\n",
      "note_off channel=9 note=38 velocity=127 time=100\n",
      "note_off channel=9 note=51 velocity=127 time=125\n",
      "note_on channel=9 note=51 velocity=127 time=225\n",
      "note_off channel=9 note=51 velocity=127 time=295\n",
      "note_on channel=9 note=51 velocity=127 time=215\n",
      "note_on channel=9 note=44 velocity=127 time=0\n",
      "note_off channel=9 note=44 velocity=127 time=125\n",
      "note_off channel=9 note=51 velocity=127 time=120\n",
      "note_on channel=9 note=38 velocity=127 time=185\n",
      "note_on channel=9 note=51 velocity=127 time=60\n",
      "note_off channel=9 note=38 velocity=127 time=50\n",
      "note_off channel=9 note=51 velocity=127 time=230\n",
      "note_on channel=9 note=44 velocity=127 time=200\n",
      "note_on channel=9 note=51 velocity=127 time=0\n",
      "note_off channel=9 note=44 velocity=127 time=130\n",
      "note_off channel=9 note=51 velocity=127 time=120\n",
      "note_on channel=9 note=51 velocity=127 time=230\n",
      "note_off channel=9 note=51 velocity=127 time=275\n",
      "note_on channel=9 note=44 velocity=127 time=200\n",
      "note_on channel=9 note=51 velocity=127 time=0\n",
      "note_on channel=9 note=38 velocity=127 time=25\n",
      "note_off channel=9 note=38 velocity=127 time=60\n",
      "note_on channel=9 note=39 velocity=127 time=70\n",
      "note_off channel=9 note=44 velocity=127 time=15\n",
      "note_off channel=9 note=39 velocity=127 time=90\n",
      "note_on channel=9 note=38 velocity=127 time=40\n",
      "note_off channel=9 note=51 velocity=127 time=30\n",
      "note_off channel=9 note=38 velocity=127 time=65\n",
      "note_on channel=9 note=51 velocity=127 time=105\n",
      "note_off channel=9 note=51 velocity=127 time=545\n",
      "note_on channel=9 note=51 velocity=127 time=185\n",
      "note_on channel=9 note=44 velocity=127 time=10\n",
      "note_on channel=9 note=38 velocity=127 time=180\n",
      "note_off channel=9 note=44 velocity=127 time=75\n",
      "note_off channel=9 note=51 velocity=127 time=25\n",
      "note_off channel=9 note=38 velocity=127 time=0\n",
      "note_on channel=9 note=51 velocity=127 time=220\n",
      "note_off channel=9 note=51 velocity=127 time=75\n",
      "note_on channel=9 note=51 velocity=127 time=135\n",
      "note_off channel=9 note=51 velocity=127 time=265\n",
      "note_on channel=9 note=51 velocity=127 time=190\n",
      "note_off channel=9 note=51 velocity=127 time=215\n",
      "note_on channel=9 note=38 velocity=127 time=230\n",
      "note_on channel=9 note=51 velocity=127 time=15\n",
      "note_on channel=9 note=44 velocity=127 time=0\n",
      "note_off channel=9 note=38 velocity=127 time=85\n",
      "note_off channel=9 note=44 velocity=127 time=60\n",
      "note_off channel=9 note=51 velocity=127 time=80\n",
      "note_on channel=9 note=51 velocity=127 time=265\n",
      "note_off channel=9 note=51 velocity=127 time=395\n",
      "note_on channel=9 note=44 velocity=127 time=95\n",
      "note_off channel=9 note=44 velocity=127 time=120\n",
      "note_on channel=9 note=51 velocity=127 time=130\n",
      "note_on channel=9 note=38 velocity=127 time=200\n",
      "note_off channel=9 note=38 velocity=127 time=100\n",
      "note_off channel=9 note=51 velocity=127 time=10\n",
      "note_on channel=9 note=51 velocity=127 time=180\n",
      "note_off channel=9 note=51 velocity=127 time=80\n",
      "note_on channel=9 note=51 velocity=127 time=150\n",
      "note_off channel=9 note=51 velocity=127 time=245\n",
      "note_on channel=9 note=38 velocity=127 time=200\n",
      "note_on channel=9 note=51 velocity=127 time=20\n",
      "note_off channel=9 note=38 velocity=127 time=85\n",
      "note_off channel=9 note=51 velocity=127 time=155\n",
      "note_on channel=9 note=44 velocity=127 time=240\n",
      "note_on channel=9 note=51 velocity=127 time=0\n",
      "note_off channel=9 note=44 velocity=127 time=145\n",
      "note_off channel=9 note=51 velocity=127 time=125\n",
      "note_on channel=9 note=51 velocity=127 time=215\n",
      "note_off channel=9 note=51 velocity=127 time=255\n",
      "note_on channel=9 note=44 velocity=127 time=225\n",
      "note_off channel=9 note=44 velocity=127 time=135\n",
      "note_on channel=9 note=51 velocity=127 time=110\n",
      "note_on channel=9 note=38 velocity=127 time=200\n",
      "note_off channel=9 note=38 velocity=127 time=95\n",
      "note_off channel=9 note=51 velocity=127 time=5\n",
      "note_on channel=9 note=51 velocity=127 time=190\n",
      "note_off channel=9 note=51 velocity=127 time=90\n",
      "note_on channel=9 note=51 velocity=127 time=135\n",
      "note_off channel=9 note=51 velocity=127 time=250\n",
      "note_on channel=9 note=51 velocity=127 time=195\n",
      "note_on channel=9 note=38 velocity=127 time=20\n",
      "note_off channel=9 note=38 velocity=127 time=60\n",
      "note_off channel=9 note=51 velocity=127 time=225\n",
      "note_on channel=9 note=38 velocity=124 time=30\n",
      "note_off channel=9 note=38 velocity=127 time=50\n",
      "note_on channel=9 note=44 velocity=127 time=85\n",
      "note_on channel=9 note=51 velocity=127 time=10\n",
      "note_on channel=9 note=38 velocity=127 time=15\n",
      "note_off channel=9 note=44 velocity=127 time=130\n",
      "note_off channel=9 note=38 velocity=127 time=65\n",
      "note_off channel=9 note=51 velocity=127 time=50\n",
      "note_on channel=9 note=39 velocity=127 time=50\n",
      "note_off channel=9 note=39 velocity=127 time=110\n",
      "note_on channel=9 note=51 velocity=127 time=55\n",
      "note_off channel=9 note=51 velocity=127 time=425\n",
      "note_on channel=9 note=44 velocity=127 time=65\n",
      "note_off channel=9 note=44 velocity=127 time=125\n",
      "note_on channel=9 note=51 velocity=127 time=125\n",
      "note_on channel=9 note=38 velocity=127 time=205\n",
      "note_off channel=9 note=51 velocity=127 time=65\n",
      "note_off channel=9 note=38 velocity=127 time=35\n",
      "note_on channel=9 note=51 velocity=127 time=140\n",
      "note_off channel=9 note=51 velocity=127 time=80\n",
      "note_on channel=9 note=51 velocity=127 time=170\n",
      "note_off channel=9 note=51 velocity=127 time=195\n",
      "note_on channel=9 note=44 velocity=127 time=25\n",
      "note_off channel=9 note=44 velocity=127 time=125\n",
      "note_on channel=9 note=51 velocity=127 time=125\n",
      "note_off channel=9 note=51 velocity=127 time=345\n",
      "note_on channel=9 note=38 velocity=127 time=165\n",
      "note_on channel=9 note=51 velocity=127 time=15\n",
      "note_off channel=9 note=38 velocity=127 time=80\n",
      "note_off channel=9 note=51 velocity=127 time=220\n",
      "note_on channel=9 note=51 velocity=127 time=180\n",
      "note_off channel=9 note=51 velocity=127 time=320\n",
      "note_on channel=9 note=51 velocity=127 time=175\n",
      "note_off channel=9 note=51 velocity=127 time=270\n",
      "note_on channel=9 note=38 velocity=127 time=190\n",
      "note_on channel=9 note=51 velocity=127 time=10\n",
      "note_on channel=9 note=44 velocity=127 time=0\n",
      "note_off channel=9 note=38 velocity=127 time=80\n",
      "note_off channel=9 note=44 velocity=127 time=75\n",
      "note_off channel=9 note=51 velocity=127 time=85\n",
      "note_on channel=9 note=51 velocity=127 time=210\n",
      "note_off channel=9 note=51 velocity=127 time=170\n",
      "note_on channel=9 note=44 velocity=127 time=285\n",
      "note_off channel=9 note=44 velocity=127 time=165\n",
      "note_on channel=9 note=51 velocity=127 time=95\n",
      "note_off channel=9 note=51 velocity=127 time=260\n",
      "note_on channel=9 note=38 velocity=127 time=20\n",
      "note_off channel=9 note=38 velocity=127 time=160\n",
      "note_on channel=9 note=44 velocity=124 time=30\n",
      "note_on channel=9 note=38 velocity=127 time=100\n",
      "note_off channel=9 note=44 velocity=127 time=65\n",
      "note_off channel=9 note=38 velocity=127 time=15\n",
      "note_on channel=9 note=51 velocity=127 time=60\n",
      "note_off channel=9 note=51 velocity=127 time=385\n",
      "note_on channel=9 note=44 velocity=127 time=130\n",
      "note_off channel=9 note=44 velocity=127 time=140\n",
      "note_on channel=9 note=51 velocity=127 time=100\n",
      "note_on channel=9 note=38 velocity=127 time=50\n",
      "note_off channel=9 note=38 velocity=127 time=85\n",
      "note_off channel=9 note=51 velocity=127 time=175\n",
      "note_on channel=9 note=51 velocity=124 time=190\n",
      "note_off channel=9 note=51 velocity=127 time=80\n",
      "note_on channel=9 note=51 velocity=127 time=150\n",
      "note_off channel=9 note=51 velocity=127 time=280\n",
      "note_on channel=9 note=51 velocity=127 time=190\n",
      "note_off channel=9 note=51 velocity=127 time=235\n",
      "note_on channel=9 note=44 velocity=127 time=235\n",
      "note_on channel=9 note=51 velocity=127 time=5\n",
      "note_on channel=9 note=38 velocity=114 time=90\n",
      "note_off channel=9 note=38 velocity=127 time=55\n",
      "note_off channel=9 note=44 velocity=127 time=30\n",
      "note_on channel=9 note=38 velocity=127 time=40\n",
      "note_off channel=9 note=51 velocity=127 time=55\n",
      "note_off channel=9 note=38 velocity=127 time=0\n",
      "note_on channel=9 note=39 velocity=127 time=30\n",
      "note_off channel=9 note=39 velocity=127 time=100\n",
      "note_on channel=9 note=51 velocity=127 time=75\n",
      "note_on channel=9 note=38 velocity=86 time=100\n",
      "note_off channel=9 note=38 velocity=127 time=50\n",
      "note_off channel=9 note=51 velocity=127 time=170\n",
      "note_on channel=9 note=44 velocity=127 time=170\n",
      "note_off channel=9 note=44 velocity=127 time=145\n",
      "note_on channel=9 note=51 velocity=127 time=85\n",
      "note_on channel=9 note=38 velocity=127 time=205\n",
      "note_off channel=9 note=51 velocity=127 time=55\n",
      "note_off channel=9 note=38 velocity=127 time=30\n",
      "note_on channel=9 note=51 velocity=127 time=195\n",
      "note_off channel=9 note=51 velocity=127 time=60\n",
      "note_on channel=9 note=51 velocity=127 time=155\n",
      "note_off channel=9 note=51 velocity=127 time=290\n",
      "note_on channel=9 note=44 velocity=127 time=200\n",
      "note_on channel=9 note=51 velocity=127 time=5\n",
      "note_off channel=9 note=44 velocity=127 time=140\n",
      "note_off channel=9 note=51 velocity=127 time=70\n",
      "note_on channel=9 note=51 velocity=127 time=265\n",
      "note_on channel=9 note=38 velocity=90 time=175\n",
      "note_off channel=9 note=38 velocity=127 time=50\n",
      "note_off channel=9 note=51 velocity=127 time=40\n",
      "note_on channel=9 note=38 velocity=127 time=30\n",
      "note_off channel=9 note=38 velocity=127 time=70\n",
      "note_on channel=9 note=51 velocity=127 time=110\n",
      "note_off channel=9 note=51 velocity=127 time=295\n",
      "note_on channel=9 note=44 velocity=127 time=215\n",
      "note_off channel=9 note=44 velocity=127 time=135\n",
      "note_on channel=9 note=51 velocity=127 time=100\n",
      "note_on channel=9 note=38 velocity=127 time=55\n",
      "note_off channel=9 note=38 velocity=127 time=75\n",
      "note_off channel=9 note=51 velocity=127 time=70\n",
      "note_on channel=9 note=38 velocity=98 time=30\n",
      "note_off channel=9 note=38 velocity=127 time=50\n",
      "note_on channel=9 note=51 velocity=127 time=230\n",
      "note_off channel=9 note=51 velocity=127 time=50\n",
      "note_on channel=9 note=51 velocity=127 time=170\n",
      "note_off channel=9 note=51 velocity=127 time=260\n",
      "note_on channel=9 note=51 velocity=127 time=215\n",
      "note_off channel=9 note=51 velocity=127 time=260\n",
      "note_on channel=9 note=38 velocity=80 time=90\n",
      "note_off channel=9 note=38 velocity=127 time=45\n",
      "note_on channel=9 note=44 velocity=127 time=65\n",
      "note_on channel=9 note=51 velocity=127 time=10\n",
      "note_on channel=9 note=38 velocity=127 time=50\n",
      "note_off channel=9 note=38 velocity=127 time=50\n",
      "note_off channel=9 note=44 velocity=127 time=20\n",
      "note_on channel=9 note=38 velocity=127 time=85\n",
      "note_off channel=9 note=51 velocity=127 time=35\n",
      "note_off channel=9 note=38 velocity=127 time=20\n",
      "note_on channel=9 note=39 velocity=127 time=40\n",
      "note_off channel=9 note=39 velocity=127 time=115\n",
      "note_on channel=9 note=51 velocity=127 time=70\n",
      "note_on channel=9 note=38 velocity=108 time=10\n",
      "note_off channel=9 note=38 velocity=127 time=55\n",
      "note_off channel=9 note=51 velocity=127 time=140\n",
      "note_on channel=9 note=44 velocity=127 time=290\n",
      "note_off channel=9 note=44 velocity=127 time=140\n",
      "note_on channel=9 note=51 velocity=127 time=80\n",
      "note_on channel=9 note=38 velocity=127 time=210\n",
      "note_off channel=9 note=51 velocity=127 time=30\n",
      "note_off channel=9 note=38 velocity=127 time=50\n",
      "note_on channel=9 note=51 velocity=127 time=180\n",
      "note_off channel=9 note=51 velocity=127 time=110\n",
      "note_on channel=9 note=51 velocity=127 time=110\n",
      "note_off channel=9 note=51 velocity=127 time=220\n",
      "note_on channel=9 note=51 velocity=127 time=300\n",
      "note_on channel=9 note=44 velocity=127 time=10\n",
      "note_off channel=9 note=44 velocity=127 time=155\n",
      "note_off channel=9 note=51 velocity=127 time=75\n",
      "note_on channel=9 note=51 velocity=127 time=220\n",
      "note_on channel=9 note=39 velocity=127 time=10\n",
      "note_off channel=9 note=39 velocity=127 time=125\n",
      "note_off channel=9 note=51 velocity=127 time=125\n",
      "note_on channel=9 note=51 velocity=127 time=215\n",
      "note_off channel=9 note=51 velocity=127 time=255\n",
      "note_on channel=9 note=51 velocity=127 time=215\n",
      "note_on channel=9 note=44 velocity=127 time=5\n",
      "note_off channel=9 note=44 velocity=127 time=160\n",
      "note_off channel=9 note=51 velocity=127 time=55\n",
      "note_on channel=9 note=51 velocity=127 time=255\n",
      "note_on channel=9 note=39 velocity=127 time=5\n",
      "note_off channel=9 note=39 velocity=127 time=145\n",
      "note_off channel=9 note=51 velocity=127 time=120\n",
      "note_on channel=9 note=51 velocity=127 time=200\n",
      "note_off channel=9 note=51 velocity=127 time=370\n",
      "note_on channel=9 note=44 velocity=127 time=170\n",
      "note_off channel=9 note=44 velocity=127 time=150\n",
      "note_on channel=9 note=51 velocity=127 time=90\n",
      "note_on channel=9 note=39 velocity=127 time=225\n",
      "note_off channel=9 note=51 velocity=127 time=40\n",
      "note_off channel=9 note=39 velocity=127 time=90\n",
      "note_on channel=9 note=51 velocity=127 time=120\n",
      "note_off channel=9 note=51 velocity=127 time=55\n",
      "note_on channel=9 note=51 velocity=127 time=160\n",
      "note_off channel=9 note=51 velocity=127 time=165\n",
      "note_on channel=9 note=51 velocity=127 time=330\n",
      "note_on channel=9 note=44 velocity=127 time=10\n",
      "note_off channel=9 note=44 velocity=127 time=145\n",
      "note_off channel=9 note=51 velocity=127 time=0\n",
      "note_on channel=9 note=38 velocity=127 time=315\n",
      "note_off channel=9 note=38 velocity=127 time=140\n",
      "note_on channel=9 note=51 velocity=127 time=305\n",
      "note_off channel=9 note=51 velocity=127 time=205\n",
      "note_on channel=9 note=51 velocity=127 time=285\n",
      "note_on channel=9 note=44 velocity=127 time=15\n",
      "note_off channel=9 note=44 velocity=127 time=130\n",
      "note_off channel=9 note=51 velocity=127 time=40\n",
      "note_on channel=9 note=39 velocity=127 time=375\n",
      "note_off channel=9 note=39 velocity=127 time=165\n",
      "note_on channel=9 note=39 velocity=127 time=140\n",
      "note_on channel=9 note=51 velocity=127 time=85\n",
      "note_off channel=9 note=39 velocity=127 time=25\n",
      "note_off channel=9 note=51 velocity=127 time=135\n",
      "note_on channel=9 note=51 velocity=127 time=360\n",
      "note_on channel=9 note=44 velocity=127 time=10\n",
      "note_off channel=9 note=51 velocity=127 time=145\n",
      "note_off channel=9 note=44 velocity=127 time=5\n",
      "note_on channel=9 note=38 velocity=127 time=325\n",
      "note_off channel=9 note=38 velocity=127 time=95\n",
      "note_on channel=9 note=51 velocity=127 time=165\n",
      "note_off channel=9 note=51 velocity=127 time=145\n",
      "note_on channel=9 note=44 velocity=84 time=115\n",
      "note_off channel=9 note=44 velocity=127 time=55\n",
      "note_on channel=9 note=51 velocity=127 time=390\n",
      "note_off channel=9 note=51 velocity=127 time=120\n",
      "note_on channel=9 note=51 velocity=127 time=350\n",
      "note_on channel=9 note=44 velocity=127 time=15\n",
      "note_on channel=9 note=38 velocity=104 time=55\n",
      "note_off channel=9 note=38 velocity=127 time=50\n",
      "note_off channel=9 note=44 velocity=127 time=50\n",
      "note_on channel=9 note=38 velocity=127 time=25\n",
      "note_off channel=9 note=51 velocity=127 time=40\n",
      "note_off channel=9 note=38 velocity=127 time=10\n",
      "note_on channel=9 note=39 velocity=127 time=65\n",
      "note_off channel=9 note=39 velocity=127 time=115\n",
      "note_on channel=9 note=51 velocity=127 time=80\n",
      "note_on channel=9 note=38 velocity=90 time=80\n",
      "note_off channel=9 note=38 velocity=127 time=60\n",
      "note_off channel=9 note=51 velocity=127 time=10\n",
      "note_on channel=9 note=44 velocity=114 time=315\n",
      "note_off channel=9 note=44 velocity=127 time=150\n",
      "note_on channel=9 note=51 velocity=127 time=90\n",
      "note_off channel=9 note=51 velocity=127 time=185\n",
      "note_on channel=9 note=38 velocity=127 time=25\n",
      "note_off channel=9 note=38 velocity=127 time=90\n",
      "note_on channel=9 note=51 velocity=127 time=380\n",
      "note_off channel=9 note=51 velocity=127 time=255\n",
      "note_on channel=9 note=51 velocity=124 time=240\n",
      "note_off channel=9 note=51 velocity=127 time=130\n",
      "note_on channel=9 note=51 velocity=127 time=350\n",
      "note_on channel=9 note=38 velocity=127 time=5\n",
      "note_on channel=9 note=44 velocity=127 time=10\n",
      "note_off channel=9 note=38 velocity=127 time=75\n",
      "note_off channel=9 note=44 velocity=127 time=70\n",
      "note_off channel=9 note=51 velocity=127 time=20\n",
      "note_on channel=9 note=51 velocity=127 time=325\n",
      "note_off channel=9 note=51 velocity=127 time=195\n",
      "note_on channel=9 note=44 velocity=104 time=310\n",
      "note_off channel=9 note=44 velocity=127 time=125\n",
      "note_on channel=9 note=51 velocity=127 time=110\n",
      "note_off channel=9 note=51 velocity=127 time=145\n",
      "note_on channel=9 note=38 velocity=127 time=70\n",
      "note_off channel=9 note=38 velocity=127 time=80\n",
      "note_on channel=9 note=51 velocity=127 time=220\n",
      "note_off channel=9 note=51 velocity=127 time=55\n",
      "note_on channel=9 note=51 velocity=127 time=160\n",
      "note_on channel=9 note=38 velocity=74 time=10\n",
      "note_off channel=9 note=38 velocity=127 time=140\n",
      "note_off channel=9 note=51 velocity=127 time=70\n",
      "note_on channel=9 note=38 velocity=127 time=80\n",
      "note_off channel=9 note=38 velocity=127 time=70\n",
      "note_on channel=9 note=51 velocity=127 time=90\n",
      "note_on channel=9 note=44 velocity=127 time=0\n",
      "note_off channel=9 note=44 velocity=127 time=120\n",
      "note_off channel=9 note=51 velocity=127 time=40\n",
      "note_on channel=9 note=51 velocity=127 time=310\n",
      "note_on channel=9 note=38 velocity=127 time=70\n",
      "note_off channel=9 note=38 velocity=127 time=45\n",
      "note_on channel=9 note=38 velocity=127 time=75\n",
      "note_off channel=9 note=51 velocity=127 time=25\n",
      "note_off channel=9 note=38 velocity=127 time=25\n",
      "note_on channel=9 note=39 velocity=110 time=70\n",
      "note_off channel=9 note=39 velocity=127 time=110\n",
      "note_on channel=9 note=51 velocity=127 time=50\n",
      "note_on channel=9 note=38 velocity=127 time=15\n",
      "note_off channel=9 note=38 velocity=127 time=55\n",
      "note_off channel=9 note=51 velocity=127 time=135\n",
      "note_on channel=9 note=51 velocity=127 time=515\n",
      "note_on channel=9 note=44 velocity=127 time=5\n",
      "note_off channel=9 note=44 velocity=127 time=180\n",
      "note_off channel=9 note=51 velocity=127 time=60\n",
      "note_on channel=9 note=38 velocity=127 time=0\n",
      "note_off channel=9 note=38 velocity=127 time=90\n",
      "note_on channel=9 note=51 velocity=127 time=135\n",
      "note_off channel=9 note=51 velocity=127 time=65\n",
      "note_on channel=9 note=51 velocity=127 time=185\n",
      "note_off channel=9 note=51 velocity=127 time=220\n",
      "note_on channel=9 note=44 velocity=127 time=275\n",
      "note_on channel=9 note=51 velocity=127 time=10\n",
      "note_on channel=9 note=38 velocity=90 time=55\n",
      "note_off channel=9 note=38 velocity=127 time=55\n",
      "note_off channel=9 note=44 velocity=127 time=40\n",
      "note_off channel=9 note=51 velocity=127 time=5\n",
      "note_on channel=9 note=51 velocity=114 time=345\n",
      "note_on channel=9 note=38 velocity=127 time=30\n",
      "note_off channel=9 note=51 velocity=127 time=40\n",
      "note_off channel=9 note=38 velocity=127 time=5\n",
      "note_on channel=9 note=38 velocity=127 time=80\n",
      "note_off channel=9 note=38 velocity=127 time=80\n",
      "note_on channel=9 note=39 velocity=127 time=65\n",
      "note_off channel=9 note=39 velocity=127 time=115\n",
      "note_on channel=9 note=51 velocity=127 time=25\n",
      "note_on channel=9 note=38 velocity=127 time=35\n",
      "note_off channel=9 note=51 velocity=127 time=130\n",
      "note_off channel=9 note=38 velocity=127 time=100\n",
      "note_on channel=9 note=38 velocity=94 time=200\n",
      "note_on channel=9 note=44 velocity=127 time=0\n",
      "note_on channel=9 note=51 velocity=127 time=25\n",
      "note_off channel=9 note=38 velocity=127 time=40\n",
      "note_off channel=9 note=51 velocity=127 time=110\n",
      "note_off channel=9 note=44 velocity=127 time=10\n",
      "note_on channel=9 note=38 velocity=127 time=270\n",
      "note_on channel=9 note=51 velocity=88 time=65\n",
      "note_off channel=9 note=38 velocity=127 time=30\n",
      "note_off channel=9 note=51 velocity=127 time=150\n",
      "note_on channel=9 note=38 velocity=127 time=245\n",
      "note_on channel=9 note=51 velocity=127 time=0\n",
      "note_off channel=9 note=38 velocity=127 time=50\n",
      "note_on channel=9 note=39 velocity=127 time=80\n",
      "note_off channel=9 note=51 velocity=127 time=50\n",
      "note_off channel=9 note=39 velocity=127 time=30\n",
      "note_on channel=9 note=38 velocity=127 time=105\n",
      "note_on channel=9 note=51 velocity=127 time=170\n",
      "note_on channel=9 note=44 velocity=127 time=10\n",
      "note_off channel=9 note=44 velocity=127 time=145\n",
      "note_off channel=9 note=51 velocity=127 time=45\n",
      "note_off channel=9 note=38 velocity=127 time=180\n",
      "note_on channel=9 note=51 velocity=127 time=105\n",
      "note_on channel=9 note=38 velocity=127 time=10\n",
      "note_off channel=9 note=38 velocity=127 time=55\n",
      "note_on channel=9 note=39 velocity=127 time=50\n",
      "note_off channel=9 note=51 velocity=127 time=10\n",
      "note_off channel=9 note=39 velocity=127 time=80\n",
      "note_on channel=9 note=38 velocity=127 time=80\n",
      "note_on channel=9 note=51 velocity=127 time=160\n",
      "note_off channel=9 note=51 velocity=127 time=250\n",
      "note_off channel=9 note=38 velocity=127 time=65\n",
      "note_on channel=9 note=44 velocity=127 time=230\n",
      "note_on channel=9 note=51 velocity=127 time=10\n",
      "note_off channel=9 note=51 velocity=127 time=100\n",
      "note_off channel=9 note=44 velocity=127 time=50\n",
      "note_on channel=9 note=51 velocity=127 time=90\n",
      "note_off channel=9 note=51 velocity=127 time=155\n",
      "note_on channel=9 note=38 velocity=127 time=15\n",
      "note_off channel=9 note=38 velocity=127 time=95\n",
      "note_on channel=9 note=44 velocity=114 time=215\n",
      "note_off channel=9 note=44 velocity=127 time=75\n",
      "note_on channel=9 note=51 velocity=127 time=135\n",
      "note_off channel=9 note=51 velocity=127 time=255\n",
      "note_on channel=9 note=51 velocity=127 time=260\n",
      "note_on channel=9 note=44 velocity=127 time=15\n",
      "note_off channel=9 note=44 velocity=127 time=140\n",
      "note_off channel=9 note=51 velocity=127 time=10\n",
      "note_on channel=9 note=51 velocity=127 time=300\n",
      "note_on channel=9 note=38 velocity=60 time=25\n",
      "note_off channel=9 note=38 velocity=127 time=120\n",
      "note_off channel=9 note=51 velocity=127 time=70\n",
      "note_on channel=9 note=38 velocity=127 time=110\n",
      "note_off channel=9 note=38 velocity=127 time=75\n",
      "note_on channel=9 note=51 velocity=127 time=60\n",
      "note_on channel=9 note=38 velocity=127 time=40\n",
      "note_off channel=9 note=38 velocity=127 time=45\n",
      "note_off channel=9 note=51 velocity=127 time=105\n",
      "note_on channel=9 note=44 velocity=127 time=300\n",
      "note_off channel=9 note=44 velocity=127 time=125\n",
      "note_on channel=9 note=51 velocity=127 time=120\n",
      "note_off channel=9 note=51 velocity=127 time=245\n",
      "note_on channel=9 note=51 velocity=104 time=230\n",
      "note_off channel=9 note=51 velocity=127 time=65\n",
      "note_on channel=9 note=51 velocity=127 time=205\n",
      "note_off channel=9 note=51 velocity=127 time=230\n",
      "note_on channel=9 note=44 velocity=127 time=220\n",
      "note_on channel=9 note=51 velocity=127 time=5\n",
      "note_off channel=9 note=44 velocity=127 time=160\n",
      "note_off channel=9 note=51 velocity=127 time=25\n",
      "note_on channel=9 note=38 velocity=127 time=295\n",
      "note_on channel=9 note=51 velocity=127 time=15\n",
      "note_off channel=9 note=51 velocity=127 time=175\n",
      "note_off channel=9 note=38 velocity=127 time=5\n",
      "note_on channel=9 note=39 velocity=127 time=130\n",
      "note_off channel=9 note=39 velocity=127 time=120\n",
      "note_on channel=9 note=51 velocity=127 time=35\n",
      "note_on channel=9 note=38 velocity=127 time=10\n",
      "note_off channel=9 note=38 velocity=127 time=95\n",
      "note_off channel=9 note=51 velocity=127 time=110\n",
      "note_on channel=9 note=44 velocity=127 time=285\n",
      "note_off channel=9 note=44 velocity=127 time=130\n",
      "note_on channel=9 note=51 velocity=127 time=85\n",
      "note_off channel=9 note=51 velocity=127 time=210\n",
      "note_on channel=9 note=51 velocity=127 time=280\n",
      "note_off channel=9 note=51 velocity=127 time=60\n",
      "note_on channel=9 note=51 velocity=127 time=160\n",
      "note_off channel=9 note=51 velocity=127 time=300\n",
      "note_on channel=9 note=44 velocity=127 time=215\n",
      "note_on channel=9 note=51 velocity=127 time=0\n",
      "note_off channel=9 note=44 velocity=127 time=155\n",
      "note_off channel=9 note=51 velocity=127 time=35\n",
      "note_on channel=9 note=51 velocity=127 time=300\n",
      "note_off channel=9 note=51 velocity=127 time=295\n",
      "note_on channel=9 note=38 velocity=84 time=20\n",
      "note_off channel=9 note=38 velocity=127 time=55\n",
      "note_on channel=9 note=51 velocity=127 time=35\n",
      "note_on channel=9 note=38 velocity=127 time=45\n",
      "note_off channel=9 note=51 velocity=127 time=190\n",
      "note_off channel=9 note=38 velocity=127 time=10\n",
      "note_on channel=9 note=44 velocity=127 time=260\n",
      "note_on channel=9 note=51 velocity=127 time=5\n",
      "note_off channel=9 note=51 velocity=127 time=150\n",
      "note_off channel=9 note=44 velocity=127 time=5\n",
      "note_on channel=9 note=51 velocity=127 time=95\n",
      "note_off channel=9 note=51 velocity=127 time=330\n",
      "note_on channel=9 note=51 velocity=127 time=145\n",
      "note_off channel=9 note=51 velocity=127 time=90\n",
      "note_on channel=9 note=51 velocity=127 time=140\n",
      "note_off channel=9 note=51 velocity=127 time=340\n",
      "note_on channel=9 note=44 velocity=127 time=155\n",
      "note_on channel=9 note=51 velocity=127 time=5\n",
      "note_off channel=9 note=44 velocity=127 time=170\n",
      "note_off channel=9 note=51 velocity=127 time=40\n",
      "note_on channel=9 note=51 velocity=127 time=275\n",
      "note_on channel=9 note=38 velocity=127 time=185\n",
      "note_off channel=9 note=38 velocity=127 time=55\n",
      "note_off channel=9 note=51 velocity=127 time=45\n",
      "note_on channel=9 note=39 velocity=127 time=15\n",
      "note_off channel=9 note=39 velocity=127 time=110\n",
      "note_on channel=9 note=38 velocity=127 time=35\n",
      "note_on channel=9 note=51 velocity=127 time=5\n",
      "note_off channel=9 note=38 velocity=127 time=125\n",
      "note_off channel=9 note=51 velocity=127 time=70\n",
      "note_on channel=9 note=44 velocity=127 time=270\n",
      "note_off channel=9 note=44 velocity=127 time=220\n",
      "note_on channel=9 note=51 velocity=127 time=45\n",
      "note_off channel=9 note=51 velocity=127 time=205\n",
      "note_on channel=9 note=38 velocity=84 time=35\n",
      "note_off channel=9 note=38 velocity=127 time=55\n",
      "note_on channel=9 note=51 velocity=127 time=170\n",
      "note_off channel=9 note=51 velocity=127 time=105\n",
      "note_on channel=9 note=51 velocity=127 time=130\n",
      "note_on channel=9 note=38 velocity=102 time=0\n",
      "note_off channel=9 note=38 velocity=127 time=55\n",
      "note_off channel=9 note=51 velocity=127 time=305\n",
      "note_on channel=9 note=51 velocity=127 time=155\n",
      "note_on channel=9 note=44 velocity=127 time=0\n",
      "note_off channel=9 note=44 velocity=127 time=185\n",
      "note_off channel=9 note=51 velocity=127 time=15\n",
      "note_on channel=9 note=38 velocity=127 time=275\n",
      "note_on channel=9 note=51 velocity=127 time=10\n",
      "note_off channel=9 note=38 velocity=127 time=150\n",
      "note_off channel=9 note=51 velocity=127 time=130\n",
      "note_on channel=9 note=38 velocity=127 time=30\n",
      "note_off channel=9 note=38 velocity=127 time=90\n",
      "note_on channel=9 note=51 velocity=127 time=55\n",
      "note_on channel=9 note=38 velocity=127 time=70\n",
      "note_off channel=9 note=38 velocity=127 time=60\n",
      "note_off channel=9 note=51 velocity=127 time=175\n",
      "note_on channel=9 note=44 velocity=127 time=155\n",
      "note_off channel=9 note=44 velocity=127 time=195\n",
      "note_on channel=9 note=51 velocity=127 time=70\n",
      "note_on channel=9 note=38 velocity=127 time=210\n",
      "note_off channel=9 note=51 velocity=127 time=110\n",
      "note_off channel=9 note=38 velocity=127 time=115\n",
      "note_on channel=9 note=44 velocity=127 time=65\n",
      "note_on channel=9 note=38 velocity=127 time=70\n",
      "note_off channel=9 note=38 velocity=127 time=75\n",
      "note_off channel=9 note=44 velocity=127 time=5\n",
      "note_on channel=9 note=51 velocity=127 time=85\n",
      "note_off channel=9 note=51 velocity=127 time=295\n",
      "note_on channel=9 note=44 velocity=127 time=185\n",
      "note_off channel=9 note=44 velocity=127 time=190\n",
      "note_on channel=9 note=51 velocity=127 time=65\n",
      "note_off channel=9 note=51 velocity=127 time=245\n",
      "note_on channel=9 note=38 velocity=127 time=5\n",
      "note_off channel=9 note=38 velocity=127 time=150\n",
      "note_on channel=9 note=44 velocity=127 time=80\n",
      "note_on channel=9 note=38 velocity=127 time=65\n",
      "note_off channel=9 note=44 velocity=127 time=100\n",
      "note_off channel=9 note=38 velocity=127 time=5\n",
      "note_on channel=9 note=51 velocity=127 time=55\n",
      "note_off channel=9 note=51 velocity=127 time=315\n",
      "note_on channel=9 note=51 velocity=127 time=435\n",
      "note_on channel=9 note=44 velocity=127 time=5\n",
      "note_off channel=9 note=51 velocity=127 time=190\n",
      "note_on channel=9 note=38 velocity=86 time=0\n",
      "note_off channel=9 note=44 velocity=127 time=40\n",
      "note_off channel=9 note=38 velocity=127 time=120\n",
      "note_on channel=9 note=44 velocity=114 time=110\n",
      "note_on channel=9 note=39 velocity=127 time=75\n",
      "note_off channel=9 note=44 velocity=127 time=90\n",
      "note_off channel=9 note=39 velocity=127 time=30\n",
      "note_on channel=9 note=51 velocity=127 time=35\n",
      "note_on channel=9 note=38 velocity=114 time=35\n",
      "note_off channel=9 note=38 velocity=127 time=75\n",
      "note_off channel=9 note=51 velocity=127 time=145\n",
      "note_on channel=9 note=38 velocity=78 time=250\n",
      "note_on channel=9 note=51 velocity=127 time=15\n",
      "note_off channel=9 note=38 velocity=127 time=35\n",
      "note_off channel=9 note=51 velocity=127 time=220\n",
      "note_on channel=9 note=38 velocity=70 time=220\n",
      "note_on channel=9 note=51 velocity=127 time=5\n",
      "note_on channel=9 note=44 velocity=127 time=0\n",
      "note_off channel=9 note=38 velocity=127 time=55\n",
      "note_off channel=9 note=51 velocity=127 time=150\n",
      "note_off channel=9 note=44 velocity=127 time=25\n",
      "note_on channel=9 note=38 velocity=127 time=85\n",
      "note_off channel=9 note=38 velocity=127 time=70\n",
      "note_on channel=9 note=51 velocity=127 time=85\n",
      "note_on channel=9 note=38 velocity=127 time=0\n",
      "note_off channel=9 note=38 velocity=127 time=85\n",
      "note_off channel=9 note=51 velocity=127 time=120\n",
      "note_on channel=9 note=51 velocity=127 time=225\n",
      "note_off channel=9 note=51 velocity=127 time=215\n",
      "note_on channel=9 note=51 velocity=127 time=240\n",
      "note_on channel=9 note=44 velocity=127 time=10\n",
      "note_off channel=9 note=51 velocity=127 time=180\n",
      "note_off channel=9 note=44 velocity=127 time=10\n",
      "note_on channel=9 note=51 velocity=127 time=290\n",
      "note_off channel=9 note=51 velocity=127 time=240\n",
      "note_on channel=9 note=51 velocity=127 time=250\n",
      "note_off channel=9 note=51 velocity=127 time=210\n",
      "note_on channel=9 note=51 velocity=127 time=255\n",
      "note_on channel=9 note=44 velocity=127 time=5\n",
      "note_on channel=9 note=38 velocity=127 time=45\n",
      "note_off channel=9 note=38 velocity=127 time=85\n",
      "note_off channel=9 note=51 velocity=127 time=50\n",
      "note_on channel=9 note=39 velocity=127 time=0\n",
      "note_off channel=9 note=44 velocity=127 time=15\n",
      "note_off channel=9 note=39 velocity=127 time=110\n",
      "note_on channel=9 note=38 velocity=127 time=15\n",
      "note_off channel=9 note=38 velocity=127 time=115\n",
      "note_on channel=9 note=51 velocity=127 time=70\n",
      "note_on channel=9 note=35 velocity=127 time=0\n",
      "note_off channel=9 note=51 velocity=127 time=195\n",
      "note_off channel=9 note=35 velocity=127 time=85\n",
      "note_on channel=9 note=51 velocity=127 time=200\n",
      "note_off channel=9 note=51 velocity=127 time=205\n",
      "note_on channel=9 note=44 velocity=127 time=250\n",
      "note_on channel=9 note=51 velocity=127 time=5\n",
      "note_off channel=9 note=51 velocity=127 time=170\n",
      "note_off channel=9 note=44 velocity=127 time=20\n",
      "note_on channel=9 note=51 velocity=127 time=255\n",
      "note_off channel=9 note=51 velocity=127 time=225\n",
      "note_on channel=9 note=51 velocity=127 time=285\n",
      "note_off channel=9 note=51 velocity=127 time=175\n",
      "note_on channel=9 note=51 velocity=127 time=290\n",
      "note_on channel=9 note=44 velocity=127 time=15\n",
      "note_off channel=9 note=51 velocity=127 time=160\n",
      "note_off channel=9 note=44 velocity=127 time=65\n",
      "note_on channel=9 note=38 velocity=127 time=155\n",
      "note_off channel=9 note=38 velocity=127 time=45\n",
      "note_on channel=9 note=51 velocity=127 time=55\n",
      "note_on channel=9 note=38 velocity=127 time=50\n",
      "note_off channel=9 note=38 velocity=127 time=105\n",
      "note_off channel=9 note=51 velocity=127 time=50\n",
      "note_on channel=9 note=51 velocity=127 time=295\n",
      "note_off channel=9 note=51 velocity=127 time=195\n",
      "note_on channel=9 note=51 velocity=127 time=285\n",
      "note_on channel=9 note=44 velocity=127 time=5\n",
      "note_off channel=9 note=51 velocity=127 time=170\n",
      "note_off channel=9 note=44 velocity=127 time=40\n",
      "note_on channel=9 note=51 velocity=127 time=250\n",
      "note_on channel=9 note=38 velocity=124 time=45\n",
      "note_off channel=9 note=38 velocity=127 time=45\n",
      "note_off channel=9 note=51 velocity=127 time=70\n",
      "note_on channel=9 note=51 velocity=127 time=315\n",
      "note_off channel=9 note=51 velocity=127 time=165\n",
      "note_on channel=9 note=38 velocity=127 time=170\n",
      "note_off channel=9 note=38 velocity=127 time=100\n",
      "note_on channel=9 note=51 velocity=127 time=50\n",
      "note_on channel=9 note=44 velocity=127 time=5\n",
      "note_off channel=9 note=51 velocity=127 time=165\n",
      "note_off channel=9 note=44 velocity=127 time=45\n",
      "note_on channel=9 note=51 velocity=127 time=275\n",
      "note_off channel=9 note=51 velocity=127 time=195\n",
      "note_on channel=9 note=51 velocity=127 time=285\n",
      "note_off channel=9 note=51 velocity=127 time=210\n",
      "note_on channel=9 note=51 velocity=127 time=260\n",
      "note_on channel=9 note=38 velocity=127 time=0\n",
      "note_on channel=9 note=44 velocity=127 time=5\n",
      "note_off channel=9 note=38 velocity=127 time=75\n",
      "note_off channel=9 note=51 velocity=127 time=155\n",
      "note_off channel=9 note=44 velocity=127 time=30\n",
      "note_on channel=9 note=51 velocity=127 time=205\n",
      "note_off channel=9 note=51 velocity=127 time=195\n",
      "note_on channel=9 note=51 velocity=127 time=285\n",
      "note_off channel=9 note=51 velocity=127 time=145\n",
      "note_on channel=9 note=51 velocity=127 time=175\n",
      "note_off channel=9 note=51 velocity=127 time=60\n",
      "note_on channel=9 note=51 velocity=127 time=90\n",
      "note_on channel=9 note=38 velocity=127 time=0\n",
      "note_on channel=9 note=44 velocity=127 time=5\n",
      "note_off channel=9 note=38 velocity=127 time=100\n",
      "note_off channel=9 note=51 velocity=127 time=0\n",
      "note_off channel=9 note=44 velocity=127 time=85\n",
      "note_on channel=9 note=51 velocity=127 time=305\n",
      "note_off channel=9 note=51 velocity=127 time=140\n",
      "note_on channel=9 note=51 velocity=127 time=370\n",
      "note_off channel=9 note=51 velocity=127 time=135\n",
      "note_on channel=9 note=44 velocity=127 time=170\n",
      "note_on channel=9 note=51 velocity=127 time=10\n",
      "note_on channel=9 note=38 velocity=127 time=160\n",
      "note_off channel=9 note=51 velocity=127 time=25\n",
      "note_off channel=9 note=44 velocity=127 time=65\n",
      "note_off channel=9 note=38 velocity=127 time=5\n",
      "note_on channel=9 note=51 velocity=127 time=210\n",
      "note_off channel=9 note=51 velocity=127 time=70\n",
      "note_on channel=9 note=51 velocity=127 time=75\n",
      "note_off channel=9 note=51 velocity=127 time=150\n",
      "note_on channel=9 note=44 velocity=127 time=360\n",
      "note_on channel=9 note=51 velocity=127 time=0\n",
      "note_off channel=9 note=51 velocity=127 time=145\n",
      "note_off channel=9 note=44 velocity=127 time=10\n",
      "note_on channel=9 note=51 velocity=127 time=305\n",
      "note_on channel=9 note=44 velocity=127 time=10\n",
      "note_on channel=9 note=38 velocity=127 time=5\n",
      "note_off channel=9 note=38 velocity=127 time=115\n",
      "note_off channel=9 note=51 velocity=127 time=25\n",
      "note_off channel=9 note=44 velocity=127 time=10\n",
      "note_on channel=9 note=51 velocity=127 time=325\n",
      "note_off channel=9 note=51 velocity=127 time=185\n",
      "note_on channel=9 note=44 velocity=127 time=300\n",
      "note_on channel=9 note=51 velocity=127 time=0\n",
      "note_off channel=9 note=51 velocity=127 time=165\n",
      "note_off channel=9 note=44 velocity=127 time=25\n",
      "note_on channel=9 note=38 velocity=127 time=285\n",
      "note_off channel=9 note=38 velocity=127 time=100\n",
      "note_on channel=9 note=51 velocity=127 time=155\n",
      "note_off channel=9 note=51 velocity=127 time=90\n",
      "note_on channel=9 note=51 velocity=127 time=140\n",
      "note_off channel=9 note=51 velocity=127 time=190\n",
      "note_on channel=9 note=51 velocity=127 time=290\n",
      "note_on channel=9 note=44 velocity=127 time=10\n",
      "note_off channel=9 note=51 velocity=127 time=170\n",
      "note_off channel=9 note=44 velocity=127 time=50\n",
      "note_on channel=9 note=51 velocity=127 time=230\n",
      "note_on channel=9 note=38 velocity=127 time=35\n",
      "note_off channel=9 note=38 velocity=127 time=85\n",
      "note_off channel=9 note=51 velocity=127 time=95\n",
      "note_on channel=9 note=51 velocity=127 time=255\n",
      "note_off channel=9 note=51 velocity=127 time=225\n",
      "note_on channel=9 note=51 velocity=127 time=270\n",
      "note_off channel=9 note=51 velocity=127 time=155\n",
      "note_on channel=9 note=38 velocity=127 time=320\n",
      "note_on channel=9 note=51 velocity=127 time=10\n",
      "note_on channel=9 note=44 velocity=127 time=5\n",
      "note_off channel=9 note=38 velocity=127 time=80\n",
      "note_off channel=9 note=51 velocity=127 time=85\n",
      "note_off channel=9 note=44 velocity=127 time=45\n",
      "note_on channel=9 note=51 velocity=127 time=270\n",
      "note_off channel=9 note=51 velocity=127 time=185\n",
      "note_on channel=9 note=51 velocity=127 time=285\n",
      "note_off channel=9 note=51 velocity=127 time=150\n",
      "note_on channel=9 note=51 velocity=127 time=320\n",
      "note_on channel=9 note=38 velocity=127 time=0\n",
      "note_on channel=9 note=44 velocity=127 time=5\n",
      "note_off channel=9 note=38 velocity=127 time=95\n",
      "note_off channel=9 note=51 velocity=127 time=80\n",
      "note_off channel=9 note=44 velocity=127 time=45\n",
      "note_on channel=9 note=51 velocity=127 time=265\n",
      "note_off channel=9 note=51 velocity=127 time=135\n",
      "note_on channel=9 note=51 velocity=127 time=660\n",
      "note_off channel=9 note=51 velocity=127 time=130\n",
      "note_on channel=9 note=38 velocity=127 time=45\n",
      "note_off channel=9 note=38 velocity=127 time=110\n",
      "note_on channel=9 note=44 velocity=127 time=185\n",
      "note_off channel=9 note=44 velocity=127 time=185\n",
      "note_on channel=9 note=51 velocity=127 time=35\n",
      "note_off channel=9 note=51 velocity=127 time=260\n",
      "note_on channel=9 note=51 velocity=127 time=215\n",
      "note_off channel=9 note=51 velocity=127 time=175\n",
      "note_on channel=9 note=38 velocity=127 time=260\n",
      "note_on channel=9 note=51 velocity=127 time=40\n",
      "note_on channel=9 note=44 velocity=127 time=10\n",
      "note_off channel=9 note=38 velocity=127 time=45\n",
      "note_off channel=9 note=51 velocity=127 time=160\n",
      "note_off channel=9 note=44 velocity=127 time=5\n",
      "note_on channel=9 note=51 velocity=127 time=255\n",
      "note_off channel=9 note=51 velocity=127 time=200\n",
      "note_on channel=9 note=51 velocity=127 time=265\n",
      "note_off channel=9 note=51 velocity=127 time=180\n",
      "note_on channel=9 note=38 velocity=127 time=285\n",
      "note_on channel=9 note=51 velocity=127 time=15\n",
      "note_on channel=9 note=44 velocity=127 time=5\n",
      "note_off channel=9 note=38 velocity=127 time=95\n",
      "note_off channel=9 note=51 velocity=127 time=85\n",
      "note_off channel=9 note=44 velocity=127 time=65\n",
      "note_on channel=9 note=51 velocity=127 time=275\n",
      "note_off channel=9 note=51 velocity=127 time=205\n",
      "note_on channel=9 note=44 velocity=127 time=65\n",
      "note_off channel=9 note=44 velocity=127 time=95\n",
      "note_on channel=9 note=51 velocity=127 time=65\n",
      "note_on channel=9 note=38 velocity=127 time=45\n",
      "note_off channel=9 note=38 velocity=127 time=240\n",
      "note_off channel=9 note=51 velocity=127 time=80\n",
      "note_on channel=9 note=39 velocity=127 time=30\n",
      "note_on channel=9 note=51 velocity=127 time=110\n",
      "note_off channel=9 note=39 velocity=127 time=10\n",
      "note_on channel=9 note=38 velocity=127 time=45\n",
      "note_off channel=9 note=38 velocity=127 time=80\n",
      "note_on channel=9 note=39 velocity=127 time=35\n",
      "note_off channel=9 note=39 velocity=127 time=120\n",
      "note_off channel=9 note=51 velocity=127 time=35\n",
      "note_on channel=9 note=35 velocity=127 time=125\n",
      "note_on channel=9 note=51 velocity=127 time=40\n",
      "note_off channel=9 note=35 velocity=127 time=315\n",
      "note_off channel=9 note=51 velocity=127 time=275\n",
      "note_on channel=9 note=51 velocity=127 time=340\n",
      "note_on channel=9 note=38 velocity=127 time=45\n",
      "note_off channel=9 note=38 velocity=127 time=165\n",
      "note_off channel=9 note=51 velocity=127 time=30\n",
      "note_on channel=9 note=44 velocity=127 time=110\n",
      "note_off channel=9 note=44 velocity=127 time=95\n",
      "note_on channel=9 note=51 velocity=127 time=40\n",
      "note_off channel=9 note=51 velocity=127 time=270\n",
      "note_on channel=9 note=51 velocity=127 time=250\n",
      "note_off channel=9 note=51 velocity=127 time=240\n",
      "note_on channel=9 note=51 velocity=127 time=220\n",
      "note_on channel=9 note=38 velocity=127 time=5\n",
      "note_on channel=9 note=44 velocity=127 time=0\n",
      "note_off channel=9 note=38 velocity=127 time=230\n",
      "note_off channel=9 note=51 velocity=127 time=10\n",
      "note_off channel=9 note=44 velocity=127 time=45\n",
      "note_on channel=9 note=51 velocity=127 time=200\n",
      "note_off channel=9 note=51 velocity=127 time=250\n",
      "note_on channel=9 note=44 velocity=114 time=200\n",
      "note_off channel=9 note=44 velocity=127 time=220\n",
      "note_on channel=9 note=51 velocity=127 time=60\n",
      "note_on channel=9 note=38 velocity=127 time=210\n",
      "note_off channel=9 note=51 velocity=127 time=170\n",
      "note_off channel=9 note=38 velocity=127 time=40\n",
      "note_on channel=9 note=44 velocity=127 time=135\n",
      "note_off channel=9 note=44 velocity=127 time=105\n",
      "note_on channel=9 note=51 velocity=127 time=30\n",
      "note_off channel=9 note=51 velocity=127 time=280\n",
      "note_on channel=9 note=51 velocity=127 time=200\n",
      "note_on channel=9 note=38 velocity=127 time=20\n",
      "note_off channel=9 note=38 velocity=127 time=185\n",
      "note_off channel=9 note=51 velocity=127 time=60\n",
      "note_on channel=9 note=39 velocity=127 time=70\n",
      "note_off channel=9 note=39 velocity=127 time=115\n",
      "note_on channel=9 note=51 velocity=127 time=20\n",
      "note_on channel=9 note=44 velocity=127 time=10\n",
      "note_on channel=9 note=39 velocity=127 time=165\n",
      "note_off channel=9 note=51 velocity=127 time=95\n",
      "note_off channel=9 note=39 velocity=127 time=5\n",
      "note_off channel=9 note=44 velocity=127 time=120\n",
      "note_on channel=9 note=51 velocity=127 time=90\n",
      "note_off channel=9 note=51 velocity=127 time=275\n",
      "note_on channel=9 note=44 velocity=108 time=225\n",
      "note_on channel=9 note=38 velocity=76 time=40\n",
      "note_off channel=9 note=38 velocity=127 time=50\n",
      "note_off channel=9 note=44 velocity=127 time=130\n",
      "note_on channel=9 note=51 velocity=127 time=45\n",
      "note_on channel=9 note=38 velocity=127 time=210\n",
      "note_off channel=9 note=51 velocity=127 time=70\n",
      "note_off channel=9 note=38 velocity=127 time=95\n",
      "note_on channel=9 note=44 velocity=108 time=120\n",
      "note_off channel=9 note=44 velocity=127 time=105\n",
      "note_on channel=9 note=51 velocity=127 time=70\n",
      "note_off channel=9 note=51 velocity=127 time=285\n",
      "note_on channel=9 note=51 velocity=127 time=175\n",
      "note_off channel=9 note=51 velocity=127 time=290\n",
      "note_on channel=9 note=38 velocity=127 time=145\n",
      "note_on channel=9 note=51 velocity=127 time=35\n",
      "note_on channel=9 note=44 velocity=127 time=5\n",
      "note_off channel=9 note=38 velocity=127 time=85\n",
      "note_off channel=9 note=51 velocity=127 time=175\n",
      "note_off channel=9 note=44 velocity=127 time=110\n",
      "note_on channel=9 note=51 velocity=127 time=125\n",
      "note_off channel=9 note=51 velocity=127 time=260\n",
      "note_on channel=9 note=44 velocity=102 time=250\n",
      "note_off channel=9 note=44 velocity=127 time=200\n",
      "note_on channel=9 note=51 velocity=127 time=65\n",
      "note_on channel=9 note=38 velocity=127 time=170\n",
      "note_off channel=9 note=51 velocity=127 time=155\n",
      "note_off channel=9 note=38 velocity=127 time=40\n",
      "note_on channel=9 note=44 velocity=110 time=100\n",
      "note_off channel=9 note=44 velocity=127 time=135\n",
      "note_on channel=9 note=51 velocity=127 time=15\n",
      "note_off channel=9 note=51 velocity=127 time=290\n",
      "note_on channel=9 note=51 velocity=127 time=205\n",
      "note_on channel=9 note=38 velocity=127 time=5\n",
      "note_off channel=9 note=38 velocity=127 time=235\n",
      "note_off channel=9 note=51 velocity=127 time=60\n",
      "note_on channel=9 note=38 velocity=127 time=175\n",
      "note_on channel=9 note=51 velocity=127 time=0\n",
      "note_on channel=9 note=44 velocity=127 time=5\n",
      "note_off channel=9 note=38 velocity=127 time=240\n",
      "note_off channel=9 note=51 velocity=127 time=15\n",
      "note_off channel=9 note=44 velocity=127 time=150\n",
      "note_on channel=9 note=51 velocity=127 time=90\n",
      "note_off channel=9 note=51 velocity=127 time=400\n",
      "note_on channel=9 note=44 velocity=124 time=100\n",
      "note_off channel=9 note=44 velocity=127 time=280\n",
      "note_on channel=9 note=51 velocity=127 time=105\n",
      "note_off channel=9 note=51 velocity=127 time=95\n",
      "note_on channel=9 note=38 velocity=104 time=60\n",
      "note_off channel=9 note=38 velocity=127 time=105\n",
      "note_on channel=9 note=44 velocity=127 time=140\n",
      "note_on channel=9 note=38 velocity=127 time=45\n",
      "note_off channel=9 note=44 velocity=127 time=35\n",
      "note_off channel=9 note=38 velocity=127 time=15\n",
      "note_on channel=9 note=51 velocity=127 time=65\n",
      "note_on channel=9 note=39 velocity=127 time=15\n",
      "note_off channel=9 note=39 velocity=127 time=205\n",
      "note_off channel=9 note=51 velocity=127 time=180\n",
      "note_on channel=9 note=44 velocity=96 time=145\n",
      "note_off channel=9 note=44 velocity=127 time=195\n",
      "note_on channel=9 note=51 velocity=127 time=65\n",
      "note_on channel=9 note=38 velocity=108 time=80\n",
      "note_off channel=9 note=38 velocity=127 time=45\n",
      "note_on channel=9 note=39 velocity=127 time=40\n",
      "note_off channel=9 note=51 velocity=127 time=25\n",
      "note_off channel=9 note=39 velocity=127 time=220\n",
      "note_on channel=9 note=44 velocity=127 time=50\n",
      "note_off channel=9 note=44 velocity=127 time=115\n",
      "note_on channel=9 note=51 velocity=127 time=55\n",
      "note_off channel=9 note=51 velocity=127 time=470\n",
      "note_on channel=9 note=38 velocity=127 time=5\n",
      "note_off channel=9 note=38 velocity=127 time=60\n",
      "note_on channel=9 note=44 velocity=102 time=5\n",
      "note_off channel=9 note=44 velocity=127 time=185\n",
      "note_on channel=9 note=51 velocity=127 time=65\n",
      "note_on channel=9 note=38 velocity=127 time=0\n",
      "note_off channel=9 note=38 velocity=127 time=125\n",
      "note_off channel=9 note=51 velocity=127 time=195\n",
      "note_on channel=9 note=44 velocity=124 time=190\n",
      "note_off channel=9 note=44 velocity=127 time=135\n",
      "note_on channel=9 note=51 velocity=127 time=40\n",
      "note_on channel=9 note=38 velocity=127 time=380\n",
      "note_off channel=9 note=38 velocity=127 time=50\n",
      "note_off channel=9 note=51 velocity=127 time=30\n",
      "note_on channel=9 note=44 velocity=110 time=35\n",
      "note_on channel=9 note=39 velocity=127 time=20\n",
      "note_off channel=9 note=39 velocity=127 time=65\n",
      "note_on channel=9 note=39 velocity=127 time=70\n",
      "note_off channel=9 note=44 velocity=127 time=70\n",
      "note_off channel=9 note=39 velocity=127 time=20\n",
      "note_on channel=9 note=51 velocity=127 time=40\n",
      "note_on channel=9 note=38 velocity=127 time=20\n",
      "note_off channel=9 note=38 velocity=127 time=55\n",
      "note_on channel=9 note=39 velocity=127 time=135\n",
      "note_off channel=9 note=39 velocity=127 time=55\n",
      "note_on channel=9 note=39 velocity=127 time=75\n",
      "note_off channel=9 note=51 velocity=127 time=80\n",
      "note_off channel=9 note=39 velocity=127 time=15\n",
      "note_on channel=9 note=44 velocity=127 time=65\n",
      "note_on channel=9 note=38 velocity=118 time=30\n",
      "note_off channel=9 note=38 velocity=127 time=50\n",
      "note_off channel=9 note=44 velocity=127 time=25\n",
      "note_on channel=9 note=51 velocity=127 time=45\n",
      "note_off channel=9 note=51 velocity=127 time=310\n",
      "note_on channel=9 note=51 velocity=127 time=205\n",
      "note_on channel=9 note=44 velocity=88 time=10\n",
      "note_on channel=9 note=38 velocity=98 time=25\n",
      "note_off channel=9 note=38 velocity=127 time=55\n",
      "note_off channel=9 note=51 velocity=127 time=120\n",
      "note_on channel=9 note=38 velocity=127 time=145\n",
      "note_off channel=9 note=38 velocity=127 time=55\n",
      "note_off channel=9 note=44 velocity=127 time=30\n",
      "note_on channel=9 note=51 velocity=127 time=30\n",
      "note_on channel=9 note=38 velocity=127 time=40\n",
      "note_off channel=9 note=38 velocity=127 time=195\n",
      "note_off channel=9 note=51 velocity=127 time=35\n",
      "note_on channel=9 note=38 velocity=127 time=85\n",
      "note_on channel=9 note=44 velocity=118 time=15\n",
      "note_off channel=9 note=38 velocity=127 time=50\n",
      "note_off channel=9 note=44 velocity=127 time=25\n",
      "note_on channel=9 note=51 velocity=127 time=45\n",
      "note_on channel=9 note=38 velocity=127 time=45\n",
      "note_off channel=9 note=38 velocity=127 time=55\n",
      "note_off channel=9 note=51 velocity=127 time=185\n",
      "note_on channel=9 note=51 velocity=127 time=170\n",
      "note_on channel=9 note=44 velocity=98 time=5\n",
      "note_off channel=9 note=51 velocity=127 time=160\n",
      "note_off channel=9 note=44 velocity=127 time=115\n",
      "note_on channel=9 note=51 velocity=127 time=25\n",
      "note_off channel=9 note=51 velocity=127 time=415\n",
      "note_on channel=9 note=39 velocity=127 time=70\n",
      "note_on channel=9 note=44 velocity=127 time=30\n",
      "note_off channel=9 note=44 velocity=127 time=60\n",
      "note_off channel=9 note=39 velocity=127 time=30\n",
      "note_on channel=9 note=51 velocity=127 time=30\n",
      "note_on channel=9 note=38 velocity=127 time=5\n",
      "note_off channel=9 note=38 velocity=127 time=50\n",
      "note_off channel=9 note=51 velocity=127 time=265\n",
      "note_on channel=9 note=44 velocity=127 time=60\n",
      "note_off channel=9 note=44 velocity=127 time=60\n",
      "note_on channel=9 note=51 velocity=127 time=60\n",
      "note_off channel=9 note=51 velocity=127 time=180\n",
      "note_on channel=9 note=51 velocity=127 time=115\n",
      "note_on channel=9 note=38 velocity=84 time=265\n",
      "note_off channel=9 note=38 velocity=127 time=45\n",
      "note_off channel=9 note=51 velocity=127 time=30\n",
      "note_on channel=9 note=38 velocity=118 time=55\n",
      "note_off channel=9 note=38 velocity=127 time=50\n",
      "note_on channel=9 note=39 velocity=127 time=55\n",
      "note_on channel=9 note=44 velocity=127 time=15\n",
      "note_off channel=9 note=44 velocity=127 time=50\n",
      "note_off channel=9 note=39 velocity=127 time=55\n",
      "note_on channel=9 note=51 velocity=127 time=5\n",
      "note_on channel=9 note=38 velocity=127 time=65\n",
      "note_off channel=9 note=38 velocity=127 time=50\n",
      "note_on channel=9 note=38 velocity=127 time=100\n",
      "note_off channel=9 note=38 velocity=127 time=55\n",
      "note_off channel=9 note=51 velocity=127 time=35\n",
      "note_on channel=9 note=44 velocity=127 time=35\n",
      "note_off channel=9 note=44 velocity=127 time=55\n",
      "note_on channel=9 note=51 velocity=127 time=60\n",
      "note_on channel=9 note=38 velocity=110 time=100\n",
      "note_off channel=9 note=38 velocity=127 time=55\n",
      "note_off channel=9 note=51 velocity=127 time=60\n",
      "note_on channel=9 note=38 velocity=127 time=45\n",
      "note_off channel=9 note=38 velocity=127 time=50\n",
      "note_on channel=9 note=51 velocity=127 time=35\n",
      "note_on channel=9 note=39 velocity=127 time=35\n",
      "note_off channel=9 note=39 velocity=127 time=130\n",
      "note_on channel=9 note=38 velocity=127 time=45\n",
      "note_off channel=9 note=38 velocity=127 time=55\n",
      "note_on channel=9 note=38 velocity=127 time=110\n",
      "note_off channel=9 note=51 velocity=127 time=35\n",
      "note_off channel=9 note=38 velocity=127 time=10\n",
      "note_on channel=9 note=44 velocity=127 time=75\n",
      "note_on channel=9 note=38 velocity=127 time=15\n",
      "note_off channel=9 note=38 velocity=127 time=50\n",
      "note_off channel=9 note=44 velocity=127 time=25\n",
      "note_on channel=9 note=51 velocity=127 time=35\n",
      "note_on channel=9 note=38 velocity=84 time=85\n",
      "note_off channel=9 note=38 velocity=127 time=55\n",
      "note_off channel=9 note=51 velocity=127 time=205\n",
      "note_on channel=9 note=51 velocity=127 time=185\n",
      "note_on channel=9 note=44 velocity=127 time=10\n",
      "note_off channel=9 note=51 velocity=127 time=230\n",
      "note_on channel=9 note=38 velocity=127 time=110\n",
      "note_off channel=9 note=38 velocity=127 time=50\n",
      "note_on channel=9 note=38 velocity=127 time=60\n",
      "note_on channel=9 note=51 velocity=127 time=35\n",
      "note_off channel=9 note=38 velocity=127 time=75\n",
      "note_off channel=9 note=51 velocity=127 time=195\n",
      "note_off channel=9 note=44 velocity=127 time=115\n",
      "note_on channel=9 note=51 velocity=127 time=75\n",
      "note_off channel=9 note=51 velocity=127 time=155\n",
      "note_on channel=9 note=51 velocity=127 time=310\n",
      "note_on channel=9 note=44 velocity=127 time=5\n",
      "note_off channel=9 note=44 velocity=127 time=115\n",
      "note_off channel=9 note=51 velocity=127 time=5\n",
      "note_on channel=9 note=51 velocity=127 time=365\n",
      "note_on channel=9 note=38 velocity=127 time=20\n",
      "note_off channel=9 note=51 velocity=127 time=175\n",
      "note_off channel=9 note=38 velocity=127 time=20\n",
      "note_on channel=9 note=38 velocity=127 time=135\n",
      "note_off channel=9 note=38 velocity=127 time=70\n",
      "note_on channel=9 note=51 velocity=127 time=65\n",
      "note_on channel=9 note=38 velocity=127 time=25\n",
      "note_off channel=9 note=38 velocity=127 time=50\n",
      "note_off channel=9 note=51 velocity=127 time=190\n",
      "note_on channel=9 note=51 velocity=127 time=210\n",
      "note_on channel=9 note=44 velocity=127 time=10\n",
      "note_off channel=9 note=51 velocity=127 time=130\n",
      "note_off channel=9 note=44 velocity=127 time=25\n",
      "note_on channel=9 note=51 velocity=127 time=310\n",
      "note_off channel=9 note=51 velocity=127 time=170\n",
      "note_on channel=9 note=38 velocity=104 time=35\n",
      "note_off channel=9 note=38 velocity=127 time=55\n",
      "note_on channel=9 note=38 velocity=127 time=65\n",
      "note_off channel=9 note=38 velocity=127 time=70\n",
      "note_on channel=9 note=51 velocity=127 time=85\n",
      "note_on channel=9 note=38 velocity=127 time=15\n",
      "note_off channel=9 note=38 velocity=127 time=60\n",
      "note_off channel=9 note=51 velocity=127 time=110\n",
      "note_on channel=9 note=51 velocity=127 time=305\n",
      "note_on channel=9 note=44 velocity=127 time=15\n",
      "note_off channel=9 note=51 velocity=127 time=130\n",
      "note_off channel=9 note=44 velocity=127 time=30\n",
      "note_on channel=9 note=51 velocity=127 time=295\n",
      "note_off channel=9 note=51 velocity=127 time=200\n",
      "note_on channel=9 note=38 velocity=127 time=165\n",
      "note_off channel=9 note=38 velocity=127 time=70\n",
      "note_on channel=9 note=51 velocity=127 time=50\n",
      "note_on channel=9 note=38 velocity=127 time=35\n",
      "note_off channel=9 note=38 velocity=127 time=55\n",
      "note_off channel=9 note=51 velocity=127 time=140\n",
      "note_on channel=9 note=51 velocity=127 time=265\n",
      "note_on channel=9 note=44 velocity=127 time=15\n",
      "note_off channel=9 note=51 velocity=127 time=145\n",
      "note_off channel=9 note=44 velocity=127 time=25\n",
      "note_on channel=9 note=51 velocity=127 time=290\n",
      "note_off channel=9 note=51 velocity=127 time=210\n",
      "note_on channel=9 note=38 velocity=127 time=90\n",
      "note_off channel=9 note=38 velocity=127 time=70\n",
      "note_on channel=9 note=51 velocity=127 time=85\n",
      "note_on channel=9 note=38 velocity=127 time=0\n",
      "note_off channel=9 note=38 velocity=127 time=55\n",
      "note_off channel=9 note=51 velocity=127 time=155\n",
      "note_on channel=9 note=51 velocity=127 time=270\n",
      "note_on channel=9 note=44 velocity=127 time=10\n",
      "note_off channel=9 note=51 velocity=127 time=185\n",
      "note_off channel=9 note=44 velocity=127 time=75\n",
      "note_on channel=9 note=51 velocity=127 time=45\n",
      "note_off channel=9 note=51 velocity=127 time=245\n",
      "note_on channel=9 note=44 velocity=127 time=230\n",
      "note_on channel=9 note=51 velocity=127 time=5\n",
      "note_on channel=9 note=38 velocity=127 time=50\n",
      "note_off channel=9 note=51 velocity=127 time=70\n",
      "note_off channel=9 note=38 velocity=127 time=5\n",
      "note_off channel=9 note=44 velocity=127 time=30\n",
      "note_on channel=9 note=38 velocity=127 time=60\n",
      "note_on channel=9 note=51 velocity=127 time=25\n",
      "note_off channel=9 note=38 velocity=127 time=25\n",
      "note_off channel=9 note=51 velocity=127 time=240\n",
      "note_on channel=9 note=44 velocity=127 time=160\n",
      "note_on channel=9 note=51 velocity=127 time=5\n",
      "note_off channel=9 note=51 velocity=127 time=145\n",
      "note_off channel=9 note=44 velocity=127 time=60\n",
      "note_on channel=9 note=38 velocity=127 time=70\n",
      "note_on channel=9 note=51 velocity=127 time=20\n",
      "note_off channel=9 note=38 velocity=127 time=30\n",
      "note_on channel=9 note=39 velocity=127 time=85\n",
      "note_off channel=9 note=39 velocity=127 time=115\n",
      "note_off channel=9 note=51 velocity=127 time=10\n",
      "note_on channel=9 note=38 velocity=104 time=75\n",
      "note_off channel=9 note=38 velocity=127 time=50\n",
      "note_on channel=9 note=44 velocity=127 time=70\n",
      "note_on channel=9 note=51 velocity=127 time=10\n",
      "note_off channel=9 note=51 velocity=127 time=125\n",
      "note_off channel=9 note=44 velocity=127 time=85\n",
      "note_on channel=9 note=51 velocity=127 time=65\n",
      "note_off channel=9 note=51 velocity=127 time=250\n",
      "note_on channel=9 note=44 velocity=127 time=170\n",
      "note_on channel=9 note=51 velocity=127 time=0\n",
      "note_off channel=9 note=51 velocity=127 time=145\n",
      "note_off channel=9 note=44 velocity=127 time=85\n",
      "note_on channel=9 note=51 velocity=127 time=60\n",
      "note_off channel=9 note=51 velocity=127 time=225\n",
      "note_on channel=9 note=38 velocity=127 time=5\n",
      "note_on channel=9 note=39 velocity=127 time=140\n",
      "note_off channel=9 note=38 velocity=127 time=5\n",
      "note_on channel=9 note=51 velocity=127 time=50\n",
      "note_on channel=9 note=44 velocity=127 time=10\n",
      "note_off channel=9 note=39 velocity=127 time=85\n",
      "note_on channel=9 note=38 velocity=127 time=0\n",
      "note_off channel=9 note=51 velocity=127 time=25\n",
      "note_off channel=9 note=38 velocity=127 time=95\n",
      "note_off channel=9 note=44 velocity=127 time=10\n",
      "note_on channel=9 note=51 velocity=127 time=40\n",
      "note_on channel=9 note=35 velocity=127 time=15\n",
      "note_off channel=9 note=35 velocity=127 time=280\n",
      "note_off channel=9 note=51 velocity=127 time=155\n",
      "note_on channel=9 note=51 velocity=127 time=340\n",
      "note_on channel=9 note=44 velocity=127 time=15\n",
      "note_off channel=9 note=51 velocity=127 time=265\n",
      "note_on channel=9 note=51 velocity=127 time=220\n",
      "note_off channel=9 note=51 velocity=127 time=60\n",
      "note_off channel=9 note=44 velocity=127 time=90\n",
      "note_on channel=9 note=38 velocity=127 time=5\n",
      "note_on channel=9 note=51 velocity=127 time=25\n",
      "note_off channel=9 note=38 velocity=127 time=115\n",
      "note_off channel=9 note=51 velocity=127 time=125\n",
      "note_on channel=9 note=51 velocity=127 time=210\n",
      "note_on channel=9 note=44 velocity=127 time=0\n",
      "note_off channel=9 note=51 velocity=127 time=185\n",
      "note_off channel=9 note=44 velocity=127 time=175\n",
      "note_on channel=9 note=51 velocity=127 time=110\n",
      "note_on channel=9 note=38 velocity=96 time=55\n",
      "note_off channel=9 note=38 velocity=127 time=135\n",
      "note_off channel=9 note=51 velocity=127 time=35\n",
      "note_on channel=9 note=39 velocity=127 time=115\n",
      "note_off channel=9 note=39 velocity=127 time=135\n",
      "note_on channel=9 note=51 velocity=127 time=0\n",
      "note_on channel=9 note=38 velocity=127 time=45\n",
      "note_off channel=9 note=38 velocity=127 time=60\n",
      "note_off channel=9 note=51 velocity=127 time=145\n",
      "note_on channel=9 note=51 velocity=127 time=230\n",
      "note_on channel=9 note=44 velocity=127 time=5\n",
      "note_on channel=9 note=38 velocity=86 time=50\n",
      "note_off channel=9 note=38 velocity=127 time=50\n",
      "note_off channel=9 note=51 velocity=127 time=65\n",
      "note_off channel=9 note=44 velocity=127 time=40\n",
      "note_on channel=9 note=51 velocity=127 time=280\n",
      "note_off channel=9 note=51 velocity=127 time=180\n",
      "note_on channel=9 note=38 velocity=127 time=160\n",
      "note_off channel=9 note=38 velocity=127 time=70\n",
      "note_on channel=9 note=51 velocity=127 time=60\n",
      "note_off channel=9 note=51 velocity=127 time=265\n",
      "note_on channel=9 note=51 velocity=127 time=220\n",
      "note_on channel=9 note=44 velocity=127 time=10\n",
      "note_off channel=9 note=51 velocity=127 time=240\n",
      "note_off channel=9 note=44 velocity=127 time=5\n",
      "note_on channel=9 note=51 velocity=127 time=230\n",
      "note_on channel=9 note=38 velocity=118 time=45\n",
      "note_off channel=9 note=38 velocity=127 time=55\n",
      "note_on channel=9 note=39 velocity=127 time=80\n",
      "note_off channel=9 note=51 velocity=127 time=65\n",
      "note_off channel=9 note=39 velocity=127 time=10\n",
      "note_on channel=9 note=39 velocity=127 time=55\n",
      "note_off channel=9 note=39 velocity=127 time=115\n",
      "note_on channel=9 note=51 velocity=127 time=40\n",
      "note_off channel=9 note=51 velocity=127 time=265\n",
      "note_on channel=9 note=51 velocity=127 time=235\n",
      "note_on channel=9 note=44 velocity=127 time=0\n",
      "note_off channel=9 note=51 velocity=127 time=170\n",
      "note_off channel=9 note=44 velocity=127 time=30\n",
      "note_on channel=9 note=51 velocity=127 time=310\n",
      "note_off channel=9 note=51 velocity=127 time=215\n",
      "note_on channel=9 note=38 velocity=127 time=85\n",
      "note_off channel=9 note=38 velocity=127 time=85\n",
      "note_on channel=9 note=51 velocity=127 time=55\n",
      "note_off channel=9 note=51 velocity=127 time=270\n",
      "note_on channel=9 note=51 velocity=127 time=215\n",
      "note_on channel=9 note=44 velocity=127 time=10\n",
      "note_off channel=9 note=51 velocity=127 time=190\n",
      "note_off channel=9 note=44 velocity=127 time=25\n",
      "note_on channel=9 note=51 velocity=127 time=240\n",
      "note_off channel=9 note=51 velocity=127 time=175\n",
      "note_on channel=9 note=39 velocity=127 time=165\n",
      "note_on channel=9 note=51 velocity=127 time=115\n",
      "note_off channel=9 note=39 velocity=127 time=5\n",
      "note_on channel=9 note=38 velocity=124 time=75\n",
      "note_off channel=9 note=38 velocity=127 time=60\n",
      "note_off channel=9 note=51 velocity=127 time=35\n",
      "note_on channel=9 note=51 velocity=127 time=315\n",
      "note_on channel=9 note=44 velocity=127 time=25\n",
      "note_off channel=9 note=51 velocity=127 time=140\n",
      "note_off channel=9 note=44 velocity=127 time=35\n",
      "note_on channel=9 note=51 velocity=127 time=305\n",
      "note_off channel=9 note=51 velocity=127 time=180\n",
      "note_on channel=9 note=38 velocity=127 time=160\n",
      "note_off channel=9 note=38 velocity=127 time=95\n",
      "note_on channel=9 note=51 velocity=127 time=10\n",
      "note_off channel=9 note=51 velocity=127 time=230\n",
      "note_on channel=9 note=51 velocity=127 time=240\n",
      "note_on channel=9 note=44 velocity=127 time=10\n",
      "note_off channel=9 note=51 velocity=127 time=165\n",
      "note_off channel=9 note=44 velocity=127 time=165\n",
      "note_on channel=9 note=51 velocity=127 time=130\n",
      "note_on channel=9 note=38 velocity=127 time=120\n",
      "note_off channel=9 note=38 velocity=127 time=50\n",
      "note_off channel=9 note=51 velocity=127 time=55\n",
      "note_on channel=9 note=39 velocity=127 time=35\n",
      "note_on channel=9 note=38 velocity=127 time=125\n",
      "note_off channel=9 note=39 velocity=127 time=10\n",
      "note_off channel=9 note=38 velocity=127 time=90\n",
      "note_on channel=9 note=51 velocity=127 time=5\n",
      "note_on channel=9 note=35 velocity=127 time=75\n",
      "note_off channel=9 note=35 velocity=127 time=135\n",
      "note_off channel=9 note=51 velocity=127 time=35\n",
      "note_on channel=9 note=51 velocity=127 time=255\n",
      "note_on channel=9 note=44 velocity=127 time=20\n",
      "note_off channel=9 note=51 velocity=127 time=180\n",
      "note_off channel=9 note=44 velocity=127 time=105\n",
      "note_on channel=9 note=51 velocity=127 time=175\n",
      "note_off channel=9 note=51 velocity=127 time=230\n",
      "note_on channel=9 note=51 velocity=127 time=265\n",
      "note_off channel=9 note=51 velocity=127 time=265\n",
      "note_on channel=9 note=38 velocity=102 time=80\n",
      "note_off channel=9 note=38 velocity=127 time=55\n",
      "note_on channel=9 note=51 velocity=127 time=70\n",
      "note_on channel=9 note=44 velocity=127 time=10\n",
      "note_on channel=9 note=39 velocity=127 time=10\n",
      "note_off channel=9 note=39 velocity=127 time=170\n",
      "note_off channel=9 note=51 velocity=127 time=15\n",
      "note_off channel=9 note=44 velocity=127 time=30\n",
      "note_on channel=9 note=51 velocity=127 time=275\n",
      "note_on channel=9 note=38 velocity=104 time=70\n",
      "note_off channel=9 note=38 velocity=127 time=55\n",
      "note_on channel=9 note=39 velocity=127 time=55\n",
      "note_off channel=9 note=51 velocity=127 time=85\n",
      "note_off channel=9 note=39 velocity=127 time=45\n",
      "note_on channel=9 note=38 velocity=127 time=30\n",
      "note_off channel=9 note=38 velocity=127 time=55\n",
      "note_on channel=9 note=44 velocity=127 time=60\n",
      "note_on channel=9 note=51 velocity=127 time=5\n",
      "note_on channel=9 note=38 velocity=88 time=115\n",
      "note_off channel=9 note=44 velocity=127 time=45\n",
      "note_off channel=9 note=38 velocity=127 time=10\n",
      "note_off channel=9 note=51 velocity=127 time=35\n",
      "note_on channel=9 note=51 velocity=127 time=315\n",
      "note_off channel=9 note=51 velocity=127 time=240\n",
      "note_on channel=9 note=38 velocity=127 time=220\n",
      "note_on channel=9 note=44 velocity=127 time=5\n",
      "note_on channel=9 note=51 velocity=127 time=10\n",
      "note_off channel=9 note=38 velocity=127 time=155\n",
      "note_off channel=9 note=51 velocity=127 time=35\n",
      "note_off channel=9 note=44 velocity=127 time=110\n",
      "note_on channel=9 note=38 velocity=127 time=50\n",
      "note_on channel=9 note=51 velocity=127 time=15\n",
      "note_off channel=9 note=38 velocity=127 time=55\n",
      "note_off channel=9 note=51 velocity=127 time=55\n",
      "note_on channel=9 note=44 velocity=127 time=55\n",
      "note_off channel=9 note=44 velocity=127 time=90\n",
      "note_on channel=9 note=51 velocity=127 time=60\n",
      "note_off channel=9 note=51 velocity=127 time=95\n",
      "note_on channel=9 note=51 velocity=127 time=215\n",
      "note_on channel=9 note=44 velocity=127 time=5\n",
      "note_on channel=9 note=38 velocity=94 time=5\n",
      "note_off channel=9 note=38 velocity=127 time=110\n",
      "note_off channel=9 note=51 velocity=127 time=100\n",
      "note_on channel=9 note=39 velocity=127 time=80\n",
      "note_off channel=9 note=44 velocity=127 time=25\n",
      "note_off channel=9 note=39 velocity=127 time=115\n",
      "note_on channel=9 note=51 velocity=127 time=30\n",
      "note_on channel=9 note=38 velocity=127 time=25\n",
      "note_off channel=9 note=38 velocity=127 time=70\n",
      "note_off channel=9 note=51 velocity=127 time=85\n",
      "note_on channel=9 note=51 velocity=127 time=145\n",
      "note_off channel=9 note=51 velocity=127 time=65\n",
      "note_on channel=9 note=51 velocity=127 time=75\n",
      "note_on channel=9 note=38 velocity=110 time=10\n",
      "note_off channel=9 note=38 velocity=127 time=50\n",
      "note_off channel=9 note=51 velocity=127 time=75\n",
      "note_on channel=9 note=44 velocity=127 time=335\n",
      "note_on channel=9 note=51 velocity=127 time=10\n",
      "note_off channel=9 note=44 velocity=127 time=135\n",
      "note_off channel=9 note=51 velocity=127 time=30\n",
      "note_on channel=9 note=38 velocity=127 time=280\n",
      "note_on channel=9 note=51 velocity=127 time=30\n",
      "note_off channel=9 note=38 velocity=127 time=105\n",
      "note_off channel=9 note=51 velocity=127 time=140\n",
      "note_on channel=9 note=51 velocity=127 time=230\n",
      "note_off channel=9 note=51 velocity=127 time=275\n",
      "note_on channel=9 note=44 velocity=127 time=170\n",
      "note_on channel=9 note=51 velocity=127 time=5\n",
      "note_off channel=9 note=44 velocity=127 time=140\n",
      "note_off channel=9 note=51 velocity=127 time=55\n",
      "note_on channel=9 note=38 velocity=127 time=275\n",
      "note_on channel=9 note=51 velocity=127 time=10\n",
      "note_off channel=9 note=38 velocity=127 time=155\n",
      "note_off channel=9 note=51 velocity=127 time=75\n",
      "note_on channel=9 note=51 velocity=127 time=250\n",
      "note_off channel=9 note=51 velocity=127 time=185\n",
      "note_on channel=9 note=51 velocity=127 time=295\n",
      "note_on channel=9 note=44 velocity=127 time=5\n",
      "note_off channel=9 note=44 velocity=127 time=125\n",
      "note_off channel=9 note=51 velocity=127 time=45\n",
      "note_on channel=9 note=38 velocity=127 time=295\n",
      "note_on channel=9 note=51 velocity=127 time=30\n",
      "note_off channel=9 note=38 velocity=127 time=155\n",
      "note_off channel=9 note=51 velocity=127 time=65\n",
      "note_on channel=9 note=39 velocity=127 time=90\n",
      "note_off channel=9 note=39 velocity=127 time=140\n",
      "note_on channel=9 note=44 velocity=127 time=20\n",
      "note_on channel=9 note=51 velocity=127 time=5\n",
      "note_off channel=9 note=44 velocity=127 time=110\n",
      "note_off channel=9 note=51 velocity=127 time=85\n",
      "note_on channel=9 note=51 velocity=127 time=305\n",
      "note_off channel=9 note=51 velocity=127 time=210\n",
      "note_on channel=9 note=44 velocity=127 time=255\n",
      "note_on channel=9 note=51 velocity=127 time=5\n",
      "note_on channel=9 note=38 velocity=127 time=15\n",
      "note_off channel=9 note=38 velocity=127 time=50\n",
      "note_off channel=9 note=44 velocity=127 time=45\n",
      "note_on channel=9 note=39 velocity=127 time=35\n",
      "note_off channel=9 note=51 velocity=127 time=35\n",
      "note_off channel=9 note=39 velocity=127 time=105\n",
      "note_on channel=9 note=38 velocity=127 time=5\n",
      "note_off channel=9 note=38 velocity=127 time=115\n",
      "note_on channel=9 note=51 velocity=127 time=55\n",
      "note_on channel=9 note=35 velocity=127 time=5\n",
      "note_off channel=9 note=51 velocity=127 time=180\n",
      "note_off channel=9 note=35 velocity=127 time=75\n",
      "note_on channel=9 note=44 velocity=127 time=665\n",
      "note_on channel=9 note=51 velocity=127 time=0\n",
      "note_off channel=9 note=44 velocity=127 time=155\n",
      "note_off channel=9 note=51 velocity=127 time=40\n",
      "note_on channel=9 note=51 velocity=127 time=325\n",
      "note_off channel=9 note=51 velocity=127 time=130\n",
      "note_on channel=9 note=51 velocity=127 time=340\n",
      "note_off channel=9 note=51 velocity=127 time=115\n",
      "note_on channel=9 note=38 velocity=127 time=355\n",
      "note_on channel=9 note=51 velocity=127 time=35\n",
      "note_on channel=9 note=44 velocity=127 time=0\n",
      "note_off channel=9 note=38 velocity=127 time=135\n",
      "note_off channel=9 note=44 velocity=127 time=15\n",
      "note_off channel=9 note=51 velocity=127 time=20\n",
      "note_on channel=9 note=51 velocity=127 time=300\n",
      "note_off channel=9 note=51 velocity=127 time=120\n",
      "note_on channel=9 note=51 velocity=127 time=645\n",
      "note_on channel=9 note=44 velocity=127 time=5\n",
      "note_off channel=9 note=51 velocity=127 time=145\n",
      "note_off channel=9 note=44 velocity=127 time=5\n",
      "note_on channel=9 note=38 velocity=104 time=40\n",
      "note_off channel=9 note=38 velocity=127 time=165\n",
      "note_on channel=9 note=51 velocity=127 time=100\n",
      "note_on channel=9 note=38 velocity=127 time=20\n",
      "note_off channel=9 note=51 velocity=127 time=50\n",
      "note_off channel=9 note=38 velocity=127 time=50\n",
      "note_on channel=9 note=51 velocity=127 time=70\n",
      "note_off channel=9 note=51 velocity=127 time=105\n",
      "note_on channel=9 note=51 velocity=127 time=650\n",
      "note_on channel=9 note=44 velocity=127 time=15\n",
      "note_off channel=9 note=51 velocity=127 time=110\n",
      "note_off channel=9 note=44 velocity=127 time=20\n",
      "note_on channel=9 note=38 velocity=127 time=55\n",
      "note_off channel=9 note=38 velocity=127 time=130\n",
      "note_on channel=9 note=51 velocity=127 time=150\n",
      "note_off channel=9 note=51 velocity=127 time=60\n",
      "note_on channel=9 note=51 velocity=127 time=165\n",
      "note_off channel=9 note=51 velocity=127 time=105\n",
      "note_on channel=9 note=51 velocity=127 time=640\n",
      "note_on channel=9 note=44 velocity=127 time=0\n",
      "note_off channel=9 note=51 velocity=127 time=130\n",
      "note_off channel=9 note=44 velocity=127 time=10\n",
      "note_on channel=9 note=38 velocity=127 time=30\n",
      "note_off channel=9 note=38 velocity=127 time=115\n",
      "note_on channel=9 note=51 velocity=127 time=210\n",
      "note_off channel=9 note=51 velocity=127 time=55\n",
      "note_on channel=9 note=51 velocity=127 time=150\n",
      "note_off channel=9 note=51 velocity=127 time=115\n",
      "note_on channel=9 note=51 velocity=127 time=690\n",
      "note_on channel=9 note=44 velocity=127 time=10\n",
      "note_off channel=9 note=44 velocity=127 time=125\n",
      "note_off channel=9 note=51 velocity=127 time=10\n",
      "note_on channel=9 note=38 velocity=127 time=20\n",
      "note_off channel=9 note=38 velocity=127 time=130\n",
      "note_on channel=9 note=51 velocity=127 time=165\n",
      "note_off channel=9 note=51 velocity=127 time=80\n",
      "note_on channel=9 note=51 velocity=127 time=125\n",
      "note_off channel=9 note=51 velocity=127 time=105\n",
      "note_on channel=9 note=51 velocity=127 time=660\n",
      "note_on channel=9 note=44 velocity=127 time=5\n",
      "note_off channel=9 note=51 velocity=127 time=105\n",
      "note_off channel=9 note=44 velocity=127 time=20\n",
      "note_on channel=9 note=38 velocity=127 time=0\n",
      "note_off channel=9 note=38 velocity=127 time=125\n",
      "note_on channel=9 note=51 velocity=127 time=215\n",
      "note_off channel=9 note=51 velocity=127 time=75\n",
      "note_on channel=9 note=51 velocity=127 time=130\n",
      "note_off channel=9 note=51 velocity=127 time=100\n",
      "note_on channel=9 note=51 velocity=127 time=355\n",
      "note_off channel=9 note=51 velocity=127 time=170\n",
      "note_on channel=9 note=38 velocity=127 time=285\n",
      "note_on channel=9 note=44 velocity=127 time=5\n",
      "note_on channel=9 note=51 velocity=127 time=10\n",
      "note_off channel=9 note=38 velocity=127 time=130\n",
      "note_off channel=9 note=44 velocity=127 time=10\n",
      "note_off channel=9 note=51 velocity=127 time=25\n",
      "note_on channel=9 note=51 velocity=127 time=340\n",
      "note_off channel=9 note=51 velocity=127 time=120\n",
      "note_on channel=9 note=38 velocity=127 time=810\n",
      "note_on channel=9 note=51 velocity=127 time=10\n",
      "note_on channel=9 note=44 velocity=127 time=5\n",
      "note_off channel=9 note=38 velocity=127 time=100\n",
      "note_off channel=9 note=51 velocity=127 time=20\n",
      "note_off channel=9 note=44 velocity=127 time=20\n",
      "note_on channel=9 note=51 velocity=127 time=340\n",
      "note_off channel=9 note=51 velocity=127 time=120\n",
      "note_on channel=9 note=51 velocity=127 time=625\n",
      "note_on channel=9 note=44 velocity=127 time=15\n",
      "note_off channel=9 note=51 velocity=127 time=105\n",
      "note_off channel=9 note=44 velocity=127 time=25\n",
      "note_on channel=9 note=38 velocity=127 time=30\n",
      "note_off channel=9 note=38 velocity=127 time=130\n",
      "note_on channel=9 note=51 velocity=127 time=185\n",
      "note_off channel=9 note=51 velocity=127 time=55\n",
      "note_on channel=9 note=51 velocity=127 time=125\n",
      "note_off channel=9 note=51 velocity=127 time=120\n",
      "note_on channel=9 note=51 velocity=127 time=400\n",
      "note_off channel=9 note=51 velocity=127 time=55\n",
      "note_on channel=9 note=38 velocity=127 time=345\n",
      "note_on channel=9 note=51 velocity=127 time=40\n",
      "note_on channel=9 note=44 velocity=127 time=5\n",
      "note_off channel=9 note=38 velocity=127 time=90\n",
      "note_off channel=9 note=51 velocity=127 time=20\n",
      "note_off channel=9 note=44 velocity=127 time=35\n",
      "note_on channel=9 note=51 velocity=127 time=335\n",
      "note_off channel=9 note=51 velocity=127 time=100\n",
      "note_on channel=9 note=51 velocity=127 time=660\n",
      "note_on channel=9 note=44 velocity=127 time=5\n",
      "note_on channel=9 note=38 velocity=127 time=30\n",
      "note_off channel=9 note=38 velocity=127 time=95\n",
      "note_off channel=9 note=51 velocity=127 time=10\n",
      "note_off channel=9 note=44 velocity=127 time=30\n",
      "note_on channel=9 note=51 velocity=127 time=305\n",
      "note_off channel=9 note=51 velocity=127 time=50\n",
      "note_on channel=9 note=51 velocity=127 time=125\n",
      "note_off channel=9 note=51 velocity=127 time=100\n",
      "note_on channel=9 note=51 velocity=127 time=420\n",
      "note_off channel=9 note=51 velocity=127 time=100\n",
      "note_on channel=9 note=44 velocity=127 time=365\n",
      "note_on channel=9 note=38 velocity=127 time=0\n",
      "note_on channel=9 note=51 velocity=127 time=5\n",
      "note_off channel=9 note=38 velocity=127 time=45\n",
      "note_off channel=9 note=51 velocity=127 time=95\n",
      "note_off channel=9 note=44 velocity=127 time=5\n",
      "note_on channel=9 note=51 velocity=127 time=335\n",
      "note_off channel=9 note=51 velocity=127 time=110\n",
      "note_on channel=9 note=51 velocity=127 time=635\n",
      "note_on channel=9 note=44 velocity=127 time=0\n",
      "note_on channel=9 note=38 velocity=127 time=60\n",
      "note_off channel=9 note=38 velocity=127 time=50\n",
      "note_off channel=9 note=51 velocity=127 time=40\n",
      "note_off channel=9 note=44 velocity=127 time=5\n",
      "note_on channel=9 note=51 velocity=127 time=335\n",
      "note_off channel=9 note=51 velocity=127 time=55\n",
      "note_on channel=9 note=51 velocity=127 time=140\n",
      "note_off channel=9 note=51 velocity=127 time=140\n",
      "note_on channel=9 note=51 velocity=127 time=360\n",
      "note_on channel=9 note=38 velocity=110 time=30\n",
      "note_off channel=9 note=51 velocity=127 time=75\n",
      "note_off channel=9 note=38 velocity=127 time=80\n",
      "note_on channel=9 note=38 velocity=127 time=145\n",
      "note_off channel=9 note=38 velocity=127 time=75\n",
      "note_on channel=9 note=51 velocity=127 time=65\n",
      "note_on channel=9 note=44 velocity=127 time=5\n",
      "note_off channel=9 note=51 velocity=127 time=110\n",
      "note_off channel=9 note=44 velocity=127 time=30\n",
      "note_on channel=9 note=51 velocity=127 time=345\n",
      "note_off channel=9 note=51 velocity=127 time=210\n",
      "note_on channel=9 note=44 velocity=127 time=100\n",
      "note_off channel=9 note=44 velocity=127 time=80\n",
      "note_on channel=9 note=51 velocity=127 time=55\n",
      "note_off channel=9 note=51 velocity=127 time=215\n",
      "note_on channel=9 note=51 velocity=127 time=110\n",
      "note_on channel=9 note=38 velocity=90 time=35\n",
      "note_off channel=9 note=38 velocity=127 time=75\n",
      "note_off channel=9 note=51 velocity=127 time=0\n",
      "note_on channel=9 note=39 velocity=127 time=45\n",
      "note_on channel=9 note=51 velocity=127 time=185\n",
      "note_off channel=9 note=39 velocity=127 time=40\n",
      "note_off channel=9 note=51 velocity=127 time=35\n",
      "note_on channel=9 note=44 velocity=127 time=50\n",
      "note_on channel=9 note=39 velocity=127 time=10\n",
      "note_off channel=9 note=44 velocity=127 time=75\n",
      "note_off channel=9 note=39 velocity=127 time=40\n",
      "note_on channel=9 note=51 velocity=127 time=60\n",
      "note_off channel=9 note=51 velocity=127 time=465\n",
      "note_on channel=9 note=44 velocity=127 time=465\n",
      "note_on channel=9 note=51 velocity=127 time=5\n",
      "note_on channel=9 note=38 velocity=127 time=25\n",
      "note_off channel=9 note=38 velocity=127 time=105\n",
      "note_off channel=9 note=44 velocity=127 time=5\n",
      "note_off channel=9 note=51 velocity=127 time=100\n",
      "note_on channel=9 note=51 velocity=127 time=250\n",
      "note_off channel=9 note=51 velocity=127 time=195\n",
      "note_on channel=9 note=44 velocity=127 time=750\n",
      "note_on channel=9 note=51 velocity=127 time=5\n",
      "note_on channel=9 note=38 velocity=94 time=20\n",
      "note_off channel=9 note=38 velocity=127 time=65\n",
      "note_off channel=9 note=51 velocity=127 time=70\n",
      "note_off channel=9 note=44 velocity=127 time=10\n",
      "note_on channel=9 note=51 velocity=127 time=350\n",
      "note_off channel=9 note=51 velocity=127 time=120\n",
      "note_on channel=9 note=51 velocity=127 time=380\n",
      "note_off channel=9 note=51 velocity=127 time=105\n",
      "note_on channel=9 note=38 velocity=127 time=325\n",
      "note_on channel=9 note=44 velocity=127 time=50\n",
      "note_on channel=9 note=51 velocity=127 time=5\n",
      "note_off channel=9 note=38 velocity=127 time=40\n",
      "note_off channel=9 note=44 velocity=127 time=105\n",
      "note_off channel=9 note=51 velocity=127 time=5\n",
      "note_on channel=9 note=51 velocity=127 time=320\n",
      "note_off channel=9 note=51 velocity=127 time=135\n",
      "note_on channel=9 note=51 velocity=127 time=365\n",
      "note_off channel=9 note=51 velocity=127 time=110\n",
      "note_on channel=9 note=38 velocity=127 time=330\n",
      "note_on channel=9 note=44 velocity=127 time=20\n",
      "note_on channel=9 note=51 velocity=127 time=5\n",
      "note_off channel=9 note=38 velocity=127 time=75\n",
      "note_off channel=9 note=44 velocity=127 time=50\n",
      "note_off channel=9 note=51 velocity=127 time=35\n",
      "note_on channel=9 note=51 velocity=127 time=295\n",
      "note_off channel=9 note=51 velocity=127 time=160\n",
      "note_on channel=9 note=51 velocity=127 time=350\n",
      "note_off channel=9 note=51 velocity=127 time=95\n",
      "note_on channel=9 note=38 velocity=127 time=340\n",
      "note_on channel=9 note=44 velocity=127 time=15\n",
      "note_on channel=9 note=51 velocity=127 time=5\n",
      "note_off channel=9 note=38 velocity=127 time=105\n",
      "note_off channel=9 note=44 velocity=127 time=10\n",
      "note_off channel=9 note=51 velocity=127 time=35\n",
      "note_on channel=9 note=51 velocity=124 time=305\n",
      "note_off channel=9 note=51 velocity=127 time=105\n",
      "note_on channel=9 note=51 velocity=127 time=375\n",
      "note_off channel=9 note=51 velocity=127 time=160\n",
      "note_on channel=9 note=44 velocity=127 time=300\n",
      "note_on channel=9 note=51 velocity=127 time=0\n",
      "note_on channel=9 note=38 velocity=127 time=25\n",
      "note_off channel=9 note=38 velocity=127 time=105\n",
      "note_off channel=9 note=51 velocity=127 time=5\n",
      "note_off channel=9 note=44 velocity=127 time=10\n",
      "note_on channel=9 note=51 velocity=127 time=350\n",
      "note_off channel=9 note=51 velocity=127 time=145\n",
      "note_on channel=9 note=51 velocity=127 time=380\n",
      "note_off channel=9 note=51 velocity=127 time=180\n",
      "note_on channel=9 note=44 velocity=127 time=255\n",
      "note_on channel=9 note=51 velocity=127 time=20\n",
      "note_on channel=9 note=38 velocity=127 time=10\n",
      "note_off channel=9 note=38 velocity=127 time=115\n",
      "note_off channel=9 note=44 velocity=127 time=45\n",
      "note_off channel=9 note=51 velocity=127 time=5\n",
      "note_on channel=9 note=51 velocity=127 time=185\n",
      "note_off channel=9 note=51 velocity=127 time=95\n",
      "note_on channel=9 note=44 velocity=127 time=45\n",
      "note_off channel=9 note=44 velocity=127 time=85\n",
      "note_on channel=9 note=51 velocity=127 time=35\n",
      "note_off channel=9 note=51 velocity=127 time=85\n",
      "note_on channel=9 note=38 velocity=84 time=260\n",
      "note_on channel=9 note=51 velocity=127 time=0\n",
      "note_on channel=9 note=44 velocity=127 time=10\n",
      "note_off channel=9 note=38 velocity=127 time=45\n",
      "note_off channel=9 note=51 velocity=127 time=120\n",
      "note_off channel=9 note=44 velocity=127 time=105\n",
      "note_on channel=9 note=51 velocity=127 time=50\n",
      "note_off channel=9 note=51 velocity=127 time=105\n",
      "note_on channel=9 note=44 velocity=127 time=55\n",
      "note_off channel=9 note=44 velocity=127 time=90\n",
      "note_on channel=9 note=51 velocity=127 time=55\n",
      "note_off channel=9 note=51 velocity=127 time=95\n",
      "note_on channel=9 note=38 velocity=127 time=65\n",
      "note_off channel=9 note=38 velocity=127 time=70\n",
      "note_on channel=9 note=44 velocity=127 time=135\n",
      "note_on channel=9 note=51 velocity=127 time=0\n",
      "note_off channel=9 note=44 velocity=127 time=85\n",
      "note_off channel=9 note=51 velocity=127 time=35\n",
      "note_on channel=9 note=51 velocity=127 time=380\n",
      "note_off channel=9 note=51 velocity=127 time=105\n",
      "note_on channel=9 note=44 velocity=127 time=345\n",
      "note_on channel=9 note=51 velocity=127 time=5\n",
      "note_on channel=9 note=38 velocity=127 time=10\n",
      "note_off channel=9 note=51 velocity=127 time=95\n",
      "note_off channel=9 note=38 velocity=127 time=10\n",
      "note_off channel=9 note=44 velocity=127 time=15\n",
      "note_on channel=9 note=51 velocity=127 time=335\n",
      "note_off channel=9 note=51 velocity=127 time=125\n",
      "note_on channel=9 note=51 velocity=127 time=340\n",
      "note_off channel=9 note=51 velocity=127 time=70\n",
      "note_on channel=9 note=51 velocity=127 time=390\n",
      "note_on channel=9 note=44 velocity=127 time=5\n",
      "note_on channel=9 note=38 velocity=124 time=35\n",
      "note_off channel=9 note=44 velocity=127 time=115\n",
      "note_off channel=9 note=51 velocity=127 time=15\n",
      "note_off channel=9 note=38 velocity=127 time=55\n",
      "note_on channel=9 note=39 velocity=127 time=120\n",
      "note_off channel=9 note=39 velocity=127 time=125\n",
      "note_on channel=9 note=51 velocity=127 time=30\n",
      "note_on channel=9 note=38 velocity=102 time=30\n",
      "note_off channel=9 note=38 velocity=127 time=50\n",
      "note_off channel=9 note=51 velocity=127 time=35\n",
      "note_on channel=9 note=51 velocity=127 time=355\n",
      "note_off channel=9 note=51 velocity=127 time=85\n",
      "note_on channel=9 note=44 velocity=127 time=350\n",
      "note_on channel=9 note=51 velocity=127 time=5\n",
      "note_on channel=9 note=38 velocity=127 time=20\n",
      "note_off channel=9 note=38 velocity=127 time=105\n",
      "note_off channel=9 note=51 velocity=127 time=10\n",
      "note_off channel=9 note=44 velocity=127 time=10\n",
      "note_on channel=9 note=51 velocity=127 time=360\n",
      "note_off channel=9 note=51 velocity=127 time=130\n",
      "note_on channel=9 note=51 velocity=127 time=375\n",
      "note_on channel=9 note=38 velocity=90 time=55\n",
      "note_off channel=9 note=51 velocity=127 time=55\n",
      "note_off channel=9 note=38 velocity=127 time=40\n",
      "note_on channel=9 note=39 velocity=127 time=185\n",
      "note_off channel=9 note=39 velocity=127 time=140\n",
      "note_on channel=9 note=44 velocity=127 time=0\n",
      "note_on channel=9 note=51 velocity=127 time=5\n",
      "note_on channel=9 note=38 velocity=127 time=25\n",
      "note_off channel=9 note=38 velocity=127 time=55\n",
      "note_off channel=9 note=44 velocity=127 time=70\n",
      "note_off channel=9 note=51 velocity=127 time=30\n",
      "note_on channel=9 note=51 velocity=127 time=335\n",
      "note_off channel=9 note=51 velocity=127 time=120\n",
      "note_on channel=9 note=38 velocity=127 time=330\n",
      "note_off channel=9 note=38 velocity=127 time=145\n",
      "note_on channel=9 note=51 velocity=127 time=165\n",
      "note_on channel=9 note=44 velocity=127 time=10\n",
      "note_off channel=9 note=44 velocity=127 time=135\n",
      "note_off channel=9 note=51 velocity=127 time=10\n",
      "note_on channel=9 note=44 velocity=124 time=320\n",
      "note_off channel=9 note=44 velocity=127 time=70\n",
      "note_on channel=9 note=51 velocity=127 time=90\n",
      "note_off channel=9 note=51 velocity=127 time=205\n",
      "note_on channel=9 note=51 velocity=127 time=305\n",
      "note_on channel=9 note=38 velocity=66 time=65\n",
      "note_off channel=9 note=51 velocity=127 time=70\n",
      "note_off channel=9 note=38 velocity=127 time=20\n",
      "note_on channel=9 note=39 velocity=127 time=170\n",
      "note_on channel=9 note=51 velocity=127 time=150\n",
      "note_off channel=9 note=39 velocity=127 time=5\n",
      "note_on channel=9 note=44 velocity=127 time=0\n",
      "note_on channel=9 note=38 velocity=124 time=30\n",
      "note_off channel=9 note=38 velocity=127 time=65\n",
      "note_off channel=9 note=51 velocity=127 time=30\n",
      "note_off channel=9 note=44 velocity=127 time=10\n",
      "note_on channel=9 note=51 velocity=127 time=350\n",
      "note_off channel=9 note=51 velocity=127 time=130\n",
      "note_on channel=9 note=51 velocity=127 time=350\n",
      "note_on channel=9 note=38 velocity=108 time=45\n",
      "note_off channel=9 note=51 velocity=127 time=90\n",
      "note_off channel=9 note=38 velocity=127 time=55\n",
      "note_on channel=9 note=39 velocity=127 time=140\n",
      "note_on channel=9 note=51 velocity=127 time=130\n",
      "note_on channel=9 note=44 velocity=127 time=5\n",
      "note_off channel=9 note=39 velocity=127 time=20\n",
      "note_on channel=9 note=38 velocity=96 time=55\n",
      "note_off channel=9 note=51 velocity=127 time=60\n",
      "note_off channel=9 note=44 velocity=127 time=0\n",
      "note_off channel=9 note=38 velocity=127 time=5\n",
      "note_on channel=9 note=51 velocity=127 time=350\n",
      "note_on channel=9 note=38 velocity=84 time=75\n",
      "note_off channel=9 note=51 velocity=127 time=50\n",
      "note_off channel=9 note=38 velocity=127 time=110\n",
      "note_on channel=9 note=39 velocity=127 time=130\n",
      "note_on channel=9 note=51 velocity=127 time=105\n",
      "note_off channel=9 note=39 velocity=127 time=20\n",
      "note_on channel=9 note=38 velocity=127 time=60\n",
      "note_off channel=9 note=51 velocity=127 time=35\n",
      "note_off channel=9 note=38 velocity=127 time=20\n",
      "note_on channel=9 note=44 velocity=127 time=330\n",
      "note_on channel=9 note=51 velocity=127 time=0\n",
      "note_on channel=9 note=39 velocity=127 time=70\n",
      "note_off channel=9 note=44 velocity=127 time=70\n",
      "note_off channel=9 note=51 velocity=127 time=10\n",
      "note_off channel=9 note=39 velocity=127 time=110\n",
      "note_on channel=9 note=39 velocity=127 time=120\n",
      "note_off channel=9 note=39 velocity=127 time=120\n",
      "note_on channel=9 note=51 velocity=127 time=5\n",
      "note_off channel=9 note=51 velocity=127 time=140\n",
      "note_on channel=9 note=51 velocity=127 time=340\n",
      "note_off channel=9 note=51 velocity=127 time=120\n",
      "note_on channel=9 note=38 velocity=127 time=315\n",
      "note_on channel=9 note=44 velocity=127 time=10\n",
      "note_on channel=9 note=51 velocity=127 time=5\n",
      "note_off channel=9 note=38 velocity=127 time=80\n",
      "note_off channel=9 note=51 velocity=127 time=35\n",
      "note_off channel=9 note=44 velocity=127 time=10\n",
      "note_on channel=9 note=51 velocity=127 time=340\n",
      "note_off channel=9 note=51 velocity=127 time=150\n",
      "note_on channel=9 note=51 velocity=127 time=315\n",
      "note_off channel=9 note=51 velocity=127 time=140\n",
      "note_on channel=9 note=51 velocity=127 time=360\n",
      "note_on channel=9 note=44 velocity=127 time=0\n",
      "note_on channel=9 note=38 velocity=127 time=5\n",
      "note_off channel=9 note=38 velocity=127 time=105\n",
      "note_off channel=9 note=44 velocity=127 time=40\n",
      "note_off channel=9 note=51 velocity=127 time=0\n",
      "note_on channel=9 note=51 velocity=127 time=315\n",
      "note_off channel=9 note=51 velocity=127 time=140\n",
      "note_on channel=9 note=51 velocity=108 time=355\n",
      "note_off channel=9 note=51 velocity=127 time=135\n",
      "note_on channel=9 note=38 velocity=127 time=335\n",
      "note_on channel=9 note=51 velocity=127 time=25\n",
      "note_on channel=9 note=44 velocity=127 time=5\n",
      "note_off channel=9 note=38 velocity=127 time=85\n",
      "note_off channel=9 note=51 velocity=127 time=40\n",
      "note_off channel=9 note=44 velocity=127 time=10\n",
      "note_on channel=9 note=51 velocity=127 time=340\n",
      "note_off channel=9 note=51 velocity=127 time=125\n",
      "note_on channel=9 note=51 velocity=127 time=370\n",
      "note_off channel=9 note=51 velocity=127 time=120\n",
      "note_on channel=9 note=38 velocity=127 time=335\n",
      "note_on channel=9 note=44 velocity=127 time=45\n",
      "note_on channel=9 note=51 velocity=127 time=5\n",
      "note_off channel=9 note=38 velocity=127 time=10\n",
      "note_off channel=9 note=51 velocity=127 time=115\n",
      "note_off channel=9 note=44 velocity=127 time=5\n",
      "note_on channel=9 note=51 velocity=127 time=390\n",
      "note_off channel=9 note=51 velocity=127 time=120\n",
      "note_on channel=9 note=38 velocity=118 time=770\n",
      "note_on channel=9 note=51 velocity=127 time=20\n",
      "note_on channel=9 note=44 velocity=127 time=15\n",
      "note_off channel=9 note=51 velocity=127 time=80\n",
      "note_off channel=9 note=44 velocity=127 time=25\n",
      "note_off channel=9 note=38 velocity=127 time=55\n",
      "note_on channel=9 note=38 velocity=127 time=165\n",
      "note_off channel=9 note=38 velocity=127 time=90\n",
      "note_on channel=9 note=51 velocity=127 time=65\n",
      "note_off channel=9 note=51 velocity=127 time=90\n",
      "note_on channel=9 note=51 velocity=127 time=800\n",
      "note_on channel=9 note=44 velocity=127 time=0\n",
      "note_off channel=9 note=51 velocity=127 time=110\n",
      "note_off channel=9 note=44 velocity=127 time=20\n",
      "note_on channel=9 note=51 velocity=127 time=390\n",
      "note_off channel=9 note=51 velocity=127 time=80\n",
      "note_on channel=9 note=38 velocity=114 time=440\n",
      "note_off channel=9 note=38 velocity=127 time=65\n",
      "note_on channel=9 note=51 velocity=127 time=345\n",
      "note_on channel=9 note=44 velocity=127 time=5\n",
      "note_on channel=9 note=38 velocity=96 time=65\n",
      "note_off channel=9 note=51 velocity=127 time=30\n",
      "note_off channel=9 note=44 velocity=127 time=20\n",
      "note_off channel=9 note=38 velocity=127 time=35\n",
      "note_on channel=9 note=51 velocity=127 time=340\n",
      "note_off channel=9 note=51 velocity=127 time=80\n",
      "note_on channel=9 note=38 velocity=118 time=420\n",
      "note_off channel=9 note=38 velocity=127 time=90\n",
      "note_on channel=9 note=44 velocity=127 time=365\n",
      "note_on channel=9 note=51 velocity=127 time=0\n",
      "note_on channel=9 note=38 velocity=102 time=25\n",
      "note_off channel=9 note=38 velocity=127 time=95\n",
      "note_off channel=9 note=51 velocity=127 time=10\n",
      "note_off channel=9 note=44 velocity=127 time=25\n",
      "note_on channel=9 note=51 velocity=127 time=345\n",
      "note_off channel=9 note=51 velocity=127 time=95\n",
      "note_on channel=9 note=38 velocity=84 time=1025\n",
      "note_off channel=9 note=38 velocity=127 time=50\n",
      "note_on channel=9 note=38 velocity=68 time=50\n",
      "note_off channel=9 note=38 velocity=127 time=50\n",
      "note_on channel=9 note=38 velocity=106 time=45\n",
      "note_off channel=9 note=38 velocity=127 time=45\n",
      "note_on channel=9 note=38 velocity=84 time=35\n",
      "note_off channel=9 note=38 velocity=127 time=45\n",
      "note_on channel=9 note=38 velocity=127 time=60\n",
      "note_off channel=9 note=38 velocity=127 time=145\n",
      "note_on channel=9 note=38 velocity=122 time=50\n",
      "note_off channel=9 note=38 velocity=127 time=65\n",
      "note_on channel=9 note=38 velocity=76 time=30\n",
      "note_off channel=9 note=38 velocity=127 time=55\n",
      "note_on channel=9 note=38 velocity=116 time=80\n",
      "note_off channel=9 note=38 velocity=127 time=55\n",
      "note_on channel=9 note=38 velocity=78 time=60\n",
      "note_off channel=9 note=38 velocity=127 time=50\n",
      "note_on channel=9 note=38 velocity=98 time=85\n",
      "note_off channel=9 note=38 velocity=127 time=55\n",
      "note_on channel=9 note=39 velocity=84 time=460\n",
      "note_off channel=9 note=39 velocity=127 time=85\n",
      "note_on channel=9 note=38 velocity=64 time=30\n",
      "note_off channel=9 note=38 velocity=127 time=60\n",
      "<meta message end_of_track time=0>\n",
      "Track 7: ***MJN***\n",
      "<meta message track_name name='***MJN***' time=0>\n",
      "<meta message midi_port port=0 time=0>\n",
      "<meta message end_of_track time=0>\n",
      "Track 8: MIDI Jazz Network\n",
      "<meta message track_name name='MIDI Jazz Network' time=0>\n",
      "<meta message midi_port port=0 time=0>\n",
      "<meta message end_of_track time=0>\n",
      "Track 9: ***ras***\n",
      "<meta message track_name name='***ras***' time=0>\n",
      "<meta message midi_port port=0 time=0>\n",
      "<meta message end_of_track time=0>\n"
     ]
    }
   ],
   "source": [
    "for i, track in enumerate(mid.tracks):\n",
    "    print('Track {}: {}'.format(i, track.name))\n",
    "    for msg in track:\n",
    "        print(msg)\n"
   ]
  },
  {
   "cell_type": "code",
   "execution_count": 4,
   "metadata": {},
   "outputs": [
    {
     "name": "stdout",
     "output_type": "stream",
     "text": [
      "[31, 40, 41, 40, 31, 40, 41, 40, 31, 40, 41, 40, 31, 40, 41, 40, 31, 40, 41, 40, 31, 40, 41, 40, 31, 40, 41, 40, 31, 40, 41, 40, 36, 45, 46, 45, 36, 45, 46, 45, 31, 40, 41, 40, 31, 40, 41, 40, 38, 47, 48, 38, 39, 38, 47, 48, 31, 40, 41, 40, 31, 40, 41, 40, 31, 40, 41, 40, 31, 40, 41, 40, 31, 40, 41, 40, 31, 40, 41, 40, 31, 40, 41, 40, 31, 40, 41, 40, 31, 40, 41, 40, 31, 40, 41, 40, 36, 45, 46, 45, 36, 45, 46, 45, 31, 40, 41, 40, 31, 40, 41, 40, 38, 47, 48, 38, 39, 38, 47, 48, 31, 40, 41, 40, 31, 40, 41, 40, 31, 40, 41, 40, 31, 40, 41, 40, 31, 40, 41, 40, 31, 40, 41, 40, 36, 45, 46, 45, 36, 45, 46, 45, 31, 40, 41, 40, 31, 40, 41, 40, 38, 47, 48, 45, 39, 46, 51, 38, 45, 50, 31, 40, 41, 40, 31, 40, 41, 40, 31, 40, 41, 40, 31, 40, 41, 40, 31, 40, 41, 40, 31, 40, 41, 40, 31, 40, 41, 40, 31, 40, 41, 40, 31, 40, 41, 40, 31, 40, 41, 40, 36, 45, 46, 45, 36, 45, 46, 45, 31, 40, 41, 40, 31, 40, 41, 40, 38, 47, 48, 38, 39, 38, 47, 48, 31, 40, 41, 40, 31, 40, 41, 40, 31, 40, 41, 40, 31, 40, 41, 40, 31, 40, 41, 40, 31, 40, 41, 40, 36, 45, 46, 45, 36, 45, 46, 45, 31, 40, 41, 40, 31, 40, 41, 40, 38, 47, 48, 38, 39, 38, 47, 48, 31, 40, 41, 40, 31, 40, 41, 40, 31, 40, 41, 40, 31, 40, 41, 40, 31, 40, 41, 40, 31, 40, 41, 40, 31, 40, 41, 40, 31, 40, 41, 40, 31, 40, 41, 40, 31, 40, 41, 40, 36, 45, 46, 45, 36, 45, 46, 45, 31, 40, 41, 40, 31, 40, 41, 40, 38, 47, 48, 38, 39, 38, 47, 48, 31, 40, 41, 40, 31, 40, 41, 40, 31, 40, 41, 40, 31, 40, 41, 40, 31, 40, 41, 40, 31, 40, 41, 40, 31]\n"
     ]
    }
   ],
   "source": [
    "mid.tracks[1][1]\n",
    "notes = []\n",
    "for msg in mid.tracks[2]:\n",
    "    if msg.type==\"note_on\":\n",
    "        notes.append(msg.note)\n",
    "print(notes)"
   ]
  },
  {
   "cell_type": "code",
   "execution_count": 5,
   "metadata": {},
   "outputs": [
    {
     "name": "stdout",
     "output_type": "stream",
     "text": [
      "[-475, 950, -10, 450, -30, 925, -35, 455, -25, 940, -20, 435, -45, 940, -20, 420, -60, 910, -50, 465, -15, 935, -25, 455, -25, 910, -50, 435, -45, 910, -50, 440, -40, 950, -10, 445, -35, 940, -20, 445, -35, -960, 5, 405, -70, 940, -20, 425, -55, 940, -20, 435, -45, 930, -30, 450, -30, 950, -10, 430, -50, 950, -10, 425, -55, 920, -40, 480, 0, 925, -35, 460, -20, 960, 0, 440, -40, -960, 25, 375, -80, 915, -45, 435, -45, -960, 20, 405, -55, -960, 10, 430, -40, 920, -40, 400, -80, 415, -65, 410, -70, -480, 30, -1410, 10, 1275, -155, -480, 25, 415, -40, 430, -50, -960, 25, 420, -35, 920, -40, 435, -45, -960, 75, 355, -50, 955, -5, 455, -25, 905, -55, -480, 5, -955, 40, 415, -25, 950, -10, 440, -40, 950, -10, 435, -45, 930, -30, 475, -5, 935, -25, 455, -25, 955, -5, 430, -50, 925, -35, 450, -30, -960, 25, 410, -45, 865, -95, -480, 5, -955, 30, 400, -50, 920, -40, 480, 0, 890, -70, 410, -70, 960, 0, 435, -45, 930, -30, 455, -25, 940, -20, 435, -45, 960, 0, 425, -55, 950, -10, 450, -30, 930, -30, 460, -20, -960, 10, 440, -30, 935, -25, 435, -45, -960, 40, 390, -50, 935, -25, 455, -25, 945, -15, 375, -105, 925, -35, 425, -55, 885, -75, 480, 0, 1405, -35, -480, 20, 430, -30, 460, -20, 900, -60, 465, -15, 955, -5, 460, -20, -960, 25, 430, -25, 925, -35, 440, -40, 940, -20, 470, -10, -960, 25, 410, -45, 935, -25, -480, 15, 910, -35, 460, -20, 920, -40, 465, -15, 945, -15, 440, -40, 950, -10, 440, -40, 925, -35, 445, -35, 945, -15, -480, 10, -950, 50, 340, -90, 930, -30, 445, -35, -960, 60, 340, -80, 935, -25, 425, -55, -960, 15, 380, -85, 945, -15, 455, -25, 940, -20, 385, -95, 910, -50, 430, -50, -960, 30, 395, -55, -480, 25, 420, -35, 430, -50, -480, 30, 395, -55, 455, -25, 945, -15, -480, 35, 865, -60, 435, -45, 945, -15, 460, -20, 935, -25, -480, 10, 905, -45, -480, 35, 920, -5, 460, -20, 925, -35, 465, -15, 945, -15, 435, -45, 930, -30, 440, -40, 925, -35, -480, 10, 905, -45, 475, -5, 950, -10, 450, -30, 940, -20, 440, -40, 950, -10, 430, -50, -960, 15, 440, -25, 960, 0, 430, -50, 935, -25, 450, -30, 920, -40, 465, -15, -960, 25, 395, -60, 925, -35, -480, 10, 930, -20, 470, -10, -960, 30, 430, -20, 925, -35, -480, 15, -945, 10, 455, -15, 925, -35, -475, 5, -955, 5, 455, -20, 920, -40, 455, -25, -960, 15, 415, -50, 910, -50, 430, -50, -960, 50, -430, 20, -1420, 15, 455, -10, 420, -60, 420, -60, 950, -10, 455, -25, 925, -35, 445, -35, 955, -5, 445, -35, 955, -5, 445, -35, 945, -15, 455, -25, 955, -5, 455, -25, 940, -20, 460, -20, -960, 20, 410, -50, 955, -5, 450, -30, 920, -40, 480, 0, 950, -10, 420, -60, 925, -35, 415, -65, 945, -15, 475, -5, -960, 35, 420, -25, 945, -15, -480, 5, -955, 30, 370, -80, -960, 55, 395, -30, -960, 5, 445, -30, 920, -40, 450, -30, 920, -40, 435, -45, 940, -20, 425, -55, 910, -50, 455, -25, 1370, -70, 480, 0, 445, -35, 480, 0, 960, 0, 475, -5, 950, -10, 450, -30, 960, 0, 460, -20, -960, 10, 450, -20, -960, 55, 355, -70, 900, -60, 460, -20, -960, 45, 380, -55, 955, -5, 440, -40, 935, -25, 455, -25, 960, 0, 460, -20, 930, -30, 475, -5, 945, -15, 450, -30, 940, -20, 425, -55, 940, -20, 420, -60, 955, -5, 420, -60, 925, -35, -480, 15, -945, 20, 395, -65, 950, -10, -480, 15, -945, 5, 445, -30, 915, -45, 425, -55, 925, -35, 450, -30, 960, 0, -480, 15, 910, -35, 475, -5, 950, -10, 450, -30, 930, -30, 445, -35, 940, -20, -480, 5, 940, -15, 450, -30, 955, -5, 425, -55, 910, -50, 475, -5, 875, -85, 435, -45, 1385, -55, 465, -15, 475, -5, 455, -25, 915, -45, 460, -20, -960, 30, 400, -50, -960, 20, 420, -40, -960, 15, 430, -35, 915, -45, 465, -15, 920, -40, 455, -25, -960, 25, 425, -30, -960, 30, 425, -25, 900, -60, 480, 0, -960, 5, 475, 0, 850, -110, -480, 5, 930, -25, -480, 15, 2820]\n"
     ]
    }
   ],
   "source": [
    "rests = []\n",
    "rhythms = []\n",
    "for msg in mid.tracks[2]:\n",
    "    if msg.type==\"note_on\":\n",
    "        rest = msg.time * -1\n",
    "        rhythms.append(rest)\n",
    "    if msg.type==\"note_off\":\n",
    "        noteLength = msg.time\n",
    "        rhythms.append(noteLength)\n",
    "\n",
    "print(rhythms) # list of rhythms in ticks. Negative values are rests (no sound)"
   ]
  },
  {
   "cell_type": "code",
   "execution_count": null,
   "metadata": {},
   "outputs": [],
   "source": []
  }
 ],
 "metadata": {
  "kernelspec": {
   "display_name": "Python 3",
   "language": "python",
   "name": "python3"
  },
  "language_info": {
   "codemirror_mode": {
    "name": "ipython",
    "version": 3
   },
   "file_extension": ".py",
   "mimetype": "text/x-python",
   "name": "python",
   "nbconvert_exporter": "python",
   "pygments_lexer": "ipython3",
   "version": "3.6.3"
  }
 },
 "nbformat": 4,
 "nbformat_minor": 2
}
